<svg xmlns="http://www.w3.org/2000/svg" viewBox="0 0 6000 4000"><filter id="b"><feGaussianBlur stdDeviation="12" /></filter><path d="M0 0h6e3v4e3H0z" fill="#474747" /><g filter="url(#b)" transform="scale(23.437500) translate(0.5 0.5)"><path fill="#cbcbcb" fill-opacity=".501961" d="M271 3-4-16-7 93z" /><ellipse fill="#ebebeb" fill-opacity=".501961" cx="22" cy="137" rx="26" ry="63" /><g transform="translate(182.793508 111.547458) rotate(161.573459) scale(142.754884 75.214554)"><ellipse fill="#000" fill-opacity=".501961" cx="0" cy="0" rx="1" ry="1" /></g><path d="M0 0h6e3v4e3H0z" fill="#9a9a9a" /><path d="M0 0h6e3v4e3H0z" fill="#0c0c0c" /><g transform="translate(16.725977 23.643286) rotate(286.902966) scale(87.859861 58.148230)"><ellipse fill="#787878" fill-opacity=".501961" cx="0" cy="0" rx="1" ry="1" /></g><path fill="#a8a8a8" fill-opacity=".501961" d="M93 60l98-76L271 4z" /><g transform="translate(225.376200 34.173833) rotate(152.760617) scale(60.795174 9.359127)"><ellipse fill="#000" fill-opacity=".501961" cx="0" cy="0" rx="1" ry="1" /></g></g></svg>