<svg xmlns="http://www.w3.org/2000/svg" viewBox="0 0 6000 4000"><filter id="b"><feGaussianBlur stdDeviation="12" /></filter><path d="M0 0h6e3v4e3H0z" fill="#1e2120" /><g filter="url(#b)" transform="scale(23.437500) translate(0.5 0.5)"><g transform="translate(127.429443 67.986918) rotate(366.911176) scale(88.494602 30.739170)"><ellipse fill="#9ea19c" fill-opacity=".501961" cx="0" cy="0" rx="1" ry="1" /></g><g transform="translate(140.910962 150.822433) rotate(186.134219) scale(225.679436 52.714495)"><ellipse fill="#000" fill-opacity=".501961" cx="0" cy="0" rx="1" ry="1" /></g><g transform="translate(50.836040 118.224688) rotate(131.866636) scale(30.697531 208.791125)"><ellipse fill="#000" fill-opacity=".501961" cx="0" cy="0" rx="1" ry="1" /></g><path fill="#424b4a" fill-opacity=".501961" d="M-16 34 271 87 145 7z" /><g transform="translate(176.224229 139.315364) rotate(347.779356) scale(250.215430 36.121745)"><ellipse fill="#000" fill-opacity=".501961" cx="0" cy="0" rx="1" ry="1" /></g><path d="M0 0h6e3v4e3H0z" fill="#84847e" /><ellipse fill="#9e9884" fill-opacity=".501961" cx="169" cy="96" rx="22" ry="8" /><path fill="#000" fill-opacity=".501961" d="M137.945671 93.745488 271 177.023411-16 140.292248 116.872089 93.474946z" /></g></svg>