<svg xmlns="http://www.w3.org/2000/svg" viewBox="0 0 6000 4000"><filter id="b"><feGaussianBlur stdDeviation="12" /></filter><path d="M0 0h6e3v4e3H0z" fill="#746b5d" /><g filter="url(#b)" transform="scale(23.437500) translate(0.5 0.5)"><path fill="#fff" fill-opacity=".501961" d="M119-16 266 1 126 158z" /><g transform="translate(39.219323 114.305238) rotate(154.397280) scale(60.593828 252.603697)"><ellipse fill="#000" fill-opacity=".501961" cx="0" cy="0" rx="1" ry="1" /></g><g transform="translate(204.329041 102.998961) rotate(359.915464) scale(38.876321 28.609980)"><ellipse fill="#000203" fill-opacity=".501961" cx="0" cy="0" rx="1" ry="1" /></g><ellipse fill="#fff" fill-opacity=".501961" cx="147" cy="58" rx="22" ry="97" /><path d="M0 0h6e3v4e3H0z" fill="#ffffea" /><path fill="#e0e3ea" fill-opacity=".501961" d="M211 71 99-16 271 41z" /><g transform="translate(46.673818 84.925069) rotate(186.736055) scale(17.360029 121.545174)"><ellipse fill="#000" fill-opacity=".501961" cx="0" cy="0" rx="1" ry="1" /></g><g transform="translate(232 127) rotate(-93) scale(127 18)"><path d="M0 0h6e3v4e3H0z" fill="#000" /></g></g></svg>