<svg xmlns="http://www.w3.org/2000/svg" viewBox="0 0 6000 4000"><filter id="b"><feGaussianBlur stdDeviation="12" /></filter><path d="M0 0h6e3v4e3H0z" fill="#919089" /><g filter="url(#b)" transform="scale(23.437500) translate(0.5 0.5)"><ellipse fill="#000" fill-opacity=".501961" cx="23" cy="161" rx="110" ry="110" /><path fill="#fff" fill-opacity=".501961" d="M271-1 190 107-16 0z" /><g transform="translate(90.594453 99.273782) rotate(194.449706) scale(24.962506 45.899013)"><ellipse fill="#000" fill-opacity=".501961" cx="0" cy="0" rx="1" ry="1" /></g><g transform="translate(155.568420 12.348612) rotate(273.158044) scale(32.251146 119.040402)"><ellipse fill="#ffffe6" fill-opacity=".501961" cx="0" cy="0" rx="1" ry="1" /></g><g transform="translate(36.010585 93.243241) rotate(338.466017) scale(35.768717 22.714295)"><ellipse fill="#a2b0b2" fill-opacity=".501961" cx="0" cy="0" rx="1" ry="1" /></g><ellipse fill="#272a27" fill-opacity=".501961" cx="164" cy="163" rx="254" ry="17" /><g transform="translate(147.726095 93.531693) rotate(292.916083) scale(70.741312 27.786402)"><ellipse fill="#d1c4af" fill-opacity=".501961" cx="0" cy="0" rx="1" ry="1" /></g><g transform="translate(45.740717 36.114214) rotate(12.368213) scale(46.433451 22.959299)"><ellipse fill="#c5ccd4" fill-opacity=".501961" cx="0" cy="0" rx="1" ry="1" /></g></g></svg>