<svg xmlns="http://www.w3.org/2000/svg" viewBox="0 0 6000 4000"><filter id="b"><feGaussianBlur stdDeviation="12" /></filter><path d="M0 0h6e3v4e3H0z" fill="#646151" /><g filter="url(#b)" transform="scale(23.437500) translate(0.5 0.5)"><g transform="translate(138.790310 21.733295) rotate(272.874952) scale(72.039848 57.997284)"><ellipse fill="#fff" fill-opacity=".501961" cx="0" cy="0" rx="1" ry="1" /></g><g transform="translate(51 63) rotate(160) scale(59 169)"><path d="M0 0h6e3v4e3H0z" fill="#000" /></g><g transform="translate(11.336323 77.189578) rotate(176.331778) scale(19.109160 29.995097)"><ellipse fill="#ffffea" fill-opacity=".501961" cx="0" cy="0" rx="1" ry="1" /></g><ellipse fill="#261900" fill-opacity=".501961" cx="231" cy="127" rx="85" ry="44" /><ellipse fill="#000" fill-opacity=".501961" cx="33" cy="12" rx="42" ry="42" /><path d="M0 0h6e3v4e3H0z" fill="#000" /><ellipse fill="#f8efda" fill-opacity=".501961" cx="140" cy="12" rx="55" ry="45" /><ellipse fill="#686d66" fill-opacity=".501961" cx="122" cy="81" rx="63" ry="28" /></g></svg>