<svg xmlns="http://www.w3.org/2000/svg" viewBox="0 0 6000 4000"><filter id="b"><feGaussianBlur stdDeviation="12" /></filter><path d="M0 0h6e3v4e3H0z" fill="#838383" /><g filter="url(#b)" transform="scale(23.437500) translate(0.5 0.5)"><g transform="translate(73.850094 134.883808) rotate(174.413807) scale(96.243037 36.129304)"><ellipse fill="#f1f1f1" fill-opacity=".501961" cx="0" cy="0" rx="1" ry="1" /></g><g transform="translate(168.498655 31.609222) rotate(100.856395) scale(49.832753 255.000000)"><ellipse fill="#4d4d4d" fill-opacity=".501961" cx="0" cy="0" rx="1" ry="1" /></g><g transform="translate(104.028684 81.435198) rotate(-9.582443) scale(75.945985 36.411790)"><ellipse fill="#979797" fill-opacity=".501961" cx="0" cy="0" rx="1" ry="1" /></g><g transform="translate(38.509535 149.996848) rotate(122.772197) scale(22.305984 24.125309)"><ellipse fill="#f7f7f7" fill-opacity=".501961" cx="0" cy="0" rx="1" ry="1" /></g><g transform="translate(230 149) rotate(213) scale(64 160)"><path d="M0 0h6e3v4e3H0z" fill="#5c5c5c" /></g><g transform="translate(173.982978 0.000000) rotate(84.685677) scale(22.853687 64.670160)"><ellipse fill="#404040" fill-opacity=".501961" cx="0" cy="0" rx="1" ry="1" /></g><g transform="translate(14.979128 29.714334) rotate(241.181120) scale(38.042684 41.234496)"><ellipse fill="#535353" fill-opacity=".501961" cx="0" cy="0" rx="1" ry="1" /></g><path fill="#a2a2a2" fill-opacity=".501961" d="M78 185l104-39-10-58z" /></g></svg>