<svg xmlns="http://www.w3.org/2000/svg" viewBox="0 0 6000 4000"><filter id="b"><feGaussianBlur stdDeviation="12" /></filter><path d="M0 0h6e3v4e3H0z" fill="#2f3c45" /><g filter="url(#b)" transform="scale(23.437500) translate(0.5 0.5)"><g transform="translate(132.351528 119.113982) rotate(238.820753) scale(52.638942 65.499177)"><ellipse fill="#dfca9c" fill-opacity=".501961" cx="0" cy="0" rx="1" ry="1" /></g><g transform="translate(22.595922 70.780515) rotate(98.592672) scale(214.304042 36.462244)"><ellipse fill="#000" fill-opacity=".501961" cx="0" cy="0" rx="1" ry="1" /></g><g transform="translate(221.409499 153.705206) rotate(243.024015) scale(25.666138 122.056659)"><ellipse fill="#000" fill-opacity=".501961" cx="0" cy="0" rx="1" ry="1" /></g><g transform="translate(205.878961 113.806484) rotate(239.203542) scale(16.741704 67.167937)"><ellipse fill="#93afc4" fill-opacity=".501961" cx="0" cy="0" rx="1" ry="1" /></g><ellipse fill="#00185a" fill-opacity=".501961" cx="203" cy="35" rx="62" ry="62" /><g transform="translate(64 160) rotate(159) scale(29 26)"><path d="M0 0h6e3v4e3H0z" fill="#eddbaa" /></g><ellipse fill="#000" fill-opacity=".501961" cx="137" cy="140" rx="14" ry="14" /><g transform="translate(22.664232 60.715428) rotate(-86.433567) scale(186.158415 29.310213)"><ellipse fill="#000" fill-opacity=".501961" cx="0" cy="0" rx="1" ry="1" /></g></g></svg>