<svg xmlns="http://www.w3.org/2000/svg" viewBox="0 0 6048 4011"><filter id="b"><feGaussianBlur stdDeviation="12" /></filter><path d="M0 0h6048v4011H0z" fill="#526257" /><g filter="url(#b)" transform="scale(23.625000) translate(0.5 0.5)"><ellipse fill="#fff" fill-opacity=".501961" cx="109" cy="168" rx="39" ry="59" /><g transform="translate(228.222290 87.681711) rotate(-1.351154) scale(45.510651 187.174684)"><ellipse fill="#000" fill-opacity=".501961" cx="0" cy="0" rx="1" ry="1" /></g><g transform="translate(68.686128 56.847298) rotate(-12.592001) scale(75.497496 50.090238)"><ellipse fill="#a5a395" fill-opacity=".501961" cx="0" cy="0" rx="1" ry="1" /></g><g transform="translate(74.664306 79.234793) rotate(-32.244298) scale(25.858122 10.214741)"><ellipse fill="#000" fill-opacity=".501961" cx="0" cy="0" rx="1" ry="1" /></g><path fill="#000" fill-opacity=".501961" d="M36 184 96 97 55 110z" /><g transform="translate(166 147) rotate(274) scale(48 10)"><path d="M0 0h6048v4011H0z" fill="#fff" /></g><path fill="#fff9ec" fill-opacity=".501961" d="M112.44935 87.722488 102.504517 138.493004 89.194202 133.489748 98.438023 66.140282z" /><g transform="translate(105 27) rotate(188) scale(69 28)"><path d="M0 0h6048v4011H0z" fill="#ecc2ad" /></g></g></svg>