<svg xmlns="http://www.w3.org/2000/svg" viewBox="0 0 6048 4011"><filter id="b"><feGaussianBlur stdDeviation="12" /></filter><path d="M0 0h6048v4011H0z" fill="#425c4e" /><g filter="url(#b)" transform="scale(23.625000) translate(0.5 0.5)"><g transform="translate(69.869090 151.201003) rotate(366.726826) scale(150.852879 27.319326)"><ellipse fill="#fff" fill-opacity=".501961" cx="0" cy="0" rx="1" ry="1" /></g><ellipse fill="#000500" fill-opacity=".501961" cx="230" cy="63" rx="93" ry="93" /><g transform="translate(63.599806 151.257746) rotate(95.846071) scale(23.166071 150.183477)"><ellipse fill="#fff" fill-opacity=".501961" cx="0" cy="0" rx="1" ry="1" /></g><g transform="translate(89.299056 35.632522) rotate(289.271964) scale(83.117050 33.719946)"><ellipse fill="#001604" fill-opacity=".501961" cx="0" cy="0" rx="1" ry="1" /></g><g transform="translate(126 71) rotate(291) scale(35 26)"><path d="M0 0h6048v4011H0z" fill="#f1d4b7" /></g><path fill="#002511" fill-opacity=".501961" d="M113 128l158 32L195-16z" /><g transform="translate(24 33) rotate(310) scale(28 46)"><path d="M0 0h6048v4011H0z" fill="#b1b9b1" /></g><g transform="translate(0.000000 68.788940) rotate(227.794068) scale(40.245920 26.107127)"><ellipse fill="#001500" fill-opacity=".501961" cx="0" cy="0" rx="1" ry="1" /></g></g></svg>