<svg xmlns="http://www.w3.org/2000/svg" viewBox="0 0 6048 4011"><filter id="b"><feGaussianBlur stdDeviation="12" /></filter><path d="M0 0h6048v4011H0z" fill="#415447" /><g filter="url(#b)" transform="scale(23.625000) translate(0.5 0.5)"><g transform="translate(228.742847 13.153232) rotate(72.293262) scale(23.045291 58.855828)"><ellipse fill="#fffdf5" fill-opacity=".501961" cx="0" cy="0" rx="1" ry="1" /></g><path fill="#e7e2e1" fill-opacity=".501961" d="M202 97l37 87L251 68z" /><path fill="#ffe9d9" fill-opacity=".501961" d="M163 66l42 32-41 25z" /><ellipse fill="#1c2e1c" fill-opacity=".501961" cx="60" cy="121" rx="98" ry="98" /><g transform="translate(245.313845 60.010525) rotate(3.412185) scale(4.976131 27.961114)"><ellipse fill="#fff" fill-opacity=".501961" cx="0" cy="0" rx="1" ry="1" /></g><g transform="translate(140.735165 32.378523) rotate(262.091790) scale(57.832027 25.482151)"><ellipse fill="#001c0b" fill-opacity=".501961" cx="0" cy="0" rx="1" ry="1" /></g><g transform="translate(199 132) rotate(1) scale(34 55)"><path d="M0 0h6048v4011H0z" fill="#000b03" /></g><path fill="#fffffb" fill-opacity=".501961" d="M167 77l1-46 14-3z" /></g></svg>