<svg xmlns="http://www.w3.org/2000/svg" viewBox="0 0 3091 2048"><filter id="b"><feGaussianBlur stdDeviation="12" /></filter><path d="M0 0h3091v2048H0z" fill="#818181" /><g filter="url(#b)" transform="scale(12.074219) translate(0.5 0.5)"><ellipse fill="#fcfcfc" fill-opacity=".501961" cx="118" cy="36" rx="98" ry="49" /><g transform="translate(239.846972 111.527524) rotate(1.144231) scale(27.029192 103.722460)"><ellipse fill="#000" fill-opacity=".501961" cx="0" cy="0" rx="1" ry="1" /></g><g transform="translate(27.395905 131.568166) rotate(89.533264) scale(21.580097 100.142788)"><ellipse fill="#0a0a0a" fill-opacity=".501961" cx="0" cy="0" rx="1" ry="1" /></g><g transform="translate(187.033271 108.353892) rotate(-8.358997) scale(65.825274 18.906956)"><ellipse fill="#1d1d1d" fill-opacity=".501961" cx="0" cy="0" rx="1" ry="1" /></g><path d="M0 0h3091v2048H0z" fill="#d1d1d1" /><path fill="#3a3a3a" fill-opacity=".501961" d="M12.635026 115.657013 6.752903 86.92112 123.620797 84.600697-16 165.768022z" /><g transform="translate(58.120913 99.236338) rotate(352.853550) scale(3.923685 53.519861)"><ellipse fill="#ccc" fill-opacity=".501961" cx="0" cy="0" rx="1" ry="1" /></g><path d="M0 0h3091v2048H0z" fill="#1a1a1a" /></g></svg>