<svg xmlns="http://www.w3.org/2000/svg" viewBox="0 0 3091 2048"><filter id="b"><feGaussianBlur stdDeviation="12" /></filter><path d="M0 0h3091v2048H0z" fill="#535353" /><g filter="url(#b)" transform="scale(12.074219) translate(0.5 0.5)"><ellipse fill="#000" fill-opacity=".501961" cx="214" cy="27" rx="70" ry="70" /><g transform="translate(183.024495 117.081514) rotate(172.428303) scale(144.380367 12.343314)"><ellipse fill="#ececec" fill-opacity=".501961" cx="0" cy="0" rx="1" ry="1" /></g><g transform="translate(114 0) rotate(239) scale(42 63)"><path d="M0 0h3091v2048H0z" fill="#fff" /></g><g transform="translate(139.864589 49.066723) rotate(66.796928) scale(24.704776 161.529564)"><ellipse fill="#000" fill-opacity=".501961" cx="0" cy="0" rx="1" ry="1" /></g><ellipse fill="#d6d6d6" fill-opacity=".501961" cx="110" cy="165" rx="75" ry="8" /><ellipse fill="#ddd" fill-opacity=".501961" cx="63" cy="14" rx="11" ry="42" /><g transform="translate(207.018075 64.143398) rotate(164.494729) scale(51.454736 6.412193)"><ellipse fill="#bfbfbf" fill-opacity=".501961" cx="0" cy="0" rx="1" ry="1" /></g><g transform="translate(72.016422 125.670261) rotate(18.982460) scale(33.625201 22.190583)"><ellipse fill="#b0b0b0" fill-opacity=".501961" cx="0" cy="0" rx="1" ry="1" /></g></g></svg>