<svg xmlns="http://www.w3.org/2000/svg" viewBox="0 0 3091 2048"><filter id="b"><feGaussianBlur stdDeviation="12" /></filter><path d="M0 0h3091v2048H0z" fill="#909090" /><g filter="url(#b)" transform="scale(12.074219) translate(0.5 0.5)"><g transform="translate(131.083190 166.518063) rotate(-7.752243) scale(225.660646 51.261850)"><ellipse fill="#000" fill-opacity=".501961" cx="0" cy="0" rx="1" ry="1" /></g><ellipse fill="#fff" fill-opacity=".501961" cx="119" cy="19" rx="255" ry="35" /><ellipse fill="#000" fill-opacity=".501961" cx="179" cy="67" rx="248" ry="7" /><g transform="translate(255.000000 143.246849) rotate(-0.603138) scale(29.320131 70.883197)"><ellipse fill="#000" fill-opacity=".501961" cx="0" cy="0" rx="1" ry="1" /></g><g transform="translate(90.478511 86.052999) rotate(89.111780) scale(13.388192 155.327615)"><ellipse fill="#ededed" fill-opacity=".501961" cx="0" cy="0" rx="1" ry="1" /></g><g transform="translate(80.468585 20.864905) rotate(266.768352) scale(30.986755 210.483738)"><ellipse fill="#fff" fill-opacity=".501961" cx="0" cy="0" rx="1" ry="1" /></g><path fill="#000" fill-opacity=".501961" d="M271 184 173 86l32 98z" /><ellipse fill="#757575" fill-opacity=".501961" cx="96" cy="129" rx="102" ry="15" /></g></svg>