<svg xmlns="http://www.w3.org/2000/svg" viewBox="0 0 3091 2048"><filter id="b"><feGaussianBlur stdDeviation="12" /></filter><path d="M0 0h3091v2048H0z" fill="#726050" /><g filter="url(#b)" transform="scale(12.074219) translate(0.5 0.5)"><g transform="translate(25.692354 110.545106) rotate(55.393941) scale(59.076673 63.541645)"><ellipse fill="#090a1d" fill-opacity=".501961" cx="0" cy="0" rx="1" ry="1" /></g><g transform="translate(113.600635 112.280317) rotate(96.179104) scale(18.762949 85.369403)"><ellipse fill="#c1c9cd" fill-opacity=".501961" cx="0" cy="0" rx="1" ry="1" /></g><g transform="translate(235.943081 76.678685) rotate(197.413469) scale(12.433506 46.011840)"><ellipse fill="#eef6f3" fill-opacity=".501961" cx="0" cy="0" rx="1" ry="1" /></g><g transform="translate(142.130710 22.651357) rotate(176.761265) scale(78.582463 29.864019)"><ellipse fill="#c9ab74" fill-opacity=".501961" cx="0" cy="0" rx="1" ry="1" /></g><path fill="#fffaf6" fill-opacity=".501961" d="M126 106 99 183 97 81z" /><ellipse fill="#000010" fill-opacity=".501961" cx="238" cy="146" rx="26" ry="29" /><path fill="#060000" fill-opacity=".501961" d="M184 62 79 59 63 99z" /><path d="M0 0h3091v2048H0z" fill="#980000" /></g></svg>