<svg xmlns="http://www.w3.org/2000/svg" viewBox="0 0 1544 1024"><filter id="b"><feGaussianBlur stdDeviation="12" /></filter><path d="M0 0h1544v1024H0z" fill="#59615e" /><g filter="url(#b)" transform="scale(6.031250) translate(0.5 0.5)"><path fill="#fff" fill-opacity=".501961" d="M271 36 58 116 238-16z" /><g transform="translate(230.354379 124.994891) rotate(200.170868) scale(42.407853 81.153113)"><ellipse fill="#000" fill-opacity=".501961" cx="0" cy="0" rx="1" ry="1" /></g><g transform="translate(20.811134 37.206409) rotate(13.765739) scale(64.039282 36.295359)"><ellipse fill="#000" fill-opacity=".501961" cx="0" cy="0" rx="1" ry="1" /></g><g transform="translate(90.759974 2.851850) rotate(237.465782) scale(55.223370 19.736185)"><ellipse fill="#d4f8fc" fill-opacity=".501961" cx="0" cy="0" rx="1" ry="1" /></g><g transform="translate(85.451392 88.382552) rotate(259.338080) scale(16.683743 60.278280)"><ellipse fill="#cfd8d4" fill-opacity=".501961" cx="0" cy="0" rx="1" ry="1" /></g><g transform="translate(0.000000 143.928606) rotate(79.277838) scale(187.421533 28.773992)"><ellipse fill="#000" fill-opacity=".501961" cx="0" cy="0" rx="1" ry="1" /></g><path d="M0 0h1544v1024H0z" fill="#000" /><ellipse fill="#b5bcbc" fill-opacity=".501961" cx="81" cy="168" rx="39" ry="32" /></g></svg>