<svg xmlns="http://www.w3.org/2000/svg" viewBox="0 0 3091 2048"><filter id="b"><feGaussianBlur stdDeviation="12" /></filter><path d="M0 0h3091v2048H0z" fill="#646464" /><g filter="url(#b)" transform="scale(12.074219) translate(0.5 0.5)"><g transform="translate(158.185100 127.780513) rotate(262.712769) scale(100.825353 57.100504)"><ellipse fill="#e3e3e3" fill-opacity=".501961" cx="0" cy="0" rx="1" ry="1" /></g><g transform="translate(17.295086 98.498501) rotate(241.908585) scale(197.601477 50.015824)"><ellipse fill="#000" fill-opacity=".501961" cx="0" cy="0" rx="1" ry="1" /></g><g transform="translate(234.013140 18.498715) rotate(343.877092) scale(72.134752 29.445331)"><ellipse fill="#060606" fill-opacity=".501961" cx="0" cy="0" rx="1" ry="1" /></g><g transform="translate(220.978661 77.977222) rotate(8.963593) scale(44.748174 14.453560)"><ellipse fill="#ddd" fill-opacity=".501961" cx="0" cy="0" rx="1" ry="1" /></g><g transform="translate(33.549241 127.245625) rotate(105.596608) scale(17.170628 14.386434)"><ellipse fill="#dcdcdc" fill-opacity=".501961" cx="0" cy="0" rx="1" ry="1" /></g><g transform="translate(146.802883 86.393341) rotate(17.656923) scale(19.604226 40.520780)"><ellipse fill="#4b4b4b" fill-opacity=".501961" cx="0" cy="0" rx="1" ry="1" /></g><g transform="translate(69.614789 10.632597) rotate(184.987386) scale(98.364284 14.136147)"><ellipse fill="#1a1a1a" fill-opacity=".501961" cx="0" cy="0" rx="1" ry="1" /></g><g transform="translate(242.995713 141.310210) rotate(-116.268900) scale(39.826191 20.096821)"><ellipse fill="#0a0a0a" fill-opacity=".501961" cx="0" cy="0" rx="1" ry="1" /></g></g></svg>