<svg xmlns="http://www.w3.org/2000/svg" viewBox="0 0 1544 1024"><filter id="b"><feGaussianBlur stdDeviation="12" /></filter><path d="M0 0h1544v1024H0z" fill="#5d5c59" /><g filter="url(#b)" transform="scale(6.031250) translate(0.5 0.5)"><g transform="translate(172.866294 65.828230) rotate(117.417597) scale(22.878951 83.953334)"><ellipse fill="#fae5ff" fill-opacity=".501961" cx="0" cy="0" rx="1" ry="1" /></g><g transform="translate(165.512481 142.276307) rotate(276.678681) scale(32.134129 99.845092)"><ellipse fill="#000600" fill-opacity=".501961" cx="0" cy="0" rx="1" ry="1" /></g><path fill="#000700" fill-opacity=".501961" d="M75 92-16 75-7 184z" /><path d="M0 0h1544v1024H0z" fill="#a2a4b2" /><path fill="#f6e4ff" fill-opacity=".501961" d="M167 145l32-84-54-18z" /><g transform="translate(130.788668 107.901835) rotate(280.363115) scale(47.893018 19.156208)"><ellipse fill="#000f00" fill-opacity=".501961" cx="0" cy="0" rx="1" ry="1" /></g><g transform="translate(60.585175 168.000000) rotate(135.349089) scale(23.278538 37.581404)"><ellipse fill="#c8b3c2" fill-opacity=".501961" cx="0" cy="0" rx="1" ry="1" /></g><ellipse fill="#000f00" fill-opacity=".501961" cx="204" cy="133" rx="32" ry="35" /></g></svg>