<svg xmlns="http://www.w3.org/2000/svg" viewBox="0 0 1544 1024"><filter id="b"><feGaussianBlur stdDeviation="12" /></filter><path d="M0 0h1544v1024H0z" fill="#283221" /><g filter="url(#b)" transform="scale(6.031250) translate(0.5 0.5)"><path fill="#ffbf7a" fill-opacity=".501961" d="M17.733243 99.740815 12.331933 74.112602 66.648441 90.816999 79.492596 102.10611z" /><g transform="translate(118.960782 76.013355) rotate(-80.875001) scale(9.355109 8.341018)"><ellipse fill="#fff" fill-opacity=".501961" cx="0" cy="0" rx="1" ry="1" /></g><path fill="#b97635" fill-opacity=".501961" d="M62.560798 139.205797-.089724 81.854756 30.892501 83.42367 82.214363 146.141881z" /><path fill="#ffca7e" fill-opacity=".501961" d="M117.108905 103.254695 116.999375 111.789745 125.140877 116.703334 137.364547 110.666979z" /><ellipse fill="#0a251c" fill-opacity=".501961" cx="70" cy="30" rx="120" ry="31" /><path d="M0 0h1544v1024H0z" fill="#fff7b5" /><path fill="#f2ffff" fill-opacity=".501961" d="M239 40l6 3-7 9z" /><path fill="#ffc2a1" fill-opacity=".501961" d="M5.936021 81.62147 41.635789 86.509747 66.721559 93.306849 61.35519 98.568088z" /></g></svg>