<svg xmlns="http://www.w3.org/2000/svg" viewBox="0 0 1565 1037"><filter id="b"><feGaussianBlur stdDeviation="12" /></filter><path d="M0 0h1565v1037H0z" fill="#8ea3b5" /><g filter="url(#b)" transform="scale(6.113281) translate(0.5 0.5)"><g transform="translate(146.308319 138.814754) rotate(1.940592) scale(255.000000 44.492433)"><ellipse fill="#001d40" fill-opacity=".501961" cx="0" cy="0" rx="1" ry="1" /></g><g transform="translate(151.463942 40.258249) rotate(-1.718203) scale(191.654869 45.944928)"><ellipse fill="#fff" fill-opacity=".501961" cx="0" cy="0" rx="1" ry="1" /></g><g transform="translate(180.573636 50.575386) rotate(3.233476) scale(154.151271 32.912165)"><ellipse fill="#fffffe" fill-opacity=".501961" cx="0" cy="0" rx="1" ry="1" /></g><ellipse fill="#1a3651" fill-opacity=".501961" cx="10" cy="139" rx="38" ry="56" /><g transform="translate(28.932086 14.567640) rotate(77.188895) scale(25.700760 110.022659)"><ellipse fill="#9acffe" fill-opacity=".501961" cx="0" cy="0" rx="1" ry="1" /></g><g transform="translate(254.384947 168.000000) rotate(172.830508) scale(32.585209 72.203805)"><ellipse fill="#223e59" fill-opacity=".501961" cx="0" cy="0" rx="1" ry="1" /></g><g transform="translate(153.859355 120.918894) rotate(141.732524) scale(52.896227 29.202460)"><ellipse fill="#5f809f" fill-opacity=".501961" cx="0" cy="0" rx="1" ry="1" /></g><path d="M0 0h1565v1037H0z" fill="#8ab0da" /></g></svg>