<svg xmlns="http://www.w3.org/2000/svg" viewBox="0 0 1565 1037"><filter id="b"><feGaussianBlur stdDeviation="12" /></filter><path d="M0 0h1565v1037H0z" fill="#7d8180" /><g filter="url(#b)" transform="scale(6.113281) translate(0.5 0.5)"><g transform="translate(198.305511 125.159934) rotate(265.687640) scale(30.388146 81.997759)"><ellipse fill="#fff" fill-opacity=".501961" cx="0" cy="0" rx="1" ry="1" /></g><g transform="translate(13.352722 99.387944) rotate(-15.395139) scale(79.063530 253.705236)"><ellipse fill="#190a00" fill-opacity=".501961" cx="0" cy="0" rx="1" ry="1" /></g><g transform="translate(113.542739 19.081921) rotate(227.585832) scale(31.468775 40.195996)"><ellipse fill="#fff" fill-opacity=".501961" cx="0" cy="0" rx="1" ry="1" /></g><ellipse fill="#fff" fill-opacity=".501961" cx="190" cy="123" rx="68" ry="31" /><g transform="translate(114.334767 117.354936) rotate(158.420895) scale(52.977368 18.153168)"><ellipse fill="#fe6859" fill-opacity=".501961" cx="0" cy="0" rx="1" ry="1" /></g><ellipse fill="#000b00" fill-opacity=".501961" cx="144" cy="164" rx="255" ry="10" /><g transform="translate(216.774073 59.098765) rotate(132.865977) scale(28.916571 18.825280)"><ellipse fill="#c4fcff" fill-opacity=".501961" cx="0" cy="0" rx="1" ry="1" /></g><path fill="#25200f" fill-opacity=".501961" d="M134.658113 99.855697 135.729847 50.91833 131.724606 34.470001 20.703596 110.026138z" /></g></svg>