<svg xmlns="http://www.w3.org/2000/svg" viewBox="0 0 3637 2433"><filter id="b"><feGaussianBlur stdDeviation="12" /></filter><path d="M0 0h3637v2433H0z" fill="#222619" /><g filter="url(#b)" transform="scale(14.207031) translate(0.5 0.5)"><g transform="translate(123.401978 152.423967) rotate(277.548315) scale(32.063027 69.980223)"><ellipse fill="#b5b889" fill-opacity=".501961" cx="0" cy="0" rx="1" ry="1" /></g><ellipse fill="#060601" fill-opacity=".501961" cx="137" cy="19" rx="111" ry="111" /><path fill="#ffe8cc" fill-opacity=".501961" d="M65 146l30-29 7 28z" /><g transform="translate(150.431910 128.738185) rotate(100.447676) scale(16.337284 48.819007)"><ellipse fill="#4a563d" fill-opacity=".501961" cx="0" cy="0" rx="1" ry="1" /></g><path fill="#0a0b05" fill-opacity=".501961" d="M-16 66.316393 85.720302 145.047519 82.824692 120.409769 13.320716-16z" /><path fill="#344e2c" fill-opacity=".501961" d="M52 126l35 60-103-30z" /><g transform="translate(72 144) rotate(204) scale(22 14)"><path d="M0 0h3637v2433H0z" fill="#edddb9" /></g><g transform="translate(233.414360 61.127127) rotate(250.200153) scale(99.058424 48.037867)"><ellipse fill="#0c0d06" fill-opacity=".501961" cx="0" cy="0" rx="1" ry="1" /></g></g></svg>