<svg xmlns="http://www.w3.org/2000/svg" viewBox="0 0 3637 2433"><filter id="b"><feGaussianBlur stdDeviation="12" /></filter><path d="M0 0h3637v2433H0z" fill="#b8aba6" /><g filter="url(#b)" transform="scale(14.207031) translate(0.5 0.5)"><ellipse fill="#000" fill-opacity=".501961" cx="139" cy="89" rx="38" ry="31" /><g transform="translate(178.629164 29.023933) rotate(225.486806) scale(250.265068 36.949032)"><ellipse fill="#fff" fill-opacity=".501961" cx="0" cy="0" rx="1" ry="1" /></g><g transform="translate(17.181792 87.495345) rotate(60.987335) scale(35.473854 12.935110)"><ellipse fill="#00060c" fill-opacity=".501961" cx="0" cy="0" rx="1" ry="1" /></g><g transform="translate(65.424430 60.815611) rotate(50.311219) scale(37.453525 22.268814)"><ellipse fill="#ee2512" fill-opacity=".501961" cx="0" cy="0" rx="1" ry="1" /></g><ellipse fill="#00000a" fill-opacity=".501961" cx="158" cy="101" rx="8" ry="38" /><g transform="translate(144 110) rotate(178) scale(12 28)"><path d="M0 0h3637v2433H0z" fill="#fff" /></g><ellipse fill="#fefcee" fill-opacity=".501961" cx="99" cy="6" rx="57" ry="31" /><path fill="#000101" fill-opacity=".501961" d="M147 95l-40 16 7-61z" /></g></svg>