<svg xmlns="http://www.w3.org/2000/svg" viewBox="0 0 1818 1228"><filter id="b"><feGaussianBlur stdDeviation="12" /></filter><path d="M0 0h1818v1228H0z" fill="#52504f" /><g filter="url(#b)" transform="scale(7.101562) translate(0.5 0.5)"><g transform="translate(89.750422 27.846713) rotate(363.533714) scale(179.857464 13.200467)"><ellipse fill="#fff" fill-opacity=".501961" cx="0" cy="0" rx="1" ry="1" /></g><path fill="#fff" fill-opacity=".501961" d="M29 144-16 109 55 71z" /><g transform="translate(218.047656 127.718393) rotate(-51.122197) scale(35.466774 57.332732)"><ellipse fill="#000" fill-opacity=".501961" cx="0" cy="0" rx="1" ry="1" /></g><g transform="translate(75.897504 110.984210) rotate(279.571796) scale(71.367659 25.867034)"><ellipse fill="#000" fill-opacity=".501961" cx="0" cy="0" rx="1" ry="1" /></g><g transform="translate(84.016035 29.365294) rotate(1.704429) scale(101.070184 12.973056)"><ellipse fill="#fff" fill-opacity=".501961" cx="0" cy="0" rx="1" ry="1" /></g><path fill="#d7d8d6" fill-opacity=".501961" d="M99.21361 93.883846 145.843792 164.917592 192.075687 164.386358 120.089548 73.073489z" /><g transform="translate(176.642430 3.478458) rotate(276.085029) scale(19.899420 187.404858)"><ellipse fill="#000" fill-opacity=".501961" cx="0" cy="0" rx="1" ry="1" /></g><path d="M0 0h1818v1228H0z" fill="#000" /></g></svg>