<svg xmlns="http://www.w3.org/2000/svg" viewBox="0 0 1818 1228"><filter id="b"><feGaussianBlur stdDeviation="12" /></filter><path d="M0 0h1818v1228H0z" fill="#9e9994" /><g filter="url(#b)" transform="scale(7.101562) translate(0.5 0.5)"><g transform="translate(139.872346 164.909847) rotate(83.402227) scale(35.791307 183.770618)"><ellipse fill="#1e3532" fill-opacity=".501961" cx="0" cy="0" rx="1" ry="1" /></g><g transform="translate(152.644739 16.641689) rotate(-11.569312) scale(216.903682 37.697498)"><ellipse fill="#f9eaec" fill-opacity=".501961" cx="0" cy="0" rx="1" ry="1" /></g><g transform="translate(11.065544 105.935535) rotate(279.019984) scale(12.516828 60.083934)"><ellipse fill="#000" fill-opacity=".501961" cx="0" cy="0" rx="1" ry="1" /></g><ellipse fill="#884b11" fill-opacity=".501961" cx="120" cy="66" rx="34" ry="34" /><g transform="translate(196.171243 59.424095) rotate(359.296839) scale(61.070632 49.488643)"><ellipse fill="#d3cccf" fill-opacity=".501961" cx="0" cy="0" rx="1" ry="1" /></g><g transform="translate(103 57) rotate(80) scale(30 19)"><path d="M0 0h1818v1228H0z" fill="#000" /></g><g transform="translate(128.225111 167.834166) rotate(263.183548) scale(36.536168 8.371288)"><ellipse fill="#000" fill-opacity=".501961" cx="0" cy="0" rx="1" ry="1" /></g><g transform="translate(59.914308 60.315176) rotate(30.858619) scale(17.721276 45.295546)"><ellipse fill="#f5ebef" fill-opacity=".501961" cx="0" cy="0" rx="1" ry="1" /></g></g></svg>