<svg xmlns="http://www.w3.org/2000/svg" viewBox="0 0 3637 2433"><filter id="b"><feGaussianBlur stdDeviation="12" /></filter><path d="M0 0h3637v2433H0z" fill="#878470" /><g filter="url(#b)" transform="scale(14.207031) translate(0.5 0.5)"><g transform="translate(175.746428 26.982077) rotate(388.851869) scale(95.808330 63.148140)"><ellipse fill="#fff" fill-opacity=".501961" cx="0" cy="0" rx="1" ry="1" /></g><g transform="translate(97.641633 169.886620) rotate(92.300983) scale(61.775196 174.168296)"><ellipse fill="#000" fill-opacity=".501961" cx="0" cy="0" rx="1" ry="1" /></g><path d="M0 0h3637v2433H0z" fill="#fff" /><path fill="#ffedba" fill-opacity=".501961" d="M228 157l-45-5-5-55z" /><g transform="translate(125 166) rotate(362) scale(90 97)"><path d="M0 0h3637v2433H0z" fill="#000" /></g><ellipse fill="#fffffc" fill-opacity=".501961" cx="193" cy="47" rx="51" ry="40" /><g transform="translate(64.779663 152.750881) rotate(100.803263) scale(82.379280 9.228864)"><ellipse fill="#edb89e" fill-opacity=".501961" cx="0" cy="0" rx="1" ry="1" /></g><g transform="translate(44.928589 46.008157) rotate(218.785941) scale(36.047221 25.935201)"><ellipse fill="#316a0d" fill-opacity=".501961" cx="0" cy="0" rx="1" ry="1" /></g></g></svg>