<svg xmlns="http://www.w3.org/2000/svg" viewBox="0 0 1818 1228"><filter id="b"><feGaussianBlur stdDeviation="12" /></filter><path d="M0 0h1818v1228H0z" fill="#716e61" /><g filter="url(#b)" transform="scale(7.101562) translate(0.5 0.5)"><ellipse fill="#eff1e7" fill-opacity=".501961" cx="102" cy="25" rx="197" ry="9" /><ellipse fill="#000f1f" fill-opacity=".501961" cx="122" cy="164" rx="77" ry="49" /><g transform="translate(43 136) rotate(86) scale(35 31)"><path d="M0 0h1818v1228H0z" fill="#fff5e6" /></g><path fill="#539ff2" fill-opacity=".501961" d="M154.150808 163.975618 150.412623 126.696964 108.097323 140.871093 100.953057 158.696812z" /><path fill="#000" fill-opacity=".501961" d="M197 187 180 92l-32 81z" /><g transform="translate(11.648840 158.229161) rotate(144.069537) scale(21.857607 87.973177)"><ellipse fill="#020909" fill-opacity=".501961" cx="0" cy="0" rx="1" ry="1" /></g><g transform="translate(88.081848 96.497432) rotate(165.606113) scale(15.158233 35.812434)"><ellipse fill="#ecc594" fill-opacity=".501961" cx="0" cy="0" rx="1" ry="1" /></g><path d="M0 0h1818v1228H0z" fill="#090000" /></g></svg>