<svg xmlns="http://www.w3.org/2000/svg" viewBox="0 0 3637 2433"><filter id="b"><feGaussianBlur stdDeviation="12" /></filter><path d="M0 0h3637v2433H0z" fill="#53524b" /><g filter="url(#b)" transform="scale(14.207031) translate(0.5 0.5)"><g transform="translate(64.895301 124.999108) rotate(202.613986) scale(44.102045 51.053367)"><ellipse fill="#fff" fill-opacity=".501961" cx="0" cy="0" rx="1" ry="1" /></g><ellipse fill="#000" fill-opacity=".501961" cx="10" cy="33" rx="61" ry="61" /><g transform="translate(153.824797 69.450075) rotate(268.367823) scale(21.054305 41.869448)"><ellipse fill="#ffefe7" fill-opacity=".501961" cx="0" cy="0" rx="1" ry="1" /></g><g transform="translate(237.719934 77.730527) rotate(89.180507) scale(187.349603 35.047847)"><ellipse fill="#000" fill-opacity=".501961" cx="0" cy="0" rx="1" ry="1" /></g><g transform="translate(184 121) rotate(94) scale(61 12)"><path d="M0 0h3637v2433H0z" fill="#fff" /></g><g transform="translate(112.652926 0.306558) rotate(259.864958) scale(35.001399 243.957257)"><ellipse fill="#000300" fill-opacity=".501961" cx="0" cy="0" rx="1" ry="1" /></g><g transform="translate(0.000000 122.036512) rotate(99.517721) scale(111.109974 21.618394)"><ellipse fill="#000" fill-opacity=".501961" cx="0" cy="0" rx="1" ry="1" /></g><g transform="translate(74.482702 59.778791) rotate(10.615056) scale(14.945023 21.078719)"><ellipse fill="#ffc480" fill-opacity=".501961" cx="0" cy="0" rx="1" ry="1" /></g></g></svg>