<svg xmlns="http://www.w3.org/2000/svg" viewBox="0 0 6000 4000"><filter id="b"><feGaussianBlur stdDeviation="12" /></filter><path d="M0 0h6e3v4e3H0z" fill="#0d101f" /><g filter="url(#b)" transform="scale(23.437500) translate(0.5 0.5)"><g transform="translate(10.013480 23.386660) rotate(103.570474) scale(41.361872 42.721514)"><ellipse fill="#5c6bd1" fill-opacity=".501961" cx="0" cy="0" rx="1" ry="1" /></g><ellipse fill="#000" fill-opacity=".501961" cx="87" cy="156" rx="128" ry="62" /><g transform="translate(56.028572 40.507612) rotate(378.217757) scale(21.250377 64.168737)"><ellipse fill="#19285a" fill-opacity=".501961" cx="0" cy="0" rx="1" ry="1" /></g><g transform="translate(186 0) rotate(301) scale(27 61)"><path d="M0 0h6e3v4e3H0z" fill="#193d93" /></g><path fill="#572b38" fill-opacity=".501961" d="M121 7l22 97L89 51z" /><g transform="translate(181.798912 121.041188) rotate(247.897233) scale(35.100440 255.000000)"><ellipse fill="#000100" fill-opacity=".501961" cx="0" cy="0" rx="1" ry="1" /></g><path d="M0 0h6e3v4e3H0z" fill="#a75f63" /><g transform="translate(5.439161 25.515175) rotate(108.281451) scale(55.381919 16.430442)"><ellipse fill="#4c529a" fill-opacity=".501961" cx="0" cy="0" rx="1" ry="1" /></g></g></svg>