<svg xmlns="http://www.w3.org/2000/svg" viewBox="0 0 6000 4000"><filter id="b"><feGaussianBlur stdDeviation="12" /></filter><path d="M0 0h6e3v4e3H0z" fill="#263027" /><g filter="url(#b)" transform="scale(23.437500) translate(0.5 0.5)"><g transform="translate(195.674278 11.654039) rotate(181.244548) scale(56.811635 25.129288)"><ellipse fill="#afa6a9" fill-opacity=".501961" cx="0" cy="0" rx="1" ry="1" /></g><g transform="translate(22.463341 32.045108) rotate(101.398779) scale(238.818642 47.004671)"><ellipse fill="#000100" fill-opacity=".501961" cx="0" cy="0" rx="1" ry="1" /></g><path fill="#556669" fill-opacity=".501961" d="M94 52 56 135l86 50z" /><g transform="translate(227.357866 151.033286) rotate(54.177082) scale(50.281782 85.935392)"><ellipse fill="#000800" fill-opacity=".501961" cx="0" cy="0" rx="1" ry="1" /></g><path d="M0 0h6e3v4e3H0z" fill="#cec4c2" /><g transform="translate(167.843275 78.314300) rotate(174.502741) scale(77.403025 9.863420)"><ellipse fill="#5b4b3f" fill-opacity=".501961" cx="0" cy="0" rx="1" ry="1" /></g><g transform="translate(90.862593 24.802066) rotate(323.366771) scale(22.589503 52.602066)"><ellipse fill="#061001" fill-opacity=".501961" cx="0" cy="0" rx="1" ry="1" /></g><g transform="translate(184.349247 34.399742) rotate(271.571972) scale(12.113445 80.312393)"><ellipse fill="#4e4e48" fill-opacity=".501961" cx="0" cy="0" rx="1" ry="1" /></g></g></svg>