<svg xmlns="http://www.w3.org/2000/svg" viewBox="0 0 4000 6000"><filter id="b"><feGaussianBlur stdDeviation="12" /></filter><path d="M0 0h4e3v6e3H0z" fill="#110200" /><g filter="url(#b)" transform="scale(23.437500) translate(0.5 0.5)"><g transform="translate(64.803412 87.286822) rotate(101.538810) scale(40.001214 21.464467)"><ellipse fill="#fd320f" fill-opacity=".501961" cx="0" cy="0" rx="1" ry="1" /></g><g transform="translate(64.880594 74.417964) rotate(2.366974) scale(7.307973 21.371748)"><ellipse fill="#ff9d45" fill-opacity=".501961" cx="0" cy="0" rx="1" ry="1" /></g><path fill="#6c0000" fill-opacity=".501961" d="M116 62 67 37l17 86z" /><g transform="translate(50.102707 122.549582) rotate(159.885866) scale(18.870135 28.286200)"><ellipse fill="#610000" fill-opacity=".501961" cx="0" cy="0" rx="1" ry="1" /></g><g transform="translate(130.785592 186.047728) rotate(69.198103) scale(73.025395 169.000000)"><ellipse fill="#000" fill-opacity=".501961" cx="0" cy="0" rx="1" ry="1" /></g><g transform="translate(23.017632 62.437606) rotate(14.714668) scale(29.910597 169.000000)"><ellipse fill="#000" fill-opacity=".501961" cx="0" cy="0" rx="1" ry="1" /></g><path fill="#3d0201" fill-opacity=".501961" d="M80.356162 67.230284 47.492499 26.110239 162.631666 83.569131 129.143429 108.477136z" /><g transform="translate(45.017905 84.493990) rotate(200.083030) scale(8.191085 55.281553)"><ellipse fill="#530200" fill-opacity=".501961" cx="0" cy="0" rx="1" ry="1" /></g></g></svg>