<svg xmlns="http://www.w3.org/2000/svg" viewBox="0 0 6000 4000"><filter id="b"><feGaussianBlur stdDeviation="12" /></filter><path d="M0 0h6e3v4e3H0z" fill="#47002e" /><g filter="url(#b)" transform="scale(23.437500) translate(0.5 0.5)"><g transform="translate(74.387008 63.529472) rotate(66.249398) scale(106.841808 42.396688)"><ellipse fill="#d60482" fill-opacity=".501961" cx="0" cy="0" rx="1" ry="1" /></g><g transform="translate(213.211204 169.000000) rotate(287.399223) scale(216.571568 89.682233)"><ellipse fill="#000" fill-opacity=".501961" cx="0" cy="0" rx="1" ry="1" /></g><g transform="translate(88.219417 118.261678) rotate(0.193654) scale(26.199814 36.822988)"><ellipse fill="#ff0216" fill-opacity=".501961" cx="0" cy="0" rx="1" ry="1" /></g><ellipse fill="#da0053" fill-opacity=".501961" cx="18" cy="92" rx="21" ry="39" /><g transform="translate(36.699686 22.549712) rotate(269.622557) scale(45.822652 96.284182)"><ellipse fill="#530096" fill-opacity=".501961" cx="0" cy="0" rx="1" ry="1" /></g><g transform="translate(29.926188 163.607877) rotate(97.230676) scale(31.106009 63.529201)"><ellipse fill="#000" fill-opacity=".501961" cx="0" cy="0" rx="1" ry="1" /></g><path d="M0 0h6e3v4e3H0z" fill="#000" /><g transform="translate(205.501139 154.741814) rotate(330.493593) scale(118.707921 48.609854)"><ellipse fill="#000" fill-opacity=".501961" cx="0" cy="0" rx="1" ry="1" /></g></g></svg>