<svg xmlns="http://www.w3.org/2000/svg" viewBox="0 0 6000 4000"><filter id="b"><feGaussianBlur stdDeviation="12" /></filter><path d="M0 0h6e3v4e3H0z" fill="#20130a" /><g filter="url(#b)" transform="scale(23.437500) translate(0.5 0.5)"><g transform="translate(120.667157 66.019067) rotate(173.819222) scale(55.077894 31.282149)"><ellipse fill="#f40e2e" fill-opacity=".501961" cx="0" cy="0" rx="1" ry="1" /></g><path fill="#ffa8a4" fill-opacity=".501961" d="M150.163466 50.029536 109.052006 49.794326 104.397039 55.54946 139.690924 71.269144z" /><g transform="translate(106.861677 92.309533) rotate(111.028202) scale(23.422558 61.913772)"><ellipse fill="#700005" fill-opacity=".501961" cx="0" cy="0" rx="1" ry="1" /></g><ellipse fill="#001705" fill-opacity=".501961" cx="138" cy="152" rx="255" ry="34" /><g transform="translate(236.096387 75.344309) rotate(265.299120) scale(255.000000 52.480348)"><ellipse fill="#001706" fill-opacity=".501961" cx="0" cy="0" rx="1" ry="1" /></g><ellipse fill="#001605" fill-opacity=".501961" cx="9" cy="40" rx="43" ry="169" /><g transform="translate(108 67) rotate(359) scale(27 37)"><path d="M0 0h6e3v4e3H0z" fill="#ea0e31" /></g><path d="M0 0h6e3v4e3H0z" fill="#021405" /></g></svg>