<svg xmlns="http://www.w3.org/2000/svg" viewBox="0 0 6000 4000"><filter id="b"><feGaussianBlur stdDeviation="12" /></filter><path d="M0 0h6e3v4e3H0z" fill="#332a4c" /><g filter="url(#b)" transform="scale(23.437500) translate(0.5 0.5)"><g transform="translate(197.937089 49.595661) rotate(266.857169) scale(51.149548 73.866836)"><ellipse fill="#edcdff" fill-opacity=".501961" cx="0" cy="0" rx="1" ry="1" /></g><g transform="translate(71.314913 133.975932) rotate(315.674878) scale(74.810635 255.000000)"><ellipse fill="#000" fill-opacity=".501961" cx="0" cy="0" rx="1" ry="1" /></g><path fill="#5f50bf" fill-opacity=".501961" d="M163-16l12 127L77 77z" /><g transform="translate(202.181665 65.446054) rotate(79.895159) scale(22.398502 39.204761)"><ellipse fill="#e4fbff" fill-opacity=".501961" cx="0" cy="0" rx="1" ry="1" /></g><g transform="translate(113.404097 145.501983) rotate(281.815151) scale(48.432892 255.000000)"><ellipse fill="#000" fill-opacity=".501961" cx="0" cy="0" rx="1" ry="1" /></g><g transform="translate(36.766375 62.407852) rotate(108.832196) scale(198.430603 51.025825)"><ellipse fill="#000" fill-opacity=".501961" cx="0" cy="0" rx="1" ry="1" /></g><g transform="translate(183.213789 107.359170) rotate(4.656655) scale(58.039957 18.322398)"><ellipse fill="#0a2f9b" fill-opacity=".501961" cx="0" cy="0" rx="1" ry="1" /></g><g transform="translate(214 14) rotate(3) scale(32 44)"><path d="M0 0h6e3v4e3H0z" fill="#ff4fbd" /></g></g></svg>