<svg xmlns="http://www.w3.org/2000/svg" viewBox="0 0 6000 4000"><filter id="b"><feGaussianBlur stdDeviation="12" /></filter><path d="M0 0h6e3v4e3H0z" fill="#070100" /><g filter="url(#b)" transform="scale(23.437500) translate(0.5 0.5)"><g transform="translate(115.121058 71.343810) rotate(65.205985) scale(19.208020 8.877149)"><ellipse fill="#be1c2a" fill-opacity=".501961" cx="0" cy="0" rx="1" ry="1" /></g><ellipse fill="#ff4158" fill-opacity=".501961" cx="108" cy="61" rx="6" ry="6" /><path d="M0 0h6e3v4e3H0z" fill="#340303" /><ellipse fill="#ed3443" fill-opacity=".501961" cx="118" cy="81" rx="5" ry="5" /><path fill="#0a0000" fill-opacity=".501961" d="M83.058441 101.142754 119.126254 77.878088 182.796944 4.933545 96.862494 79.926641z" /><path fill="#3f0002" fill-opacity=".501961" d="M82.696876 103.212531 105.783252 59.353647 121.536748 46.104396 87.055627 58.884339z" /><g transform="translate(78.554038 142.535516) rotate(196.920304) scale(254.818356 51.995831)"><ellipse fill="#000" fill-opacity=".501961" cx="0" cy="0" rx="1" ry="1" /></g><path fill="#ff2940" fill-opacity=".501961" d="M110 68l-7-6 8-10z" /></g></svg>