<svg xmlns="http://www.w3.org/2000/svg" viewBox="0 0 6000 4000"><filter id="b"><feGaussianBlur stdDeviation="12" /></filter><path d="M0 0h6e3v4e3H0z" fill="#8d274d" /><g filter="url(#b)" transform="scale(23.437500) translate(0.5 0.5)"><g transform="translate(122.169582 61.246429) rotate(250.793375) scale(49.766296 74.313527)"><ellipse fill="#ff82ff" fill-opacity=".501961" cx="0" cy="0" rx="1" ry="1" /></g><g transform="translate(206.016578 142.606880) rotate(331.097955) scale(81.636842 48.237865)"><ellipse fill="#000100" fill-opacity=".501961" cx="0" cy="0" rx="1" ry="1" /></g><g transform="translate(33.240027 134.611726) rotate(436.404558) scale(163.152551 38.478273)"><ellipse fill="#060000" fill-opacity=".501961" cx="0" cy="0" rx="1" ry="1" /></g><g transform="translate(89.818741 82.462713) rotate(175.808775) scale(22.880783 62.494835)"><ellipse fill="#ffffbf" fill-opacity=".501961" cx="0" cy="0" rx="1" ry="1" /></g><g transform="translate(154.673694 49.059193) rotate(79.771676) scale(45.694588 44.091965)"><ellipse fill="#ff00e3" fill-opacity=".501961" cx="0" cy="0" rx="1" ry="1" /></g><g transform="translate(44.306504 65.053220) rotate(23.565261) scale(16.832562 46.291326)"><ellipse fill="#ff0a31" fill-opacity=".501961" cx="0" cy="0" rx="1" ry="1" /></g><g transform="translate(121.936178 125.723432) rotate(314.433405) scale(55.657922 28.601059)"><ellipse fill="#f90516" fill-opacity=".501961" cx="0" cy="0" rx="1" ry="1" /></g><g transform="translate(246.340161 63.415952) rotate(32.452599) scale(24.912912 17.710556)"><ellipse fill="#ffd494" fill-opacity=".501961" cx="0" cy="0" rx="1" ry="1" /></g></g></svg>