<svg xmlns="http://www.w3.org/2000/svg" viewBox="0 0 6000 4000"><filter id="b"><feGaussianBlur stdDeviation="12" /></filter><path d="M0 0h6e3v4e3H0z" fill="#555860" /><g filter="url(#b)" transform="scale(23.437500) translate(0.5 0.5)"><g transform="translate(197.000071 1.112403) rotate(81.339676) scale(35.096343 108.812965)"><ellipse fill="#fff" fill-opacity=".501961" cx="0" cy="0" rx="1" ry="1" /></g><g transform="translate(32.149483 51.557917) rotate(395.861126) scale(91.865621 57.571004)"><ellipse fill="#000" fill-opacity=".501961" cx="0" cy="0" rx="1" ry="1" /></g><g transform="translate(187.201431 146.614941) rotate(280.111780) scale(13.859287 117.151065)"><ellipse fill="#cfcff3" fill-opacity=".501961" cx="0" cy="0" rx="1" ry="1" /></g><ellipse fill="#000" fill-opacity=".501961" cx="244" cy="79" rx="56" ry="50" /><g transform="translate(203.107083 10.160810) rotate(-8.556633) scale(111.815121 21.305731)"><ellipse fill="#fff" fill-opacity=".501961" cx="0" cy="0" rx="1" ry="1" /></g><g transform="translate(117.268204 166.678707) rotate(106.270727) scale(29.543666 20.833980)"><ellipse fill="#c6e3ff" fill-opacity=".501961" cx="0" cy="0" rx="1" ry="1" /></g><g transform="translate(51.856423 169.000000) rotate(376.180139) scale(60.101225 26.730279)"><ellipse fill="#050000" fill-opacity=".501961" cx="0" cy="0" rx="1" ry="1" /></g><path fill="#000" fill-opacity=".501961" d="M182 148l-42 31-2-36z" /></g></svg>