<svg xmlns="http://www.w3.org/2000/svg" viewBox="0 0 6000 4000"><filter id="b"><feGaussianBlur stdDeviation="12" /></filter><path d="M0 0h6e3v4e3H0z" fill="#250101" /><g filter="url(#b)" transform="scale(23.437500) translate(0.5 0.5)"><g transform="translate(128.880924 60.626731) rotate(106.816556) scale(37.083084 22.483153)"><ellipse fill="#ff2420" fill-opacity=".501961" cx="0" cy="0" rx="1" ry="1" /></g><g transform="translate(185 58) rotate(224) scale(81 20)"><path d="M0 0h6e3v4e3H0z" fill="#af0007" /></g><g transform="translate(46.467727 122.825764) rotate(68.797896) scale(169.116294 59.169484)"><ellipse fill="#000" fill-opacity=".501961" cx="0" cy="0" rx="1" ry="1" /></g><path d="M0 0h6e3v4e3H0z" fill="#ff6455" /><ellipse fill="#000" fill-opacity=".501961" cx="170" cy="144" rx="26" ry="44" /><g transform="translate(119 84) rotate(73) scale(125 23)"><path d="M0 0h6e3v4e3H0z" fill="#750000" /></g><path fill="#96000f" fill-opacity=".501961" d="M146.643136 93.467978 180.28986 85.878562 193.603802 98.079455 154.267822 104.246125z" /><path fill="#640201" fill-opacity=".501961" d="M99 7l147 98-26-62z" /></g></svg>