<svg xmlns="http://www.w3.org/2000/svg" viewBox="0 0 6000 4000"><filter id="b"><feGaussianBlur stdDeviation="12" /></filter><path d="M0 0h6e3v4e3H0z" fill="#46454e" /><g filter="url(#b)" transform="scale(23.437500) translate(0.5 0.5)"><g transform="translate(112.331250 58.921005) rotate(-272.694748) scale(53.604810 81.553116)"><ellipse fill="#fff" fill-opacity=".501961" cx="0" cy="0" rx="1" ry="1" /></g><g transform="translate(112.173216 163.522140) rotate(-2.369120) scale(255.000000 59.540864)"><ellipse fill="#000" fill-opacity=".501961" cx="0" cy="0" rx="1" ry="1" /></g><g transform="translate(127.850688 83.932860) rotate(84.506698) scale(56.152930 30.942139)"><ellipse fill="#dbe1eb" fill-opacity=".501961" cx="0" cy="0" rx="1" ry="1" /></g><g transform="translate(215.546221 131.640497) rotate(207.127319) scale(56.979849 255.000000)"><ellipse fill="#000" fill-opacity=".501961" cx="0" cy="0" rx="1" ry="1" /></g><g transform="translate(202 55) rotate(50) scale(45 34)"><path d="M0 0h6e3v4e3H0z" fill="#b7a8c5" /></g><g transform="translate(0.000000 44.917637) rotate(198.030379) scale(30.077814 207.658904)"><ellipse fill="#000" fill-opacity=".501961" cx="0" cy="0" rx="1" ry="1" /></g><g transform="translate(58.382887 159.497850) rotate(203.539248) scale(97.953435 44.582855)"><ellipse fill="#000" fill-opacity=".501961" cx="0" cy="0" rx="1" ry="1" /></g><g transform="translate(216 1) rotate(303) scale(51 106)"><path d="M0 0h6e3v4e3H0z" fill="#000" /></g></g></svg>