<svg xmlns="http://www.w3.org/2000/svg" viewBox="0 0 6000 4000"><filter id="b"><feGaussianBlur stdDeviation="12" /></filter><path d="M0 0h6e3v4e3H0z" fill="#5b3747" /><g filter="url(#b)" transform="scale(23.437500) translate(0.5 0.5)"><g transform="translate(154.327298 80.083977) rotate(-0.801543) scale(114.366760 28.743205)"><ellipse fill="#ffd8ff" fill-opacity=".501961" cx="0" cy="0" rx="1" ry="1" /></g><g transform="translate(92.073061 145.972460) rotate(91.351135) scale(30.436242 242.207430)"><ellipse fill="#000" fill-opacity=".501961" cx="0" cy="0" rx="1" ry="1" /></g><g transform="translate(147.987489 2.996408) rotate(259.783620) scale(32.835824 255.000000)"><ellipse fill="#000008" fill-opacity=".501961" cx="0" cy="0" rx="1" ry="1" /></g><g transform="translate(212.401155 81.706169) rotate(151.035003) scale(39.097791 33.889291)"><ellipse fill="#ffd781" fill-opacity=".501961" cx="0" cy="0" rx="1" ry="1" /></g><g transform="translate(184.297530 54.411337) rotate(67.505221) scale(12.501304 55.785427)"><ellipse fill="#c60000" fill-opacity=".501961" cx="0" cy="0" rx="1" ry="1" /></g><ellipse fill="#fff8ff" fill-opacity=".501961" cx="164" cy="89" rx="75" ry="13" /><ellipse fill="#693cd8" fill-opacity=".501961" cx="104" cy="56" rx="47" ry="24" /><g transform="translate(244 63) rotate(240) scale(70 24)"><path d="M0 0h6e3v4e3H0z" fill="#fe2b00" /></g></g></svg>