<svg xmlns="http://www.w3.org/2000/svg" viewBox="0 0 6000 4000"><filter id="b"><feGaussianBlur stdDeviation="12" /></filter><path d="M0 0h6e3v4e3H0z" fill="#35373b" /><g filter="url(#b)" transform="scale(23.437500) translate(0.5 0.5)"><g transform="translate(68.517739 110.299328) rotate(197.523968) scale(33.061867 15.790379)"><ellipse fill="#fffeff" fill-opacity=".501961" cx="0" cy="0" rx="1" ry="1" /></g><path fill="#ffecf1" fill-opacity=".501961" d="M210 132 107 114l43 29z" /><path fill="#b2c2ff" fill-opacity=".501961" d="M210.664866 88.953048 118.024442 89.240736 42.120953 94.578394 178.832321 103.116119z" /><g transform="translate(220.490040 39.937443) rotate(142.498732) scale(51.044321 114.315308)"><ellipse fill="#04100c" fill-opacity=".501961" cx="0" cy="0" rx="1" ry="1" /></g><g transform="translate(27.717329 49.546017) rotate(85.962236) scale(42.837283 70.695999)"><ellipse fill="#07120e" fill-opacity=".501961" cx="0" cy="0" rx="1" ry="1" /></g><ellipse fill="#fff" fill-opacity=".501961" cx="244" cy="135" rx="15" ry="5" /><path fill="#fff" fill-opacity=".501961" d="M29-16 45 7l79-23z" /><path fill="#6b4d66" fill-opacity=".501961" d="M128 152l25-27 91 48z" /></g></svg>