<svg xmlns="http://www.w3.org/2000/svg" viewBox="0 0 6000 4000"><filter id="b"><feGaussianBlur stdDeviation="12" /></filter><path d="M0 0h6e3v4e3H0z" fill="#3e1121" /><g filter="url(#b)" transform="scale(23.437500) translate(0.5 0.5)"><g transform="translate(86.071722 91.284998) rotate(205.207953) scale(72.063146 42.944003)"><ellipse fill="#ff71b1" fill-opacity=".501961" cx="0" cy="0" rx="1" ry="1" /></g><g transform="translate(134.843946 126.502759) rotate(260.517186) scale(28.955121 34.951670)"><ellipse fill="#093bc8" fill-opacity=".501961" cx="0" cy="0" rx="1" ry="1" /></g><g transform="translate(198.645244 52.744438) rotate(158.301412) scale(67.250182 174.870289)"><ellipse fill="#000" fill-opacity=".501961" cx="0" cy="0" rx="1" ry="1" /></g><g transform="translate(63.785778 78.923552) rotate(374.268038) scale(28.438831 26.781556)"><ellipse fill="#ffae8a" fill-opacity=".501961" cx="0" cy="0" rx="1" ry="1" /></g><g transform="translate(80.391021 47.010802) rotate(289.590571) scale(19.469039 64.528621)"><ellipse fill="#af020c" fill-opacity=".501961" cx="0" cy="0" rx="1" ry="1" /></g><path d="M0 0h6e3v4e3H0z" fill="#ffd6c3" /><path fill="#b50108" fill-opacity=".501961" d="M64 142 24 32-16 89z" /><g transform="translate(220.341625 96.442059) rotate(105.975012) scale(255.000000 49.101187)"><ellipse fill="#000" fill-opacity=".501961" cx="0" cy="0" rx="1" ry="1" /></g></g></svg>