<svg xmlns="http://www.w3.org/2000/svg" viewBox="0 0 6000 4000"><filter id="b"><feGaussianBlur stdDeviation="12" /></filter><path d="M0 0h6e3v4e3H0z" fill="#272729" /><g filter="url(#b)" transform="scale(23.437500) translate(0.5 0.5)"><g transform="translate(119.697972 154.287069) rotate(-8.743619) scale(43.678281 25.449301)"><ellipse fill="#8a717f" fill-opacity=".501961" cx="0" cy="0" rx="1" ry="1" /></g><path fill="#8ba2e5" fill-opacity=".501961" d="M75.24571 83.618481-10.869055 86.296576-16 92.090892 74.744186 95.562936z" /><path fill="#f8b0c7" fill-opacity=".501961" d="M169.51365 73.833846 156.64041 98.871327 163.23822 101.820876 170.935386 87.243241z" /><path fill="#905c6d" fill-opacity=".501961" d="M177.191282 35.102913 211.776496 67.75352 242.311769 91.072648 177.514141 65.611751z" /><ellipse fill="#0a0f0c" fill-opacity=".501961" cx="228" cy="15" rx="43" ry="58" /><g transform="translate(190.840660 136.744572) rotate(186.380169) scale(21.560245 68.509117)"><ellipse fill="#0c0d0b" fill-opacity=".501961" cx="0" cy="0" rx="1" ry="1" /></g><ellipse fill="#101714" fill-opacity=".501961" cx="107" cy="0" rx="85" ry="85" /><g transform="translate(255.000000 151.359145) rotate(187.773353) scale(46.984367 26.975703)"><ellipse fill="#484855" fill-opacity=".501961" cx="0" cy="0" rx="1" ry="1" /></g></g></svg>