<svg xmlns="http://www.w3.org/2000/svg" viewBox="0 0 6000 4000"><filter id="b"><feGaussianBlur stdDeviation="12" /></filter><path d="M0 0h6e3v4e3H0z" fill="#5f6156" /><g filter="url(#b)" transform="scale(23.437500) translate(0.5 0.5)"><g transform="translate(159.333613 35.518054) rotate(183.126998) scale(123.818690 56.137432)"><ellipse fill="#d8ddd2" fill-opacity=".501961" cx="0" cy="0" rx="1" ry="1" /></g><g transform="translate(73.227597 142.100613) rotate(94.365067) scale(48.635730 183.909398)"><ellipse fill="#000" fill-opacity=".501961" cx="0" cy="0" rx="1" ry="1" /></g><g transform="translate(17.494172 99.168378) rotate(337.063713) scale(39.193595 249.708316)"><ellipse fill="#000" fill-opacity=".501961" cx="0" cy="0" rx="1" ry="1" /></g><g transform="translate(125 95) rotate(200) scale(36 45)"><path d="M0 0h6e3v4e3H0z" fill="#9c9989" /></g><g transform="translate(245.060973 97.002102) rotate(276.485769) scale(23.160273 55.701091)"><ellipse fill="#979f95" fill-opacity=".501961" cx="0" cy="0" rx="1" ry="1" /></g><path d="M0 0h6e3v4e3H0z" fill="#13100a" /><g transform="translate(84.981416 72.513456) rotate(119.538494) scale(16.884326 62.859822)"><ellipse fill="#848b80" fill-opacity=".501961" cx="0" cy="0" rx="1" ry="1" /></g><g transform="translate(50.172329 159.193772) rotate(373.039578) scale(62.455320 34.819720)"><ellipse fill="#010900" fill-opacity=".501961" cx="0" cy="0" rx="1" ry="1" /></g></g></svg>