<svg xmlns="http://www.w3.org/2000/svg" viewBox="0 0 6000 4000"><filter id="b"><feGaussianBlur stdDeviation="12" /></filter><path d="M0 0h6e3v4e3H0z" fill="#676a61" /><g filter="url(#b)" transform="scale(23.437500) translate(0.5 0.5)"><g transform="translate(172.142339 142.609946) rotate(-1.626093) scale(116.078930 46.186996)"><ellipse fill="#020000" fill-opacity=".501961" cx="0" cy="0" rx="1" ry="1" /></g><g transform="translate(86.855365 33.169732) rotate(177.885376) scale(255.000000 45.108799)"><ellipse fill="#aebcb3" fill-opacity=".501961" cx="0" cy="0" rx="1" ry="1" /></g><g transform="translate(173.126213 109.620455) rotate(369.728203) scale(23.887623 33.546457)"><ellipse fill="#000" fill-opacity=".501961" cx="0" cy="0" rx="1" ry="1" /></g><path fill="#8f8068" fill-opacity=".501961" d="M198-2 81 125l51 7z" /><g transform="translate(215.211829 79.677436) rotate(99.122636) scale(28.671549 22.434240)"><ellipse fill="#919c8c" fill-opacity=".501961" cx="0" cy="0" rx="1" ry="1" /></g><g transform="translate(83.471839 70.426903) rotate(172.644073) scale(137.040747 27.707984)"><ellipse fill="#707a6e" fill-opacity=".501961" cx="0" cy="0" rx="1" ry="1" /></g><path fill="#000" fill-opacity=".501961" d="M49.050438 144.03547 78.000783 160.332989 125.245556 142.197262 74.257651 121.475882z" /><ellipse fill="#a7b4ad" fill-opacity=".501961" cx="143" cy="12" rx="255" ry="16" /></g></svg>