<svg xmlns="http://www.w3.org/2000/svg" viewBox="0 0 6000 4000"><filter id="b"><feGaussianBlur stdDeviation="12" /></filter><path d="M0 0h6e3v4e3H0z" fill="#707062" /><g filter="url(#b)" transform="scale(23.437500) translate(0.5 0.5)"><g transform="translate(211.080711 96.383757) rotate(3.535869) scale(67.874010 43.746530)"><ellipse fill="#f4fcf1" fill-opacity=".501961" cx="0" cy="0" rx="1" ry="1" /></g><g transform="translate(128.436317 0.000000) rotate(86.996363) scale(35.736802 133.239697)"><ellipse fill="#000" fill-opacity=".501961" cx="0" cy="0" rx="1" ry="1" /></g><ellipse fill="#2e1c0e" fill-opacity=".501961" cx="67" cy="122" rx="46" ry="46" /><ellipse fill="#c9bfab" fill-opacity=".501961" cx="12" cy="69" rx="194" ry="19" /><path fill="#fff" fill-opacity=".501961" d="M-8.153211 59.74457 32.760316 123.403331-16 119.379074.153424 124.417394z" /><path d="M0 0h6e3v4e3H0z" fill="#000" /><path fill="#000" fill-opacity=".501961" d="M146 89l1 65-44-63z" /><path d="M0 0h6e3v4e3H0z" fill="#f3f4e9" /></g></svg>