<svg xmlns="http://www.w3.org/2000/svg" viewBox="0 0 6000 4000"><filter id="b"><feGaussianBlur stdDeviation="12" /></filter><path d="M0 0h6e3v4e3H0z" fill="#7a7c6c" /><g filter="url(#b)" transform="scale(23.437500) translate(0.5 0.5)"><g transform="translate(55.345005 105.835956) rotate(97.652758) scale(35.435834 83.855127)"><ellipse fill="#fffffc" fill-opacity=".501961" cx="0" cy="0" rx="1" ry="1" /></g><ellipse fill="#041700" fill-opacity=".501961" cx="221" cy="40" rx="142" ry="25" /><g transform="translate(159.451437 120.992307) rotate(188.203855) scale(21.314322 61.119395)"><ellipse fill="#000" fill-opacity=".501961" cx="0" cy="0" rx="1" ry="1" /></g><g transform="translate(13.943652 28.625776) rotate(72.576675) scale(16.612529 43.917489)"><ellipse fill="#001000" fill-opacity=".501961" cx="0" cy="0" rx="1" ry="1" /></g><path d="M0 0h6e3v4e3H0z" fill="#eeede9" /><ellipse fill="#3b0000" fill-opacity=".501961" cx="221" cy="101" rx="110" ry="5" /><path d="M0 0h6e3v4e3H0z" fill="#b9c1b4" /><path fill="#e7ead8" fill-opacity=".501961" d="M158 138 2 82-5 136z" /></g></svg>