<svg xmlns="http://www.w3.org/2000/svg" viewBox="0 0 6000 4000"><filter id="b"><feGaussianBlur stdDeviation="12" /></filter><path d="M0 0h6e3v4e3H0z" fill="#747774" /><g filter="url(#b)" transform="scale(23.437500) translate(0.5 0.5)"><g transform="translate(215.140305 131.056390) rotate(48.896423) scale(47.286319 255.000000)"><ellipse fill="#000" fill-opacity=".501961" cx="0" cy="0" rx="1" ry="1" /></g><g transform="translate(72.949618 73.119054) rotate(153.050363) scale(195.297597 80.870499)"><ellipse fill="#afb9ba" fill-opacity=".501961" cx="0" cy="0" rx="1" ry="1" /></g><g transform="translate(217.731724 136.204639) rotate(45.710874) scale(51.625831 166.114039)"><ellipse fill="#000" fill-opacity=".501961" cx="0" cy="0" rx="1" ry="1" /></g><g transform="translate(189.353735 163.221959) rotate(143.952764) scale(142.384206 52.282134)"><ellipse fill="#160400" fill-opacity=".501961" cx="0" cy="0" rx="1" ry="1" /></g><path fill="#a6aaa5" fill-opacity=".501961" d="M162 115 86 179 55 130z" /><g transform="translate(173 86) rotate(374) scale(5 28)"><path d="M0 0h6e3v4e3H0z" fill="#000" /></g><g transform="translate(235.992603 68.309172) rotate(42.177585) scale(10.868167 56.610525)"><ellipse fill="#180700" fill-opacity=".501961" cx="0" cy="0" rx="1" ry="1" /></g><g transform="translate(19.363621 26.358296) rotate(113.413393) scale(66.617522 37.860838)"><ellipse fill="#89908f" fill-opacity=".501961" cx="0" cy="0" rx="1" ry="1" /></g></g></svg>