<svg xmlns="http://www.w3.org/2000/svg" viewBox="0 0 6000 4000"><filter id="b"><feGaussianBlur stdDeviation="12" /></filter><path d="M0 0h6e3v4e3H0z" fill="#696b66" /><g filter="url(#b)" transform="scale(23.437500) translate(0.5 0.5)"><g transform="translate(28.854906 113.185201) rotate(-21.028823) scale(49.146479 255.000000)"><ellipse fill="#000" fill-opacity=".501961" cx="0" cy="0" rx="1" ry="1" /></g><g transform="translate(169.165650 107.739603) rotate(178.445115) scale(60.731421 255.000000)"><ellipse fill="#cccec8" fill-opacity=".501961" cx="0" cy="0" rx="1" ry="1" /></g><g transform="translate(59 56) rotate(265) scale(48 136)"><path d="M0 0h6e3v4e3H0z" fill="#000" /></g><g transform="translate(89.981751 9.783193) rotate(348.240698) scale(53.801668 17.517547)"><ellipse fill="#f7ffff" fill-opacity=".501961" cx="0" cy="0" rx="1" ry="1" /></g><path fill="#000" fill-opacity=".501961" d="M-16 156l123 15L2-16z" /><path fill="#000" fill-opacity=".501961" d="M238 81l26 62-58-65z" /><path fill="#99958b" fill-opacity=".501961" d="M51 84l58 74L150 51z" /><g transform="translate(160.951606 137.226363) rotate(370.844068) scale(54.463018 27.001700)"><ellipse fill="#ced3cd" fill-opacity=".501961" cx="0" cy="0" rx="1" ry="1" /></g></g></svg>