<svg xmlns="http://www.w3.org/2000/svg" viewBox="0 0 6000 4000"><filter id="b"><feGaussianBlur stdDeviation="12" /></filter><path d="M0 0h6e3v4e3H0z" fill="#626768" /><g filter="url(#b)" transform="scale(23.437500) translate(0.5 0.5)"><ellipse fill="#aab3c0" fill-opacity=".501961" cx="64" cy="43" rx="153" ry="23" /><g transform="translate(134 71) rotate(282) scale(38 57)"><path d="M0 0h6e3v4e3H0z" fill="#000" /></g><g transform="translate(79.969322 138.034220) rotate(92.231611) scale(13.107730 219.874083)"><ellipse fill="#070402" fill-opacity=".501961" cx="0" cy="0" rx="1" ry="1" /></g><g transform="translate(103 17) rotate(98) scale(39 30)"><path d="M0 0h6e3v4e3H0z" fill="#fff" /></g><ellipse fill="#002000" fill-opacity=".501961" cx="225" cy="10" rx="107" ry="14" /><g transform="translate(15 12) rotate(85) scale(27 56)"><path d="M0 0h6e3v4e3H0z" fill="#000" /></g><path fill="#f5dbff" fill-opacity=".501961" d="M105.127854 149.837299 109.140528 151.176105l19.269233-59.370677L109.509902 103.077344z" /><ellipse fill="#9aa7b5" fill-opacity=".501961" cx="51" cy="76" rx="56" ry="20" /></g></svg>