<svg xmlns="http://www.w3.org/2000/svg" viewBox="0 0 6000 4000"><filter id="b"><feGaussianBlur stdDeviation="12" /></filter><path d="M0 0h6e3v4e3H0z" fill="#634f34" /><g filter="url(#b)" transform="scale(23.437500) translate(0.5 0.5)"><ellipse fill="#000" fill-opacity=".501961" cx="51" cy="32" rx="82" ry="56" /><g transform="translate(97.357855 113.780677) rotate(72.543863) scale(36.888587 70.587982)"><ellipse fill="#f0c290" fill-opacity=".501961" cx="0" cy="0" rx="1" ry="1" /></g><g transform="translate(179.376114 27.820923) rotate(248.896465) scale(28.646392 33.893919)"><ellipse fill="#b4c3ca" fill-opacity=".501961" cx="0" cy="0" rx="1" ry="1" /></g><g transform="translate(10 151) rotate(91) scale(37 42)"><path d="M0 0h6e3v4e3H0z" fill="#000" /></g><ellipse fill="#000001" fill-opacity=".501961" cx="30" cy="20" rx="96" ry="73" /><ellipse fill="#c37c1a" fill-opacity=".501961" cx="188" cy="167" rx="151" ry="22" /><ellipse fill="#ca9487" fill-opacity=".501961" cx="39" cy="59" rx="20" ry="13" /><g transform="translate(241.494348 54.537654) rotate(244.465152) scale(41.000373 20.367287)"><ellipse fill="#9e9c8f" fill-opacity=".501961" cx="0" cy="0" rx="1" ry="1" /></g></g></svg>