<svg xmlns="http://www.w3.org/2000/svg" viewBox="0 0 6000 4000"><filter id="b"><feGaussianBlur stdDeviation="12" /></filter><path d="M0 0h6e3v4e3H0z" fill="#8f857d" /><g filter="url(#b)" transform="scale(23.437500) translate(0.5 0.5)"><g transform="translate(76.666798 112.991660) rotate(125.881327) scale(99.696627 67.195422)"><ellipse fill="#150000" fill-opacity=".501961" cx="0" cy="0" rx="1" ry="1" /></g><g transform="translate(146.815013 12.339811) rotate(101.023386) scale(33.970364 255.000000)"><ellipse fill="#fff" fill-opacity=".501961" cx="0" cy="0" rx="1" ry="1" /></g><g transform="translate(211 152) rotate(159) scale(178 65)"><path d="M0 0h6e3v4e3H0z" fill="#fff" /></g><g transform="translate(191.726050 91.006313) rotate(76.839321) scale(34.951736 44.325837)"><ellipse fill="#190600" fill-opacity=".501961" cx="0" cy="0" rx="1" ry="1" /></g><g transform="translate(5.526861 53.120254) rotate(297.910298) scale(147.303493 26.225444)"><ellipse fill="#fff" fill-opacity=".501961" cx="0" cy="0" rx="1" ry="1" /></g><path fill="#271605" fill-opacity=".501961" d="M246 89 6 77 129 21z" /><g transform="translate(126.876397 112.968724) rotate(276.672898) scale(30.556486 40.926200)"><ellipse fill="#c1a688" fill-opacity=".501961" cx="0" cy="0" rx="1" ry="1" /></g><g transform="translate(222.925544 32.673751) rotate(197.038825) scale(120.443983 30.957117)"><ellipse fill="#fffff8" fill-opacity=".501961" cx="0" cy="0" rx="1" ry="1" /></g></g></svg>