<svg xmlns="http://www.w3.org/2000/svg" viewBox="0 0 6000 4000"><filter id="b"><feGaussianBlur stdDeviation="12" /></filter><path d="M0 0h6e3v4e3H0z" fill="#1c301a" /><g filter="url(#b)" transform="scale(23.437500) translate(0.5 0.5)"><path d="M0 0h6e3v4e3H0z" fill="#ffd1e3" /><g transform="translate(126.780281 136.389680) rotate(98.506346) scale(2.901162 17.172543)"><ellipse fill="#d7cdd6" fill-opacity=".501961" cx="0" cy="0" rx="1" ry="1" /></g><path fill="#dcc1c2" fill-opacity=".501961" d="M123.273421 48.954128 131.712026 69.737558 117.738652 73.892123 148.047311 74.887367z" /><ellipse fill="#0b1f0b" fill-opacity=".501961" cx="49" cy="131" rx="65" ry="101" /><path fill="#d2b5b5" fill-opacity=".501961" d="M138 102l7 13-9 27z" /><ellipse fill="#0a1b09" fill-opacity=".501961" cx="219" cy="124" rx="77" ry="55" /><path fill="#c0aaa9" fill-opacity=".501961" d="M123.205871 111.389717 114.846356 147.87316 115.193802 117.176064 118.221185 95.661208z" /><path fill="#665e6d" fill-opacity=".501961" d="M139 64l-35 9 16-33z" /></g></svg>