<svg xmlns="http://www.w3.org/2000/svg" viewBox="0 0 6000 4000"><filter id="b"><feGaussianBlur stdDeviation="12" /></filter><path d="M0 0h6e3v4e3H0z" fill="#959a92" /><g filter="url(#b)" transform="scale(23.437500) translate(0.5 0.5)"><g transform="translate(238.681733 105.371541) rotate(132.917371) scale(60.803824 73.184714)"><ellipse fill="#141803" fill-opacity=".501961" cx="0" cy="0" rx="1" ry="1" /></g><g transform="translate(189.304179 12.912347) rotate(358.916576) scale(98.853185 28.813562)"><ellipse fill="#fff" fill-opacity=".501961" cx="0" cy="0" rx="1" ry="1" /></g><ellipse fill="#eff4f6" fill-opacity=".501961" cx="85" cy="148" rx="66" ry="66" /><g transform="translate(4.938016 33.629404) rotate(17.164710) scale(38.672702 27.911287)"><ellipse fill="#000" fill-opacity=".501961" cx="0" cy="0" rx="1" ry="1" /></g><g transform="translate(148.712086 97.803002) rotate(144.105820) scale(19.650183 28.766866)"><ellipse fill="#080d00" fill-opacity=".501961" cx="0" cy="0" rx="1" ry="1" /></g><ellipse fill="#212914" fill-opacity=".501961" cx="104" cy="48" rx="237" ry="8" /><ellipse fill="#fff" fill-opacity=".501961" cx="199" cy="10" rx="100" ry="31" /><g transform="translate(108 101) rotate(84) scale(10 22)"><path d="M0 0h6e3v4e3H0z" fill="#000" /></g></g></svg>