<svg xmlns="http://www.w3.org/2000/svg" viewBox="0 0 6000 4000"><filter id="b"><feGaussianBlur stdDeviation="12" /></filter><path d="M0 0h6e3v4e3H0z" fill="#353535" /><g filter="url(#b)" transform="scale(23.437500) translate(0.5 0.5)"><path fill="#fff" fill-opacity=".501961" d="M210 71 35 51 40 3z" /><g transform="translate(113.018811 46.209866) rotate(292.068597) scale(13.543359 83.126418)"><ellipse fill="#fff" fill-opacity=".501961" cx="0" cy="0" rx="1" ry="1" /></g><g transform="translate(197.806507 29.508139) rotate(30.469519) scale(85.873525 37.766632)"><ellipse fill="#000" fill-opacity=".501961" cx="0" cy="0" rx="1" ry="1" /></g><g transform="translate(33.716006 75.880412) rotate(3.629312) scale(83.678564 26.291867)"><ellipse fill="#000" fill-opacity=".501961" cx="0" cy="0" rx="1" ry="1" /></g><path fill="#787878" fill-opacity=".501961" d="M44 90 31 171l131-59z" /><g transform="translate(16.866897 74.651573) rotate(271.236251) scale(124.329585 20.869408)"><ellipse fill="#000" fill-opacity=".501961" cx="0" cy="0" rx="1" ry="1" /></g><g transform="translate(233 147) rotate(26) scale(59 97)"><path d="M0 0h6e3v4e3H0z" fill="#000" /></g><g transform="translate(169.623431 3.976435) rotate(-80.742575) scale(39.074341 123.831468)"><ellipse fill="#000" fill-opacity=".501961" cx="0" cy="0" rx="1" ry="1" /></g></g></svg>