<svg xmlns="http://www.w3.org/2000/svg" viewBox="0 0 6000 4000"><filter id="b"><feGaussianBlur stdDeviation="12" /></filter><path d="M0 0h6e3v4e3H0z" fill="#565e59" /><g filter="url(#b)" transform="scale(23.437500) translate(0.5 0.5)"><g transform="translate(179.493185 40.836301) rotate(170.305700) scale(162.220331 46.746646)"><ellipse fill="#c5e2e7" fill-opacity=".501961" cx="0" cy="0" rx="1" ry="1" /></g><g transform="translate(163.959769 138.658559) rotate(85.803337) scale(45.623349 255.000000)"><ellipse fill="#000" fill-opacity=".501961" cx="0" cy="0" rx="1" ry="1" /></g><ellipse fill="#000" fill-opacity=".501961" cx="193" cy="138" rx="115" ry="32" /><g transform="translate(132.923641 78.161510) rotate(169.437158) scale(68.665963 15.119615)"><ellipse fill="#e3e3d6" fill-opacity=".501961" cx="0" cy="0" rx="1" ry="1" /></g><g transform="translate(46.201604 106.365032) rotate(107.093991) scale(18.204219 106.719991)"><ellipse fill="#1b0d00" fill-opacity=".501961" cx="0" cy="0" rx="1" ry="1" /></g><g transform="translate(150.922925 0.000000) rotate(248.479233) scale(29.339618 200.020851)"><ellipse fill="#52757f" fill-opacity=".501961" cx="0" cy="0" rx="1" ry="1" /></g><path fill="#c7d4d1" fill-opacity=".501961" d="M250 75 226 36 106 80z" /><g transform="translate(46.667235 148.546215) rotate(297.719272) scale(31.223895 98.533906)"><ellipse fill="#5e4119" fill-opacity=".501961" cx="0" cy="0" rx="1" ry="1" /></g></g></svg>