<svg xmlns="http://www.w3.org/2000/svg" viewBox="0 0 6000 4000"><filter id="b"><feGaussianBlur stdDeviation="12" /></filter><path d="M0 0h6e3v4e3H0z" fill="#36372e" /><g filter="url(#b)" transform="scale(23.437500) translate(0.5 0.5)"><g transform="translate(79.665882 139.496417) rotate(239.984349) scale(51.243219 26.228713)"><ellipse fill="#ffffcf" fill-opacity=".501961" cx="0" cy="0" rx="1" ry="1" /></g><g transform="translate(33 112) rotate(91) scale(23 125)"><path d="M0 0h6e3v4e3H0z" fill="#ffe6b6" /></g><g transform="translate(141.558327 20.638583) rotate(185.719368) scale(255.000000 47.580473)"><ellipse fill="#000001" fill-opacity=".501961" cx="0" cy="0" rx="1" ry="1" /></g><g transform="translate(43.812290 148.378231) rotate(200.090336) scale(16.384720 29.511110)"><ellipse fill="#000" fill-opacity=".501961" cx="0" cy="0" rx="1" ry="1" /></g><path fill="#e8c396" fill-opacity=".501961" d="M117 181l44-2-26-58z" /><ellipse fill="#ffe0bb" fill-opacity=".501961" cx="77" cy="169" rx="18" ry="73" /><ellipse fill="#ffeab1" fill-opacity=".501961" cx="18" cy="157" rx="5" ry="25" /><path fill="#8a6348" fill-opacity=".501961" d="M105.545194 139.551186 139.059416 123.453424 80.937245 91.215527 102.725995 185z" /></g></svg>