<svg xmlns="http://www.w3.org/2000/svg" viewBox="0 0 6000 4000"><filter id="b"><feGaussianBlur stdDeviation="12" /></filter><path d="M0 0h6e3v4e3H0z" fill="#454438" /><g filter="url(#b)" transform="scale(23.437500) translate(0.5 0.5)"><path fill="#fff" fill-opacity=".501961" d="M-9 68-1-4 174 70z" /><ellipse fill="#000" fill-opacity=".501961" cx="193" cy="26" rx="106" ry="32" /><path fill="#fff" fill-opacity=".501961" d="M271 54 220 80 136 59z" /><g transform="translate(16.241389 31.711624) rotate(280.584472) scale(21.716796 90.803570)"><ellipse fill="#fffff1" fill-opacity=".501961" cx="0" cy="0" rx="1" ry="1" /></g><g transform="translate(63.639676 157.203473) rotate(273.008957) scale(34.367591 181.942279)"><ellipse fill="#000" fill-opacity=".501961" cx="0" cy="0" rx="1" ry="1" /></g><path d="M0 0h6e3v4e3H0z" fill="#000" /><path fill="#000" fill-opacity=".501961" d="M-16-5 175 57 271-6z" /><g transform="translate(140.050465 125.437994) rotate(276.687531) scale(2.911523 104.645581)"><ellipse fill="#fce4c4" fill-opacity=".501961" cx="0" cy="0" rx="1" ry="1" /></g></g></svg>