<svg xmlns="http://www.w3.org/2000/svg" viewBox="0 0 6000 4000"><filter id="b"><feGaussianBlur stdDeviation="12" /></filter><path d="M0 0h6e3v4e3H0z" fill="#45504c" /><g filter="url(#b)" transform="scale(23.437500) translate(0.5 0.5)"><g transform="translate(193.346458 57.825872) rotate(175.781204) scale(135.843305 38.852399)"><ellipse fill="#dbefeb" fill-opacity=".501961" cx="0" cy="0" rx="1" ry="1" /></g><g transform="translate(120.018509 141.525320) rotate(189.261704) scale(255.000000 52.084439)"><ellipse fill="#000" fill-opacity=".501961" cx="0" cy="0" rx="1" ry="1" /></g><g transform="translate(90.756374 143.827253) rotate(8.803388) scale(255.000000 41.379543)"><ellipse fill="#000" fill-opacity=".501961" cx="0" cy="0" rx="1" ry="1" /></g><ellipse fill="#63838d" fill-opacity=".501961" cx="181" cy="26" rx="114" ry="29" /><ellipse fill="#b7bdb1" fill-opacity=".501961" cx="152" cy="77" rx="103" ry="25" /><path fill="#667d7e" fill-opacity=".501961" d="M261-16-14 57 80 88z" /><g transform="translate(148.743026 103.681285) rotate(-9.894052) scale(39.901612 15.430550)"><ellipse fill="#60736a" fill-opacity=".501961" cx="0" cy="0" rx="1" ry="1" /></g><ellipse fill="#dcdcce" fill-opacity=".501961" cx="241" cy="77" rx="160" ry="12" /></g></svg>