<svg xmlns="http://www.w3.org/2000/svg" viewBox="0 0 6000 4000"><filter id="b"><feGaussianBlur stdDeviation="12" /></filter><path d="M0 0h6e3v4e3H0z" fill="#51707a" /><g filter="url(#b)" transform="scale(23.437500) translate(0.5 0.5)"><g transform="translate(146.020726 33.953396) rotate(81.263072) scale(41.738426 162.288656)"><ellipse fill="#d3ffff" fill-opacity=".501961" cx="0" cy="0" rx="1" ry="1" /></g><g transform="translate(201.513736 127.398653) rotate(250.637695) scale(53.177380 255.000000)"><ellipse fill="#000" fill-opacity=".501961" cx="0" cy="0" rx="1" ry="1" /></g><g transform="translate(203.695302 129.613439) rotate(141.065578) scale(90.714472 50.259194)"><ellipse fill="#000" fill-opacity=".501961" cx="0" cy="0" rx="1" ry="1" /></g><g transform="translate(10.512882 133.769841) rotate(30.099067) scale(105.389133 33.867409)"><ellipse fill="#001b1b" fill-opacity=".501961" cx="0" cy="0" rx="1" ry="1" /></g><g transform="translate(203.277326 51.425070) rotate(249.797021) scale(18.583453 58.039444)"><ellipse fill="#cae7fc" fill-opacity=".501961" cx="0" cy="0" rx="1" ry="1" /></g><g transform="translate(127.215467 106.883611) rotate(237.236720) scale(15.212643 23.767552)"><ellipse fill="#83b7c7" fill-opacity=".501961" cx="0" cy="0" rx="1" ry="1" /></g><g transform="translate(69.608481 1.107972) rotate(255.238305) scale(35.042469 178.533879)"><ellipse fill="#3e94c9" fill-opacity=".501961" cx="0" cy="0" rx="1" ry="1" /></g><path fill="#c2e9ff" fill-opacity=".501961" d="M172 15 157 75-16 79z" /></g></svg>