<svg xmlns="http://www.w3.org/2000/svg" viewBox="0 0 6000 4000"><filter id="b"><feGaussianBlur stdDeviation="12" /></filter><path d="M0 0h6e3v4e3H0z" fill="#312a15" /><g filter="url(#b)" transform="scale(23.437500) translate(0.5 0.5)"><g transform="translate(164.121838 89.513998) rotate(89.834076) scale(20.328973 148.886406)"><ellipse fill="#c19b3f" fill-opacity=".501961" cx="0" cy="0" rx="1" ry="1" /></g><g transform="translate(222.768012 0.000000) rotate(123.858821) scale(22.980925 14.469633)"><ellipse fill="#fff" fill-opacity=".501961" cx="0" cy="0" rx="1" ry="1" /></g><g transform="translate(145.657466 150.324465) rotate(358.767441) scale(213.002985 27.938873)"><ellipse fill="#000" fill-opacity=".501961" cx="0" cy="0" rx="1" ry="1" /></g><ellipse fill="#fffdf4" fill-opacity=".501961" cx="27" cy="47" rx="10" ry="13" /><g transform="translate(87.912740 35.500561) rotate(121.900378) scale(9.082723 9.666469)"><ellipse fill="#fffffc" fill-opacity=".501961" cx="0" cy="0" rx="1" ry="1" /></g><g transform="translate(147.492755 23.420483) rotate(47.364676) scale(53.040203 49.888055)"><ellipse fill="#000" fill-opacity=".501961" cx="0" cy="0" rx="1" ry="1" /></g><g transform="translate(189.379962 74.354717) rotate(69.387494) scale(13.122539 60.578219)"><ellipse fill="#ac9052" fill-opacity=".501961" cx="0" cy="0" rx="1" ry="1" /></g><g transform="translate(46.046269 8.032657) rotate(75.471397) scale(30.770015 65.480089)"><ellipse fill="#000" fill-opacity=".501961" cx="0" cy="0" rx="1" ry="1" /></g></g></svg>