<svg xmlns="http://www.w3.org/2000/svg" viewBox="0 0 6000 4000"><filter id="b"><feGaussianBlur stdDeviation="12" /></filter><path d="M0 0h6e3v4e3H0z" fill="#4e5249" /><g filter="url(#b)" transform="scale(23.437500) translate(0.5 0.5)"><g transform="translate(26.341479 69.122066) rotate(24.457604) scale(95.020457 56.459881)"><ellipse fill="#000" fill-opacity=".501961" cx="0" cy="0" rx="1" ry="1" /></g><path fill="#ffd7a6" fill-opacity=".501961" d="M-16 144l218-31L65 185z" /><ellipse fill="#91b0b7" fill-opacity=".501961" cx="215" cy="66" rx="104" ry="35" /><g transform="translate(234 149) rotate(190) scale(47 54)"><path d="M0 0h6e3v4e3H0z" fill="#cfa274" /></g><g transform="translate(20.618971 74.591992) rotate(379.715451) scale(126.813278 38.639614)"><ellipse fill="#040000" fill-opacity=".501961" cx="0" cy="0" rx="1" ry="1" /></g><path d="M0 0h6e3v4e3H0z" fill="#000" /><ellipse fill="#2b5464" fill-opacity=".501961" cx="117" cy="15" rx="96" ry="49" /><g transform="translate(176.206786 143.295079) rotate(141.421165) scale(64.245925 10.403967)"><ellipse fill="#1f0a00" fill-opacity=".501961" cx="0" cy="0" rx="1" ry="1" /></g></g></svg>