<svg xmlns="http://www.w3.org/2000/svg" viewBox="0 0 6000 4000"><filter id="b"><feGaussianBlur stdDeviation="12" /></filter><path d="M0 0h6e3v4e3H0z" fill="#373737" /><g filter="url(#b)" transform="scale(23.437500) translate(0.5 0.5)"><g transform="translate(95.906444 108.362739) rotate(100.234677) scale(39.194782 22.707971)"><ellipse fill="#fff" fill-opacity=".501961" cx="0" cy="0" rx="1" ry="1" /></g><g transform="translate(217.109447 95.969620) rotate(7.025734) scale(78.462151 111.508550)"><ellipse fill="#0b0b0b" fill-opacity=".501961" cx="0" cy="0" rx="1" ry="1" /></g><g transform="translate(95.998476 43.352935) rotate(374.656850) scale(25.298391 59.980133)"><ellipse fill="#818181" fill-opacity=".501961" cx="0" cy="0" rx="1" ry="1" /></g><g transform="translate(92 120) rotate(26) scale(30 43)"><path d="M0 0h6e3v4e3H0z" fill="#fff" /></g><g transform="translate(195 86) rotate(390) scale(22 18)"><path d="M0 0h6e3v4e3H0z" fill="#cdcdcd" /></g><g transform="translate(32.728975 158.291524) rotate(267.500680) scale(25.748866 62.344207)"><ellipse fill="#000" fill-opacity=".501961" cx="0" cy="0" rx="1" ry="1" /></g><g transform="translate(139 160) rotate(187) scale(21 7)"><path d="M0 0h6e3v4e3H0z" fill="#fff" /></g><ellipse fill="#fff" fill-opacity=".501961" cx="117" cy="16" rx="3" ry="40" /></g></svg>