<svg xmlns="http://www.w3.org/2000/svg" viewBox="0 0 6000 4000"><filter id="b"><feGaussianBlur stdDeviation="12" /></filter><path d="M0 0h6e3v4e3H0z" fill="#404040" /><g filter="url(#b)" transform="scale(23.437500) translate(0.5 0.5)"><g transform="translate(194.890539 57.720620) rotate(97.810032) scale(42.524806 62.413443)"><ellipse fill="#fff" fill-opacity=".501961" cx="0" cy="0" rx="1" ry="1" /></g><ellipse fill="#000" fill-opacity=".501961" cx="0" cy="113" rx="117" ry="117" /><g transform="translate(203.754611 67.660882) rotate(260.306290) scale(24.148972 42.052728)"><ellipse fill="#fff" fill-opacity=".501961" cx="0" cy="0" rx="1" ry="1" /></g><ellipse fill="#030303" fill-opacity=".501961" cx="100" cy="145" rx="253" ry="37" /><path fill="#848484" fill-opacity=".501961" d="M205-16 83 67l64 35z" /><g transform="translate(93.533792 16.555968) rotate(116.876484) scale(24.995173 65.137495)"><ellipse fill="#1a1a1a" fill-opacity=".501961" cx="0" cy="0" rx="1" ry="1" /></g><path fill="#606060" fill-opacity=".501961" d="M210-10l50 55H204z" /><path fill="#fcfcfc" fill-opacity=".501961" d="M116 66l-7 25-6-23z" /></g></svg>