<svg xmlns="http://www.w3.org/2000/svg" viewBox="0 0 6000 4000"><filter id="b"><feGaussianBlur stdDeviation="12" /></filter><path d="M0 0h6e3v4e3H0z" fill="#212121" /><g filter="url(#b)" transform="scale(23.437500) translate(0.5 0.5)"><g transform="translate(202.072361 84.319335) rotate(52.760557) scale(20.134009 14.632668)"><ellipse fill="#fbfbfb" fill-opacity=".501961" cx="0" cy="0" rx="1" ry="1" /></g><path fill="#d0d0d0" fill-opacity=".501961" d="M126 126l16-6-7-47z" /><g transform="translate(212.768056 0.000000) rotate(209.453849) scale(23.078978 4.087362)"><ellipse fill="#f5f5f5" fill-opacity=".501961" cx="0" cy="0" rx="1" ry="1" /></g><g transform="translate(192.517541 46.779724) rotate(111.533954) scale(48.227926 22.003112)"><ellipse fill="#484848" fill-opacity=".501961" cx="0" cy="0" rx="1" ry="1" /></g><path fill="#dcdcdc" fill-opacity=".501961" d="M124.862816 58.685199 138.454629 83.365517 116.955234 71.767219 126.975709 63.187663z" /><ellipse fill="#fff" fill-opacity=".501961" cx="208" cy="88" rx="9" ry="9" /><ellipse fill="#0e0e0e" fill-opacity=".501961" cx="0" cy="83" rx="98" ry="98" /><g transform="translate(126 122) rotate(80) scale(13 18)"><path d="M0 0h6e3v4e3H0z" fill="#c9c9c9" /></g></g></svg>