<svg xmlns="http://www.w3.org/2000/svg" viewBox="0 0 6000 4000"><filter id="b"><feGaussianBlur stdDeviation="12" /></filter><path d="M0 0h6e3v4e3H0z" fill="#343434" /><g filter="url(#b)" transform="scale(23.437500) translate(0.5 0.5)"><g transform="translate(64.939393 59.051829) rotate(90.724541) scale(69.093192 28.734847)"><ellipse fill="#e9e9e9" fill-opacity=".501961" cx="0" cy="0" rx="1" ry="1" /></g><g transform="translate(79 83) rotate(344) scale(28 36)"><path d="M0 0h6e3v4e3H0z" fill="#fff" /></g><g transform="translate(227.876286 100.739237) rotate(269.078630) scale(251.847077 69.419190)"><ellipse fill="#000" fill-opacity=".501961" cx="0" cy="0" rx="1" ry="1" /></g><g transform="translate(131 85) rotate(117) scale(30 28)"><path d="M0 0h6e3v4e3H0z" fill="#c7c7c7" /></g><g transform="translate(37.082906 37.186878) rotate(415.605759) scale(43.036704 37.355251)"><ellipse fill="#6a6a6a" fill-opacity=".501961" cx="0" cy="0" rx="1" ry="1" /></g><g transform="translate(113.899648 144.639694) rotate(243.996421) scale(51.575986 45.619539)"><ellipse fill="#050505" fill-opacity=".501961" cx="0" cy="0" rx="1" ry="1" /></g><g transform="translate(0.962437 142.763833) rotate(218.518898) scale(180.039328 32.585041)"><ellipse fill="#060606" fill-opacity=".501961" cx="0" cy="0" rx="1" ry="1" /></g><g transform="translate(130.042823 7.990047) rotate(47.166548) scale(45.932491 29.724369)"><ellipse fill="#090909" fill-opacity=".501961" cx="0" cy="0" rx="1" ry="1" /></g></g></svg>