<svg xmlns="http://www.w3.org/2000/svg" viewBox="0 0 6000 4000"><filter id="b"><feGaussianBlur stdDeviation="12" /></filter><path d="M0 0h6e3v4e3H0z" fill="#1f1f1f" /><g filter="url(#b)" transform="scale(23.437500) translate(0.5 0.5)"><path fill="#e8e8e8" fill-opacity=".501961" d="M109 121l7-24-34 22z" /><g transform="translate(119.241151 54.363658) rotate(145.508770) scale(32.432891 23.152626)"><ellipse fill="#626262" fill-opacity=".501961" cx="0" cy="0" rx="1" ry="1" /></g><path d="M0 0h6e3v4e3H0z" fill="#c2c2c2" /><ellipse fill="#111" fill-opacity=".501961" cx="193" cy="149" rx="85" ry="85" /><path d="M0 0h6e3v4e3H0z" fill="#050505" /><path fill="#7e7e7e" fill-opacity=".501961" d="M90 69l34-16-6 26z" /><path fill="#5d5d5d" fill-opacity=".501961" d="M96 103 80 122l35 13z" /><path fill="#8c8c8c" fill-opacity=".501961" d="M174.778617 52.043047 159.084189 40.859244 125.060041 34.709032 129.653398 40.417507z" /></g></svg>