<svg xmlns="http://www.w3.org/2000/svg" viewBox="0 0 6000 4000"><filter id="b"><feGaussianBlur stdDeviation="12" /></filter><path d="M0 0h6e3v4e3H0z" fill="#505050" /><g filter="url(#b)" transform="scale(23.437500) translate(0.5 0.5)"><g transform="translate(177.768965 13.897092) rotate(179.091352) scale(114.527298 17.516274)"><ellipse fill="#fff" fill-opacity=".501961" cx="0" cy="0" rx="1" ry="1" /></g><g transform="translate(78.664497 94.484148) rotate(-6.244313) scale(45.826785 18.012311)"><ellipse fill="#fff" fill-opacity=".501961" cx="0" cy="0" rx="1" ry="1" /></g><g transform="translate(214.196951 135.976808) rotate(147.222727) scale(69.244825 91.818161)"><ellipse fill="#000" fill-opacity=".501961" cx="0" cy="0" rx="1" ry="1" /></g><ellipse fill="#fff" fill-opacity=".501961" cx="225" cy="6" rx="139" ry="23" /><g transform="translate(1.178573 97.867506) rotate(283.016819) scale(128.470850 33.142862)"><ellipse fill="#000" fill-opacity=".501961" cx="0" cy="0" rx="1" ry="1" /></g><g transform="translate(104.423382 25.149779) rotate(166.571401) scale(15.254959 34.020513)"><ellipse fill="#fff" fill-opacity=".501961" cx="0" cy="0" rx="1" ry="1" /></g><g transform="translate(48.915579 157.337774) rotate(160.801528) scale(68.187774 23.850673)"><ellipse fill="#000" fill-opacity=".501961" cx="0" cy="0" rx="1" ry="1" /></g><ellipse fill="#232323" fill-opacity=".501961" cx="66" cy="0" rx="22" ry="87" /></g></svg>