<svg xmlns="http://www.w3.org/2000/svg" viewBox="0 0 6000 4000"><filter id="b"><feGaussianBlur stdDeviation="12" /></filter><path d="M0 0h6e3v4e3H0z" fill="#252525" /><g filter="url(#b)" transform="scale(23.437500) translate(0.5 0.5)"><g transform="translate(127.984632 53.420384) rotate(348.019451) scale(53.672111 30.900354)"><ellipse fill="#f2f2f2" fill-opacity=".501961" cx="0" cy="0" rx="1" ry="1" /></g><g transform="translate(255.000000 58.511012) rotate(355.363326) scale(27.996381 12.681259)"><ellipse fill="#fff" fill-opacity=".501961" cx="0" cy="0" rx="1" ry="1" /></g><path d="M0 0h6e3v4e3H0z" fill="#000" /><path d="M0 0h6e3v4e3H0z" fill="#e3e3e3" /><ellipse fill="#000" fill-opacity=".501961" cx="16" cy="3" rx="47" ry="169" /><ellipse fill="#000" fill-opacity=".501961" cx="156" cy="83" rx="17" ry="20" /><path fill="#595959" fill-opacity=".501961" d="M185.717706 85.947303 251.165551 70.223601 219.443974 56.59153 112.138605-16z" /><path fill="#474747" fill-opacity=".501961" d="M69.821679 111.547913 146.065102 92.428322 61.60068 57.346001 45.440379 71.407077z" /></g></svg>