<svg xmlns="http://www.w3.org/2000/svg" viewBox="0 0 6000 4000"><filter id="b"><feGaussianBlur stdDeviation="12" /></filter><path d="M0 0h6e3v4e3H0z" fill="#050505" /><g filter="url(#b)" transform="scale(23.437500) translate(0.5 0.5)"><path d="M0 0h6e3v4e3H0z" fill="#fff" /><g transform="translate(114.160400 74.362103) rotate(61.850094) scale(7.126216 8.001507)"><ellipse fill="#dcdcdc" fill-opacity=".501961" cx="0" cy="0" rx="1" ry="1" /></g><path fill="#292929" fill-opacity=".501961" d="M142.516646 53.136126 76.125641 48.638819 61.091706 73.191024 83.851526 91.110754z" /><path d="M0 0h6e3v4e3H0z" fill="#fff" /><path fill="#fff" fill-opacity=".501961" d="M116 70l-1 9-4-2z" /><path d="M0 0h6e3v4e3H0z" fill="#282828" /><path fill="#191919" fill-opacity=".501961" d="M106.867019 89.206353 120.993893 78.309448 70.766568 13.673129 176.875429 83.758402z" /><path fill="#3b3b3b" fill-opacity=".501961" d="M90 72 76 83l51 2z" /></g></svg>