<svg xmlns="http://www.w3.org/2000/svg" viewBox="0 0 6000 4000"><filter id="b"><feGaussianBlur stdDeviation="12" /></filter><path d="M0 0h6e3v4e3H0z" fill="#111" /><g filter="url(#b)" transform="scale(23.437500) translate(0.5 0.5)"><g transform="translate(98.087870 112.052852) rotate(222.911761) scale(23.023385 42.371783)"><ellipse fill="#e8e8e8" fill-opacity=".501961" cx="0" cy="0" rx="1" ry="1" /></g><g transform="translate(85 120) rotate(166) scale(27 34)"><path d="M0 0h6e3v4e3H0z" fill="#fff" /></g><g transform="translate(108 84) rotate(260) scale(30 76)"><path d="M0 0h6e3v4e3H0z" fill="#1f1f1f" /></g><g transform="translate(92.533775 148.757645) rotate(46.140163) scale(11.732709 73.109647)"><ellipse fill="#4d4d4d" fill-opacity=".501961" cx="0" cy="0" rx="1" ry="1" /></g><ellipse fill="#000" fill-opacity=".501961" cx="219" cy="18" rx="84" ry="168" /><ellipse fill="#000" fill-opacity=".501961" cx="83" cy="26" rx="255" ry="41" /><g transform="translate(83 71) rotate(234) scale(9 13)"><path d="M0 0h6e3v4e3H0z" fill="#f3f3f3" /></g><path d="M0 0h6e3v4e3H0z" fill="#fff" /></g></svg>