<svg xmlns="http://www.w3.org/2000/svg" viewBox="0 0 6000 4000"><filter id="b"><feGaussianBlur stdDeviation="12" /></filter><path d="M0 0h6e3v4e3H0z" fill="#444" /><g filter="url(#b)" transform="scale(23.437500) translate(0.5 0.5)"><g transform="translate(137.324562 62.036446) rotate(183.724929) scale(76.088826 31.458554)"><ellipse fill="#fff" fill-opacity=".501961" cx="0" cy="0" rx="1" ry="1" /></g><g transform="translate(149 58) rotate(270) scale(47 95)"><path d="M0 0h6e3v4e3H0z" fill="#fff" /></g><g transform="translate(113.051256 138.470045) rotate(94.530289) scale(43.676461 252.821455)"><ellipse fill="#000" fill-opacity=".501961" cx="0" cy="0" rx="1" ry="1" /></g><g transform="translate(248.602103 69.421259) rotate(2.689237) scale(32.560476 109.316963)"><ellipse fill="#000" fill-opacity=".501961" cx="0" cy="0" rx="1" ry="1" /></g><g transform="translate(0.000000 22.309236) rotate(114.661950) scale(93.404038 58.788299)"><ellipse fill="#030303" fill-opacity=".501961" cx="0" cy="0" rx="1" ry="1" /></g><path fill="#fefefe" fill-opacity=".501961" d="M166 38l-33 80L87 36z" /><path fill="#aeaeae" fill-opacity=".501961" d="M237.144109 15.174408 215.60996 20.97531 74.772206 18.385972 140.680189 5.423156z" /><path fill="#111" fill-opacity=".501961" d="M153.949582 185 186.85621 89.885275 151.45837 76.819016l-44.725764 74.924777z" /></g></svg>