<svg xmlns="http://www.w3.org/2000/svg" viewBox="0 0 6000 4000"><filter id="b"><feGaussianBlur stdDeviation="12" /></filter><path d="M0 0h6e3v4e3H0z" fill="#6a6a6a" /><g filter="url(#b)" transform="scale(23.437500) translate(0.5 0.5)"><ellipse fill="#fff" fill-opacity=".501961" cx="154" cy="20" rx="87" ry="87" /><g transform="translate(69.903199 128.354379) rotate(283.360728) scale(54.880360 255.000000)"><ellipse fill="#000" fill-opacity=".501961" cx="0" cy="0" rx="1" ry="1" /></g><g transform="translate(155.169921 69.753184) rotate(579.980626) scale(53.147593 59.555640)"><ellipse fill="#fcfcfc" fill-opacity=".501961" cx="0" cy="0" rx="1" ry="1" /></g><g transform="translate(222 142) rotate(227) scale(71 169)"><path d="M0 0h6e3v4e3H0z" fill="#000" /></g><g transform="translate(21.946670 107.196282) rotate(245.931108) scale(121.699731 53.259318)"><ellipse fill="#000" fill-opacity=".501961" cx="0" cy="0" rx="1" ry="1" /></g><g transform="translate(161 109) rotate(158) scale(19 38)"><path d="M0 0h6e3v4e3H0z" fill="#000" /></g><path fill="#202020" fill-opacity=".501961" d="M170.571089-10.505448 81.092727 3.009194 137.608405 28.287157 149.651878-16z" /><g transform="translate(215 31) rotate(20) scale(31 82)"><path d="M0 0h6e3v4e3H0z" fill="#fff" /></g></g></svg>