<svg xmlns="http://www.w3.org/2000/svg" viewBox="0 0 6000 4000"><filter id="b"><feGaussianBlur stdDeviation="12" /></filter><path d="M0 0h6e3v4e3H0z" fill="#191919" /><g filter="url(#b)" transform="scale(23.437500) translate(0.5 0.5)"><path fill="#dcdcdc" fill-opacity=".501961" d="M169 29 87 139l1-88z" /><g transform="translate(111 37) rotate(212) scale(52 16)"><path d="M0 0h6e3v4e3H0z" fill="#efefef" /></g><path fill="#e8e8e8" fill-opacity=".501961" d="M210.361032 35.556519 196.745106 74.782527 169.707615 28.102877 155.169596 45.254478z" /><path d="M0 0h6e3v4e3H0z" fill="#000" /><g transform="translate(98.033547 47.792111) rotate(146.399860) scale(28.541627 11.328876)"><ellipse fill="#000" fill-opacity=".501961" cx="0" cy="0" rx="1" ry="1" /></g><path fill="#f0f0f0" fill-opacity=".501961" d="M111.205636 112.012975 81.148143 68.360918 107.144344 54.564037 95.813887 135.358692z" /><g transform="translate(35.008505 68.479118) rotate(370.217798) scale(46.343805 168.704078)"><ellipse fill="#000" fill-opacity=".501961" cx="0" cy="0" rx="1" ry="1" /></g><path fill="#272727" fill-opacity=".501961" d="M131.404371 76.547955 76.485875 170.560137 201.647771 53.725287 133.0493 45.654173z" /></g></svg>