<svg xmlns="http://www.w3.org/2000/svg" viewBox="0 0 6000 4000"><filter id="b"><feGaussianBlur stdDeviation="12" /></filter><path d="M0 0h6e3v4e3H0z" fill="#1e1e1e" /><g filter="url(#b)" transform="scale(23.437500) translate(0.5 0.5)"><path fill="#ebebeb" fill-opacity=".501961" d="M87.570306 113.14692 62.590075 67.956294 151.499169 85.266456 138.51586 57.401148z" /><path fill="#fff" fill-opacity=".501961" d="M95.590757 72.288339 80.539421 83.507004 77.546391 105.04292 99.779885 95.784057z" /><g transform="translate(95 70) rotate(362) scale(63 23)"><path d="M0 0h6e3v4e3H0z" fill="#3f3f3f" /></g><path fill="#c7c7c7" fill-opacity=".501961" d="M156 78 119 65l30 24z" /><g transform="translate(37.878439 83.218248) rotate(184.243672) scale(35.183265 143.743958)"><ellipse fill="#111" fill-opacity=".501961" cx="0" cy="0" rx="1" ry="1" /></g><path fill="#4e4e4e" fill-opacity=".501961" d="M132.264742 62.639242 106.685195 112.451757 69.576744 117.962072 110.942492 79.640892z" /><path fill="#101010" fill-opacity=".501961" d="M121 62 271 75 236-16z" /><path fill="#fff" fill-opacity=".501961" d="M96 94 86 73l-8 27z" /></g></svg>