<svg xmlns="http://www.w3.org/2000/svg" viewBox="0 0 6000 4000"><filter id="b"><feGaussianBlur stdDeviation="12" /></filter><path d="M0 0h6e3v4e3H0z" fill="#212121" /><g filter="url(#b)" transform="scale(23.437500) translate(0.5 0.5)"><ellipse fill="#9d9d9d" fill-opacity=".501961" cx="82" cy="123" rx="54" ry="35" /><path fill="#fff" fill-opacity=".501961" d="M1e2 131l22 23 17-57z" /><g transform="translate(166.064052 0.000000) rotate(24.285712) scale(145.539092 91.280768)"><ellipse fill="#000" fill-opacity=".501961" cx="0" cy="0" rx="1" ry="1" /></g><path fill="#000" fill-opacity=".501961" d="M116 83 90 162 57 152z" /><path fill="#fff" fill-opacity=".501961" d="M56.091333 94.141657 64.658798 104.001207 64.531269 126.859611 48.443982 122.67908z" /><path fill="#919191" fill-opacity=".501961" d="M148.826875 183.073225 191.244554 168.787019 187.322727 146.324397 178.954933 132.330444z" /><path fill="#fff" fill-opacity=".501961" d="M105 124l28 61-13-79z" /><path fill="#fff" fill-opacity=".501961" d="M128.223331 127.434068 106.530498 122.294535 99.673149 183.896205 110.99083 146.336732z" /></g></svg>