<svg xmlns="http://www.w3.org/2000/svg" viewBox="0 0 6000 4000"><filter id="b"><feGaussianBlur stdDeviation="12" /></filter><path d="M0 0h6e3v4e3H0z" fill="#121212" /><g filter="url(#b)" transform="scale(23.437500) translate(0.5 0.5)"><ellipse fill="#fff" fill-opacity=".501961" cx="98" cy="110" rx="18" ry="29" /><path d="M0 0h6e3v4e3H0z" fill="#fff" /><path fill="#e2e2e2" fill-opacity=".501961" d="M114.000853 53.121489 95.280216 38.20708 94.477644 71.134575 101.537696 55.438306z" /><path d="M0 0h6e3v4e3H0z" fill="#8d8d8d" /><path fill="#727272" fill-opacity=".501961" d="M74.535987 84.720602 92.920431 168.419286 117.921624 146.649841 114.993568 129.681096z" /><g transform="translate(137.280984 22.052600) rotate(273.184178) scale(26.607808 156.252693)"><ellipse fill="#000" fill-opacity=".501961" cx="0" cy="0" rx="1" ry="1" /></g><path d="M0 0h6e3v4e3H0z" fill="#fff" /><g transform="translate(31.883115 75.262613) rotate(255.454727) scale(187.708011 44.660643)"><ellipse fill="#000" fill-opacity=".501961" cx="0" cy="0" rx="1" ry="1" /></g></g></svg>