<svg xmlns="http://www.w3.org/2000/svg" viewBox="0 0 5062 3375"><filter id="b"><feGaussianBlur stdDeviation="12" /></filter><path d="M0 0h5062v3375H0z" fill="#595959" /><g filter="url(#b)" transform="scale(19.773438) translate(0.5 0.5)"><g transform="translate(198.847398 11.943430) rotate(257.339971) scale(32.427707 73.067198)"><ellipse fill="#fff" fill-opacity=".501961" cx="0" cy="0" rx="1" ry="1" /></g><g transform="translate(40.145009 33.276520) rotate(269.797583) scale(28.448462 53.557847)"><ellipse fill="#fff" fill-opacity=".501961" cx="0" cy="0" rx="1" ry="1" /></g><g transform="translate(115.978591 141.518860) rotate(103.422886) scale(69.366330 143.400963)"><ellipse fill="#010101" fill-opacity=".501961" cx="0" cy="0" rx="1" ry="1" /></g><g transform="translate(173 19) rotate(351) scale(60 51)"><path d="M0 0h5062v3375H0z" fill="#fff" /></g><path fill="#ababab" fill-opacity=".501961" d="M218.291956 84.793867 150.002097 115.402885 157.390585 137.749607 235.683392 119.42892z" /><path d="M0 0h5062v3375H0z" fill="#fff" /><ellipse fill="#010101" fill-opacity=".501961" cx="237" cy="60" rx="59" ry="14" /><path fill="#dfdfdf" fill-opacity=".501961" d="M169.759564 128.566364 182.779894 102.922924 171.29125 99.418422 161.589445 97.413889z" /></g></svg>