<svg xmlns="http://www.w3.org/2000/svg" viewBox="0 0 6000 4000"><filter id="b"><feGaussianBlur stdDeviation="12" /></filter><path d="M0 0h6e3v4e3H0z" fill="#202020" /><g filter="url(#b)" transform="scale(23.437500) translate(0.5 0.5)"><g transform="translate(173.708099 11.145287) rotate(91.140310) scale(26.747821 20.247238)"><ellipse fill="#f7f7f7" fill-opacity=".501961" cx="0" cy="0" rx="1" ry="1" /></g><g transform="translate(84.180151 0.498538) rotate(138.119276) scale(24.432539 47.788481)"><ellipse fill="#cacaca" fill-opacity=".501961" cx="0" cy="0" rx="1" ry="1" /></g><g transform="translate(62 0) rotate(0) scale(106 10)"><path d="M0 0h6e3v4e3H0z" fill="#fff" /></g><path fill="#000" fill-opacity=".501961" d="M271 55-16 160l271 25z" /><path fill="#585858" fill-opacity=".501961" d="M249 72 134 63l8-66z" /><g transform="translate(183 2) rotate(193) scale(18 33)"><path d="M0 0h6e3v4e3H0z" fill="#fff" /></g><path fill="#3b3b3b" fill-opacity=".501961" d="M92 42 93 5-10 2z" /><g transform="translate(24.428477 111.225131) rotate(254.677771) scale(72.599731 85.891823)"><ellipse fill="#090909" fill-opacity=".501961" cx="0" cy="0" rx="1" ry="1" /></g></g></svg>