<svg xmlns="http://www.w3.org/2000/svg" viewBox="0 0 6000 4000"><filter id="b"><feGaussianBlur stdDeviation="12" /></filter><path d="M0 0h6e3v4e3H0z" fill="#080808" /><g filter="url(#b)" transform="scale(23.437500) translate(0.5 0.5)"><g transform="translate(144 87) rotate(361) scale(11 17)"><path d="M0 0h6e3v4e3H0z" fill="#e1e1e1" /></g><path fill="#8e8e8e" fill-opacity=".501961" d="M143.449777 29.993056 149.288166 38.148164 150.375648 37.27968 167.794001 30.855775z" /><path fill="#191919" fill-opacity=".501961" d="M133 45l50-24-29 78z" /><path d="M0 0h6e3v4e3H0z" fill="#fff" /><path fill="#2c2c2c" fill-opacity=".501961" d="M138.200056 82.595075 180.62967 146.121241 149.618362 99.706112 117.418436 93.641874z" /><g transform="translate(159 3) rotate(6) scale(90 37)"><path d="M0 0h6e3v4e3H0z" fill="#161616" /></g><path d="M0 0h6e3v4e3H0z" fill="#b6b6b6" /><path fill="#e0e0e0" fill-opacity=".501961" d="M150 96l-3-13-4 7z" /></g></svg>