<svg xmlns="http://www.w3.org/2000/svg" viewBox="0 0 6000 4000"><filter id="b"><feGaussianBlur stdDeviation="12" /></filter><path d="M0 0h6e3v4e3H0z" fill="#202020" /><g filter="url(#b)" transform="scale(23.437500) translate(0.5 0.5)"><g transform="translate(69.831645 134.041842) rotate(206.338863) scale(24.330546 54.148183)"><ellipse fill="#fff" fill-opacity=".501961" cx="0" cy="0" rx="1" ry="1" /></g><g transform="translate(73.105359 150.039830) rotate(81.771009) scale(47.220701 21.069709)"><ellipse fill="#fcfcfc" fill-opacity=".501961" cx="0" cy="0" rx="1" ry="1" /></g><ellipse fill="#000" fill-opacity=".501961" cx="143" cy="30" rx="233" ry="66" /><g transform="translate(125.066238 98.058607) rotate(247.292022) scale(13.572875 39.996889)"><ellipse fill="#858585" fill-opacity=".501961" cx="0" cy="0" rx="1" ry="1" /></g><path fill="#d9d9d9" fill-opacity=".501961" d="M166 185l27-24-15-21z" /><g transform="translate(66.796028 84.274426) rotate(226.562922) scale(21.279341 13.866498)"><ellipse fill="#656565" fill-opacity=".501961" cx="0" cy="0" rx="1" ry="1" /></g><ellipse fill="#000" fill-opacity=".501961" cx="219" cy="60" rx="51" ry="124" /><path fill="#000" fill-opacity=".501961" d="M44.36346 169.162541 65.649255 119.83202 43.51009 155.760538 75.655089 181.589437z" /></g></svg>