<svg xmlns="http://www.w3.org/2000/svg" viewBox="0 0 6000 4000"><filter id="b"><feGaussianBlur stdDeviation="12" /></filter><path d="M0 0h6e3v4e3H0z" fill="#4b4b4b" /><g filter="url(#b)" transform="scale(23.437500) translate(0.5 0.5)"><ellipse fill="#fff" fill-opacity=".501961" cx="169" cy="16" rx="145" ry="29" /><g transform="translate(151.267177 135.540153) rotate(85.444377) scale(42.618269 255.000000)"><ellipse fill="#000" fill-opacity=".501961" cx="0" cy="0" rx="1" ry="1" /></g><g transform="translate(244.086093 28.233465) rotate(228.318710) scale(24.246170 35.633235)"><ellipse fill="#f4f4f4" fill-opacity=".501961" cx="0" cy="0" rx="1" ry="1" /></g><ellipse fill="#fff" fill-opacity=".501961" cx="106" cy="4" rx="51" ry="27" /><g transform="translate(9.858871 86.176198) rotate(81.728816) scale(98.150154 29.079222)"><ellipse fill="#010101" fill-opacity=".501961" cx="0" cy="0" rx="1" ry="1" /></g><ellipse fill="#4e4e4e" fill-opacity=".501961" cx="184" cy="27" rx="27" ry="78" /><ellipse fill="#090909" fill-opacity=".501961" cx="236" cy="96" rx="40" ry="40" /><g transform="translate(140.493341 47.417203) rotate(88.032539) scale(14.845689 88.129393)"><ellipse fill="#6c6c6c" fill-opacity=".501961" cx="0" cy="0" rx="1" ry="1" /></g></g></svg>