<svg xmlns="http://www.w3.org/2000/svg" viewBox="0 0 6000 4000"><filter id="b"><feGaussianBlur stdDeviation="12" /></filter><path d="M0 0h6e3v4e3H0z" fill="#354830" /><g filter="url(#b)" transform="scale(23.437500) translate(0.5 0.5)"><g transform="translate(117.106784 12.484564) rotate(62.482088) scale(46.494472 33.863304)"><ellipse fill="#fff" fill-opacity=".501961" cx="0" cy="0" rx="1" ry="1" /></g><g transform="translate(223 11) rotate(-19) scale(94 57)"><path d="M0 0h6e3v4e3H0z" fill="#aec97b" /></g><g transform="translate(3.222055 113.120552) rotate(77.282652) scale(68.832475 42.054353)"><ellipse fill="#000" fill-opacity=".501961" cx="0" cy="0" rx="1" ry="1" /></g><path d="M0 0h6e3v4e3H0z" fill="#afc5ff" /><g transform="translate(211.135443 120.420666) rotate(174.591391) scale(62.466372 68.437565)"><ellipse fill="#001a00" fill-opacity=".501961" cx="0" cy="0" rx="1" ry="1" /></g><path fill="#bf9dad" fill-opacity=".501961" d="M176 185H104l16-87z" /><ellipse fill="#fff" fill-opacity=".501961" cx="36" cy="46" rx="13" ry="16" /><path fill="#fff" fill-opacity=".501961" d="M163 5 67-8 95 17z" /></g></svg>