<svg xmlns="http://www.w3.org/2000/svg" viewBox="0 0 6000 4000"><filter id="b"><feGaussianBlur stdDeviation="12" /></filter><path d="M0 0h6e3v4e3H0z" fill="#49554a" /><g filter="url(#b)" transform="scale(23.437500) translate(0.5 0.5)"><g transform="translate(190.735392 34.727240) rotate(336.740024) scale(73.881753 63.604101)"><ellipse fill="#e4daf6" fill-opacity=".501961" cx="0" cy="0" rx="1" ry="1" /></g><g transform="translate(53.350971 125.808755) rotate(46.783634) scale(255.000000 68.698981)"><ellipse fill="#000400" fill-opacity=".501961" cx="0" cy="0" rx="1" ry="1" /></g><g transform="translate(128.862185 150.511842) rotate(180.714157) scale(244.293761 24.793651)"><ellipse fill="#002600" fill-opacity=".501961" cx="0" cy="0" rx="1" ry="1" /></g><ellipse fill="#c9c6df" fill-opacity=".501961" cx="186" cy="118" rx="91" ry="8" /><g transform="translate(175.041129 30.385789) rotate(272.467777) scale(74.248218 28.516159)"><ellipse fill="#ddd9e1" fill-opacity=".501961" cx="0" cy="0" rx="1" ry="1" /></g><path d="M0 0h6e3v4e3H0z" fill="#000" /><g transform="translate(0 78) rotate(350) scale(22 48)"><path d="M0 0h6e3v4e3H0z" fill="#b4b7c7" /></g><ellipse fill="#000" fill-opacity=".501961" cx="55" cy="93" rx="42" ry="36" /></g></svg>