<svg xmlns="http://www.w3.org/2000/svg" viewBox="0 0 6000 4000"><filter id="b"><feGaussianBlur stdDeviation="12" /></filter><path d="M0 0h6e3v4e3H0z" fill="#525f45" /><g filter="url(#b)" transform="scale(23.437500) translate(0.5 0.5)"><g transform="translate(221.728653 142.792734) rotate(238.351678) scale(36.898022 147.910474)"><ellipse fill="#d3bbef" fill-opacity=".501961" cx="0" cy="0" rx="1" ry="1" /></g><g transform="translate(64.669878 130.014353) rotate(87.183947) scale(44.747407 86.660689)"><ellipse fill="#062000" fill-opacity=".501961" cx="0" cy="0" rx="1" ry="1" /></g><path fill="#b3a8cc" fill-opacity=".501961" d="M-2 40 91 0l71 30z" /><g transform="translate(240 12) rotate(144) scale(123 112)"><path d="M0 0h6e3v4e3H0z" fill="#173600" /></g><g transform="translate(13.375278 14.396661) rotate(434.479383) scale(16.324019 27.975434)"><ellipse fill="#000" fill-opacity=".501961" cx="0" cy="0" rx="1" ry="1" /></g><g transform="translate(114.628514 66.338053) rotate(77.948904) scale(5.146514 126.714940)"><ellipse fill="#afa4b7" fill-opacity=".501961" cx="0" cy="0" rx="1" ry="1" /></g><g transform="translate(185 93) rotate(419) scale(28 52)"><path d="M0 0h6e3v4e3H0z" fill="#174700" /></g><path fill="#10070c" fill-opacity=".501961" d="M58.576503 97.894392 82.575731 118.289865 143.579083 82.696847 75.851062 76.085534z" /></g></svg>