<svg xmlns="http://www.w3.org/2000/svg" viewBox="0 0 640 640"><filter id="b"><feGaussianBlur stdDeviation="12" /></filter><path d="M0 0h640v640H0z" fill="#a0a0a0" /><g filter="url(#b)" transform="scale(2.500000) translate(0.5 0.5)"><g transform="translate(242.067660 136.340549) rotate(272.577796) scale(25.880374 80.171179)"><ellipse fill="#101010" fill-opacity=".501961" cx="0" cy="0" rx="1" ry="1" /></g><g transform="translate(184.056974 21.256420) rotate(21.009300) scale(249.875086 47.081991)"><ellipse fill="#f7f7f7" fill-opacity=".501961" cx="0" cy="0" rx="1" ry="1" /></g><ellipse fill="#191919" fill-opacity=".501961" cx="127" cy="81" rx="38" ry="34" /><g transform="translate(30.791986 65.702693) rotate(224.996134) scale(71.506021 55.608229)"><ellipse fill="#f3f3f3" fill-opacity=".501961" cx="0" cy="0" rx="1" ry="1" /></g><ellipse fill="#686868" fill-opacity=".501961" cx="37" cy="197" rx="118" ry="61" /><g transform="translate(201.506684 91.911852) rotate(343.599673) scale(60.130666 12.415983)"><ellipse fill="#efefef" fill-opacity=".501961" cx="0" cy="0" rx="1" ry="1" /></g><path d="M0 0h640v640H0z" fill="#020202" /><path d="M0 0h640v640H0z" fill="#4b4b4b" /></g></svg>