<svg xmlns="http://www.w3.org/2000/svg" viewBox="0 0 6000 4000"><filter id="b"><feGaussianBlur stdDeviation="12" /></filter><path d="M0 0h6e3v4e3H0z" fill="#5c685e" /><g filter="url(#b)" transform="scale(23.437500) translate(0.5 0.5)"><g transform="translate(184.451015 23.377637) rotate(11.113211) scale(150.154658 40.101287)"><ellipse fill="#fff" fill-opacity=".501961" cx="0" cy="0" rx="1" ry="1" /></g><g transform="translate(128.098348 158.122982) rotate(251.890852) scale(62.452653 207.364188)"><ellipse fill="#101600" fill-opacity=".501961" cx="0" cy="0" rx="1" ry="1" /></g><g transform="translate(17.237404 50.169143) rotate(216.880005) scale(78.939634 41.622326)"><ellipse fill="#000" fill-opacity=".501961" cx="0" cy="0" rx="1" ry="1" /></g><g transform="translate(159.120660 23.327261) rotate(193.878452) scale(86.860025 31.769000)"><ellipse fill="#fff" fill-opacity=".501961" cx="0" cy="0" rx="1" ry="1" /></g><g transform="translate(101.394873 113.320234) rotate(272.304367) scale(5.379808 69.110433)"><ellipse fill="#fffffb" fill-opacity=".501961" cx="0" cy="0" rx="1" ry="1" /></g><ellipse fill="#000" fill-opacity=".501961" cx="185" cy="143" rx="17" ry="93" /><ellipse fill="#f9ffff" fill-opacity=".501961" cx="149" cy="1" rx="58" ry="58" /><path fill="#00d1ff" fill-opacity=".501961" d="M99 67l35-27-21 59z" /></g></svg>