<svg xmlns="http://www.w3.org/2000/svg" viewBox="0 0 6000 4000"><filter id="b"><feGaussianBlur stdDeviation="12" /></filter><path d="M0 0h6e3v4e3H0z" fill="#4c4c4c" /><g filter="url(#b)" transform="scale(23.437500) translate(0.5 0.5)"><g transform="translate(210.466437 130.719365) rotate(312.639394) scale(52.507676 108.911933)"><ellipse fill="#d0d0d0" fill-opacity=".501961" cx="0" cy="0" rx="1" ry="1" /></g><ellipse fill="#000" fill-opacity=".501961" cx="51" cy="151" rx="92" ry="91" /><path d="M0 0h6e3v4e3H0z" fill="#fff" /><g transform="translate(6.779057 41.059195) rotate(242.209709) scale(22.574574 32.115009)"><ellipse fill="#fff" fill-opacity=".501961" cx="0" cy="0" rx="1" ry="1" /></g><g transform="translate(242 9) rotate(130) scale(95 92)"><path d="M0 0h6e3v4e3H0z" fill="#000" /></g><ellipse fill="#000" fill-opacity=".501961" cx="64" cy="72" rx="29" ry="169" /><ellipse fill="#e2e2e2" fill-opacity=".501961" cx="107" cy="33" rx="9" ry="27" /><g transform="translate(69.943436 168.715909) rotate(99.151461) scale(53.508086 100.780323)"><ellipse fill="#000" fill-opacity=".501961" cx="0" cy="0" rx="1" ry="1" /></g></g></svg>