<svg xmlns="http://www.w3.org/2000/svg" viewBox="0 0 6000 4000"><filter id="b"><feGaussianBlur stdDeviation="12" /></filter><path d="M0 0h6e3v4e3H0z" fill="#494e41" /><g filter="url(#b)" transform="scale(23.437500) translate(0.5 0.5)"><g transform="translate(177.247349 73.386616) rotate(344.122417) scale(91.187441 28.662002)"><ellipse fill="#fff" fill-opacity=".501961" cx="0" cy="0" rx="1" ry="1" /></g><ellipse fill="#000" fill-opacity=".501961" cx="111" cy="17" rx="133" ry="27" /><g transform="translate(152.595529 93.376987) rotate(185.974264) scale(112.013883 14.496499)"><ellipse fill="#e5d9dc" fill-opacity=".501961" cx="0" cy="0" rx="1" ry="1" /></g><g transform="translate(115.443403 142.600447) rotate(184.445733) scale(171.648794 36.694246)"><ellipse fill="#061a00" fill-opacity=".501961" cx="0" cy="0" rx="1" ry="1" /></g><g transform="translate(255 26) rotate(189) scale(21 50)"><path d="M0 0h6e3v4e3H0z" fill="#fff" /></g><ellipse fill="#f9ffff" fill-opacity=".501961" cx="199" cy="53" rx="34" ry="17" /><ellipse fill="#000" fill-opacity=".501961" cx="138" cy="9" rx="51" ry="51" /><ellipse fill="#000" fill-opacity=".501961" cx="253" cy="74" rx="19" ry="19" /></g></svg>