<svg xmlns="http://www.w3.org/2000/svg" viewBox="0 0 6000 4000"><filter id="b"><feGaussianBlur stdDeviation="12" /></filter><path d="M0 0h6e3v4e3H0z" fill="#758077" /><g filter="url(#b)" transform="scale(23.437500) translate(0.5 0.5)"><g transform="translate(102.251424 22.022683) rotate(351.149087) scale(140.820537 50.521647)"><ellipse fill="#fff" fill-opacity=".501961" cx="0" cy="0" rx="1" ry="1" /></g><g transform="translate(167.747872 129.012493) rotate(254.712871) scale(63.630301 254.729186)"><ellipse fill="#000700" fill-opacity=".501961" cx="0" cy="0" rx="1" ry="1" /></g><g transform="translate(135 31) rotate(326) scale(187 87)"><path d="M0 0h6e3v4e3H0z" fill="#fbffff" /></g><g transform="translate(15.824531 120.691391) rotate(306.908205) scale(60.767381 26.104446)"><ellipse fill="#000" fill-opacity=".501961" cx="0" cy="0" rx="1" ry="1" /></g><ellipse fill="#f7ffff" fill-opacity=".501961" cx="41" cy="18" rx="181" ry="50" /><g transform="translate(243.875248 115.556537) rotate(43.803148) scale(40.361319 19.516399)"><ellipse fill="#d6e6a7" fill-opacity=".501961" cx="0" cy="0" rx="1" ry="1" /></g><g transform="translate(227.866951 57.655454) rotate(315.775697) scale(97.097015 17.317800)"><ellipse fill="#010900" fill-opacity=".501961" cx="0" cy="0" rx="1" ry="1" /></g><g transform="translate(193.035532 143.738540) rotate(-5.629798) scale(26.591206 62.332004)"><ellipse fill="#000" fill-opacity=".501961" cx="0" cy="0" rx="1" ry="1" /></g></g></svg>