<svg xmlns="http://www.w3.org/2000/svg" viewBox="0 0 6000 4000"><filter id="b"><feGaussianBlur stdDeviation="12" /></filter><path d="M0 0h6e3v4e3H0z" fill="#6b6b6b" /><g filter="url(#b)" transform="scale(23.437500) translate(0.5 0.5)"><g transform="translate(82.770210 16.668131) rotate(269.141420) scale(42.139432 150.921931)"><ellipse fill="#fff" fill-opacity=".501961" cx="0" cy="0" rx="1" ry="1" /></g><g transform="translate(143.191743 157.161254) rotate(185.463948) scale(215.644895 31.314576)"><ellipse fill="#000" fill-opacity=".501961" cx="0" cy="0" rx="1" ry="1" /></g><ellipse fill="#fff" fill-opacity=".501961" cx="179" cy="108" rx="93" ry="21" /><ellipse fill="#000" fill-opacity=".501961" cx="196" cy="71" rx="255" ry="15" /><ellipse fill="#000" fill-opacity=".501961" cx="166" cy="141" rx="27" ry="27" /><path fill="#fff" fill-opacity=".501961" d="M97 128l53 8L92 79z" /><path fill="#000" fill-opacity=".501961" d="M164 185 75 98-16 156z" /><g transform="translate(49 105) rotate(231) scale(13 52)"><path d="M0 0h6e3v4e3H0z" fill="#fff" /></g></g></svg>