<svg xmlns="http://www.w3.org/2000/svg" viewBox="0 0 6000 4000"><filter id="b"><feGaussianBlur stdDeviation="12" /></filter><path d="M0 0h6e3v4e3H0z" fill="#515859" /><g filter="url(#b)" transform="scale(23.437500) translate(0.5 0.5)"><g transform="translate(190 46) rotate(343) scale(150 145)"><path d="M0 0h6e3v4e3H0z" fill="#fff" /></g><g transform="translate(48.640611 110.044310) rotate(323.603258) scale(71.760486 255.000000)"><ellipse fill="#000" fill-opacity=".501961" cx="0" cy="0" rx="1" ry="1" /></g><g transform="translate(143.107684 155.777202) rotate(453.592302) scale(39.198709 255.000000)"><ellipse fill="#000" fill-opacity=".501961" cx="0" cy="0" rx="1" ry="1" /></g><g transform="translate(192.865066 43.952387) rotate(24.709550) scale(59.353693 104.118561)"><ellipse fill="#bfd4dc" fill-opacity=".501961" cx="0" cy="0" rx="1" ry="1" /></g><g transform="translate(32.797750 55.610535) rotate(274.584306) scale(199.110311 41.387768)"><ellipse fill="#000" fill-opacity=".501961" cx="0" cy="0" rx="1" ry="1" /></g><g transform="translate(226 156) rotate(241) scale(59 95)"><path d="M0 0h6e3v4e3H0z" fill="#000" /></g><ellipse fill="#7d8f94" fill-opacity=".501961" cx="108" cy="44" rx="43" ry="22" /><path fill="#576970" fill-opacity=".501961" d="M271 69 131 131l67 20z" /></g></svg>