<svg xmlns="http://www.w3.org/2000/svg" viewBox="0 0 6000 4000"><filter id="b"><feGaussianBlur stdDeviation="12" /></filter><path d="M0 0h6e3v4e3H0z" fill="#555860" /><g filter="url(#b)" transform="scale(23.437500) translate(0.5 0.5)"><g transform="translate(198.938117 0.000000) rotate(79.183123) scale(35.495928 107.871196)"><ellipse fill="#fff" fill-opacity=".501961" cx="0" cy="0" rx="1" ry="1" /></g><g transform="translate(26.147191 51.344054) rotate(-68.483957) scale(50.700613 121.629105)"><ellipse fill="#000" fill-opacity=".501961" cx="0" cy="0" rx="1" ry="1" /></g><ellipse fill="#b9bee2" fill-opacity=".501961" cx="176" cy="155" rx="79" ry="30" /><path fill="#000" fill-opacity=".501961" d="M161 43 270 30 253 151z" /><g transform="translate(191.929651 11.104507) rotate(263.525427) scale(23.356491 88.208759)"><ellipse fill="#fff" fill-opacity=".501961" cx="0" cy="0" rx="1" ry="1" /></g><path fill="#000" fill-opacity=".501961" d="M136.351465 143.710312 143.044841 176.939827 150.140338 185 185.331362 146.793567z" /><g transform="translate(47 167) rotate(278) scale(51 94)"><path d="M0 0h6e3v4e3H0z" fill="#030000" /></g><path fill="#bdcbfe" fill-opacity=".501961" d="M138 181 77 117l60 9z" /></g></svg>