<svg xmlns="http://www.w3.org/2000/svg" viewBox="0 0 6000 4000"><filter id="b"><feGaussianBlur stdDeviation="12" /></filter><path d="M0 0h6e3v4e3H0z" fill="#070100" /><g filter="url(#b)" transform="scale(23.437500) translate(0.5 0.5)"><path fill="#d4202f" fill-opacity=".501961" d="M92.73555 66.186166 130.38412 78.61823 112.849219 93.677495 117.264612 50.170113z" /><path d="M0 0h6e3v4e3H0z" fill="#ff425a" /><path d="M0 0h6e3v4e3H0z" fill="#380304" /><g transform="translate(120 80) rotate(51) scale(4 18)"><path d="M0 0h6e3v4e3H0z" fill="#ff3347" /></g><path fill="#2a0000" fill-opacity=".501961" d="M110.770999 49.488934 80.522058 112.084919 88.14399 61.527131 127.631343.601681z" /><path fill="#000" fill-opacity=".501961" d="M-15 39 271 162-13 185z" /><path fill="#210100" fill-opacity=".501961" d="M119.38307 56.617739 107.673417 72.021951 156.985754 85.471468 170.14114 61.408285z" /><g transform="translate(168.748158 96.563572) rotate(49.526708) scale(40.489996 4.579675)"><ellipse fill="#320201" fill-opacity=".501961" cx="0" cy="0" rx="1" ry="1" /></g></g></svg>