<svg xmlns="http://www.w3.org/2000/svg" viewBox="0 0 6000 4000"><filter id="b"><feGaussianBlur stdDeviation="12" /></filter><path d="M0 0h6e3v4e3H0z" fill="#272729" /><g filter="url(#b)" transform="scale(23.437500) translate(0.5 0.5)"><g transform="translate(116.648930 153.642308) rotate(348.965635) scale(47.556636 24.689989)"><ellipse fill="#856e7b" fill-opacity=".501961" cx="0" cy="0" rx="1" ry="1" /></g><path fill="#869dda" fill-opacity=".501961" d="M91.707234 84.39817 62.21125 95.594889-16 90.926001 47.358948 82.362801z" /><path fill="#955e70" fill-opacity=".501961" d="M174 35l70 58-66-28z" /><g transform="translate(162.902054 89.626771) rotate(120.676985) scale(14.740504 5.240659)"><ellipse fill="#d091a2" fill-opacity=".501961" cx="0" cy="0" rx="1" ry="1" /></g><g transform="translate(220.574638 25.473805) rotate(317.024492) scale(35.983192 95.367935)"><ellipse fill="#0b100d" fill-opacity=".501961" cx="0" cy="0" rx="1" ry="1" /></g><ellipse fill="#111815" fill-opacity=".501961" cx="106" cy="8" rx="82" ry="82" /><g transform="translate(189.207113 138.405998) rotate(188.527199) scale(22.152813 71.150474)"><ellipse fill="#0c0d0b" fill-opacity=".501961" cx="0" cy="0" rx="1" ry="1" /></g><path d="M0 0h6e3v4e3H0z" fill="#4c4a58" /></g></svg>