<svg xmlns="http://www.w3.org/2000/svg" viewBox="0 0 6000 4000"><filter id="b"><feGaussianBlur stdDeviation="12" /></filter><path d="M0 0h6e3v4e3H0z" fill="#263027" /><g filter="url(#b)" transform="scale(23.437500) translate(0.5 0.5)"><g transform="translate(199.103629 14.713194) rotate(269.906138) scale(23.013107 59.487524)"><ellipse fill="#aaa2a5" fill-opacity=".501961" cx="0" cy="0" rx="1" ry="1" /></g><g transform="translate(16.611818 63.349331) rotate(198.250473) scale(50.143093 218.623787)"><ellipse fill="#000200" fill-opacity=".501961" cx="0" cy="0" rx="1" ry="1" /></g><g transform="translate(92.398982 125.580226) rotate(159.996822) scale(27.741257 56.072300)"><ellipse fill="#516468" fill-opacity=".501961" cx="0" cy="0" rx="1" ry="1" /></g><g transform="translate(215.569152 150.119069) rotate(139.464197) scale(84.112618 42.082239)"><ellipse fill="#000900" fill-opacity=".501961" cx="0" cy="0" rx="1" ry="1" /></g><g transform="translate(194 13) rotate(263) scale(30 28)"><path d="M0 0h6e3v4e3H0z" fill="#cabfbd" /></g><path fill="#4e4943" fill-opacity=".501961" d="M93 105 235 75 264-6z" /><g transform="translate(93.219627 27.632514) rotate(235.614691) scale(51.950037 17.542314)"><ellipse fill="#040f00" fill-opacity=".501961" cx="0" cy="0" rx="1" ry="1" /></g><path fill="#9e7667" fill-opacity=".501961" d="M177.41936 82.04073 161.28577 112.840856 156.525074 96.717559 166.280725 80.384159z" /></g></svg>