<svg xmlns="http://www.w3.org/2000/svg" viewBox="0 0 6000 4000"><filter id="b"><feGaussianBlur stdDeviation="12" /></filter><path d="M0 0h6e3v4e3H0z" fill="#47002e" /><g filter="url(#b)" transform="scale(23.437500) translate(0.5 0.5)"><g transform="translate(65.320483 45.579094) rotate(337.314039) scale(40.835406 131.475437)"><ellipse fill="#d70484" fill-opacity=".501961" cx="0" cy="0" rx="1" ry="1" /></g><g transform="translate(236.985651 97.313758) rotate(28.164706) scale(80.285452 255.000000)"><ellipse fill="#000" fill-opacity=".501961" cx="0" cy="0" rx="1" ry="1" /></g><ellipse fill="#ff0213" fill-opacity=".501961" cx="89" cy="118" rx="28" ry="37" /><ellipse fill="#56009a" fill-opacity=".501961" cx="48" cy="0" rx="72" ry="72" /><g transform="translate(19.645960 101.559171) rotate(-79.537286) scale(30.478934 19.529073)"><ellipse fill="#ef0047" fill-opacity=".501961" cx="0" cy="0" rx="1" ry="1" /></g><g transform="translate(39.535998 167.747760) rotate(198.374106) scale(65.814066 34.123780)"><ellipse fill="#000" fill-opacity=".501961" cx="0" cy="0" rx="1" ry="1" /></g><path fill="#000" fill-opacity=".501961" d="M61.441792 185 64.38668 98.516605 48.25399 91.660662-1.342089 185z" /><g transform="translate(198.564572 153.842700) rotate(-31.078423) scale(116.660023 44.453167)"><ellipse fill="#000" fill-opacity=".501961" cx="0" cy="0" rx="1" ry="1" /></g></g></svg>