<svg xmlns="http://www.w3.org/2000/svg" viewBox="0 0 6000 4000"><filter id="b"><feGaussianBlur stdDeviation="12" /></filter><path d="M0 0h6e3v4e3H0z" fill="#5b3747" /><g filter="url(#b)" transform="scale(23.437500) translate(0.5 0.5)"><g transform="translate(161.227251 79.569368) rotate(88.418459) scale(28.738652 118.938683)"><ellipse fill="#ffd7ff" fill-opacity=".501961" cx="0" cy="0" rx="1" ry="1" /></g><ellipse fill="#000" fill-opacity=".501961" cx="57" cy="169" rx="65" ry="65" /><g transform="translate(212.901820 81.214733) rotate(146.031665) scale(36.344757 32.469289)"><ellipse fill="#ffe487" fill-opacity=".501961" cx="0" cy="0" rx="1" ry="1" /></g><g transform="translate(82.690327 16.384826) rotate(83.640266) scale(25.676126 255.000000)"><ellipse fill="#000002" fill-opacity=".501961" cx="0" cy="0" rx="1" ry="1" /></g><g transform="translate(149.518328 155.901632) rotate(264.550403) scale(32.485245 227.315255)"><ellipse fill="#000500" fill-opacity=".501961" cx="0" cy="0" rx="1" ry="1" /></g><g transform="translate(191.027511 46.005611) rotate(155.203673) scale(66.241657 17.919534)"><ellipse fill="#a50100" fill-opacity=".501961" cx="0" cy="0" rx="1" ry="1" /></g><path fill="#fff7ff" fill-opacity=".501961" d="M225 64l5 41L73 92z" /><g transform="translate(255.000000 80.298035) rotate(55.262262) scale(62.289565 16.208460)"><ellipse fill="#fb3600" fill-opacity=".501961" cx="0" cy="0" rx="1" ry="1" /></g></g></svg>