<svg xmlns="http://www.w3.org/2000/svg" viewBox="0 0 6000 4000"><filter id="b"><feGaussianBlur stdDeviation="12" /></filter><path d="M0 0h6e3v4e3H0z" fill="#8d274d" /><g filter="url(#b)" transform="scale(23.437500) translate(0.5 0.5)"><g transform="translate(118.056252 60.805483) rotate(339.734428) scale(72.016781 48.045533)"><ellipse fill="#ff8dff" fill-opacity=".501961" cx="0" cy="0" rx="1" ry="1" /></g><g transform="translate(208.585114 144.024801) rotate(60.371030) scale(53.793080 78.063922)"><ellipse fill="#000100" fill-opacity=".501961" cx="0" cy="0" rx="1" ry="1" /></g><g transform="translate(20.019520 103.032959) rotate(71.646551) scale(152.795977 40.726311)"><ellipse fill="#000" fill-opacity=".501961" cx="0" cy="0" rx="1" ry="1" /></g><g transform="translate(88.959371 82.453644) rotate(353.585468) scale(25.056531 61.000373)"><ellipse fill="#ffffb8" fill-opacity=".501961" cx="0" cy="0" rx="1" ry="1" /></g><g transform="translate(153.575013 48.597372) rotate(326.865608) scale(42.333637 45.072380)"><ellipse fill="#ff00f2" fill-opacity=".501961" cx="0" cy="0" rx="1" ry="1" /></g><path fill="#ff0020" fill-opacity=".501961" d="M74 119 18 88 45 13z" /><g transform="translate(255.000000 61.959386) rotate(100.503004) scale(17.921375 34.918964)"><ellipse fill="#ffd898" fill-opacity=".501961" cx="0" cy="0" rx="1" ry="1" /></g><g transform="translate(128 116) rotate(14) scale(54 70)"><path d="M0 0h6e3v4e3H0z" fill="#fd001b" /></g></g></svg>