<svg xmlns="http://www.w3.org/2000/svg" viewBox="0 0 6000 4000"><filter id="b"><feGaussianBlur stdDeviation="12" /></filter><path d="M0 0h6e3v4e3H0z" fill="#250101" /><g filter="url(#b)" transform="scale(23.437500) translate(0.5 0.5)"><g transform="translate(127.629614 60.882426) rotate(14.157968) scale(23.599877 36.064470)"><ellipse fill="#ff231f" fill-opacity=".501961" cx="0" cy="0" rx="1" ry="1" /></g><path fill="#a50106" fill-opacity=".501961" d="M202 91 129 17l96 36z" /><ellipse fill="#000" fill-opacity=".501961" cx="43" cy="139" rx="73" ry="73" /><path fill="#ff6054" fill-opacity=".501961" d="M130.363481 44.131093 156.380879 38.866306 140.831827 78.646077 125.214082 50.751486z" /><g transform="translate(119.865570 84.248150) rotate(162.309013) scale(14.242254 71.767145)"><ellipse fill="#710000" fill-opacity=".501961" cx="0" cy="0" rx="1" ry="1" /></g><ellipse fill="#000" fill-opacity=".501961" cx="169" cy="146" rx="25" ry="45" /><g transform="translate(5.492894 54.089853) rotate(-115.467211) scale(165.895363 67.392219)"><ellipse fill="#000" fill-opacity=".501961" cx="0" cy="0" rx="1" ry="1" /></g><g transform="translate(167 96) rotate(83) scale(14 36)"><path d="M0 0h6e3v4e3H0z" fill="#9c0010" /></g></g></svg>