<svg xmlns="http://www.w3.org/2000/svg" viewBox="0 0 6000 4000"><filter id="b"><feGaussianBlur stdDeviation="12" /></filter><path d="M0 0h6e3v4e3H0z" fill="#3e1121" /><g filter="url(#b)" transform="scale(23.437500) translate(0.5 0.5)"><g transform="translate(84.965821 88.538448) rotate(204.864364) scale(71.375646 40.076145)"><ellipse fill="#ff78b3" fill-opacity=".501961" cx="0" cy="0" rx="1" ry="1" /></g><ellipse fill="#000" fill-opacity=".501961" cx="232" cy="76" rx="98" ry="98" /><g transform="translate(131.704947 125.318075) rotate(360.504665) scale(34.834754 24.687338)"><ellipse fill="#2952e7" fill-opacity=".501961" cx="0" cy="0" rx="1" ry="1" /></g><g transform="translate(58.446027 75.733321) rotate(494.580381) scale(49.875217 44.362124)"><ellipse fill="#ee4647" fill-opacity=".501961" cx="0" cy="0" rx="1" ry="1" /></g><path fill="#e9aab4" fill-opacity=".501961" d="M33.873986 83.405541 130.206642 137.407403 69.796983 57.826961 40.768489 62.98782z" /><g transform="translate(197.345104 37.012985) rotate(55.127596) scale(253.812447 66.880272)"><ellipse fill="#000" fill-opacity=".501961" cx="0" cy="0" rx="1" ry="1" /></g><g transform="translate(53 169) rotate(1) scale(26 20)"><path d="M0 0h6e3v4e3H0z" fill="#ffcfbe" /></g><g transform="translate(111.846007 63.099248) rotate(138.374213) scale(22.195951 55.926375)"><ellipse fill="#850022" fill-opacity=".501961" cx="0" cy="0" rx="1" ry="1" /></g></g></svg>