<svg xmlns="http://www.w3.org/2000/svg" viewBox="0 0 6000 4000"><filter id="b"><feGaussianBlur stdDeviation="12" /></filter><path d="M0 0h6e3v4e3H0z" fill="#0d101f" /><g filter="url(#b)" transform="scale(23.437500) translate(0.5 0.5)"><g transform="translate(20 26) rotate(69) scale(67 66)"><path d="M0 0h6e3v4e3H0z" fill="#5968cd" /></g><ellipse fill="#000" fill-opacity=".501961" cx="123" cy="169" rx="94" ry="94" /><ellipse fill="#1e1d38" fill-opacity=".501961" cx="125" cy="11" rx="84" ry="84" /><ellipse fill="#000" fill-opacity=".501961" cx="34" cy="148" rx="180" ry="49" /><g transform="translate(196 3) rotate(397) scale(42 27)"><path d="M0 0h6e3v4e3H0z" fill="#193e93" /></g><g transform="translate(51.749345 42.134128) rotate(13.669032) scale(19.749459 58.007347)"><ellipse fill="#17295c" fill-opacity=".501961" cx="0" cy="0" rx="1" ry="1" /></g><g transform="translate(110.953191 48.422542) rotate(-6.037493) scale(13.915860 7.331045)"><ellipse fill="#a54f49" fill-opacity=".501961" cx="0" cy="0" rx="1" ry="1" /></g><g transform="translate(219.858489 89.218070) rotate(377.783123) scale(69.403887 52.012280)"><ellipse fill="#000406" fill-opacity=".501961" cx="0" cy="0" rx="1" ry="1" /></g></g></svg>