<svg xmlns="http://www.w3.org/2000/svg" viewBox="0 0 6000 4000"><filter id="b"><feGaussianBlur stdDeviation="12" /></filter><path d="M0 0h6e3v4e3H0z" fill="#46454e" /><g filter="url(#b)" transform="scale(23.437500) translate(0.5 0.5)"><g transform="translate(111.677967 59.304622) rotate(266.792601) scale(54.047184 79.028480)"><ellipse fill="#fff" fill-opacity=".501961" cx="0" cy="0" rx="1" ry="1" /></g><g transform="translate(117.162464 142.987533) rotate(267.937516) scale(39.887150 255.000000)"><ellipse fill="#000" fill-opacity=".501961" cx="0" cy="0" rx="1" ry="1" /></g><ellipse fill="#dce1eb" fill-opacity=".501961" cx="128" cy="83" rx="32" ry="56" /><g transform="translate(227.870447 100.439784) rotate(299.093589) scale(250.756210 53.180379)"><ellipse fill="#000" fill-opacity=".501961" cx="0" cy="0" rx="1" ry="1" /></g><g transform="translate(0.000000 37.357517) rotate(197.229920) scale(32.229964 254.226243)"><ellipse fill="#000" fill-opacity=".501961" cx="0" cy="0" rx="1" ry="1" /></g><g transform="translate(200.646030 54.085769) rotate(57.801091) scale(26.022956 20.171718)"><ellipse fill="#b8a9c5" fill-opacity=".501961" cx="0" cy="0" rx="1" ry="1" /></g><g transform="translate(39.274135 150.716871) rotate(197.053333) scale(105.544797 42.400334)"><ellipse fill="#000" fill-opacity=".501961" cx="0" cy="0" rx="1" ry="1" /></g><path fill="#000" fill-opacity=".501961" d="M265 71 153-15l115-1z" /></g></svg>