<svg xmlns="http://www.w3.org/2000/svg" viewBox="0 0 6000 4000"><filter id="b"><feGaussianBlur stdDeviation="12" /></filter><path d="M0 0h6e3v4e3H0z" fill="#35373b" /><g filter="url(#b)" transform="scale(23.437500) translate(0.5 0.5)"><g transform="translate(116.815081 111.352835) rotate(187.990957) scale(85.314791 24.973921)"><ellipse fill="#a19eab" fill-opacity=".501961" cx="0" cy="0" rx="1" ry="1" /></g><path fill="#020b0b" fill-opacity=".501961" d="M173 126 78 99H271z" /><path d="M0 0h6e3v4e3H0z" fill="#fff" /><path fill="#a0b1f3" fill-opacity=".501961" d="M28.549896 92.061476 192.909933 103.831811 209.490733 86.449291 156.329473 92.425773z" /><g transform="translate(213.506934 41.846489) rotate(219.607023) scale(73.376697 46.647382)"><ellipse fill="#04100d" fill-opacity=".501961" cx="0" cy="0" rx="1" ry="1" /></g><ellipse fill="#06110e" fill-opacity=".501961" cx="24" cy="50" rx="74" ry="43" /><path fill="#c9adb9" fill-opacity=".501961" d="M134.200961 154.935306 132.001182 122.515904 205.630812 127.556355 211.603203 130.105756z" /><ellipse fill="#000" fill-opacity=".501961" cx="107" cy="149" rx="26" ry="28" /></g></svg>