<svg xmlns="http://www.w3.org/2000/svg" viewBox="0 0 6000 4000"><filter id="b"><feGaussianBlur stdDeviation="12" /></filter><path d="M0 0h6e3v4e3H0z" fill="#332a4c" /><g filter="url(#b)" transform="scale(23.437500) translate(0.5 0.5)"><g transform="translate(198.874108 48.988340) rotate(85.562596) scale(51.067213 75.846898)"><ellipse fill="#ecccff" fill-opacity=".501961" cx="0" cy="0" rx="1" ry="1" /></g><path fill="#000" fill-opacity=".501961" d="M0 185-4 14 271 167z" /><g transform="translate(177.368460 68.017459) rotate(0.425105) scale(83.415602 24.568933)"><ellipse fill="#a2adee" fill-opacity=".501961" cx="0" cy="0" rx="1" ry="1" /></g><g transform="translate(55.931844 130.951508) rotate(250.286998) scale(245.184962 63.216413)"><ellipse fill="#000" fill-opacity=".501961" cx="0" cy="0" rx="1" ry="1" /></g><path fill="#4f3aa1" fill-opacity=".501961" d="M162-16 74 78l99 39z" /><g transform="translate(153.661710 148.783911) rotate(270.399086) scale(28.579806 245.922513)"><ellipse fill="#000" fill-opacity=".501961" cx="0" cy="0" rx="1" ry="1" /></g><path fill="#e8d1e8" fill-opacity=".501961" d="M226.02561 64.406536 209.109053 92.995974 152.956481 78.527726 211.758337 1.063314z" /><g transform="translate(195 111) rotate(190) scale(81 40)"><path d="M0 0h6e3v4e3H0z" fill="#002a95" /></g></g></svg>