<svg xmlns="http://www.w3.org/2000/svg" viewBox="0 0 6000 4000"><filter id="b"><feGaussianBlur stdDeviation="12" /></filter><path d="M0 0h6e3v4e3H0z" fill="#20130a" /><g filter="url(#b)" transform="scale(23.437500) translate(0.5 0.5)"><g transform="translate(121.768401 65.532209) rotate(175.138976) scale(54.062810 32.967480)"><ellipse fill="#f10e2c" fill-opacity=".501961" cx="0" cy="0" rx="1" ry="1" /></g><ellipse fill="#ffa0a0" fill-opacity=".501961" cx="129" cy="57" rx="25" ry="9" /><ellipse fill="#001705" fill-opacity=".501961" cx="235" cy="120" rx="67" ry="169" /><g transform="translate(120.797398 98.242786) rotate(362.606761) scale(62.642325 22.650595)"><ellipse fill="#640105" fill-opacity=".501961" cx="0" cy="0" rx="1" ry="1" /></g><g transform="translate(93 169) rotate(200) scale(255 105)"><path d="M0 0h6e3v4e3H0z" fill="#001705" /></g><g transform="translate(17.860967 40.768398) rotate(282.442608) scale(226.205827 33.783620)"><ellipse fill="#001605" fill-opacity=".501961" cx="0" cy="0" rx="1" ry="1" /></g><path d="M0 0h6e3v4e3H0z" fill="#001406" /><g transform="translate(83.290678 52.558027) rotate(132.834559) scale(44.222378 15.470343)"><ellipse fill="#690003" fill-opacity=".501961" cx="0" cy="0" rx="1" ry="1" /></g></g></svg>