<svg xmlns="http://www.w3.org/2000/svg" viewBox="0 0 4000 6000"><filter id="b"><feGaussianBlur stdDeviation="12" /></filter><path d="M0 0h4e3v6e3H0z" fill="#110200" /><g filter="url(#b)" transform="scale(23.437500) translate(0.5 0.5)"><g transform="translate(65.031301 88.734057) rotate(283.137932) scale(41.784349 21.422086)"><ellipse fill="#f9300e" fill-opacity=".501961" cx="0" cy="0" rx="1" ry="1" /></g><path fill="#ffa249" fill-opacity=".501961" d="M62.448777 95.712339 74.384262 85.988245 67.341659 50.07123 56.13915 69.430285z" /><g transform="translate(76.522809 99.463374) rotate(43.858943) scale(16.386325 58.531966)"><ellipse fill="#700200" fill-opacity=".501961" cx="0" cy="0" rx="1" ry="1" /></g><ellipse fill="#000" fill-opacity=".501961" cx="115" cy="233" rx="125" ry="125" /><path fill="#400000" fill-opacity=".501961" d="M84.28279 38.079231 52.14892 33.487741 98.004508 94.003928 167.404622 91.419283z" /><g transform="translate(50.097977 123.629611) rotate(66.639707) scale(29.496531 18.369346)"><ellipse fill="#5b0000" fill-opacity=".501961" cx="0" cy="0" rx="1" ry="1" /></g><g transform="translate(65 91) rotate(179) scale(23 29)"><path d="M0 0h4e3v6e3H0z" fill="#cf4303" /></g><g transform="translate(15.902536 69.113562) rotate(-72.993063) scale(134.242759 35.237896)"><ellipse fill="#000" fill-opacity=".501961" cx="0" cy="0" rx="1" ry="1" /></g></g></svg>