<svg xmlns="http://www.w3.org/2000/svg" viewBox="0 0 6000 4000"><filter id="b"><feGaussianBlur stdDeviation="12" /></filter><path d="M0 0h6e3v4e3H0z" fill="#202020" /><g filter="url(#b)" transform="scale(23.437500) translate(0.5 0.5)"><g transform="translate(49.211110 22.964940) rotate(55.790280) scale(32.414664 72.472660)"><ellipse fill="#818181" fill-opacity=".501961" cx="0" cy="0" rx="1" ry="1" /></g><path fill="#fff" fill-opacity=".501961" d="M146 67 93 58l27 34z" /><g transform="translate(127.060607 135.266667) rotate(176.247830) scale(251.157833 48.793835)"><ellipse fill="#000" fill-opacity=".501961" cx="0" cy="0" rx="1" ry="1" /></g><path fill="#9a9a9a" fill-opacity=".501961" d="M176.829656 83.699104 105.878968 99.638267 110.158303 108.014805 167.744702 94.840366z" /><path d="M0 0h6e3v4e3H0z" fill="#6c6c6c" /><g transform="translate(77.670881 52.208858) rotate(414.102471) scale(14.452970 21.740207)"><ellipse fill="#000" fill-opacity=".501961" cx="0" cy="0" rx="1" ry="1" /></g><ellipse fill="#000" fill-opacity=".501961" cx="219" cy="121" rx="53" ry="53" /><path fill="#ececec" fill-opacity=".501961" d="M146 59 110 73l10 11z" /></g></svg>