<svg xmlns="http://www.w3.org/2000/svg" viewBox="0 0 6000 4000"><filter id="b"><feGaussianBlur stdDeviation="12" /></filter><path d="M0 0h6e3v4e3H0z" fill="#2a2a2a" /><g filter="url(#b)" transform="scale(23.437500) translate(0.5 0.5)"><g transform="translate(29 73) rotate(8) scale(84 63)"><path d="M0 0h6e3v4e3H0z" fill="#dfdfdf" /></g><g transform="translate(170.929840 128.236979) rotate(267.002683) scale(20.503527 55.119039)"><ellipse fill="#eee" fill-opacity=".501961" cx="0" cy="0" rx="1" ry="1" /></g><path fill="#fff" fill-opacity=".501961" d="M148.418219 60.606999 115.690967 64.776676 122.026334 105.963049 142.932006 77.531817z" /><g transform="translate(178.245817 33.995025) rotate(299.751982) scale(52.408846 249.050685)"><ellipse fill="#000" fill-opacity=".501961" cx="0" cy="0" rx="1" ry="1" /></g><ellipse fill="#000" fill-opacity=".501961" cx="43" cy="90" rx="7" ry="169" /><path fill="#fff" fill-opacity=".501961" d="M86.521028 135.617992 147.809682 112.170574 111.766762 134.341651 123.500406 142.492327z" /><g transform="translate(71.500547 158.105669) rotate(365.371998) scale(128.970623 18.804018)"><ellipse fill="#000" fill-opacity=".501961" cx="0" cy="0" rx="1" ry="1" /></g><g transform="translate(21.379388 79.852489) rotate(102.961450) scale(25.898843 14.265630)"><ellipse fill="#eee" fill-opacity=".501961" cx="0" cy="0" rx="1" ry="1" /></g></g></svg>