<svg xmlns="http://www.w3.org/2000/svg" viewBox="0 0 6000 4000"><filter id="b"><feGaussianBlur stdDeviation="12" /></filter><path d="M0 0h6e3v4e3H0z" fill="#6e6f6d" /><g filter="url(#b)" transform="scale(23.437500) translate(0.5 0.5)"><ellipse fill="#f0f0ff" fill-opacity=".501961" cx="59" cy="33" rx="44" ry="128" /><g transform="translate(178.425995 123.260753) rotate(148.325225) scale(147.872806 39.137825)"><ellipse fill="#000" fill-opacity=".501961" cx="0" cy="0" rx="1" ry="1" /></g><g transform="translate(138.516400 8.356431) rotate(250.346626) scale(42.835282 33.553967)"><ellipse fill="#ffffe4" fill-opacity=".501961" cx="0" cy="0" rx="1" ry="1" /></g><path fill="#080000" fill-opacity=".501961" d="M-16-16 7.142371 122.381193 98.296323 96.219749 17.712297 98.649531z" /><g transform="translate(119 107) rotate(185) scale(43 72)"><path d="M0 0h6e3v4e3H0z" fill="#000" /></g><g transform="translate(222 145) rotate(65) scale(99 26)"><path d="M0 0h6e3v4e3H0z" fill="#eaa499" /></g><ellipse fill="#000" fill-opacity=".501961" cx="6" cy="169" rx="96" ry="11" /><g transform="translate(244 131) rotate(163) scale(21 147)"><path d="M0 0h6e3v4e3H0z" fill="#000" /></g></g></svg>