<svg xmlns="http://www.w3.org/2000/svg" viewBox="0 0 6000 4000"><filter id="b"><feGaussianBlur stdDeviation="12" /></filter><path d="M0 0h6e3v4e3H0z" fill="#2e2e2e" /><g filter="url(#b)" transform="scale(23.437500) translate(0.5 0.5)"><g transform="translate(226.604620 29.221512) rotate(278.793930) scale(34.534592 95.309328)"><ellipse fill="#fff" fill-opacity=".501961" cx="0" cy="0" rx="1" ry="1" /></g><g transform="translate(206.398799 52.878489) rotate(101.613924) scale(36.393556 23.518078)"><ellipse fill="#000" fill-opacity=".501961" cx="0" cy="0" rx="1" ry="1" /></g><g transform="translate(173.057451 20.298340) rotate(199.824555) scale(19.822702 47.289241)"><ellipse fill="#fff" fill-opacity=".501961" cx="0" cy="0" rx="1" ry="1" /></g><path fill="#000" fill-opacity=".501961" d="M-16 185 8-16 271 162z" /><g transform="translate(246.235180 8.949242) rotate(214.704268) scale(227.845723 25.134277)"><ellipse fill="#fff" fill-opacity=".501961" cx="0" cy="0" rx="1" ry="1" /></g><g transform="translate(232.220168 95.011514) rotate(169.490780) scale(35.885807 4.058676)"><ellipse fill="#f2f2f2" fill-opacity=".501961" cx="0" cy="0" rx="1" ry="1" /></g><path fill="#7e7e7e" fill-opacity=".501961" d="M142 94 99 37l-7 75z" /><path d="M0 0h6e3v4e3H0z" fill="#0e0e0e" /></g></svg>