<svg xmlns="http://www.w3.org/2000/svg" viewBox="0 0 6000 4000"><filter id="b"><feGaussianBlur stdDeviation="12" /></filter><path d="M0 0h6e3v4e3H0z" fill="#535353" /><g filter="url(#b)" transform="scale(23.437500) translate(0.5 0.5)"><g transform="translate(141.552650 30.171968) rotate(0.978316) scale(95.265878 38.756010)"><ellipse fill="#ececec" fill-opacity=".501961" cx="0" cy="0" rx="1" ry="1" /></g><g transform="translate(38.599661 133.463748) rotate(92.320753) scale(50.912748 135.760629)"><ellipse fill="#000" fill-opacity=".501961" cx="0" cy="0" rx="1" ry="1" /></g><g transform="translate(241.274964 108.555036) rotate(195.167030) scale(28.858433 77.718218)"><ellipse fill="#000" fill-opacity=".501961" cx="0" cy="0" rx="1" ry="1" /></g><path fill="#e2e2e2" fill-opacity=".501961" d="M191-16 220 94l-55-4z" /><path fill="#000" fill-opacity=".501961" d="M135 74l35-42-6 82z" /><g transform="translate(71.967803 44.474705) rotate(337.964317) scale(39.314680 48.526674)"><ellipse fill="#868686" fill-opacity=".501961" cx="0" cy="0" rx="1" ry="1" /></g><g transform="translate(37.206329 149.291835) rotate(371.229419) scale(121.929207 42.712968)"><ellipse fill="#000" fill-opacity=".501961" cx="0" cy="0" rx="1" ry="1" /></g><path fill="#e0e0e0" fill-opacity=".501961" d="M113 6l40 5-22 88z" /></g></svg>