<svg xmlns="http://www.w3.org/2000/svg" viewBox="0 0 6000 4000"><filter id="b"><feGaussianBlur stdDeviation="12" /></filter><path d="M0 0h6e3v4e3H0z" fill="#656565" /><g filter="url(#b)" transform="scale(23.437500) translate(0.5 0.5)"><g transform="translate(188.205084 44.699824) rotate(273.431348) scale(84.612708 21.050436)"><ellipse fill="#fff" fill-opacity=".501961" cx="0" cy="0" rx="1" ry="1" /></g><g transform="translate(229.865992 126.763982) rotate(139.722966) scale(146.648125 28.092936)"><ellipse fill="#000" fill-opacity=".501961" cx="0" cy="0" rx="1" ry="1" /></g><g transform="translate(83.639461 97.525419) rotate(262.466528) scale(32.824191 53.019662)"><ellipse fill="#000" fill-opacity=".501961" cx="0" cy="0" rx="1" ry="1" /></g><g transform="translate(118.007106 147.074601) rotate(332.314688) scale(99.126727 23.574663)"><ellipse fill="#ccc" fill-opacity=".501961" cx="0" cy="0" rx="1" ry="1" /></g><ellipse fill="#b9b9b9" fill-opacity=".501961" cx="101" cy="16" rx="122" ry="21" /><ellipse fill="#000" fill-opacity=".501961" cx="255" cy="87" rx="48" ry="48" /><g transform="translate(99.870088 71.667176) rotate(379.734123) scale(14.622192 19.818244)"><ellipse fill="#c4c4c4" fill-opacity=".501961" cx="0" cy="0" rx="1" ry="1" /></g><g transform="translate(61.019762 88.110241) rotate(11.805398) scale(17.356448 61.137477)"><ellipse fill="#000" fill-opacity=".501961" cx="0" cy="0" rx="1" ry="1" /></g></g></svg>