<svg xmlns="http://www.w3.org/2000/svg" viewBox="0 0 6000 4000"><filter id="b"><feGaussianBlur stdDeviation="12" /></filter><path d="M0 0h6e3v4e3H0z" fill="#363636" /><g filter="url(#b)" transform="scale(23.437500) translate(0.5 0.5)"><g transform="translate(32.357122 20.523226) rotate(43.361433) scale(60.933584 18.206325)"><ellipse fill="#fff" fill-opacity=".501961" cx="0" cy="0" rx="1" ry="1" /></g><g transform="translate(122.844241 49.448633) rotate(287.306488) scale(22.199593 36.505042)"><ellipse fill="#ddd" fill-opacity=".501961" cx="0" cy="0" rx="1" ry="1" /></g><ellipse fill="#000" fill-opacity=".501961" cx="85" cy="160" rx="104" ry="87" /><path fill="#000" fill-opacity=".501961" d="M38 9 249-16l22 59z" /><g transform="translate(198 134) rotate(98) scale(40 20)"><path d="M0 0h6e3v4e3H0z" fill="#f2f2f2" /></g><g transform="translate(224.697910 70.322876) rotate(311.805421) scale(18.152918 47.099385)"><ellipse fill="#9f9f9f" fill-opacity=".501961" cx="0" cy="0" rx="1" ry="1" /></g><g transform="translate(129.818599 37.277715) rotate(56.287254) scale(17.178885 8.892172)"><ellipse fill="#fff" fill-opacity=".501961" cx="0" cy="0" rx="1" ry="1" /></g><path fill="#000" fill-opacity=".501961" d="M214 117l-81-10L257 65z" /></g></svg>