<svg xmlns="http://www.w3.org/2000/svg" viewBox="0 0 6000 4000"><filter id="b"><feGaussianBlur stdDeviation="12" /></filter><path d="M0 0h6e3v4e3H0z" fill="#3e3e3e" /><g filter="url(#b)" transform="scale(23.437500) translate(0.5 0.5)"><g transform="translate(136.220044 152.385560) rotate(184.975573) scale(220.140915 15.738863)"><ellipse fill="#fff" fill-opacity=".501961" cx="0" cy="0" rx="1" ry="1" /></g><g transform="translate(87.553326 33.981780) rotate(265.250219) scale(63.923790 255.000000)"><ellipse fill="#000" fill-opacity=".501961" cx="0" cy="0" rx="1" ry="1" /></g><ellipse fill="#fff" fill-opacity=".501961" cx="87" cy="59" rx="29" ry="8" /><g transform="translate(238.420729 115.809547) rotate(57.330806) scale(31.397949 22.071404)"><ellipse fill="#d4d4d4" fill-opacity=".501961" cx="0" cy="0" rx="1" ry="1" /></g><g transform="translate(175.715847 162.365323) rotate(107.921871) scale(23.465295 58.348697)"><ellipse fill="#fff" fill-opacity=".501961" cx="0" cy="0" rx="1" ry="1" /></g><path fill="#fff" fill-opacity=".501961" d="M139.380748 87.398091 144.148853 90.469667 148.936245 123.34567 180.035933 82.559596z" /><g transform="translate(200.050917 125.638902) rotate(194.214401) scale(35.362483 20.598263)"><ellipse fill="#010101" fill-opacity=".501961" cx="0" cy="0" rx="1" ry="1" /></g><path fill="#000" fill-opacity=".501961" d="M135-9-5-15-16 144z" /></g></svg>