<svg xmlns="http://www.w3.org/2000/svg" viewBox="0 0 6000 4000"><filter id="b"><feGaussianBlur stdDeviation="12" /></filter><path d="M0 0h6e3v4e3H0z" fill="#434343" /><g filter="url(#b)" transform="scale(23.437500) translate(0.5 0.5)"><g transform="translate(183.093308 99.294785) rotate(69.731059) scale(34.494275 104.563411)"><ellipse fill="#d9d9d9" fill-opacity=".501961" cx="0" cy="0" rx="1" ry="1" /></g><ellipse fill="#000" fill-opacity=".501961" cx="75" cy="18" rx="135" ry="57" /><g transform="translate(51.839750 139.613596) rotate(265.315519) scale(12.927966 104.612301)"><ellipse fill="#e5e5e5" fill-opacity=".501961" cx="0" cy="0" rx="1" ry="1" /></g><g transform="translate(170 71) rotate(163) scale(62 90)"><path d="M0 0h6e3v4e3H0z" fill="#0c0c0c" /></g><g transform="translate(175.971295 169.000000) rotate(90.223832) scale(24.800942 178.992602)"><ellipse fill="#000" fill-opacity=".501961" cx="0" cy="0" rx="1" ry="1" /></g><path fill="#fff" fill-opacity=".501961" d="M110 144l139-15-130-21z" /><g transform="translate(235.959178 65.062519) rotate(192.555501) scale(23.926616 45.946394)"><ellipse fill="#d2d2d2" fill-opacity=".501961" cx="0" cy="0" rx="1" ry="1" /></g><path fill="#fff" fill-opacity=".501961" d="M125 142l14-51-19-57z" /></g></svg>