<svg xmlns="http://www.w3.org/2000/svg" viewBox="0 0 6000 4000"><filter id="b"><feGaussianBlur stdDeviation="12" /></filter><path d="M0 0h6e3v4e3H0z" fill="#878787" /><g filter="url(#b)" transform="scale(23.437500) translate(0.5 0.5)"><g transform="translate(242.540633 48.533441) rotate(21.299414) scale(31.699874 111.713448)"><ellipse fill="#fff" fill-opacity=".501961" cx="0" cy="0" rx="1" ry="1" /></g><ellipse fill="#010101" fill-opacity=".501961" cx="132" cy="86" rx="29" ry="168" /><g transform="translate(40.847143 44.197681) rotate(18.289303) scale(41.474859 82.144461)"><ellipse fill="#e9e9e9" fill-opacity=".501961" cx="0" cy="0" rx="1" ry="1" /></g><g transform="translate(242.990559 155.377749) rotate(-52.331847) scale(55.042344 26.657782)"><ellipse fill="#000" fill-opacity=".501961" cx="0" cy="0" rx="1" ry="1" /></g><path fill="#fff" fill-opacity=".501961" d="M19.098557 67.514052 139.80599 138.558398 145.088517 128.001392 132.049526 109.234432z" /><ellipse fill="#000" fill-opacity=".501961" cx="57" cy="169" rx="19" ry="76" /><g transform="translate(235.139095 52.968102) rotate(274.429764) scale(78.061368 27.862508)"><ellipse fill="#fff" fill-opacity=".501961" cx="0" cy="0" rx="1" ry="1" /></g><path d="M0 0h6e3v4e3H0z" fill="#020202" /></g></svg>