<svg xmlns="http://www.w3.org/2000/svg" viewBox="0 0 6000 4000"><filter id="b"><feGaussianBlur stdDeviation="12" /></filter><path d="M0 0h6e3v4e3H0z" fill="#292929" /><g filter="url(#b)" transform="scale(23.437500) translate(0.5 0.5)"><g transform="translate(121.067889 134.063300) rotate(63.002327) scale(24.606430 95.724544)"><ellipse fill="#d8d8d8" fill-opacity=".501961" cx="0" cy="0" rx="1" ry="1" /></g><path fill="#f6f6f6" fill-opacity=".501961" d="M111.975718 24.313176 165.668432 34.766335 176.381968 47.878714 148.497707 74.955053z" /><g transform="translate(96.579940 138.570280) rotate(343.422975) scale(13.001153 37.465065)"><ellipse fill="#fff" fill-opacity=".501961" cx="0" cy="0" rx="1" ry="1" /></g><path fill="#000" fill-opacity=".501961" d="M124 76l147 87-49 21z" /><path d="M0 0h6e3v4e3H0z" fill="#fff" /><g transform="translate(255.000000 26.425627) rotate(184.786338) scale(23.803049 8.860674)"><ellipse fill="#fff" fill-opacity=".501961" cx="0" cy="0" rx="1" ry="1" /></g><path fill="#000" fill-opacity=".501961" d="M111.009246 121.580916 171.014585 166.593966 107.167448 161.716829 110.934983 185z" /><g transform="translate(49.674063 59.017806) rotate(294.459169) scale(86.927221 56.094310)"><ellipse fill="#000" fill-opacity=".501961" cx="0" cy="0" rx="1" ry="1" /></g></g></svg>