<svg xmlns="http://www.w3.org/2000/svg" viewBox="0 0 6000 4000"><filter id="b"><feGaussianBlur stdDeviation="12" /></filter><path d="M0 0h6e3v4e3H0z" fill="#4b4b4b" /><g filter="url(#b)" transform="scale(23.437500) translate(0.5 0.5)"><g transform="translate(48.460043 10.875926) rotate(150.102231) scale(48.245808 43.387930)"><ellipse fill="#fff" fill-opacity=".501961" cx="0" cy="0" rx="1" ry="1" /></g><ellipse fill="#000" fill-opacity=".501961" cx="231" cy="52" rx="73" ry="73" /><g transform="translate(180.292617 133.350524) rotate(180.882527) scale(32.640907 17.856194)"><ellipse fill="#fff" fill-opacity=".501961" cx="0" cy="0" rx="1" ry="1" /></g><g transform="translate(139.677123 0.000000) rotate(270.449652) scale(66.224352 20.025542)"><ellipse fill="#dedede" fill-opacity=".501961" cx="0" cy="0" rx="1" ry="1" /></g><ellipse fill="#010101" fill-opacity=".501961" cx="19" cy="132" rx="122" ry="40" /><g transform="translate(96.399328 71.732348) rotate(246.968864) scale(18.881350 30.872560)"><ellipse fill="#bababa" fill-opacity=".501961" cx="0" cy="0" rx="1" ry="1" /></g><g transform="translate(90.218016 5.239091) rotate(358.177538) scale(59.257335 8.201802)"><ellipse fill="#fff" fill-opacity=".501961" cx="0" cy="0" rx="1" ry="1" /></g><g transform="translate(233.348882 146.635484) rotate(312.088640) scale(12.592287 30.475839)"><ellipse fill="#c5c5c5" fill-opacity=".501961" cx="0" cy="0" rx="1" ry="1" /></g></g></svg>