<svg xmlns="http://www.w3.org/2000/svg" viewBox="0 0 6000 4000"><filter id="b"><feGaussianBlur stdDeviation="12" /></filter><path d="M0 0h6e3v4e3H0z" fill="#323232" /><g filter="url(#b)" transform="scale(23.437500) translate(0.5 0.5)"><g transform="translate(130.209664 22.745909) rotate(121.934571) scale(48.921454 34.306763)"><ellipse fill="#fff" fill-opacity=".501961" cx="0" cy="0" rx="1" ry="1" /></g><ellipse fill="#fff" fill-opacity=".501961" cx="134" cy="110" rx="14" ry="27" /><path fill="#fff" fill-opacity=".501961" d="M86 96 176-11 119-6z" /><g transform="translate(209.041563 105.235512) rotate(288.066072) scale(121.214261 64.220413)"><ellipse fill="#000" fill-opacity=".501961" cx="0" cy="0" rx="1" ry="1" /></g><path d="M0 0h6e3v4e3H0z" fill="#cfcfcf" /><path fill="#fff" fill-opacity=".501961" d="M78 79l19 34V76z" /><ellipse fill="#000" fill-opacity=".501961" cx="9" cy="71" rx="70" ry="45" /><path d="M0 0h6e3v4e3H0z" fill="#fff" /></g></svg>