<svg xmlns="http://www.w3.org/2000/svg" viewBox="0 0 6000 4000"><filter id="b"><feGaussianBlur stdDeviation="12" /></filter><path d="M0 0h6e3v4e3H0z" fill="#252525" /><g filter="url(#b)" transform="scale(23.437500) translate(0.5 0.5)"><g transform="translate(143.477419 8.058980) rotate(148.169873) scale(41.746151 62.507664)"><ellipse fill="#fff" fill-opacity=".501961" cx="0" cy="0" rx="1" ry="1" /></g><g transform="translate(152.863248 0.000000) rotate(165.786999) scale(25.809197 84.655062)"><ellipse fill="#fff" fill-opacity=".501961" cx="0" cy="0" rx="1" ry="1" /></g><path d="M0 0h6e3v4e3H0z" fill="#000" /><ellipse fill="#000" fill-opacity=".501961" cx="255" cy="116" rx="85" ry="85" /><g transform="translate(155.887833 8.204024) rotate(55.270879) scale(33.007766 36.838219)"><ellipse fill="#fff" fill-opacity=".501961" cx="0" cy="0" rx="1" ry="1" /></g><g transform="translate(109.881113 32.332330) rotate(252.367805) scale(23.038526 22.361247)"><ellipse fill="#9d9d9d" fill-opacity=".501961" cx="0" cy="0" rx="1" ry="1" /></g><ellipse fill="#000" fill-opacity=".501961" cx="236" cy="42" rx="52" ry="52" /><path fill="#000" fill-opacity=".501961" d="M142.703151 35.44887 157.573795 19.347465 2.792859 185 158.176376 69.848164z" /></g></svg>