<svg xmlns="http://www.w3.org/2000/svg" viewBox="0 0 6000 4000"><filter id="b"><feGaussianBlur stdDeviation="12" /></filter><path d="M0 0h6e3v4e3H0z" fill="#3c3c3c" /><g filter="url(#b)" transform="scale(23.437500) translate(0.5 0.5)"><g transform="translate(58.731004 59.261840) rotate(203.670597) scale(19.750952 40.409320)"><ellipse fill="#fff" fill-opacity=".501961" cx="0" cy="0" rx="1" ry="1" /></g><path fill="#fff" fill-opacity=".501961" d="M39-16l83 86-68-4z" /><g transform="translate(117.641459 154.199124) rotate(379.736265) scale(203.135388 36.775804)"><ellipse fill="#000" fill-opacity=".501961" cx="0" cy="0" rx="1" ry="1" /></g><g transform="translate(21.826392 44.776752) rotate(98.150330) scale(45.623336 23.471400)"><ellipse fill="#000" fill-opacity=".501961" cx="0" cy="0" rx="1" ry="1" /></g><ellipse fill="#b5b5b5" fill-opacity=".501961" cx="119" cy="0" rx="63" ry="19" /><path fill="#fff" fill-opacity=".501961" d="M191.371375 83.838447 151.579799 118.40943 188.532933 113.125497 193.732714 68.544428z" /><g transform="translate(235.918528 118.845706) rotate(25.527145) scale(30.508877 4.873632)"><ellipse fill="#fff" fill-opacity=".501961" cx="0" cy="0" rx="1" ry="1" /></g><path fill="#fff" fill-opacity=".501961" d="M57.976145 65.329867 11.807535 109.499838 25.794133 126.80346 52.739785 27.341837z" /></g></svg>