<svg xmlns="http://www.w3.org/2000/svg" viewBox="0 0 6000 4000"><filter id="b"><feGaussianBlur stdDeviation="12" /></filter><path d="M0 0h6e3v4e3H0z" fill="#272727" /><g filter="url(#b)" transform="scale(23.437500) translate(0.5 0.5)"><g transform="translate(147.502369 141.777736) rotate(284.814509) scale(19.041894 50.118005)"><ellipse fill="#fff" fill-opacity=".501961" cx="0" cy="0" rx="1" ry="1" /></g><g transform="translate(220 0) rotate(353) scale(71 26)"><path d="M0 0h6e3v4e3H0z" fill="#fff" /></g><g transform="translate(51 20) rotate(83) scale(19 39)"><path d="M0 0h6e3v4e3H0z" fill="#fff" /></g><path d="M0 0h6e3v4e3H0z" fill="#fff" /><path fill="#b8b8b8" fill-opacity=".501961" d="M176.603144 105.87358 176.342771 66.578999 215.566949 70.713955 196.952934 105.616672z" /><ellipse fill="#000" fill-opacity=".501961" cx="48" cy="146" rx="55" ry="115" /><g transform="translate(232.790890 129.283014) rotate(10.945439) scale(35.779206 127.661067)"><ellipse fill="#000" fill-opacity=".501961" cx="0" cy="0" rx="1" ry="1" /></g><path fill="#000" fill-opacity=".501961" d="M60 55 271 44 89-16z" /></g></svg>