<svg xmlns="http://www.w3.org/2000/svg" viewBox="0 0 6000 4000"><filter id="b"><feGaussianBlur stdDeviation="12" /></filter><path d="M0 0h6e3v4e3H0z" fill="#292929" /><g filter="url(#b)" transform="scale(23.437500) translate(0.5 0.5)"><g transform="translate(26.923337 139.225155) rotate(295.041818) scale(58.632203 38.484384)"><ellipse fill="#c8c8c8" fill-opacity=".501961" cx="0" cy="0" rx="1" ry="1" /></g><g transform="translate(211.966936 140.548742) rotate(280.685869) scale(9.755561 38.689938)"><ellipse fill="#dcdcdc" fill-opacity=".501961" cx="0" cy="0" rx="1" ry="1" /></g><g transform="translate(121.042733 5.837004) rotate(265.607773) scale(53.437901 255.000000)"><ellipse fill="#000" fill-opacity=".501961" cx="0" cy="0" rx="1" ry="1" /></g><ellipse fill="#000" fill-opacity=".501961" cx="136" cy="113" rx="72" ry="22" /><g transform="translate(115 146) rotate(94) scale(30 19)"><path d="M0 0h6e3v4e3H0z" fill="#b5b5b5" /></g><path fill="#444" fill-opacity=".501961" d="M-16 108H56l49-73z" /><path d="M0 0h6e3v4e3H0z" fill="#989898" /><path fill="#000" fill-opacity=".501961" d="M102 178 125-16 67 125z" /></g></svg>