<svg xmlns="http://www.w3.org/2000/svg" viewBox="0 0 2433 2433"><filter id="b"><feGaussianBlur stdDeviation="12" /></filter><path d="M0 0h2433v2433H0z" fill="#929190" /><g filter="url(#b)" transform="scale(9.503906) translate(0.5 0.5)"><g transform="translate(132.957742 13.909357) rotate(97.509752) scale(94.238971 218.687419)"><ellipse fill="#fff" fill-opacity=".501961" cx="0" cy="0" rx="1" ry="1" /></g><g transform="translate(109.395713 199.184024) rotate(276.199622) scale(83.184377 255.000000)"><ellipse fill="#2c2a24" fill-opacity=".501961" cx="0" cy="0" rx="1" ry="1" /></g><g transform="translate(118.633030 24.318229) rotate(-0.657884) scale(255.000000 33.469982)"><ellipse fill="#fff" fill-opacity=".501961" cx="0" cy="0" rx="1" ry="1" /></g><g transform="translate(135.068229 88.098689) rotate(90.981561) scale(31.543219 177.115358)"><ellipse fill="#a7a8a8" fill-opacity=".501961" cx="0" cy="0" rx="1" ry="1" /></g><g transform="translate(33.698183 129.364856) rotate(363.249369) scale(138.727089 17.380505)"><ellipse fill="#272321" fill-opacity=".501961" cx="0" cy="0" rx="1" ry="1" /></g><g transform="translate(177.653344 179.891761) rotate(182.684436) scale(140.059477 27.862270)"><ellipse fill="#82827e" fill-opacity=".501961" cx="0" cy="0" rx="1" ry="1" /></g><g transform="translate(22.610216 18.149612) rotate(164.344251) scale(119.261260 40.708673)"><ellipse fill="#fff" fill-opacity=".501961" cx="0" cy="0" rx="1" ry="1" /></g><g transform="translate(242.975115 20.232521) rotate(106.102839) scale(37.243567 97.054767)"><ellipse fill="#fff" fill-opacity=".501961" cx="0" cy="0" rx="1" ry="1" /></g></g></svg>