<svg xmlns="http://www.w3.org/2000/svg" viewBox="0 0 2433 2433"><filter id="b"><feGaussianBlur stdDeviation="12" /></filter><path d="M0 0h2433v2433H0z" fill="#797878" /><g filter="url(#b)" transform="scale(9.503906) translate(0.5 0.5)"><g transform="translate(205.220049 166.783806) rotate(116.264991) scale(57.774745 76.512617)"><ellipse fill="#d0d2d3" fill-opacity=".501961" cx="0" cy="0" rx="1" ry="1" /></g><g transform="translate(55.383694 191.086742) rotate(134.569453) scale(101.186345 23.788329)"><ellipse fill="#0b0705" fill-opacity=".501961" cx="0" cy="0" rx="1" ry="1" /></g><g transform="translate(236.882798 40.423610) rotate(137.745436) scale(59.701255 49.726789)"><ellipse fill="#120c0a" fill-opacity=".501961" cx="0" cy="0" rx="1" ry="1" /></g><g transform="translate(28 154) rotate(350) scale(57 25)"><path d="M0 0h2433v2433H0z" fill="#fff" /></g><path fill="#b0b1b0" fill-opacity=".501961" d="M136 133-16 52l135-5z" /><path fill="#e0e0e5" fill-opacity=".501961" d="M115.916619 223.039262 213.251376 97.781736 146.447518 151.112203 70.654746 224.98791z" /><path fill="#030000" fill-opacity=".501961" d="M47.721995 124.690372-5.559093 104.723468-16 146.278904 47.016003 137.086768z" /><g transform="translate(93.037877 151.397613) rotate(217.686104) scale(38.847509 32.379584)"><ellipse fill="#2a2827" fill-opacity=".501961" cx="0" cy="0" rx="1" ry="1" /></g></g></svg>