<svg xmlns="http://www.w3.org/2000/svg" viewBox="0 0 2433 2433"><filter id="b"><feGaussianBlur stdDeviation="12" /></filter><path d="M0 0h2433v2433H0z" fill="#8a888b" /><g filter="url(#b)" transform="scale(9.503906) translate(0.5 0.5)"><g transform="translate(138.964643 215.808074) rotate(2.835671) scale(229.897519 67.504144)"><ellipse fill="#060500" fill-opacity=".501961" cx="0" cy="0" rx="1" ry="1" /></g><g transform="translate(129.018672 47.881159) rotate(268.118619) scale(65.709993 245.867331)"><ellipse fill="#fff" fill-opacity=".501961" cx="0" cy="0" rx="1" ry="1" /></g><g transform="translate(147.389873 171.980399) rotate(75.664850) scale(22.772086 81.248631)"><ellipse fill="#979895" fill-opacity=".501961" cx="0" cy="0" rx="1" ry="1" /></g><path d="M0 0h2433v2433H0z" fill="#201e1b" /><g transform="translate(84.688084 52.415263) rotate(2.442161) scale(182.210879 54.950076)"><ellipse fill="#dcdbe9" fill-opacity=".501961" cx="0" cy="0" rx="1" ry="1" /></g><g transform="translate(68.465051 235.175482) rotate(274.188723) scale(30.323138 247.516936)"><ellipse fill="#262424" fill-opacity=".501961" cx="0" cy="0" rx="1" ry="1" /></g><g transform="translate(157 136) rotate(183) scale(35 26)"><path d="M0 0h2433v2433H0z" fill="#3d3b35" /></g><g transform="translate(92.069336 155.531445) rotate(17.549870) scale(105.229204 20.879089)"><ellipse fill="#70706c" fill-opacity=".501961" cx="0" cy="0" rx="1" ry="1" /></g></g></svg>