<svg xmlns="http://www.w3.org/2000/svg" viewBox="0 0 2433 2433"><filter id="b"><feGaussianBlur stdDeviation="12" /></filter><path d="M0 0h2433v2433H0z" fill="#a5a4a8" /><g filter="url(#b)" transform="scale(9.503906) translate(0.5 0.5)"><g transform="translate(119.769176 230.018210) rotate(24.061619) scale(232.785257 67.003330)"><ellipse fill="#000" fill-opacity=".501961" cx="0" cy="0" rx="1" ry="1" /></g><g transform="translate(128.401206 49.853505) rotate(119.599594) scale(102.085305 255.000000)"><ellipse fill="#fff" fill-opacity=".501961" cx="0" cy="0" rx="1" ry="1" /></g><g transform="translate(32.149366 84.851130) rotate(12.168616) scale(167.641125 33.404094)"><ellipse fill="#ebe9f7" fill-opacity=".501961" cx="0" cy="0" rx="1" ry="1" /></g><ellipse fill="#4a443f" fill-opacity=".501961" cx="0" cy="244" rx="129" ry="129" /><path fill="#4b4b45" fill-opacity=".501961" d="M149.494306 152.796846 112.517277 174.313574 137.225222 171.683116 197.894872 126.915353z" /><path fill="#dddbe8" fill-opacity=".501961" d="M-16-16 254 223 271 76z" /><g transform="translate(225.558195 238.718664) rotate(319.007002) scale(28.214599 35.646851)"><ellipse fill="#49433f" fill-opacity=".501961" cx="0" cy="0" rx="1" ry="1" /></g><path fill="#63605d" fill-opacity=".501961" d="M71.333896 119.521188 62.762699 172.346035 218.190591 201.41857 77.82516 138.104498z" /></g></svg>