<svg xmlns="http://www.w3.org/2000/svg" viewBox="0 0 2433 2433"><filter id="b"><feGaussianBlur stdDeviation="12" /></filter><path d="M0 0h2433v2433H0z" fill="#91908e" /><g filter="url(#b)" transform="scale(9.503906) translate(0.5 0.5)"><g transform="translate(138.281805 205.249279) rotate(273.423430) scale(51.324861 88.693226)"><ellipse fill="#16120e" fill-opacity=".501961" cx="0" cy="0" rx="1" ry="1" /></g><g transform="translate(5.162348 142.543779) rotate(173.344891) scale(24.566840 254.864679)"><ellipse fill="#fff" fill-opacity=".501961" cx="0" cy="0" rx="1" ry="1" /></g><g transform="translate(254.719575 132.243500) rotate(90.288608) scale(255.000000 16.340001)"><ellipse fill="#fff" fill-opacity=".501961" cx="0" cy="0" rx="1" ry="1" /></g><g transform="translate(104.588546 30.854475) rotate(12.963788) scale(152.300673 59.539395)"><ellipse fill="#b8b8b8" fill-opacity=".501961" cx="0" cy="0" rx="1" ry="1" /></g><ellipse fill="#6e6d69" fill-opacity=".501961" cx="112" cy="150" rx="95" ry="50" /><g transform="translate(35.548324 255.000000) rotate(225.356186) scale(143.789295 25.300276)"><ellipse fill="#fff" fill-opacity=".501961" cx="0" cy="0" rx="1" ry="1" /></g><ellipse fill="#26201f" fill-opacity=".501961" cx="148" cy="219" rx="57" ry="29" /><path d="M0 0h2433v2433H0z" fill="#000" /></g></svg>