<svg xmlns="http://www.w3.org/2000/svg" viewBox="0 0 2433 2433"><filter id="b"><feGaussianBlur stdDeviation="12" /></filter><path d="M0 0h2433v2433H0z" fill="#878787" /><g filter="url(#b)" transform="scale(9.503906) translate(0.5 0.5)"><g transform="translate(8 64) rotate(90) scale(143 47)"><path d="M0 0h2433v2433H0z" fill="#000" /></g><g transform="translate(37.605716 186.830985) rotate(275.528323) scale(46.537237 68.453752)"><ellipse fill="#fdfdff" fill-opacity=".501961" cx="0" cy="0" rx="1" ry="1" /></g><g transform="translate(197.827624 210.788952) rotate(68.702042) scale(66.136731 16.618482)"><ellipse fill="#020000" fill-opacity=".501961" cx="0" cy="0" rx="1" ry="1" /></g><g transform="translate(169.793897 111.917225) rotate(-46.886720) scale(34.071527 48.805195)"><ellipse fill="#cdcecf" fill-opacity=".501961" cx="0" cy="0" rx="1" ry="1" /></g><g transform="translate(120.537809 255.000000) rotate(297.592312) scale(53.582065 14.410556)"><ellipse fill="#030000" fill-opacity=".501961" cx="0" cy="0" rx="1" ry="1" /></g><g transform="translate(235.379452 190.544031) rotate(319.897286) scale(20.606257 51.333202)"><ellipse fill="#dddde0" fill-opacity=".501961" cx="0" cy="0" rx="1" ry="1" /></g><path fill="#25221f" fill-opacity=".501961" d="M108 89l8 53-76-26z" /><g transform="translate(245.693272 112.394092) rotate(305.857908) scale(39.787905 24.439919)"><ellipse fill="#37332f" fill-opacity=".501961" cx="0" cy="0" rx="1" ry="1" /></g></g></svg>