<svg xmlns="http://www.w3.org/2000/svg" viewBox="0 0 2433 2433"><filter id="b"><feGaussianBlur stdDeviation="12" /></filter><path d="M0 0h2433v2433H0z" fill="#787777" /><g filter="url(#b)" transform="scale(9.503906) translate(0.5 0.5)"><g transform="translate(137.388153 217.163528) rotate(179.511840) scale(255.000000 54.239014)"><ellipse fill="#140f0d" fill-opacity=".501961" cx="0" cy="0" rx="1" ry="1" /></g><g transform="translate(164.916865 77.039626) rotate(-14.892111) scale(152.758789 76.551865)"><ellipse fill="#c4c5c5" fill-opacity=".501961" cx="0" cy="0" rx="1" ry="1" /></g><g transform="translate(88.594620 28.534518) rotate(127.302086) scale(19.144552 153.814712)"><ellipse fill="#c2c3c5" fill-opacity=".501961" cx="0" cy="0" rx="1" ry="1" /></g><path fill="#535350" fill-opacity=".501961" d="M97 87 7-16-16 84z" /><g transform="translate(187.533273 12.682926) rotate(174.045886) scale(19.095596 12.708006)"><ellipse fill="#393835" fill-opacity=".501961" cx="0" cy="0" rx="1" ry="1" /></g><ellipse fill="#2c2b2a" fill-opacity=".501961" cx="23" cy="213" rx="57" ry="57" /><g transform="translate(189.940945 188.602943) rotate(349.757393) scale(76.290687 44.956688)"><ellipse fill="#5e5c5a" fill-opacity=".501961" cx="0" cy="0" rx="1" ry="1" /></g><ellipse fill="#acadad" fill-opacity=".501961" cx="111" cy="110" rx="254" ry="30" /></g></svg>