<svg xmlns="http://www.w3.org/2000/svg" viewBox="0 0 2433 2433"><filter id="b"><feGaussianBlur stdDeviation="12" /></filter><path d="M0 0h2433v2433H0z" fill="#bebcbe" /><g filter="url(#b)" transform="scale(9.503906) translate(0.5 0.5)"><g transform="translate(124.359834 255.000000) rotate(8.409396) scale(43.810478 162.653382)"><ellipse fill="#121009" fill-opacity=".501961" cx="0" cy="0" rx="1" ry="1" /></g><g transform="translate(50.863074 71.484905) rotate(199.898912) scale(71.162863 112.105813)"><ellipse fill="#fff" fill-opacity=".501961" cx="0" cy="0" rx="1" ry="1" /></g><g transform="translate(189.159866 20.757748) rotate(196.323341) scale(184.407507 44.962600)"><ellipse fill="#fff" fill-opacity=".501961" cx="0" cy="0" rx="1" ry="1" /></g><g transform="translate(93 253) rotate(30) scale(42 90)"><path d="M0 0h2433v2433H0z" fill="#000" /></g><g transform="translate(225.260853 118.607395) rotate(304.957498) scale(46.385176 36.748878)"><ellipse fill="#fff" fill-opacity=".501961" cx="0" cy="0" rx="1" ry="1" /></g><g transform="translate(130.551206 75.936127) rotate(48.996812) scale(32.534939 11.901424)"><ellipse fill="#403f39" fill-opacity=".501961" cx="0" cy="0" rx="1" ry="1" /></g><g transform="translate(153 232) rotate(313) scale(54 80)"><path d="M0 0h2433v2433H0z" fill="#7b7a75" /></g><ellipse fill="#5c5c57" fill-opacity=".501961" cx="182" cy="170" rx="126" ry="12" /></g></svg>