<svg xmlns="http://www.w3.org/2000/svg" viewBox="0 0 2433 2433"><filter id="b"><feGaussianBlur stdDeviation="12" /></filter><path d="M0 0h2433v2433H0z" fill="#828181" /><g filter="url(#b)" transform="scale(9.503906) translate(0.5 0.5)"><g transform="translate(175.704751 181.193193) rotate(99.281930) scale(35.319622 130.963780)"><ellipse fill="#0d0b0a" fill-opacity=".501961" cx="0" cy="0" rx="1" ry="1" /></g><g transform="translate(107.688313 234.638917) rotate(175.842266) scale(95.916184 24.404604)"><ellipse fill="#fff" fill-opacity=".501961" cx="0" cy="0" rx="1" ry="1" /></g><g transform="translate(228.611252 238.063144) rotate(212.372107) scale(25.662861 89.055067)"><ellipse fill="#000" fill-opacity=".501961" cx="0" cy="0" rx="1" ry="1" /></g><g transform="translate(135.759870 44.258071) rotate(268.662151) scale(30.941875 176.590964)"><ellipse fill="#bdc0be" fill-opacity=".501961" cx="0" cy="0" rx="1" ry="1" /></g><g transform="translate(69.290598 186.491188) rotate(330.660056) scale(15.867864 24.825879)"><ellipse fill="#080606" fill-opacity=".501961" cx="0" cy="0" rx="1" ry="1" /></g><path d="M0 0h2433v2433H0z" fill="#fdfdff" /><g transform="translate(0 166) rotate(26) scale(34 47)"><path d="M0 0h2433v2433H0z" fill="#070502" /></g><g transform="translate(184.444413 117.938239) rotate(116.360873) scale(14.519182 69.304002)"><ellipse fill="#bdbfbf" fill-opacity=".501961" cx="0" cy="0" rx="1" ry="1" /></g></g></svg>