<svg xmlns="http://www.w3.org/2000/svg" viewBox="0 0 2433 2433"><filter id="b"><feGaussianBlur stdDeviation="12" /></filter><path d="M0 0h2433v2433H0z" fill="#767575" /><g filter="url(#b)" transform="scale(9.503906) translate(0.5 0.5)"><path fill="#dedee3" fill-opacity=".501961" d="M247-16-14 102 271 92z" /><ellipse fill="#221f1c" fill-opacity=".501961" cx="189" cy="149" rx="211" ry="37" /><ellipse fill="#0a0704" fill-opacity=".501961" cx="9" cy="61" rx="21" ry="45" /><ellipse fill="#efeff7" fill-opacity=".501961" cx="211" cy="4" rx="68" ry="37" /><g transform="translate(186.100705 147.871282) rotate(60.773346) scale(255.000000 30.281941)"><ellipse fill="#474442" fill-opacity=".501961" cx="0" cy="0" rx="1" ry="1" /></g><g transform="translate(71.869573 214.096080) rotate(132.712697) scale(54.340347 41.634604)"><ellipse fill="#afb1b0" fill-opacity=".501961" cx="0" cy="0" rx="1" ry="1" /></g><g transform="translate(96 86) rotate(77) scale(105 46)"><path d="M0 0h2433v2433H0z" fill="#c3c4c5" /></g><g transform="translate(179 82) rotate(125) scale(30 139)"><path d="M0 0h2433v2433H0z" fill="#b0b0b1" /></g></g></svg>