<svg xmlns="http://www.w3.org/2000/svg" viewBox="0 0 2433 2433"><filter id="b"><feGaussianBlur stdDeviation="12" /></filter><path d="M0 0h2433v2433H0z" fill="#797878" /><g filter="url(#b)" transform="scale(9.503906) translate(0.5 0.5)"><g transform="translate(15.851906 52.547973) rotate(14.903400) scale(33.291590 81.238330)"><ellipse fill="#fff" fill-opacity=".501961" cx="0" cy="0" rx="1" ry="1" /></g><g transform="translate(127.331928 54.730252) rotate(185.421360) scale(28.878477 73.531858)"><ellipse fill="#e4e5e9" fill-opacity=".501961" cx="0" cy="0" rx="1" ry="1" /></g><g transform="translate(66.836496 160.956801) rotate(251.847302) scale(32.968736 66.249377)"><ellipse fill="#14100e" fill-opacity=".501961" cx="0" cy="0" rx="1" ry="1" /></g><ellipse fill="#dddfe0" fill-opacity=".501961" cx="68" cy="217" rx="133" ry="19" /><g transform="translate(199.655789 136.870054) rotate(228.013896) scale(50.154677 86.414008)"><ellipse fill="#3c3936" fill-opacity=".501961" cx="0" cy="0" rx="1" ry="1" /></g><g transform="translate(172.840933 247.014748) rotate(83.885196) scale(19.054311 185.308076)"><ellipse fill="#2d2926" fill-opacity=".501961" cx="0" cy="0" rx="1" ry="1" /></g><g transform="translate(202.143801 23.248502) rotate(365.818634) scale(35.253499 59.457303)"><ellipse fill="#413e3b" fill-opacity=".501961" cx="0" cy="0" rx="1" ry="1" /></g><g transform="translate(129.050770 172.383319) rotate(66.508375) scale(12.078066 25.544428)"><ellipse fill="#d3d5d6" fill-opacity=".501961" cx="0" cy="0" rx="1" ry="1" /></g></g></svg>