<svg xmlns="http://www.w3.org/2000/svg" viewBox="0 0 6000 4000"><filter id="b"><feGaussianBlur stdDeviation="12" /></filter><path d="M0 0h6e3v4e3H0z" fill="#111" /><g filter="url(#b)" transform="scale(23.437500) translate(0.5 0.5)"><g transform="translate(100.167681 112.514398) rotate(-49.380135) scale(40.569408 23.104392)"><ellipse fill="#ebebeb" fill-opacity=".501961" cx="0" cy="0" rx="1" ry="1" /></g><g transform="translate(83.536323 118.868365) rotate(393.706044) scale(19.280151 16.334928)"><ellipse fill="#fff" fill-opacity=".501961" cx="0" cy="0" rx="1" ry="1" /></g><g transform="translate(74.965507 92.601785) rotate(-1.888926) scale(56.773545 10.833384)"><ellipse fill="#070707" fill-opacity=".501961" cx="0" cy="0" rx="1" ry="1" /></g><path fill="#4a4a4a" fill-opacity=".501961" d="M60 185 194 71l-87 39z" /><ellipse fill="#000" fill-opacity=".501961" cx="209" cy="20" rx="76" ry="169" /><path fill="#ededed" fill-opacity=".501961" d="M93 64 80 67 78 85z" /><ellipse fill="#000" fill-opacity=".501961" cx="82" cy="33" rx="255" ry="34" /><path fill="#fff" fill-opacity=".501961" d="M99.070486 107.555886 95.358417 103.342216 61.996571 109.131546 91.532581 138.033111z" /></g></svg>