<svg xmlns="http://www.w3.org/2000/svg" viewBox="0 0 6000 4000"><filter id="b"><feGaussianBlur stdDeviation="12" /></filter><path d="M0 0h6e3v4e3H0z" fill="#121212" /><g filter="url(#b)" transform="scale(23.437500) translate(0.5 0.5)"><path d="M0 0h6e3v4e3H0z" fill="#fff" /><path fill="#fff" fill-opacity=".501961" d="M117.808715 103.679906 104.136767 85.050683 69.770579 88.541349l32.807047 34.954824z" /><path fill="#fdfdfd" fill-opacity=".501961" d="M111.194082 49.037894 93.800589 66.390078 96.295904 55.14687 97.471068 42.887493z" /><g transform="translate(138.355242 91.649939) rotate(182.152437) scale(30.031231 10.285179)"><ellipse fill="#767676" fill-opacity=".501961" cx="0" cy="0" rx="1" ry="1" /></g><path fill="#5c5c5c" fill-opacity=".501961" d="M98 185 69 84l52 55z" /><ellipse fill="#000" fill-opacity=".501961" cx="162" cy="11" rx="255" ry="35" /><g transform="translate(0.000000 82.687923) rotate(323.070563) scale(63.635434 122.024705)"><ellipse fill="#000" fill-opacity=".501961" cx="0" cy="0" rx="1" ry="1" /></g><g transform="translate(215.076081 140.421542) rotate(308.152549) scale(148.191401 51.860811)"><ellipse fill="#000" fill-opacity=".501961" cx="0" cy="0" rx="1" ry="1" /></g></g></svg>