<svg xmlns="http://www.w3.org/2000/svg" viewBox="0 0 6000 4000"><filter id="b"><feGaussianBlur stdDeviation="12" /></filter><path d="M0 0h6e3v4e3H0z" fill="#212121" /><g filter="url(#b)" transform="scale(23.437500) translate(0.5 0.5)"><path fill="#fff" fill-opacity=".501961" d="M131.364397 106.261289 94.270145 131.240557 139.205831 185 126.981092 165.934404z" /><g transform="translate(60.656418 117.732239) rotate(59.644629) scale(21.807100 36.259044)"><ellipse fill="#b0b0b0" fill-opacity=".501961" cx="0" cy="0" rx="1" ry="1" /></g><g transform="translate(202.223901 35.493585) rotate(192.036212) scale(255.000000 59.105956)"><ellipse fill="#000" fill-opacity=".501961" cx="0" cy="0" rx="1" ry="1" /></g><path fill="#fff" fill-opacity=".501961" d="M128 130 98 173l19-78z" /><g transform="translate(177.730446 159.950746) rotate(362.923066) scale(11.100914 28.039724)"><ellipse fill="#949494" fill-opacity=".501961" cx="0" cy="0" rx="1" ry="1" /></g><path d="M0 0h6e3v4e3H0z" fill="#9a9a9a" /><ellipse fill="#000" fill-opacity=".501961" cx="114" cy="160" rx="7" ry="18" /><g transform="translate(58 115) rotate(280) scale(19 13)"><path d="M0 0h6e3v4e3H0z" fill="#fff" /></g></g></svg>