<svg xmlns="http://www.w3.org/2000/svg" viewBox="0 0 6000 4000"><filter id="b"><feGaussianBlur stdDeviation="12" /></filter><path d="M0 0h6e3v4e3H0z" fill="#202020" /><g filter="url(#b)" transform="scale(23.437500) translate(0.5 0.5)"><g transform="translate(67.263015 151.148510) rotate(286.319124) scale(62.615999 27.919088)"><ellipse fill="#fff" fill-opacity=".501961" cx="0" cy="0" rx="1" ry="1" /></g><path fill="#e2e2e2" fill-opacity=".501961" d="M57 171l93-89L48 112z" /><g transform="translate(146.796564 22.996936) rotate(-66.105518) scale(82.157026 255.000000)"><ellipse fill="#000" fill-opacity=".501961" cx="0" cy="0" rx="1" ry="1" /></g><g transform="translate(128.658490 102.149131) rotate(245.317224) scale(18.594382 44.390329)"><ellipse fill="#545454" fill-opacity=".501961" cx="0" cy="0" rx="1" ry="1" /></g><path fill="#c8c8c8" fill-opacity=".501961" d="M176.421495 178.929511 167.308664 185 177.167678 138.381095 193.866671 159.982512z" /><g transform="translate(116 142) rotate(31) scale(43 46)"><path d="M0 0h6e3v4e3H0z" fill="#000" /></g><g transform="translate(66.142094 155.681618) rotate(168.757909) scale(13.679746 14.624259)"><ellipse fill="#fff" fill-opacity=".501961" cx="0" cy="0" rx="1" ry="1" /></g><path fill="#5e5e5e" fill-opacity=".501961" d="M33.259676 39.517028 97.242333 100.02028 84.376774 102.834552 64.104035 99.955594z" /></g></svg>