<svg xmlns="http://www.w3.org/2000/svg" viewBox="0 0 6000 4000"><filter id="b"><feGaussianBlur stdDeviation="12" /></filter><path d="M0 0h6e3v4e3H0z" fill="#7a7c6c" /><g filter="url(#b)" transform="scale(23.437500) translate(0.5 0.5)"><g transform="translate(36.290956 102.866589) rotate(186.707613) scale(103.625790 37.213290)"><ellipse fill="#fffffa" fill-opacity=".501961" cx="0" cy="0" rx="1" ry="1" /></g><g transform="translate(188.956249 38.827430) rotate(272.043706) scale(25.778817 118.406891)"><ellipse fill="#0b1d00" fill-opacity=".501961" cx="0" cy="0" rx="1" ry="1" /></g><g transform="translate(160.298227 118.901295) rotate(277.071692) scale(57.880540 23.652968)"><ellipse fill="#000" fill-opacity=".501961" cx="0" cy="0" rx="1" ry="1" /></g><g transform="translate(18.380799 29.200198) rotate(335.997225) scale(39.443537 15.458296)"><ellipse fill="#000d00" fill-opacity=".501961" cx="0" cy="0" rx="1" ry="1" /></g><g transform="translate(225.121687 126.713392) rotate(257.062659) scale(16.562436 51.145548)"><ellipse fill="#dbd5cd" fill-opacity=".501961" cx="0" cy="0" rx="1" ry="1" /></g><path fill="#320000" fill-opacity=".501961" d="M173 116 102 95l133 3z" /><path d="M0 0h6e3v4e3H0z" fill="#fffff4" /><path d="M0 0h6e3v4e3H0z" fill="#c7cbc0" /></g></svg>