<svg xmlns="http://www.w3.org/2000/svg" viewBox="0 0 6000 4000"><filter id="b"><feGaussianBlur stdDeviation="12" /></filter><path d="M0 0h6e3v4e3H0z" fill="#747774" /><g filter="url(#b)" transform="scale(23.437500) translate(0.5 0.5)"><g transform="translate(213.494358 144.312881) rotate(138.461357) scale(230.474668 56.148690)"><ellipse fill="#000" fill-opacity=".501961" cx="0" cy="0" rx="1" ry="1" /></g><g transform="translate(99.363246 61.207583) rotate(325.153519) scale(205.963583 80.698605)"><ellipse fill="#b0baba" fill-opacity=".501961" cx="0" cy="0" rx="1" ry="1" /></g><path fill="#000" fill-opacity=".501961" d="M110 168 271 19 255 185z" /><g transform="translate(219.237107 136.892727) rotate(338.099717) scale(60.978560 52.507372)"><ellipse fill="#160500" fill-opacity=".501961" cx="0" cy="0" rx="1" ry="1" /></g><path fill="#2d3333" fill-opacity=".501961" d="M180.820896 98.153914 153.178135 96.822805 169.356378 89.250755 171.728054 57.08407z" /><g transform="translate(105 169) rotate(228) scale(3 79)"><path d="M0 0h6e3v4e3H0z" fill="#000" /></g><g transform="translate(16.520700 0.000000) rotate(231.560317) scale(19.087765 130.515277)"><ellipse fill="#a2abab" fill-opacity=".501961" cx="0" cy="0" rx="1" ry="1" /></g><path fill="#a7aba8" fill-opacity=".501961" d="M106.565034 165.164046 176.390188 104.043132 79.591517 166.650873 74.164157 185z" /></g></svg>