<svg xmlns="http://www.w3.org/2000/svg" viewBox="0 0 6000 4000"><filter id="b"><feGaussianBlur stdDeviation="12" /></filter><path d="M0 0h6e3v4e3H0z" fill="#676a61" /><g filter="url(#b)" transform="scale(23.437500) translate(0.5 0.5)"><g transform="translate(171.193337 143.905920) rotate(-0.785705) scale(115.764203 49.082207)"><ellipse fill="#040000" fill-opacity=".501961" cx="0" cy="0" rx="1" ry="1" /></g><g transform="translate(88.698695 28.241125) rotate(177.602387) scale(250.971418 51.105601)"><ellipse fill="#aebcb2" fill-opacity=".501961" cx="0" cy="0" rx="1" ry="1" /></g><g transform="translate(172.830549 106.005205) rotate(103.921490) scale(31.125093 23.296133)"><ellipse fill="#000" fill-opacity=".501961" cx="0" cy="0" rx="1" ry="1" /></g><path fill="#767d70" fill-opacity=".501961" d="M187 24-16 58l141 86z" /><g transform="translate(215.771063 76.718445) rotate(96.039998) scale(40.289029 20.711738)"><ellipse fill="#8c9687" fill-opacity=".501961" cx="0" cy="0" rx="1" ry="1" /></g><ellipse fill="#a3aea7" fill-opacity=".501961" cx="138" cy="6" rx="180" ry="35" /><g transform="translate(67 85) rotate(357) scale(2 86)"><path d="M0 0h6e3v4e3H0z" fill="#000" /></g><g transform="translate(94.385206 145.019930) rotate(162.786376) scale(30.071603 10.652686)"><ellipse fill="#000" fill-opacity=".501961" cx="0" cy="0" rx="1" ry="1" /></g></g></svg>