<svg xmlns="http://www.w3.org/2000/svg" viewBox="0 0 6000 4000"><filter id="b"><feGaussianBlur stdDeviation="12" /></filter><path d="M0 0h6e3v4e3H0z" fill="#707062" /><g filter="url(#b)" transform="scale(23.437500) translate(0.5 0.5)"><g transform="translate(209 101) rotate(181) scale(120 70)"><path d="M0 0h6e3v4e3H0z" fill="#fffffc" /></g><g transform="translate(129.216438 5.156950) rotate(266.996537) scale(31.063624 130.135323)"><ellipse fill="#000" fill-opacity=".501961" cx="0" cy="0" rx="1" ry="1" /></g><path fill="#1b0b00" fill-opacity=".501961" d="M45 185 16 85l137 7z" /><ellipse fill="#b8b6a3" fill-opacity=".501961" cx="71" cy="68" rx="255" ry="18" /><path fill="#fffff8" fill-opacity=".501961" d="M-16 117l29 4V27z" /><path d="M0 0h6e3v4e3H0z" fill="#000" /><ellipse fill="#0c2209" fill-opacity=".501961" cx="132" cy="14" rx="53" ry="41" /><path d="M0 0h6e3v4e3H0z" fill="#c4bfb2" /></g></svg>