<svg xmlns="http://www.w3.org/2000/svg" viewBox="0 0 6000 4000"><filter id="b"><feGaussianBlur stdDeviation="12" /></filter><path d="M0 0h6e3v4e3H0z" fill="#5f6156" /><g filter="url(#b)" transform="scale(23.437500) translate(0.5 0.5)"><ellipse fill="#d8ddd2" fill-opacity=".501961" cx="166" cy="32" rx="133" ry="59" /><g transform="translate(78.452571 144.676318) rotate(372.049235) scale(231.233414 57.577935)"><ellipse fill="#000" fill-opacity=".501961" cx="0" cy="0" rx="1" ry="1" /></g><g transform="translate(15.454279 95.197650) rotate(158.568392) scale(37.608433 255.000000)"><ellipse fill="#000" fill-opacity=".501961" cx="0" cy="0" rx="1" ry="1" /></g><path fill="#909386" fill-opacity=".501961" d="M159 41l-25 84L38 61z" /><g transform="translate(230.813739 91.505786) rotate(200.162821) scale(51.266889 25.243121)"><ellipse fill="#949c91" fill-opacity=".501961" cx="0" cy="0" rx="1" ry="1" /></g><path d="M0 0h6e3v4e3H0z" fill="#120f09" /><g transform="translate(59.581852 151.049207) rotate(-105.350562) scale(34.412516 79.223903)"><ellipse fill="#091001" fill-opacity=".501961" cx="0" cy="0" rx="1" ry="1" /></g><g transform="translate(9.469733 23.427676) rotate(102.493949) scale(89.792694 16.716442)"><ellipse fill="#191b03" fill-opacity=".501961" cx="0" cy="0" rx="1" ry="1" /></g></g></svg>