<svg xmlns="http://www.w3.org/2000/svg" viewBox="0 0 6000 4000"><filter id="b"><feGaussianBlur stdDeviation="12" /></filter><path d="M0 0h6e3v4e3H0z" fill="#49554a" /><g filter="url(#b)" transform="scale(23.437500) translate(0.5 0.5)"><ellipse fill="#e6dcf8" fill-opacity=".501961" cx="189" cy="30" rx="72" ry="67" /><g transform="translate(46.712553 117.982927) rotate(136.574121) scale(67.364453 255.000000)"><ellipse fill="#000400" fill-opacity=".501961" cx="0" cy="0" rx="1" ry="1" /></g><g transform="translate(141.253433 153.435002) rotate(181.551550) scale(220.845943 28.308944)"><ellipse fill="#002600" fill-opacity=".501961" cx="0" cy="0" rx="1" ry="1" /></g><ellipse fill="#c7c4dd" fill-opacity=".501961" cx="188" cy="118" rx="95" ry="8" /><g transform="translate(172 51) rotate(273) scale(101 50)"><path d="M0 0h6e3v4e3H0z" fill="#ddd6df" /></g><ellipse fill="#000010" fill-opacity=".501961" cx="140" cy="0" rx="5" ry="95" /><ellipse fill="#a1a6b0" fill-opacity=".501961" cx="0" cy="61" rx="9" ry="49" /><g transform="translate(232.275856 31.465948) rotate(345.197464) scale(21.361130 55.901768)"><ellipse fill="#525e6b" fill-opacity=".501961" cx="0" cy="0" rx="1" ry="1" /></g></g></svg>