<svg xmlns="http://www.w3.org/2000/svg" viewBox="0 0 6000 4000"><filter id="b"><feGaussianBlur stdDeviation="12" /></filter><path d="M0 0h6e3v4e3H0z" fill="#696b66" /><g filter="url(#b)" transform="scale(23.437500) translate(0.5 0.5)"><g transform="translate(29.789122 111.765870) rotate(158.664725) scale(47.645858 249.628983)"><ellipse fill="#000" fill-opacity=".501961" cx="0" cy="0" rx="1" ry="1" /></g><ellipse fill="#cccdc8" fill-opacity=".501961" cx="169" cy="92" rx="63" ry="168" /><ellipse fill="#000" fill-opacity=".501961" cx="52" cy="54" rx="82" ry="25" /><g transform="translate(90 13) rotate(-5) scale(92 30)"><path d="M0 0h6e3v4e3H0z" fill="#fdffff" /></g><g transform="translate(27.935122 112.264417) rotate(-15.915515) scale(40.577958 149.221485)"><ellipse fill="#000" fill-opacity=".501961" cx="0" cy="0" rx="1" ry="1" /></g><path fill="#090100" fill-opacity=".501961" d="M169 103l75-27 2 28z" /><g transform="translate(85.287791 104.155557) rotate(230.768547) scale(36.993534 17.941916)"><ellipse fill="#b0ab9d" fill-opacity=".501961" cx="0" cy="0" rx="1" ry="1" /></g><g transform="translate(165.411830 142.335704) rotate(111.298153) scale(30.302721 50.782626)"><ellipse fill="#cfd4cf" fill-opacity=".501961" cx="0" cy="0" rx="1" ry="1" /></g></g></svg>