<svg xmlns="http://www.w3.org/2000/svg" viewBox="0 0 6000 4000"><filter id="b"><feGaussianBlur stdDeviation="12" /></filter><path d="M0 0h6e3v4e3H0z" fill="#747867" /><g filter="url(#b)" transform="scale(23.437500) translate(0.5 0.5)"><g transform="translate(41.245728 16.822561) rotate(274.000661) scale(41.760464 51.485133)"><ellipse fill="#fff" fill-opacity=".501961" cx="0" cy="0" rx="1" ry="1" /></g><g transform="translate(17.791045 105.357857) rotate(220.376406) scale(59.439358 31.589423)"><ellipse fill="#000" fill-opacity=".501961" cx="0" cy="0" rx="1" ry="1" /></g><ellipse fill="#ffffdc" fill-opacity=".501961" cx="58" cy="163" rx="90" ry="13" /><g transform="translate(199.662683 3.356300) rotate(186.141594) scale(52.601722 14.417968)"><ellipse fill="#fff" fill-opacity=".501961" cx="0" cy="0" rx="1" ry="1" /></g><g transform="translate(178.346290 150.453519) rotate(105.917489) scale(12.715804 135.331372)"><ellipse fill="#060306" fill-opacity=".501961" cx="0" cy="0" rx="1" ry="1" /></g><ellipse fill="#b6e2f3" fill-opacity=".501961" cx="195" cy="98" rx="25" ry="35" /><path d="M0 0h6e3v4e3H0z" fill="#4b412d" /><g transform="translate(247.856829 122.235306) rotate(206.347631) scale(9.710785 49.618161)"><ellipse fill="#000" fill-opacity=".501961" cx="0" cy="0" rx="1" ry="1" /></g></g></svg>