<svg xmlns="http://www.w3.org/2000/svg" viewBox="0 0 6000 4000"><filter id="b"><feGaussianBlur stdDeviation="12" /></filter><path d="M0 0h6e3v4e3H0z" fill="#49554a" /><g filter="url(#b)" transform="scale(23.437500) translate(0.5 0.5)"><g transform="translate(191.310765 39.244481) rotate(58.908888) scale(55.638232 71.679315)"><ellipse fill="#ebe1fd" fill-opacity=".501961" cx="0" cy="0" rx="1" ry="1" /></g><g transform="translate(67.844307 143.188293) rotate(139.394008) scale(67.817096 255.000000)"><ellipse fill="#000300" fill-opacity=".501961" cx="0" cy="0" rx="1" ry="1" /></g><g transform="translate(120.215849 150.448829) rotate(181.264653) scale(255.000000 25.525369)"><ellipse fill="#002600" fill-opacity=".501961" cx="0" cy="0" rx="1" ry="1" /></g><g transform="translate(191.264990 118.544619) rotate(90.406542) scale(8.093826 94.029986)"><ellipse fill="#c2bfd5" fill-opacity=".501961" cx="0" cy="0" rx="1" ry="1" /></g><g transform="translate(174.349032 24.494983) rotate(359.909521) scale(29.266250 66.893063)"><ellipse fill="#dfdbe4" fill-opacity=".501961" cx="0" cy="0" rx="1" ry="1" /></g><path d="M0 0h6e3v4e3H0z" fill="#00000d" /><g transform="translate(236.231595 13.972311) rotate(263.493069) scale(66.770696 28.167946)"><ellipse fill="#5b6573" fill-opacity=".501961" cx="0" cy="0" rx="1" ry="1" /></g><path fill="#9ba0aa" fill-opacity=".501961" d="M15 105 4 1-16 103z" /></g></svg>