<svg xmlns="http://www.w3.org/2000/svg" viewBox="0 0 6000 4000"><filter id="b"><feGaussianBlur stdDeviation="12" /></filter><path d="M0 0h6e3v4e3H0z" fill="#525f45" /><g filter="url(#b)" transform="scale(23.437500) translate(0.5 0.5)"><g transform="translate(209.160649 169.000000) rotate(325.009616) scale(186.470016 52.551930)"><ellipse fill="#d2baee" fill-opacity=".501961" cx="0" cy="0" rx="1" ry="1" /></g><g transform="translate(53.588046 134.997003) rotate(262.451968) scale(46.555502 98.215593)"><ellipse fill="#052000" fill-opacity=".501961" cx="0" cy="0" rx="1" ry="1" /></g><g transform="translate(95.033620 26.953054) rotate(89.091597) scale(11.029940 65.776766)"><ellipse fill="#b8b0d3" fill-opacity=".501961" cx="0" cy="0" rx="1" ry="1" /></g><g transform="translate(215.651318 9.993258) rotate(240.865799) scale(78.038445 43.768628)"><ellipse fill="#183700" fill-opacity=".501961" cx="0" cy="0" rx="1" ry="1" /></g><path fill="#aca19b" fill-opacity=".501961" d="M156 76 70 71 234 36z" /><g transform="translate(19 11) rotate(157) scale(41 34)"><path d="M0 0h6e3v4e3H0z" fill="#000" /></g><ellipse fill="#2a5c00" fill-opacity=".501961" cx="184" cy="82" rx="33" ry="26" /><path fill="#07000a" fill-opacity=".501961" d="M131.485095 90.077175 87.118431 116.01108 48.336061 96.589604l72.38405-23.986559z" /></g></svg>