<svg xmlns="http://www.w3.org/2000/svg" viewBox="0 0 6000 4000"><filter id="b"><feGaussianBlur stdDeviation="12" /></filter><path d="M0 0h6e3v4e3H0z" fill="#1c301a" /><g filter="url(#b)" transform="scale(23.437500) translate(0.5 0.5)"><path d="M0 0h6e3v4e3H0z" fill="#f5ccdf" /><path fill="#a3979a" fill-opacity=".501961" d="M118.124394 129.375151 165.371901 143.804256 106.007727 136.496316 136.188067 77.640617z" /><ellipse fill="#091c09" fill-opacity=".501961" cx="50" cy="127" rx="65" ry="65" /><path fill="#244321" fill-opacity=".501961" d="M101 72 91-16 258 36z" /><ellipse fill="#0a1d0a" fill-opacity=".501961" cx="237" cy="128" rx="87" ry="87" /><g transform="translate(140 121) rotate(9) scale(4 43)"><path d="M0 0h6e3v4e3H0z" fill="#dcbfc1" /></g><path fill="#cdafb6" fill-opacity=".501961" d="M144.65638 75.839607 122.778835 54.83416 121.135329 47.447486 151.253833 75.459467z" /><path d="M0 0h6e3v4e3H0z" fill="#fffffd" /></g></svg>