<svg xmlns="http://www.w3.org/2000/svg" viewBox="0 0 6000 4000"><filter id="b"><feGaussianBlur stdDeviation="12" /></filter><path d="M0 0h6e3v4e3H0z" fill="#353535" /><g filter="url(#b)" transform="scale(23.437500) translate(0.5 0.5)"><g transform="translate(109.113429 46.850592) rotate(19.719610) scale(83.249301 16.644697)"><ellipse fill="#fff" fill-opacity=".501961" cx="0" cy="0" rx="1" ry="1" /></g><path fill="#fff" fill-opacity=".501961" d="M197 66 35-1 46 49z" /><ellipse fill="#000" fill-opacity=".501961" cx="212" cy="9" rx="62" ry="62" /><ellipse fill="#000" fill-opacity=".501961" cx="5" cy="54" rx="33" ry="158" /><g transform="translate(77.163465 123.432531) rotate(83.926613) scale(22.303819 42.121772)"><ellipse fill="#8c8c8c" fill-opacity=".501961" cx="0" cy="0" rx="1" ry="1" /></g><ellipse fill="#000" fill-opacity=".501961" cx="55" cy="78" rx="92" ry="18" /><path fill="#000" fill-opacity=".501961" d="M271-6 21-8 209 69z" /><g transform="translate(248 92) rotate(106) scale(10 21)"><path d="M0 0h6e3v4e3H0z" fill="#fff" /></g></g></svg>