<svg xmlns="http://www.w3.org/2000/svg" viewBox="0 0 6000 4000"><filter id="b"><feGaussianBlur stdDeviation="12" /></filter><path d="M0 0h6e3v4e3H0z" fill="#6c7068" /><g filter="url(#b)" transform="scale(23.437500) translate(0.5 0.5)"><g transform="translate(0.000000 77.150242) rotate(181.903329) scale(48.560843 108.653294)"><ellipse fill="#000" fill-opacity=".501961" cx="0" cy="0" rx="1" ry="1" /></g><ellipse fill="#fffffa" fill-opacity=".501961" cx="125" cy="16" rx="48" ry="30" /><ellipse fill="#b7cdec" fill-opacity=".501961" cx="176" cy="147" rx="48" ry="48" /><g transform="translate(230.056874 0.000000) rotate(58.051076) scale(26.778042 55.464081)"><ellipse fill="#000" fill-opacity=".501961" cx="0" cy="0" rx="1" ry="1" /></g><path d="M0 0h6e3v4e3H0z" fill="#c0e7ff" /><g transform="translate(57.046784 128.069926) rotate(-27.845727) scale(17.711770 67.967783)"><ellipse fill="#8ca6b1" fill-opacity=".501961" cx="0" cy="0" rx="1" ry="1" /></g><g transform="translate(0.000000 134.270657) rotate(270.842936) scale(118.150531 26.563266)"><ellipse fill="#000" fill-opacity=".501961" cx="0" cy="0" rx="1" ry="1" /></g><g transform="translate(227.605339 84.932420) rotate(262.590675) scale(15.313426 56.774817)"><ellipse fill="#190b01" fill-opacity=".501961" cx="0" cy="0" rx="1" ry="1" /></g></g></svg>