<svg xmlns="http://www.w3.org/2000/svg" viewBox="0 0 6000 4000"><filter id="b"><feGaussianBlur stdDeviation="12" /></filter><path d="M0 0h6e3v4e3H0z" fill="#787971" /><g filter="url(#b)" transform="scale(23.437500) translate(0.5 0.5)"><g transform="translate(237.230262 95.414086) rotate(152.061917) scale(29.732319 71.830914)"><ellipse fill="#ffe" fill-opacity=".501961" cx="0" cy="0" rx="1" ry="1" /></g><g transform="translate(10.531292 58.550595) rotate(282.872941) scale(116.106857 32.204343)"><ellipse fill="#000" fill-opacity=".501961" cx="0" cy="0" rx="1" ry="1" /></g><g transform="translate(176.464089 152.283787) rotate(137.026302) scale(80.439498 22.370900)"><ellipse fill="#cdecfc" fill-opacity=".501961" cx="0" cy="0" rx="1" ry="1" /></g><g transform="translate(45.796830 136.583328) rotate(45.792091) scale(19.942010 38.797806)"><ellipse fill="#dbf7ff" fill-opacity=".501961" cx="0" cy="0" rx="1" ry="1" /></g><ellipse fill="#000" fill-opacity=".501961" cx="183" cy="31" rx="14" ry="42" /><ellipse fill="#000" fill-opacity=".501961" cx="27" cy="30" rx="38" ry="33" /><path fill="#202313" fill-opacity=".501961" d="M128 143l62-14L21 70z" /><g transform="translate(217.204259 68.916000) rotate(168.210606) scale(15.121364 62.809375)"><ellipse fill="#ffe4c8" fill-opacity=".501961" cx="0" cy="0" rx="1" ry="1" /></g></g></svg>