<svg xmlns="http://www.w3.org/2000/svg" viewBox="0 0 6000 4000"><filter id="b"><feGaussianBlur stdDeviation="12" /></filter><path d="M0 0h6e3v4e3H0z" fill="#8f857d" /><g filter="url(#b)" transform="scale(23.437500) translate(0.5 0.5)"><ellipse fill="#1d0600" fill-opacity=".501961" cx="77" cy="105" rx="73" ry="73" /><g transform="translate(165.226642 14.961511) rotate(100.729769) scale(33.036101 255.000000)"><ellipse fill="#fff" fill-opacity=".501961" cx="0" cy="0" rx="1" ry="1" /></g><g transform="translate(229 153) rotate(158) scale(204 83)"><path d="M0 0h6e3v4e3H0z" fill="#fff" /></g><g transform="translate(158.260201 72.250784) rotate(117.804981) scale(31.312966 81.741009)"><ellipse fill="#200900" fill-opacity=".501961" cx="0" cy="0" rx="1" ry="1" /></g><g transform="translate(14.579080 40.919574) rotate(19.631429) scale(25.702270 68.172339)"><ellipse fill="#fff" fill-opacity=".501961" cx="0" cy="0" rx="1" ry="1" /></g><g transform="translate(40 161) rotate(281) scale(71 133)"><path d="M0 0h6e3v4e3H0z" fill="#000" /></g><g transform="translate(231.064271 19.291877) rotate(238.118703) scale(59.585309 35.531634)"><ellipse fill="#fff" fill-opacity=".501961" cx="0" cy="0" rx="1" ry="1" /></g><g transform="translate(127 112) rotate(33) scale(60 62)"><path d="M0 0h6e3v4e3H0z" fill="#c1a689" /></g></g></svg>