<svg xmlns="http://www.w3.org/2000/svg" viewBox="0 0 6000 4000"><filter id="b"><feGaussianBlur stdDeviation="12" /></filter><path d="M0 0h6e3v4e3H0z" fill="#634f34" /><g filter="url(#b)" transform="scale(23.437500) translate(0.5 0.5)"><g transform="translate(58.319967 28.240161) rotate(334.793599) scale(98.538032 57.779230)"><ellipse fill="#000" fill-opacity=".501961" cx="0" cy="0" rx="1" ry="1" /></g><g transform="translate(98.156367 112.689155) rotate(254.728011) scale(35.790600 75.923602)"><ellipse fill="#edbe8b" fill-opacity=".501961" cx="0" cy="0" rx="1" ry="1" /></g><g transform="translate(177.907685 29.816514) rotate(241.275919) scale(27.853982 36.917277)"><ellipse fill="#b0bec3" fill-opacity=".501961" cx="0" cy="0" rx="1" ry="1" /></g><path d="M0 0h6e3v4e3H0z" fill="#000" /><g transform="translate(68.102842 21.729650) rotate(25.628542) scale(81.994482 43.615149)"><ellipse fill="#000" fill-opacity=".501961" cx="0" cy="0" rx="1" ry="1" /></g><g transform="translate(169.120945 169.000000) rotate(-7.298881) scale(162.157912 25.965825)"><ellipse fill="#c57d1a" fill-opacity=".501961" cx="0" cy="0" rx="1" ry="1" /></g><g transform="translate(249.465937 55.885469) rotate(52.086053) scale(45.311733 25.130963)"><ellipse fill="#999a93" fill-opacity=".501961" cx="0" cy="0" rx="1" ry="1" /></g><g transform="translate(222.108234 108.847944) rotate(14.074949) scale(25.792301 16.280404)"><ellipse fill="#000" fill-opacity=".501961" cx="0" cy="0" rx="1" ry="1" /></g></g></svg>