<svg xmlns="http://www.w3.org/2000/svg" viewBox="0 0 6000 4000"><filter id="b"><feGaussianBlur stdDeviation="12" /></filter><path d="M0 0h6e3v4e3H0z" fill="#354830" /><g filter="url(#b)" transform="scale(23.437500) translate(0.5 0.5)"><g transform="translate(116.317695 0.000000) rotate(-13.891366) scale(33.515114 62.255825)"><ellipse fill="#fff" fill-opacity=".501961" cx="0" cy="0" rx="1" ry="1" /></g><g transform="translate(234.558237 18.414854) rotate(281.639954) scale(26.302667 88.190059)"><ellipse fill="#a4be77" fill-opacity=".501961" cx="0" cy="0" rx="1" ry="1" /></g><g transform="translate(14 117) rotate(8) scale(68 107)"><path d="M0 0h6e3v4e3H0z" fill="#000" /></g><ellipse fill="#001500" fill-opacity=".501961" cx="219" cy="126" rx="68" ry="68" /><ellipse fill="#fff" fill-opacity=".501961" cx="34" cy="47" rx="15" ry="15" /><path d="M0 0h6e3v4e3H0z" fill="#b3c9ff" /><g transform="translate(140.453198 166.443369) rotate(251.155697) scale(65.900210 18.059254)"><ellipse fill="#bea0ad" fill-opacity=".501961" cx="0" cy="0" rx="1" ry="1" /></g><path fill="#fff" fill-opacity=".501961" d="M58-16 159 7 97 18z" /></g></svg>