<svg xmlns="http://www.w3.org/2000/svg" viewBox="0 0 6000 4000"><filter id="b"><feGaussianBlur stdDeviation="12" /></filter><path d="M0 0h6e3v4e3H0z" fill="#626768" /><g filter="url(#b)" transform="scale(23.437500) translate(0.5 0.5)"><path fill="#b4bfc6" fill-opacity=".501961" d="M-16 78 206 45 68-16z" /><g transform="translate(133 73) rotate(198) scale(52 39)"><path d="M0 0h6e3v4e3H0z" fill="#000" /></g><g transform="translate(157.443425 141.896621) rotate(93.815467) scale(12.323515 220.991288)"><ellipse fill="#040100" fill-opacity=".501961" cx="0" cy="0" rx="1" ry="1" /></g><g transform="translate(190 11) rotate(271) scale(26 139)"><path d="M0 0h6e3v4e3H0z" fill="#002000" /></g><g transform="translate(19 12) rotate(84) scale(25 50)"><path d="M0 0h6e3v4e3H0z" fill="#000" /></g><g transform="translate(108.160908 5.791290) rotate(207.715958) scale(10.350895 35.430473)"><ellipse fill="#fff" fill-opacity=".501961" cx="0" cy="0" rx="1" ry="1" /></g><path fill="#f5d4ff" fill-opacity=".501961" d="M137 90l-36 66 11-54z" /><g transform="translate(189.741871 72.133703) rotate(329.504806) scale(48.469343 24.429252)"><ellipse fill="#9e918f" fill-opacity=".501961" cx="0" cy="0" rx="1" ry="1" /></g></g></svg>