<svg xmlns="http://www.w3.org/2000/svg" viewBox="0 0 6000 4000"><filter id="b"><feGaussianBlur stdDeviation="12" /></filter><path d="M0 0h6e3v4e3H0z" fill="#49554a" /><g filter="url(#b)" transform="scale(23.437500) translate(0.5 0.5)"><g transform="translate(186.308613 40.831584) rotate(143.387041) scale(67.754762 55.255076)"><ellipse fill="#ece1fe" fill-opacity=".501961" cx="0" cy="0" rx="1" ry="1" /></g><g transform="translate(66.875464 141.454436) rotate(409.092974) scale(255.000000 67.509915)"><ellipse fill="#000300" fill-opacity=".501961" cx="0" cy="0" rx="1" ry="1" /></g><ellipse fill="#002600" fill-opacity=".501961" cx="135" cy="152" rx="203" ry="27" /><ellipse fill="#c7c4dd" fill-opacity=".501961" cx="187" cy="118" rx="93" ry="8" /><g transform="translate(174.648248 23.929613) rotate(181.468361) scale(29.009125 68.840633)"><ellipse fill="#dedbe4" fill-opacity=".501961" cx="0" cy="0" rx="1" ry="1" /></g><g transform="translate(240.059823 19.241427) rotate(262.785902) scale(58.650054 33.179964)"><ellipse fill="#697182" fill-opacity=".501961" cx="0" cy="0" rx="1" ry="1" /></g><ellipse fill="#050116" fill-opacity=".501961" cx="140" cy="35" rx="5" ry="65" /><ellipse fill="#959da3" fill-opacity=".501961" cx="4" cy="51" rx="5" ry="60" /></g></svg>