<svg xmlns="http://www.w3.org/2000/svg" viewBox="0 0 6000 4000"><filter id="b"><feGaussianBlur stdDeviation="12" /></filter><path d="M0 0h6e3v4e3H0z" fill="#4e5249" /><g filter="url(#b)" transform="scale(23.437500) translate(0.5 0.5)"><g transform="translate(27.355595 81.235603) rotate(282.147019) scale(51.306836 94.594968)"><ellipse fill="#000" fill-opacity=".501961" cx="0" cy="0" rx="1" ry="1" /></g><g transform="translate(30.366653 169.000000) rotate(341.978112) scale(139.321003 24.154429)"><ellipse fill="#fbd3a1" fill-opacity=".501961" cx="0" cy="0" rx="1" ry="1" /></g><g transform="translate(199.342224 64.758689) rotate(95.591889) scale(35.406842 110.798621)"><ellipse fill="#85a6ae" fill-opacity=".501961" cx="0" cy="0" rx="1" ry="1" /></g><g transform="translate(20.884731 58.457064) rotate(276.773335) scale(81.950275 57.900646)"><ellipse fill="#000703" fill-opacity=".501961" cx="0" cy="0" rx="1" ry="1" /></g><g transform="translate(230 157) rotate(280) scale(73 41)"><path d="M0 0h6e3v4e3H0z" fill="#d1a476" /></g><g transform="translate(173 77) rotate(179) scale(29 17)"><path d="M0 0h6e3v4e3H0z" fill="#000" /></g><g transform="translate(100.847390 24.376580) rotate(-0.887149) scale(72.726011 34.979800)"><ellipse fill="#254c5c" fill-opacity=".501961" cx="0" cy="0" rx="1" ry="1" /></g><g transform="translate(238.000142 82.588831) rotate(167.564158) scale(63.841861 15.365488)"><ellipse fill="#c1c0b0" fill-opacity=".501961" cx="0" cy="0" rx="1" ry="1" /></g></g></svg>