<svg xmlns="http://www.w3.org/2000/svg" viewBox="0 0 6000 4000"><filter id="b"><feGaussianBlur stdDeviation="12" /></filter><path d="M0 0h6e3v4e3H0z" fill="#312a15" /><g filter="url(#b)" transform="scale(23.437500) translate(0.5 0.5)"><g transform="translate(171.532130 88.914982) rotate(360.158703) scale(150.658277 19.981117)"><ellipse fill="#c39d40" fill-opacity=".501961" cx="0" cy="0" rx="1" ry="1" /></g><g transform="translate(221.298092 0.000000) rotate(210.247063) scale(15.790174 20.836953)"><ellipse fill="#fff" fill-opacity=".501961" cx="0" cy="0" rx="1" ry="1" /></g><ellipse fill="#fff" fill-opacity=".501961" cx="88" cy="34" rx="9" ry="9" /><g transform="translate(122.941983 156.036915) rotate(88.340200) scale(33.377813 213.475136)"><ellipse fill="#000" fill-opacity=".501961" cx="0" cy="0" rx="1" ry="1" /></g><g transform="translate(27.541852 46.097943) rotate(86.703896) scale(14.399333 9.018111)"><ellipse fill="#ffede1" fill-opacity=".501961" cx="0" cy="0" rx="1" ry="1" /></g><ellipse fill="#000" fill-opacity=".501961" cx="144" cy="19" rx="51" ry="57" /><path fill="#b69950" fill-opacity=".501961" d="M255 43 182 97 89 88z" /><g transform="translate(41.171689 17.573490) rotate(75.533439) scale(19.840576 145.800018)"><ellipse fill="#000" fill-opacity=".501961" cx="0" cy="0" rx="1" ry="1" /></g></g></svg>