<svg xmlns="http://www.w3.org/2000/svg" viewBox="0 0 6000 4000"><filter id="b"><feGaussianBlur stdDeviation="12" /></filter><path d="M0 0h6e3v4e3H0z" fill="#454438" /><g filter="url(#b)" transform="scale(23.437500) translate(0.5 0.5)"><g transform="translate(24.553062 36.605365) rotate(16.287841) scale(96.249399 26.781202)"><ellipse fill="#fff" fill-opacity=".501961" cx="0" cy="0" rx="1" ry="1" /></g><g transform="translate(214.350058 64.288487) rotate(268.830053) scale(7.232529 127.434086)"><ellipse fill="#fff" fill-opacity=".501961" cx="0" cy="0" rx="1" ry="1" /></g><g transform="translate(157.952651 17.116816) rotate(189.895320) scale(126.445071 31.713964)"><ellipse fill="#000" fill-opacity=".501961" cx="0" cy="0" rx="1" ry="1" /></g><g transform="translate(21.977747 31.774745) rotate(193.138607) scale(89.065571 21.619679)"><ellipse fill="ivory" fill-opacity=".501961" cx="0" cy="0" rx="1" ry="1" /></g><g transform="translate(96.154956 155.790189) rotate(95.106280) scale(31.207758 153.602289)"><ellipse fill="#000" fill-opacity=".501961" cx="0" cy="0" rx="1" ry="1" /></g><ellipse fill="#000" fill-opacity=".501961" cx="204" cy="17" rx="122" ry="40" /><ellipse fill="#fff" fill-opacity=".501961" cx="223" cy="62" rx="70" ry="6" /><g transform="translate(163 129) rotate(96) scale(5 88)"><path d="M0 0h6e3v4e3H0z" fill="#fffff9" /></g></g></svg>