<svg xmlns="http://www.w3.org/2000/svg" viewBox="0 0 6000 4000"><filter id="b"><feGaussianBlur stdDeviation="12" /></filter><path d="M0 0h6e3v4e3H0z" fill="#565e59" /><g filter="url(#b)" transform="scale(23.437500) translate(0.5 0.5)"><g transform="translate(196.685281 37.755921) rotate(256.795766) scale(44.113798 167.325793)"><ellipse fill="#ceebef" fill-opacity=".501961" cx="0" cy="0" rx="1" ry="1" /></g><g transform="translate(144.044510 142.613448) rotate(354.526047) scale(247.764466 48.181459)"><ellipse fill="#000" fill-opacity=".501961" cx="0" cy="0" rx="1" ry="1" /></g><path fill="#000" fill-opacity=".501961" d="M255 185 48 132 255 81z" /><g transform="translate(27.599300 106.957361) rotate(195.052737) scale(114.327079 24.350166)"><ellipse fill="#271600" fill-opacity=".501961" cx="0" cy="0" rx="1" ry="1" /></g><g transform="translate(114.295116 24.913667) rotate(253.661280) scale(27.385724 202.341305)"><ellipse fill="#62838e" fill-opacity=".501961" cx="0" cy="0" rx="1" ry="1" /></g><path fill="#dde1d9" fill-opacity=".501961" d="M270 73 171 46 60 92z" /><path fill="#b6bbaf" fill-opacity=".501961" d="M127 111-16 65l157 1z" /><g transform="translate(79.144819 169.000000) rotate(213.644458) scale(122.788806 24.746936)"><ellipse fill="#674921" fill-opacity=".501961" cx="0" cy="0" rx="1" ry="1" /></g></g></svg>