<svg xmlns="http://www.w3.org/2000/svg" viewBox="0 0 6000 4000"><filter id="b"><feGaussianBlur stdDeviation="12" /></filter><path d="M0 0h6e3v4e3H0z" fill="#51707a" /><g filter="url(#b)" transform="scale(23.437500) translate(0.5 0.5)"><g transform="translate(164.797431 35.091216) rotate(351.276408) scale(174.517514 37.964174)"><ellipse fill="#daffff" fill-opacity=".501961" cx="0" cy="0" rx="1" ry="1" /></g><g transform="translate(158 151) rotate(337) scale(255 113)"><path d="M0 0h6e3v4e3H0z" fill="#000" /></g><g transform="translate(203.287272 136.502746) rotate(138.011900) scale(87.514399 57.930879)"><ellipse fill="#000" fill-opacity=".501961" cx="0" cy="0" rx="1" ry="1" /></g><g transform="translate(9.531336 153.808608) rotate(215.411752) scale(157.571342 51.441320)"><ellipse fill="#001817" fill-opacity=".501961" cx="0" cy="0" rx="1" ry="1" /></g><g transform="translate(71.098515 12.444439) rotate(169.372618) scale(126.836767 33.520128)"><ellipse fill="#54a9da" fill-opacity=".501961" cx="0" cy="0" rx="1" ry="1" /></g><path fill="#78adbd" fill-opacity=".501961" d="M101 95l54-4-32 47z" /><g transform="translate(143.060334 50.682300) rotate(87.190205) scale(28.930253 95.315518)"><ellipse fill="#b6e0f8" fill-opacity=".501961" cx="0" cy="0" rx="1" ry="1" /></g><path fill="#060300" fill-opacity=".501961" d="M174.769786 111.895878 176.879244 39.956462 168.525437 40.729334 150.657161 178.048177z" /></g></svg>