<svg xmlns="http://www.w3.org/2000/svg" viewBox="0 0 6000 4000"><filter id="b"><feGaussianBlur stdDeviation="12" /></filter><path d="M0 0h6e3v4e3H0z" fill="#36372e" /><g filter="url(#b)" transform="scale(23.437500) translate(0.5 0.5)"><g transform="translate(77 137) rotate(-20) scale(45 82)"><path d="M0 0h6e3v4e3H0z" fill="#ffd" /></g><g transform="translate(23.933758 111.428182) rotate(274.038084) scale(11.940285 98.953975)"><ellipse fill="#ffd7a5" fill-opacity=".501961" cx="0" cy="0" rx="1" ry="1" /></g><g transform="translate(175.566868 29.311889) rotate(364.546601) scale(255.000000 43.921384)"><ellipse fill="#000002" fill-opacity=".501961" cx="0" cy="0" rx="1" ry="1" /></g><g transform="translate(138.479602 169.000000) rotate(177.796815) scale(10.823909 45.661862)"><ellipse fill="#e8c397" fill-opacity=".501961" cx="0" cy="0" rx="1" ry="1" /></g><path fill="#000" fill-opacity=".501961" d="M22.168641 185 22.939711 138.326588 64.329752 113.125289 55.107233 180.1781z" /><g transform="translate(20.475571 140.083672) rotate(99.276832) scale(35.523633 4.129128)"><ellipse fill="#ffe6b0" fill-opacity=".501961" cx="0" cy="0" rx="1" ry="1" /></g><g transform="translate(78 140) rotate(269) scale(83 34)"><path d="M0 0h6e3v4e3H0z" fill="#ffd7ae" /></g><ellipse fill="#ffffd1" fill-opacity=".501961" cx="108" cy="150" rx="5" ry="21" /></g></svg>