<svg xmlns="http://www.w3.org/2000/svg" viewBox="0 0 6000 4000"><filter id="b"><feGaussianBlur stdDeviation="12" /></filter><path d="M0 0h6e3v4e3H0z" fill="#45504c" /><g filter="url(#b)" transform="scale(23.437500) translate(0.5 0.5)"><g transform="translate(218.941262 55.600245) rotate(354.660635) scale(161.282704 38.595177)"><ellipse fill="#def1ed" fill-opacity=".501961" cx="0" cy="0" rx="1" ry="1" /></g><g transform="translate(133.287676 144.825459) rotate(369.805037) scale(255.000000 53.908139)"><ellipse fill="#000" fill-opacity=".501961" cx="0" cy="0" rx="1" ry="1" /></g><g transform="translate(90.466292 161.644018) rotate(458.275765) scale(58.872805 255.000000)"><ellipse fill="#000" fill-opacity=".501961" cx="0" cy="0" rx="1" ry="1" /></g><ellipse fill="#819898" fill-opacity=".501961" cx="144" cy="34" rx="81" ry="81" /><g transform="translate(188.188007 77.008141) rotate(90.020498) scale(12.804812 99.153346)"><ellipse fill="#ece6d5" fill-opacity=".501961" cx="0" cy="0" rx="1" ry="1" /></g><g transform="translate(157.882754 34.076230) rotate(79.293471) scale(21.012000 162.871701)"><ellipse fill="#617d83" fill-opacity=".501961" cx="0" cy="0" rx="1" ry="1" /></g><g transform="translate(49.922341 11.764211) rotate(-8.659687) scale(88.256457 22.111041)"><ellipse fill="#122e39" fill-opacity=".501961" cx="0" cy="0" rx="1" ry="1" /></g><g transform="translate(220 145) rotate(282) scale(81 92)"><path d="M0 0h6e3v4e3H0z" fill="#010000" /></g></g></svg>