<svg xmlns="http://www.w3.org/2000/svg" viewBox="0 0 6000 4000"><filter id="b"><feGaussianBlur stdDeviation="12" /></filter><path d="M0 0h6e3v4e3H0z" fill="#2c2c2c" /><g filter="url(#b)" transform="scale(23.437500) translate(0.5 0.5)"><ellipse fill="#707070" fill-opacity=".501961" cx="94" cy="25" rx="114" ry="30" /><g transform="translate(65.979387 153.275907) rotate(-10.373613) scale(98.307378 70.992246)"><ellipse fill="#000" fill-opacity=".501961" cx="0" cy="0" rx="1" ry="1" /></g><g transform="translate(95.330346 0.362781) rotate(176.108772) scale(7.059541 89.840526)"><ellipse fill="#000" fill-opacity=".501961" cx="0" cy="0" rx="1" ry="1" /></g><g transform="translate(202.304493 142.180042) rotate(137.578856) scale(12.252396 57.352952)"><ellipse fill="#686868" fill-opacity=".501961" cx="0" cy="0" rx="1" ry="1" /></g><path fill="#b2b2b2" fill-opacity=".501961" d="M62.658411 99.985976 74.923706 108.948648 69.127739 93.558319 51.921705 71.668392z" /><ellipse fill="#8e8e8e" fill-opacity=".501961" cx="124" cy="15" rx="19" ry="25" /><ellipse fill="#000" fill-opacity=".501961" cx="48" cy="160" rx="59" ry="59" /><ellipse fill="#000" fill-opacity=".501961" cx="45" cy="24" rx="6" ry="31" /></g></svg>