<svg xmlns="http://www.w3.org/2000/svg" viewBox="0 0 6000 4000"><filter id="b"><feGaussianBlur stdDeviation="12" /></filter><path d="M0 0h6e3v4e3H0z" fill="#222" /><g filter="url(#b)" transform="scale(23.437500) translate(0.5 0.5)"><path d="M0 0h6e3v4e3H0z" fill="#f2f2f2" /><ellipse fill="#a8a8a8" fill-opacity=".501961" cx="60" cy="4" rx="124" ry="7" /><g transform="translate(174.702678 59.042744) rotate(67.584075) scale(19.160400 9.340787)"><ellipse fill="#fbfbfb" fill-opacity=".501961" cx="0" cy="0" rx="1" ry="1" /></g><path d="M0 0h6e3v4e3H0z" fill="#8e8e8e" /><ellipse fill="#000" fill-opacity=".501961" cx="218" cy="147" rx="70" ry="70" /><path d="M0 0h6e3v4e3H0z" fill="#000" /><path d="M0 0h6e3v4e3H0z" fill="#fff" /><g transform="translate(43.437813 161.211752) rotate(-68.896513) scale(54.690065 130.385713)"><ellipse fill="#000" fill-opacity=".501961" cx="0" cy="0" rx="1" ry="1" /></g></g></svg>