<svg xmlns="http://www.w3.org/2000/svg" viewBox="0 0 6000 4000"><filter id="b"><feGaussianBlur stdDeviation="12" /></filter><path d="M0 0h6e3v4e3H0z" fill="#262626" /><g filter="url(#b)" transform="scale(23.437500) translate(0.5 0.5)"><g transform="translate(53.249085 10.509752) rotate(163.571624) scale(25.326483 37.588164)"><ellipse fill="#efefef" fill-opacity=".501961" cx="0" cy="0" rx="1" ry="1" /></g><ellipse fill="#6e6e6e" fill-opacity=".501961" cx="221" cy="17" rx="161" ry="23" /><g transform="translate(213.239604 134.832844) rotate(241.276690) scale(89.867070 67.460391)"><ellipse fill="#000" fill-opacity=".501961" cx="0" cy="0" rx="1" ry="1" /></g><g transform="translate(36.398656 124.942996) rotate(338.039748) scale(57.424299 73.519971)"><ellipse fill="#000" fill-opacity=".501961" cx="0" cy="0" rx="1" ry="1" /></g><path fill="#949494" fill-opacity=".501961" d="M173 68 49 54 155 38z" /><g transform="translate(124.615300 150.094229) rotate(269.209915) scale(106.344536 16.674835)"><ellipse fill="#6f6f6f" fill-opacity=".501961" cx="0" cy="0" rx="1" ry="1" /></g><ellipse fill="#fff" fill-opacity=".501961" cx="56" cy="16" rx="6" ry="34" /><g transform="translate(219 0) rotate(366) scale(25 24)"><path d="M0 0h6e3v4e3H0z" fill="#f6f6f6" /></g></g></svg>