<svg xmlns="http://www.w3.org/2000/svg" viewBox="0 0 6000 4000"><filter id="b"><feGaussianBlur stdDeviation="12" /></filter><path d="M0 0h6e3v4e3H0z" fill="#1f1f1f" /><g filter="url(#b)" transform="scale(23.437500) translate(0.5 0.5)"><ellipse fill="#fff" fill-opacity=".501961" cx="87" cy="0" rx="62" ry="15" /><g transform="translate(251.018975 5.268276) rotate(177.977103) scale(27.680934 8.724251)"><ellipse fill="#fff" fill-opacity=".501961" cx="0" cy="0" rx="1" ry="1" /></g><g transform="translate(167.354404 146.034391) rotate(135.314466) scale(30.555524 31.865301)"><ellipse fill="#8d8d8d" fill-opacity=".501961" cx="0" cy="0" rx="1" ry="1" /></g><path fill="#484848" fill-opacity=".501961" d="M184 133 62 16l50-30z" /><ellipse fill="#000" fill-opacity=".501961" cx="27" cy="147" rx="109" ry="103" /><g transform="translate(55 0) rotate(179) scale(50 22)"><path d="M0 0h6e3v4e3H0z" fill="#fff" /></g><g transform="translate(242.081028 113.921549) rotate(222.114666) scale(113.580977 40.416098)"><ellipse fill="#000" fill-opacity=".501961" cx="0" cy="0" rx="1" ry="1" /></g><g transform="translate(240 6) rotate(273) scale(13 24)"><path d="M0 0h6e3v4e3H0z" fill="#fff" /></g></g></svg>