<svg xmlns="http://www.w3.org/2000/svg" viewBox="0 0 6000 4000"><filter id="b"><feGaussianBlur stdDeviation="12" /></filter><path d="M0 0h6e3v4e3H0z" fill="#272727" /><g filter="url(#b)" transform="scale(23.437500) translate(0.5 0.5)"><g transform="translate(175.559763 145.218075) rotate(172.889263) scale(33.217658 55.268287)"><ellipse fill="#b3b3b3" fill-opacity=".501961" cx="0" cy="0" rx="1" ry="1" /></g><g transform="translate(109.375242 53.050689) rotate(260.832317) scale(13.499589 40.120695)"><ellipse fill="#b2b2b2" fill-opacity=".501961" cx="0" cy="0" rx="1" ry="1" /></g><ellipse fill="#000" fill-opacity=".501961" cx="55" cy="134" rx="89" ry="60" /><path d="M0 0h6e3v4e3H0z" fill="#fff" /><g transform="translate(235.941274 149.342302) rotate(178.273304) scale(29.232026 64.375405)"><ellipse fill="#000" fill-opacity=".501961" cx="0" cy="0" rx="1" ry="1" /></g><path fill="#121212" fill-opacity=".501961" d="M174 119l19-46L98 53z" /><g transform="translate(152.073409 105.961361) rotate(280.067866) scale(43.420386 5.193094)"><ellipse fill="#a3a3a3" fill-opacity=".501961" cx="0" cy="0" rx="1" ry="1" /></g><path fill="#bcbcbc" fill-opacity=".501961" d="M110.008847 55.86872 103.491513 63.678344 71.338022 67.217394 92.135619 36.026668z" /></g></svg>