<svg xmlns="http://www.w3.org/2000/svg" viewBox="0 0 6000 4000"><filter id="b"><feGaussianBlur stdDeviation="12" /></filter><path d="M0 0h6e3v4e3H0z" fill="#393939" /><g filter="url(#b)" transform="scale(23.437500) translate(0.5 0.5)"><g transform="translate(101.954998 90.692150) rotate(260.574024) scale(29.959151 47.020032)"><ellipse fill="#a5a5a5" fill-opacity=".501961" cx="0" cy="0" rx="1" ry="1" /></g><g transform="translate(243 23) rotate(269) scale(100 47)"><path d="M0 0h6e3v4e3H0z" fill="silver" /></g><ellipse fill="#000" fill-opacity=".501961" cx="191" cy="147" rx="111" ry="56" /><g transform="translate(13.701670 33.406096) rotate(355.200674) scale(25.684739 55.447691)"><ellipse fill="#9f9f9f" fill-opacity=".501961" cx="0" cy="0" rx="1" ry="1" /></g><g transform="translate(124.382915 11.247001) rotate(154.107827) scale(42.086597 58.217785)"><ellipse fill="#000" fill-opacity=".501961" cx="0" cy="0" rx="1" ry="1" /></g><g transform="translate(22.724721 164.068117) rotate(42.152504) scale(117.520212 47.436390)"><ellipse fill="#000" fill-opacity=".501961" cx="0" cy="0" rx="1" ry="1" /></g><path d="M0 0h6e3v4e3H0z" fill="#cacaca" /><path fill="#cecece" fill-opacity=".501961" d="M2e2 92 175 49l32 1z" /></g></svg>