<svg xmlns="http://www.w3.org/2000/svg" viewBox="0 0 6000 4000"><filter id="b"><feGaussianBlur stdDeviation="12" /></filter><path d="M0 0h6e3v4e3H0z" fill="#484848" /><g filter="url(#b)" transform="scale(23.437500) translate(0.5 0.5)"><ellipse fill="#fafafa" fill-opacity=".501961" cx="172" cy="31" rx="249" ry="39" /><g transform="translate(115.355535 135.710625) rotate(363.485608) scale(232.109866 67.994120)"><ellipse fill="#000" fill-opacity=".501961" cx="0" cy="0" rx="1" ry="1" /></g><ellipse fill="#020202" fill-opacity=".501961" cx="190" cy="59" rx="27" ry="169" /><g transform="translate(127.799553 45.289322) rotate(244.255923) scale(35.722723 38.480342)"><ellipse fill="#fbfbfb" fill-opacity=".501961" cx="0" cy="0" rx="1" ry="1" /></g><path d="M0 0h6e3v4e3H0z" fill="#fff" /><g transform="translate(112.241226 127.905768) rotate(179.613513) scale(218.904729 56.866201)"><ellipse fill="#000" fill-opacity=".501961" cx="0" cy="0" rx="1" ry="1" /></g><g transform="translate(15 13) rotate(87) scale(19 65)"><path d="M0 0h6e3v4e3H0z" fill="#000" /></g><ellipse fill="#fff" fill-opacity=".501961" cx="246" cy="46" rx="30" ry="22" /></g></svg>