<svg xmlns="http://www.w3.org/2000/svg" viewBox="0 0 6000 4000"><filter id="b"><feGaussianBlur stdDeviation="12" /></filter><path d="M0 0h6e3v4e3H0z" fill="#404040" /><g filter="url(#b)" transform="scale(23.437500) translate(0.5 0.5)"><g transform="translate(62.460443 149.604955) rotate(42.099024) scale(57.106954 105.461063)"><ellipse fill="#bbb" fill-opacity=".501961" cx="0" cy="0" rx="1" ry="1" /></g><ellipse fill="#000" fill-opacity=".501961" cx="119" cy="17" rx="178" ry="44" /><g transform="translate(38.618519 146.877726) rotate(84.423562) scale(9.044940 78.848002)"><ellipse fill="#fff" fill-opacity=".501961" cx="0" cy="0" rx="1" ry="1" /></g><path fill="#000" fill-opacity=".501961" d="M83 106l56 52L90 33z" /><g transform="translate(194.648920 80.039262) rotate(213.520771) scale(33.515018 12.133615)"><ellipse fill="#cdcdcd" fill-opacity=".501961" cx="0" cy="0" rx="1" ry="1" /></g><g transform="translate(36.254528 162.519432) rotate(-9.801410) scale(48.239891 6.229665)"><ellipse fill="#000" fill-opacity=".501961" cx="0" cy="0" rx="1" ry="1" /></g><g transform="translate(96.127126 169.000000) rotate(-1.306481) scale(34.733531 10.131106)"><ellipse fill="#fff" fill-opacity=".501961" cx="0" cy="0" rx="1" ry="1" /></g><g transform="translate(255.000000 123.858818) rotate(100.760076) scale(35.696404 45.573844)"><ellipse fill="#000" fill-opacity=".501961" cx="0" cy="0" rx="1" ry="1" /></g></g></svg>