<svg xmlns="http://www.w3.org/2000/svg" viewBox="0 0 6000 4000"><filter id="b"><feGaussianBlur stdDeviation="12" /></filter><path d="M0 0h6e3v4e3H0z" fill="#202020" /><g filter="url(#b)" transform="scale(23.437500) translate(0.5 0.5)"><g transform="translate(41.150396 27.869580) rotate(150.916429) scale(79.649906 31.050099)"><ellipse fill="#818181" fill-opacity=".501961" cx="0" cy="0" rx="1" ry="1" /></g><g transform="translate(123.151841 72.886796) rotate(341.695017) scale(19.659620 12.650361)"><ellipse fill="#fafafa" fill-opacity=".501961" cx="0" cy="0" rx="1" ry="1" /></g><g transform="translate(114.301574 136.247220) rotate(271.935552) scale(41.590823 254.898245)"><ellipse fill="#000" fill-opacity=".501961" cx="0" cy="0" rx="1" ry="1" /></g><g transform="translate(141 97) rotate(346) scale(75 8)"><path d="M0 0h6e3v4e3H0z" fill="#969696" /></g><path fill="#595959" fill-opacity=".501961" d="M143 60 96-16 89 78z" /><ellipse fill="#000" fill-opacity=".501961" cx="216" cy="130" rx="61" ry="61" /><path fill="#e3e3e3" fill-opacity=".501961" d="M134 71 118 94 103 58z" /><g transform="translate(56.317895 97.776466) rotate(204.733826) scale(19.138645 69.715092)"><ellipse fill="#000" fill-opacity=".501961" cx="0" cy="0" rx="1" ry="1" /></g></g></svg>