<svg xmlns="http://www.w3.org/2000/svg" viewBox="0 0 6000 4000"><filter id="b"><feGaussianBlur stdDeviation="12" /></filter><path d="M0 0h6e3v4e3H0z" fill="#3c3c3c" /><g filter="url(#b)" transform="scale(23.437500) translate(0.5 0.5)"><g transform="translate(59.904502 60.338285) rotate(115.936933) scale(37.849266 19.174862)"><ellipse fill="#fff" fill-opacity=".501961" cx="0" cy="0" rx="1" ry="1" /></g><path fill="#fff" fill-opacity=".501961" d="M45 69 51-3l72 71z" /><g transform="translate(118.827875 169.000000) rotate(202.064027) scale(110.773379 54.725027)"><ellipse fill="#000" fill-opacity=".501961" cx="0" cy="0" rx="1" ry="1" /></g><path fill="#d6d6d6" fill-opacity=".501961" d="M205.433115 109.384627 271 137.44986 193.905578 90.823241 120.049604 123.726224z" /><ellipse fill="#bababa" fill-opacity=".501961" cx="109" cy="5" rx="70" ry="14" /><g transform="translate(14.132452 51.236794) rotate(201.039411) scale(30.485812 46.761309)"><ellipse fill="#000" fill-opacity=".501961" cx="0" cy="0" rx="1" ry="1" /></g><path fill="#fff" fill-opacity=".501961" d="M224.589358 99.615833 260.715139 109.649568 244.91122 156.896931 271 92.289476z" /><path fill="#000" fill-opacity=".501961" d="M78.002868 36.100209 76.778996 31.07406 62.605645 7.238033 264.802756 87.337124z" /></g></svg>