<svg xmlns="http://www.w3.org/2000/svg" viewBox="0 0 6000 4000"><filter id="b"><feGaussianBlur stdDeviation="12" /></filter><path d="M0 0h6e3v4e3H0z" fill="#2e2e2e" /><g filter="url(#b)" transform="scale(23.437500) translate(0.5 0.5)"><g transform="translate(240.994408 23.291446) rotate(95.961031) scale(44.058469 108.579316)"><ellipse fill="#fff" fill-opacity=".501961" cx="0" cy="0" rx="1" ry="1" /></g><g transform="translate(203.760069 48.283049) rotate(120.104483) scale(34.549594 22.660110)"><ellipse fill="#000" fill-opacity=".501961" cx="0" cy="0" rx="1" ry="1" /></g><path fill="#fff" fill-opacity=".501961" d="M143 1l23 63L217-9z" /><ellipse fill="#000" fill-opacity=".501961" cx="70" cy="130" rx="114" ry="114" /><g transform="translate(252.941910 10.890671) rotate(125.941538) scale(27.872453 104.439934)"><ellipse fill="#fff" fill-opacity=".501961" cx="0" cy="0" rx="1" ry="1" /></g><path fill="#e7e7e7" fill-opacity=".501961" d="M248.253908 87.227684 246.928687 107.721618 222.101264 100.726935 166.905332 106.060855z" /><ellipse fill="#000" fill-opacity=".501961" cx="141" cy="144" rx="238" ry="39" /><path d="M0 0h6e3v4e3H0z" fill="#686868" /></g></svg>