<svg xmlns="http://www.w3.org/2000/svg" viewBox="0 0 6000 4000"><filter id="b"><feGaussianBlur stdDeviation="12" /></filter><path d="M0 0h6e3v4e3H0z" fill="#656565" /><g filter="url(#b)" transform="scale(23.437500) translate(0.5 0.5)"><g transform="translate(186.815023 37.949654) rotate(271.256065) scale(92.215489 22.913556)"><ellipse fill="#fff" fill-opacity=".501961" cx="0" cy="0" rx="1" ry="1" /></g><g transform="translate(219.958709 136.279913) rotate(229.105594) scale(29.845084 120.486433)"><ellipse fill="#000" fill-opacity=".501961" cx="0" cy="0" rx="1" ry="1" /></g><ellipse fill="#000" fill-opacity=".501961" cx="79" cy="98" rx="54" ry="30" /><ellipse fill="silver" fill-opacity=".501961" cx="85" cy="17" rx="65" ry="22" /><g transform="translate(121.776970 145.104304) rotate(152.250489) scale(98.018214 24.251170)"><ellipse fill="#c8c8c8" fill-opacity=".501961" cx="0" cy="0" rx="1" ry="1" /></g><g transform="translate(61.334899 90.966432) rotate(11.734056) scale(20.557294 57.963068)"><ellipse fill="#000" fill-opacity=".501961" cx="0" cy="0" rx="1" ry="1" /></g><g transform="translate(246.916666 76.883893) rotate(177.221094) scale(38.155862 81.946033)"><ellipse fill="#0f0f0f" fill-opacity=".501961" cx="0" cy="0" rx="1" ry="1" /></g><g transform="translate(143.548937 88.688676) rotate(23.969350) scale(29.139832 21.983625)"><ellipse fill="#131313" fill-opacity=".501961" cx="0" cy="0" rx="1" ry="1" /></g></g></svg>