<svg xmlns="http://www.w3.org/2000/svg" viewBox="0 0 6000 4000"><filter id="b"><feGaussianBlur stdDeviation="12" /></filter><path d="M0 0h6e3v4e3H0z" fill="#4b4b4b" /><g filter="url(#b)" transform="scale(23.437500) translate(0.5 0.5)"><ellipse fill="#fff" fill-opacity=".501961" cx="45" cy="3" rx="51" ry="51" /><ellipse fill="#000" fill-opacity=".501961" cx="217" cy="52" rx="64" ry="64" /><g transform="translate(179.586841 133.653867) rotate(181.486173) scale(31.218665 18.238933)"><ellipse fill="#fff" fill-opacity=".501961" cx="0" cy="0" rx="1" ry="1" /></g><g transform="translate(139.409744 0.000000) rotate(267.526447) scale(65.503612 20.304735)"><ellipse fill="#dedede" fill-opacity=".501961" cx="0" cy="0" rx="1" ry="1" /></g><ellipse fill="#010101" fill-opacity=".501961" cx="25" cy="133" rx="116" ry="41" /><g transform="translate(95.202015 73.636956) rotate(-22.271387) scale(33.310616 17.783410)"><ellipse fill="#b9b9b9" fill-opacity=".501961" cx="0" cy="0" rx="1" ry="1" /></g><path fill="#f8f8f8" fill-opacity=".501961" d="M39-16 163 1 28 27z" /><g transform="translate(243.146047 147.299968) rotate(288.754719) scale(11.157929 79.575779)"><ellipse fill="#d9d9d9" fill-opacity=".501961" cx="0" cy="0" rx="1" ry="1" /></g></g></svg>