<svg xmlns="http://www.w3.org/2000/svg" viewBox="0 0 6000 4000"><filter id="b"><feGaussianBlur stdDeviation="12" /></filter><path d="M0 0h6e3v4e3H0z" fill="#292929" /><g filter="url(#b)" transform="scale(23.437500) translate(0.5 0.5)"><g transform="translate(95.227426 150.348389) rotate(149.219082) scale(120.172787 26.897325)"><ellipse fill="#d7d7d7" fill-opacity=".501961" cx="0" cy="0" rx="1" ry="1" /></g><path fill="#fdfdfd" fill-opacity=".501961" d="M172 41 106 23l50 54z" /><g transform="translate(93.784942 139.101168) rotate(262.108253) scale(35.334421 15.468763)"><ellipse fill="#f6f6f6" fill-opacity=".501961" cx="0" cy="0" rx="1" ry="1" /></g><g transform="translate(130.374778 163.313919) rotate(337.243176) scale(15.078305 39.663656)"><ellipse fill="#000" fill-opacity=".501961" cx="0" cy="0" rx="1" ry="1" /></g><ellipse fill="#000" fill-opacity=".501961" cx="31" cy="55" rx="77" ry="77" /><path d="M0 0h6e3v4e3H0z" fill="#fff" /><path fill="#000" fill-opacity=".501961" d="M166-16 271 56 231 185z" /><path d="M0 0h6e3v4e3H0z" fill="#fff" /></g></svg>