<svg xmlns="http://www.w3.org/2000/svg" viewBox="0 0 6000 4000"><filter id="b"><feGaussianBlur stdDeviation="12" /></filter><path d="M0 0h6e3v4e3H0z" fill="#878787" /><g filter="url(#b)" transform="scale(23.437500) translate(0.5 0.5)"><g transform="translate(239.043381 50.496225) rotate(109.461285) scale(107.423351 29.339349)"><ellipse fill="#fff" fill-opacity=".501961" cx="0" cy="0" rx="1" ry="1" /></g><g transform="translate(127.282526 67.553819) rotate(-4.069926) scale(30.787146 180.045722)"><ellipse fill="#030303" fill-opacity=".501961" cx="0" cy="0" rx="1" ry="1" /></g><g transform="translate(245.876201 152.112470) rotate(310.338699) scale(89.328834 22.828738)"><ellipse fill="#000" fill-opacity=".501961" cx="0" cy="0" rx="1" ry="1" /></g><ellipse fill="#eaeaea" fill-opacity=".501961" cx="14" cy="43" rx="71" ry="71" /><g transform="translate(107 109) rotate(300) scale(17 92)"><path d="M0 0h6e3v4e3H0z" fill="#fff" /></g><ellipse fill="#000" fill-opacity=".501961" cx="57" cy="169" rx="19" ry="77" /><path fill="#030303" fill-opacity=".501961" d="M213 14 197 94 146 8z" /><ellipse fill="#fff" fill-opacity=".501961" cx="239" cy="35" rx="30" ry="82" /></g></svg>