<svg xmlns="http://www.w3.org/2000/svg" viewBox="0 0 6000 4000"><filter id="b"><feGaussianBlur stdDeviation="12" /></filter><path d="M0 0h6e3v4e3H0z" fill="#434343" /><g filter="url(#b)" transform="scale(23.437500) translate(0.5 0.5)"><ellipse fill="#f7f7f7" fill-opacity=".501961" cx="143" cy="124" rx="88" ry="17" /><g transform="translate(234.737217 69.769714) rotate(117.054528) scale(50.105720 26.319188)"><ellipse fill="#fefefe" fill-opacity=".501961" cx="0" cy="0" rx="1" ry="1" /></g><g transform="translate(83.023100 23.964880) rotate(-10.614980) scale(146.949130 50.361781)"><ellipse fill="#000" fill-opacity=".501961" cx="0" cy="0" rx="1" ry="1" /></g><ellipse fill="#f7f7f7" fill-opacity=".501961" cx="41" cy="139" rx="100" ry="10" /><path fill="#f3f3f3" fill-opacity=".501961" d="M128.732281 66.066481 100.523389 94.90746 119.673978 143.395474 166.647234 138.577133z" /><g transform="translate(139 164) rotate(354) scale(241 43)"><path d="M0 0h6e3v4e3H0z" fill="#000" /></g><g transform="translate(76.427672 117.766391) rotate(143.682314) scale(29.704444 17.118797)"><ellipse fill="#000" fill-opacity=".501961" cx="0" cy="0" rx="1" ry="1" /></g><path fill="#000" fill-opacity=".501961" d="M145 1e2l10 20 47-8z" /></g></svg>