<svg xmlns="http://www.w3.org/2000/svg" viewBox="0 0 6000 4000"><filter id="b"><feGaussianBlur stdDeviation="12" /></filter><path d="M0 0h6e3v4e3H0z" fill="#2a2a2a" /><g filter="url(#b)" transform="scale(23.437500) translate(0.5 0.5)"><g transform="translate(33.875221 76.541806) rotate(341.380068) scale(41.072406 25.311004)"><ellipse fill="#fcfcfc" fill-opacity=".501961" cx="0" cy="0" rx="1" ry="1" /></g><g transform="translate(168.777679 129.800742) rotate(87.427920) scale(21.630397 53.184944)"><ellipse fill="#eee" fill-opacity=".501961" cx="0" cy="0" rx="1" ry="1" /></g><path fill="#fff" fill-opacity=".501961" d="M115.52964 60.889864 149.427376 65.644019 122.324292 106.889296 117.960637 88.434757z" /><ellipse fill="#000" fill-opacity=".501961" cx="221" cy="26" rx="88" ry="88" /><path d="M0 0h6e3v4e3H0z" fill="#dedede" /><path d="M0 0h6e3v4e3H0z" fill="#040404" /><ellipse fill="#000" fill-opacity=".501961" cx="119" cy="18" rx="138" ry="29" /><g transform="translate(116 129) rotate(65) scale(8 44)"><path d="M0 0h6e3v4e3H0z" fill="#fff" /></g></g></svg>