<svg xmlns="http://www.w3.org/2000/svg" viewBox="0 0 6000 4000"><filter id="b"><feGaussianBlur stdDeviation="12" /></filter><path d="M0 0h6e3v4e3H0z" fill="#323232" /><g filter="url(#b)" transform="scale(23.437500) translate(0.5 0.5)"><g transform="translate(128.375686 23.771139) rotate(306.017800) scale(47.475660 32.796836)"><ellipse fill="#fff" fill-opacity=".501961" cx="0" cy="0" rx="1" ry="1" /></g><g transform="translate(135.153361 112.004551) rotate(3.162769) scale(14.925231 27.826709)"><ellipse fill="#eee" fill-opacity=".501961" cx="0" cy="0" rx="1" ry="1" /></g><ellipse fill="#fff" fill-opacity=".501961" cx="137" cy="20" rx="28" ry="38" /><ellipse fill="#000" fill-opacity=".501961" cx="224" cy="90" rx="81" ry="81" /><path d="M0 0h6e3v4e3H0z" fill="#c7c7c7" /><path fill="#fff" fill-opacity=".501961" d="M96.670771 114.929032 103.835528 71.913507 74.04139 81.94449 76.60437 78.343024z" /><ellipse fill="#000" fill-opacity=".501961" cx="7" cy="72" rx="73" ry="45" /><g transform="translate(205.879851 104.090555) rotate(24.055571) scale(55.059817 192.653566)"><ellipse fill="#000" fill-opacity=".501961" cx="0" cy="0" rx="1" ry="1" /></g></g></svg>