<svg xmlns="http://www.w3.org/2000/svg" viewBox="0 0 6000 4000"><filter id="b"><feGaussianBlur stdDeviation="12" /></filter><path d="M0 0h6e3v4e3H0z" fill="#292929" /><g filter="url(#b)" transform="scale(23.437500) translate(0.5 0.5)"><g transform="translate(27 137) rotate(177) scale(77 74)"><path d="M0 0h6e3v4e3H0z" fill="#d7d7d7" /></g><g transform="translate(214.528597 141.813357) rotate(191.226680) scale(40.632925 11.181290)"><ellipse fill="#cdcdcd" fill-opacity=".501961" cx="0" cy="0" rx="1" ry="1" /></g><ellipse fill="#000" fill-opacity=".501961" cx="56" cy="19" rx="239" ry="40" /><g transform="translate(152 109) rotate(309) scale(76 50)"><path d="M0 0h6e3v4e3H0z" fill="#000" /></g><path d="M0 0h6e3v4e3H0z" fill="#6d6d6d" /><path d="M0 0h6e3v4e3H0z" fill="#bfbfbf" /><g transform="translate(100.841402 97.692702) rotate(278.326078) scale(130.548472 13.303875)"><ellipse fill="#000" fill-opacity=".501961" cx="0" cy="0" rx="1" ry="1" /></g><path d="M0 0h6e3v4e3H0z" fill="#949494" /></g></svg>