<svg xmlns="http://www.w3.org/2000/svg" viewBox="0 0 6000 4000"><filter id="b"><feGaussianBlur stdDeviation="12" /></filter><path d="M0 0h6e3v4e3H0z" fill="#6e6f6d" /><g filter="url(#b)" transform="scale(23.437500) translate(0.5 0.5)"><ellipse fill="#f1f1ff" fill-opacity=".501961" cx="60" cy="18" rx="44" ry="144" /><g transform="translate(217.061310 100.802447) rotate(153.968185) scale(156.415980 36.959820)"><ellipse fill="#000" fill-opacity=".501961" cx="0" cy="0" rx="1" ry="1" /></g><g transform="translate(138.244344 12.760008) rotate(58.203774) scale(40.070705 31.444179)"><ellipse fill="#ffffe4" fill-opacity=".501961" cx="0" cy="0" rx="1" ry="1" /></g><ellipse fill="#0a060b" fill-opacity=".501961" cx="13" cy="164" rx="14" ry="126" /><g transform="translate(125.892599 110.392818) rotate(3.871189) scale(29.839197 38.881361)"><ellipse fill="#000" fill-opacity=".501961" cx="0" cy="0" rx="1" ry="1" /></g><path fill="#250000" fill-opacity=".501961" d="M50.70674 110.933346 24.299751 115.316645 1.209057 98.742762 92.935459 96.709548z" /><path fill="#ffb8ad" fill-opacity=".501961" d="M200.209292 76.605815 239.554366 147.516707 209.890863 184.924746 210.25118 135.928401z" /><g transform="translate(243.439081 132.267699) rotate(255.472936) scale(84.068693 11.242989)"><ellipse fill="#000" fill-opacity=".501961" cx="0" cy="0" rx="1" ry="1" /></g></g></svg>