<svg xmlns="http://www.w3.org/2000/svg" viewBox="0 0 6000 4000"><filter id="b"><feGaussianBlur stdDeviation="12" /></filter><path d="M0 0h6e3v4e3H0z" fill="#363636" /><g filter="url(#b)" transform="scale(23.437500) translate(0.5 0.5)"><g transform="translate(51.787317 31.921593) rotate(208.704062) scale(65.058100 18.587432)"><ellipse fill="#e7e7e7" fill-opacity=".501961" cx="0" cy="0" rx="1" ry="1" /></g><g transform="translate(131 51) rotate(34) scale(61 32)"><path d="M0 0h6e3v4e3H0z" fill="#ededed" /></g><ellipse fill="#000" fill-opacity=".501961" cx="60" cy="136" rx="128" ry="63" /><ellipse fill="#eee" fill-opacity=".501961" cx="197" cy="133" rx="12" ry="23" /><g transform="translate(169.399791 0.000000) rotate(186.854954) scale(140.172111 31.964231)"><ellipse fill="#000" fill-opacity=".501961" cx="0" cy="0" rx="1" ry="1" /></g><g transform="translate(244.601330 68.825738) rotate(291.356884) scale(27.620095 59.470792)"><ellipse fill="#8d8d8d" fill-opacity=".501961" cx="0" cy="0" rx="1" ry="1" /></g><ellipse fill="#c8c8c8" fill-opacity=".501961" cx="56" cy="55" rx="18" ry="22" /><g transform="translate(83 49) rotate(74) scale(104 18)"><path d="M0 0h6e3v4e3H0z" fill="#1c1c1c" /></g></g></svg>