<svg xmlns="http://www.w3.org/2000/svg" viewBox="0 0 6000 4000"><filter id="b"><feGaussianBlur stdDeviation="12" /></filter><path d="M0 0h6e3v4e3H0z" fill="#252525" /><g filter="url(#b)" transform="scale(23.437500) translate(0.5 0.5)"><g transform="translate(139.259654 0.000000) rotate(149.559545) scale(42.787363 71.649888)"><ellipse fill="#fff" fill-opacity=".501961" cx="0" cy="0" rx="1" ry="1" /></g><g transform="translate(156.116102 16.901841) rotate(431.928394) scale(65.172451 21.942151)"><ellipse fill="#fff" fill-opacity=".501961" cx="0" cy="0" rx="1" ry="1" /></g><ellipse fill="#000" fill-opacity=".501961" cx="97" cy="150" rx="108" ry="108" /><g transform="translate(153.128693 4.105928) rotate(243.228912) scale(39.860845 37.145653)"><ellipse fill="#fff" fill-opacity=".501961" cx="0" cy="0" rx="1" ry="1" /></g><ellipse fill="#000" fill-opacity=".501961" cx="248" cy="102" rx="72" ry="72" /><g transform="translate(167 81) rotate(192) scale(28 33)"><path d="M0 0h6e3v4e3H0z" fill="#9f9f9f" /></g><ellipse fill="#a2a2a2" fill-opacity=".501961" cx="110" cy="33" rx="22" ry="22" /><ellipse fill="#000" fill-opacity=".501961" cx="235" cy="87" rx="51" ry="169" /></g></svg>