<svg xmlns="http://www.w3.org/2000/svg" viewBox="0 0 6000 4000"><filter id="b"><feGaussianBlur stdDeviation="12" /></filter><path d="M0 0h6e3v4e3H0z" fill="#272727" /><g filter="url(#b)" transform="scale(23.437500) translate(0.5 0.5)"><path d="M0 0h6e3v4e3H0z" fill="#fff" /><g transform="translate(216.450468 5.269313) rotate(83.884370) scale(10.894208 38.965054)"><ellipse fill="#fff" fill-opacity=".501961" cx="0" cy="0" rx="1" ry="1" /></g><g transform="translate(51 21) rotate(263) scale(18 37)"><path d="M0 0h6e3v4e3H0z" fill="#fff" /></g><g transform="translate(171.317062 145.299207) rotate(227.930917) scale(27.058449 13.623087)"><ellipse fill="#fff" fill-opacity=".501961" cx="0" cy="0" rx="1" ry="1" /></g><ellipse fill="#000" fill-opacity=".501961" cx="46" cy="117" rx="58" ry="58" /><path d="M0 0h6e3v4e3H0z" fill="#c3c3c3" /><ellipse fill="#000" fill-opacity=".501961" cx="235" cy="145" rx="45" ry="133" /><g transform="translate(153.769316 169.000000) rotate(191.457888) scale(86.578153 8.524841)"><ellipse fill="#000" fill-opacity=".501961" cx="0" cy="0" rx="1" ry="1" /></g></g></svg>