<svg xmlns="http://www.w3.org/2000/svg" viewBox="0 0 6000 4000"><filter id="b"><feGaussianBlur stdDeviation="12" /></filter><path d="M0 0h6e3v4e3H0z" fill="#3e3e3e" /><g filter="url(#b)" transform="scale(23.437500) translate(0.5 0.5)"><g transform="translate(154.722352 153.748265) rotate(93.299866) scale(15.797096 177.752444)"><ellipse fill="#fff" fill-opacity=".501961" cx="0" cy="0" rx="1" ry="1" /></g><g transform="translate(153.013394 26.472021) rotate(82.528872) scale(63.593815 255.000000)"><ellipse fill="#000" fill-opacity=".501961" cx="0" cy="0" rx="1" ry="1" /></g><path fill="#fff" fill-opacity=".501961" d="M58.222634 63.572581 55.131068 67.699063 149.310996 61.954956 86.534496 50.717578z" /><g transform="translate(230 103) rotate(92) scale(28 32)"><path d="M0 0h6e3v4e3H0z" fill="#fff" /></g><g transform="translate(164.838379 157.600629) rotate(271.925689) scale(14.483841 68.136841)"><ellipse fill="#fff" fill-opacity=".501961" cx="0" cy="0" rx="1" ry="1" /></g><path fill="#eaeaea" fill-opacity=".501961" d="M145.746842 115.98872 146.776044 82.710958 208.38245 96.161099 206.470759 78.863124z" /><path fill="#fff" fill-opacity=".501961" d="M206 185l65-64-36 12z" /><g transform="translate(192.937225 123.336739) rotate(215.728094) scale(34.092049 21.469331)"><ellipse fill="#000" fill-opacity=".501961" cx="0" cy="0" rx="1" ry="1" /></g></g></svg>