<svg xmlns="http://www.w3.org/2000/svg" viewBox="0 0 6000 4000"><filter id="b"><feGaussianBlur stdDeviation="12" /></filter><path d="M0 0h6e3v4e3H0z" fill="#535353" /><g filter="url(#b)" transform="scale(23.437500) translate(0.5 0.5)"><g transform="translate(141.286731 28.139292) rotate(272.686248) scale(39.843724 93.542368)"><ellipse fill="#eee" fill-opacity=".501961" cx="0" cy="0" rx="1" ry="1" /></g><g transform="translate(50.036928 133.057161) rotate(181.106268) scale(121.848167 48.449497)"><ellipse fill="#000" fill-opacity=".501961" cx="0" cy="0" rx="1" ry="1" /></g><g transform="translate(254.186621 98.934512) rotate(198.448462) scale(39.117128 67.330569)"><ellipse fill="#000" fill-opacity=".501961" cx="0" cy="0" rx="1" ry="1" /></g><g transform="translate(189 72) rotate(94) scale(42 43)"><path d="M0 0h6e3v4e3H0z" fill="#e8e8e8" /></g><path fill="#000" fill-opacity=".501961" d="M169 30 136 76l27 34z" /><g transform="translate(79.156886 52.754488) rotate(219.752477) scale(72.246144 33.855160)"><ellipse fill="gray" fill-opacity=".501961" cx="0" cy="0" rx="1" ry="1" /></g><g transform="translate(58.554255 153.735287) rotate(190.538144) scale(96.468036 38.787095)"><ellipse fill="#000" fill-opacity=".501961" cx="0" cy="0" rx="1" ry="1" /></g><ellipse fill="#d6d6d6" fill-opacity=".501961" cx="158" cy="20" rx="61" ry="17" /></g></svg>