<svg xmlns="http://www.w3.org/2000/svg" viewBox="0 0 6000 4000"><filter id="b"><feGaussianBlur stdDeviation="12" /></filter><path d="M0 0h6e3v4e3H0z" fill="#2f3c45" /><g filter="url(#b)" transform="scale(23.437500) translate(0.5 0.5)"><g transform="translate(130.003400 121.726816) rotate(69.106153) scale(49.984305 60.511641)"><ellipse fill="#ead3a2" fill-opacity=".501961" cx="0" cy="0" rx="1" ry="1" /></g><g transform="translate(12.684155 68.545468) rotate(98.529596) scale(233.726201 46.193560)"><ellipse fill="#000" fill-opacity=".501961" cx="0" cy="0" rx="1" ry="1" /></g><g transform="translate(206.668067 164.143459) rotate(61.312234) scale(27.848948 122.953826)"><ellipse fill="#000" fill-opacity=".501961" cx="0" cy="0" rx="1" ry="1" /></g><g transform="translate(200.991106 117.893027) rotate(58.085904) scale(17.377805 61.736032)"><ellipse fill="#9cb4c4" fill-opacity=".501961" cx="0" cy="0" rx="1" ry="1" /></g><g transform="translate(76.137547 162.191937) rotate(13.176886) scale(32.308230 14.431183)"><ellipse fill="#c9bc94" fill-opacity=".501961" cx="0" cy="0" rx="1" ry="1" /></g><ellipse fill="#001b5d" fill-opacity=".501961" cx="207" cy="28" rx="68" ry="68" /><path fill="#060a05" fill-opacity=".501961" d="M138.307021 117.21156 175.985186 185 142.540876 161.08207 120.899753 139.044186z" /><ellipse fill="#000" fill-opacity=".501961" cx="19" cy="53" rx="33" ry="159" /></g></svg>