<svg xmlns="http://www.w3.org/2000/svg" viewBox="0 0 6000 4000"><filter id="b"><feGaussianBlur stdDeviation="12" /></filter><path d="M0 0h6e3v4e3H0z" fill="#746b5d" /><g filter="url(#b)" transform="scale(23.437500) translate(0.5 0.5)"><g transform="translate(179 33) rotate(245) scale(95 142)"><path d="M0 0h6e3v4e3H0z" fill="#fff" /></g><g transform="translate(46.643215 128.624749) rotate(245.302587) scale(255.000000 60.460605)"><ellipse fill="#000" fill-opacity=".501961" cx="0" cy="0" rx="1" ry="1" /></g><g transform="translate(151.040299 58.484060) rotate(10.058811) scale(28.029043 97.149435)"><ellipse fill="#fff" fill-opacity=".501961" cx="0" cy="0" rx="1" ry="1" /></g><g transform="translate(223 106) rotate(174) scale(37 71)"><path d="M0 0h6e3v4e3H0z" fill="#000" /></g><g transform="translate(79 34) rotate(94) scale(74 14)"><path d="M0 0h6e3v4e3H0z" fill="#fffff1" /></g><path d="M0 0h6e3v4e3H0z" fill="#894710" /><ellipse fill="#070800" fill-opacity=".501961" cx="49" cy="50" rx="19" ry="162" /><path d="M0 0h6e3v4e3H0z" fill="#ebffff" /></g></svg>