<svg xmlns="http://www.w3.org/2000/svg" viewBox="0 0 6000 4000"><filter id="b"><feGaussianBlur stdDeviation="12" /></filter><path d="M0 0h6e3v4e3H0z" fill="#474747" /><g filter="url(#b)" transform="scale(23.437500) translate(0.5 0.5)"><path fill="#afafaf" fill-opacity=".501961" d="M-13 185 201-13-5-7z" /><g transform="translate(155.533508 122.288208) rotate(446.094378) scale(78.539417 109.270864)"><ellipse fill="#000" fill-opacity=".501961" cx="0" cy="0" rx="1" ry="1" /></g><g transform="translate(199.069714 0.000000) rotate(250.202998) scale(28.121361 139.135036)"><ellipse fill="#bababa" fill-opacity=".501961" cx="0" cy="0" rx="1" ry="1" /></g><g transform="translate(22.818341 145.592747) rotate(94.813739) scale(80.595572 25.534813)"><ellipse fill="#c1c1c1" fill-opacity=".501961" cx="0" cy="0" rx="1" ry="1" /></g><g transform="translate(232.383002 49.641616) rotate(169.180178) scale(81.532067 29.576342)"><ellipse fill="#000" fill-opacity=".501961" cx="0" cy="0" rx="1" ry="1" /></g><g transform="translate(89 107) rotate(347) scale(67 82)"><path d="M0 0h6e3v4e3H0z" fill="#070707" /></g><g transform="translate(195.988744 120.458025) rotate(65.244997) scale(74.178964 161.169038)"><ellipse fill="#101010" fill-opacity=".501961" cx="0" cy="0" rx="1" ry="1" /></g><g transform="translate(221.796918 5.859690) rotate(158.293892) scale(81.631681 13.755240)"><ellipse fill="#aeaeae" fill-opacity=".501961" cx="0" cy="0" rx="1" ry="1" /></g></g></svg>