<svg xmlns="http://www.w3.org/2000/svg" viewBox="0 0 6000 4000"><filter id="b"><feGaussianBlur stdDeviation="12" /></filter><path d="M0 0h6e3v4e3H0z" fill="#322315" /><g filter="url(#b)" transform="scale(23.437500) translate(0.5 0.5)"><path fill="#e5a46d" fill-opacity=".501961" d="M61 29 169 42 118 179z" /><g transform="translate(151.506061 95.625937) rotate(405.361055) scale(38.135600 19.841300)"><ellipse fill="#000" fill-opacity=".501961" cx="0" cy="0" rx="1" ry="1" /></g><g transform="translate(10.736961 88.048381) rotate(93.956524) scale(175.162617 28.395999)"><ellipse fill="#000" fill-opacity=".501961" cx="0" cy="0" rx="1" ry="1" /></g><path d="M0 0h6e3v4e3H0z" fill="#deb563" /><path fill="#cc9060" fill-opacity=".501961" d="M192 40 46 41 36 89z" /><g transform="translate(238 59) rotate(70) scale(216 96)"><path d="M0 0h6e3v4e3H0z" fill="#000" /></g><path d="M0 0h6e3v4e3H0z" fill="#ffca90" /><g transform="translate(120.152360 112.117190) rotate(246.573915) scale(33.238621 11.079127)"><ellipse fill="#ffdbb0" fill-opacity=".501961" cx="0" cy="0" rx="1" ry="1" /></g></g></svg>