<svg xmlns="http://www.w3.org/2000/svg" viewBox="0 0 6000 4000"><filter id="b"><feGaussianBlur stdDeviation="12" /></filter><path d="M0 0h6e3v4e3H0z" fill="#919089" /><g filter="url(#b)" transform="scale(23.437500) translate(0.5 0.5)"><g transform="translate(40.649364 129.868469) rotate(565.912380) scale(96.827005 73.652642)"><ellipse fill="#000" fill-opacity=".501961" cx="0" cy="0" rx="1" ry="1" /></g><path fill="#fff" fill-opacity=".501961" d="M-16-2 190 106 271-1z" /><g transform="translate(90.638020 97.850487) rotate(108.234624) scale(41.522669 24.759006)"><ellipse fill="#000" fill-opacity=".501961" cx="0" cy="0" rx="1" ry="1" /></g><path fill="#acb9ba" fill-opacity=".501961" d="M83 69 6 71l19 56z" /><g transform="translate(132.775795 16.793951) rotate(260.252529) scale(36.866851 128.794825)"><ellipse fill="#fff8e1" fill-opacity=".501961" cx="0" cy="0" rx="1" ry="1" /></g><g transform="translate(91.832063 169.000000) rotate(86.874205) scale(17.649293 255.000000)"><ellipse fill="#282a27" fill-opacity=".501961" cx="0" cy="0" rx="1" ry="1" /></g><g transform="translate(137.776156 103.759258) rotate(200.562072) scale(20.785056 57.759556)"><ellipse fill="#d5c8b2" fill-opacity=".501961" cx="0" cy="0" rx="1" ry="1" /></g><g transform="translate(28 155) rotate(13) scale(109 38)"><path d="M0 0h6e3v4e3H0z" fill="#000300" /></g></g></svg>