<svg xmlns="http://www.w3.org/2000/svg" viewBox="0 0 6000 4000"><filter id="b"><feGaussianBlur stdDeviation="12" /></filter><path d="M0 0h6e3v4e3H0z" fill="#3d3d3d" /><g filter="url(#b)" transform="scale(23.437500) translate(0.5 0.5)"><g transform="translate(37 92) rotate(88) scale(43 132)"><path d="M0 0h6e3v4e3H0z" fill="#cfcfcf" /></g><g transform="translate(106.066648 22.995058) rotate(275.196684) scale(49.944068 20.837933)"><ellipse fill="#d5d5d5" fill-opacity=".501961" cx="0" cy="0" rx="1" ry="1" /></g><ellipse fill="#040404" fill-opacity=".501961" cx="223" cy="134" rx="126" ry="100" /><path fill="#fff" fill-opacity=".501961" d="M170 0l63-16-58 63z" /><ellipse fill="#000" fill-opacity=".501961" cx="61" cy="145" rx="78" ry="35" /><g transform="translate(48.628553 23.738564) rotate(266.947621) scale(12.817512 64.624734)"><ellipse fill="#a0a0a0" fill-opacity=".501961" cx="0" cy="0" rx="1" ry="1" /></g><path d="M0 0h6e3v4e3H0z" fill="#070707" /><g transform="translate(179.651527 21.594773) rotate(93.821226) scale(36.350156 7.204239)"><ellipse fill="#fff" fill-opacity=".501961" cx="0" cy="0" rx="1" ry="1" /></g></g></svg>