<svg xmlns="http://www.w3.org/2000/svg" viewBox="0 0 6000 4000"><filter id="b"><feGaussianBlur stdDeviation="12" /></filter><path d="M0 0h6e3v4e3H0z" fill="#595959" /><g filter="url(#b)" transform="scale(23.437500) translate(0.5 0.5)"><ellipse fill="#fcfcfc" fill-opacity=".501961" cx="216" cy="147" rx="44" ry="44" /><g transform="translate(65.604217 137.500091) rotate(26.858764) scale(117.737012 59.564392)"><ellipse fill="#000" fill-opacity=".501961" cx="0" cy="0" rx="1" ry="1" /></g><g transform="translate(41.947857 27.439722) rotate(273.380979) scale(35.060976 116.641458)"><ellipse fill="#b5b5b5" fill-opacity=".501961" cx="0" cy="0" rx="1" ry="1" /></g><path fill="#fff" fill-opacity=".501961" d="M171 93l53-78-19 71z" /><g transform="translate(255.000000 90.444958) rotate(257.170755) scale(119.690040 14.964333)"><ellipse fill="#000" fill-opacity=".501961" cx="0" cy="0" rx="1" ry="1" /></g><g transform="translate(125.226478 80.228082) rotate(130.560741) scale(33.382994 43.101544)"><ellipse fill="#939393" fill-opacity=".501961" cx="0" cy="0" rx="1" ry="1" /></g><path d="M0 0h6e3v4e3H0z" fill="#040404" /><path fill="#fff" fill-opacity=".501961" d="M236.351529 105.544021 240.855381 101.827696 259.93664 185 216.88979 96.011433z" /></g></svg>