<svg xmlns="http://www.w3.org/2000/svg" viewBox="0 0 6000 4000"><filter id="b"><feGaussianBlur stdDeviation="12" /></filter><path d="M0 0h6e3v4e3H0z" fill="#646151" /><g filter="url(#b)" transform="scale(23.437500) translate(0.5 0.5)"><g transform="translate(135.339699 11.588742) rotate(83.182059) scale(84.312529 60.166343)"><ellipse fill="#fff" fill-opacity=".501961" cx="0" cy="0" rx="1" ry="1" /></g><g transform="translate(37.203404 21.747619) rotate(161.450018) scale(30.691476 142.215457)"><ellipse fill="#000" fill-opacity=".501961" cx="0" cy="0" rx="1" ry="1" /></g><ellipse fill="#fffffe" fill-opacity=".501961" cx="15" cy="78" rx="14" ry="30" /><g transform="translate(182.125959 131.542310) rotate(276.183211) scale(22.723261 172.856162)"><ellipse fill="#130d00" fill-opacity=".501961" cx="0" cy="0" rx="1" ry="1" /></g><ellipse fill="#000" fill-opacity=".501961" cx="34" cy="16" rx="40" ry="40" /><ellipse fill="#f7eed9" fill-opacity=".501961" cx="141" cy="19" rx="55" ry="39" /><path fill="#656965" fill-opacity=".501961" d="M113 148 89 53l118 8z" /><path fill="#fff" fill-opacity=".501961" d="M28 127-3 160l48-29z" /></g></svg>