<svg xmlns="http://www.w3.org/2000/svg" viewBox="0 0 6000 4000"><filter id="b"><feGaussianBlur stdDeviation="12" /></filter><path d="M0 0h6e3v4e3H0z" fill="#483c27" /><g filter="url(#b)" transform="scale(23.437500) translate(0.5 0.5)"><path fill="#e6b98f" fill-opacity=".501961" d="M130 69 91 136l66-22z" /><g transform="translate(41.627048 124.262300) rotate(227.528697) scale(20.939149 49.280206)"><ellipse fill="#b88252" fill-opacity=".501961" cx="0" cy="0" rx="1" ry="1" /></g><g transform="translate(249.934194 169.000000) rotate(242.519945) scale(11.875682 37.161001)"><ellipse fill="ivory" fill-opacity=".501961" cx="0" cy="0" rx="1" ry="1" /></g><path fill="#ffe1a0" fill-opacity=".501961" d="M271 88l-33 1 6-46z" /><g transform="translate(180.219588 153.465030) rotate(372.025373) scale(25.967776 69.585749)"><ellipse fill="#000" fill-opacity=".501961" cx="0" cy="0" rx="1" ry="1" /></g><path fill="#c7a489" fill-opacity=".501961" d="M189.840971 83.813511 222.663201 71.790541 223.263439 38.387121 143.824681 114.942457z" /><ellipse fill="#fff5c0" fill-opacity=".501961" cx="73" cy="150" rx="11" ry="11" /><g transform="translate(233.189105 20.531308) rotate(192.270758) scale(37.872722 28.684403)"><ellipse fill="#000005" fill-opacity=".501961" cx="0" cy="0" rx="1" ry="1" /></g></g></svg>