<svg xmlns="http://www.w3.org/2000/svg" viewBox="0 0 6000 4000"><filter id="b"><feGaussianBlur stdDeviation="12" /></filter><path d="M0 0h6e3v4e3H0z" fill="#838383" /><g filter="url(#b)" transform="scale(23.437500) translate(0.5 0.5)"><g transform="translate(67.528842 138.044774) rotate(350.761759) scale(104.733173 41.499404)"><ellipse fill="#ececec" fill-opacity=".501961" cx="0" cy="0" rx="1" ry="1" /></g><g transform="translate(172.598926 9.288258) rotate(279.916303) scale(73.821150 255.000000)"><ellipse fill="#4e4e4e" fill-opacity=".501961" cx="0" cy="0" rx="1" ry="1" /></g><ellipse fill="#f9f9f9" fill-opacity=".501961" cx="38" cy="150" rx="24" ry="24" /><g transform="translate(123 79) rotate(280) scale(69 108)"><path d="M0 0h6e3v4e3H0z" fill="#959595" /></g><g transform="translate(238.568721 151.069649) rotate(191.010763) scale(26.859243 87.987602)"><ellipse fill="#565656" fill-opacity=".501961" cx="0" cy="0" rx="1" ry="1" /></g><path fill="#424242" fill-opacity=".501961" d="M271 3 138 26 81-16z" /><g transform="translate(0.000000 36.126745) rotate(252.160086) scale(34.534792 60.838807)"><ellipse fill="#525252" fill-opacity=".501961" cx="0" cy="0" rx="1" ry="1" /></g><g transform="translate(56.567946 99.506043) rotate(78.892340) scale(16.723340 79.051446)"><ellipse fill="#9e9e9e" fill-opacity=".501961" cx="0" cy="0" rx="1" ry="1" /></g></g></svg>