<svg xmlns="http://www.w3.org/2000/svg" viewBox="0 0 6000 4000"><filter id="b"><feGaussianBlur stdDeviation="12" /></filter><path d="M0 0h6e3v4e3H0z" fill="#423c2d" /><g filter="url(#b)" transform="scale(23.437500) translate(0.5 0.5)"><g transform="translate(207.054572 22.343303) rotate(168.490894) scale(142.593068 26.450553)"><ellipse fill="#9f9587" fill-opacity=".501961" cx="0" cy="0" rx="1" ry="1" /></g><g transform="translate(11.921474 58.390586) rotate(289.001391) scale(194.719799 48.876501)"><ellipse fill="#000" fill-opacity=".501961" cx="0" cy="0" rx="1" ry="1" /></g><g transform="translate(98.131794 153.561099) rotate(310.757099) scale(27.661978 79.213863)"><ellipse fill="#a28558" fill-opacity=".501961" cx="0" cy="0" rx="1" ry="1" /></g><g transform="translate(92.866365 43.251417) rotate(141.208790) scale(16.625601 24.102765)"><ellipse fill="#f5b875" fill-opacity=".501961" cx="0" cy="0" rx="1" ry="1" /></g><g transform="translate(106.940982 90.288711) rotate(222.458068) scale(18.950086 30.531601)"><ellipse fill="#000" fill-opacity=".501961" cx="0" cy="0" rx="1" ry="1" /></g><g transform="translate(246.177350 149.840078) rotate(428.046737) scale(27.594719 59.836739)"><ellipse fill="#000502" fill-opacity=".501961" cx="0" cy="0" rx="1" ry="1" /></g><g transform="translate(122 0) rotate(351) scale(113 31)"><path d="M0 0h6e3v4e3H0z" fill="#010000" /></g><g transform="translate(77.555042 123.847996) rotate(185.886900) scale(7.345406 17.445095)"><ellipse fill="#ffe2ba" fill-opacity=".501961" cx="0" cy="0" rx="1" ry="1" /></g></g></svg>