<svg xmlns="http://www.w3.org/2000/svg" viewBox="0 0 6000 4000"><filter id="b"><feGaussianBlur stdDeviation="12" /></filter><path d="M0 0h6e3v4e3H0z" fill="#713b0c" /><g filter="url(#b)" transform="scale(23.437500) translate(0.5 0.5)"><g transform="translate(236.190119 29.313871) rotate(134.525478) scale(26.544653 21.203666)"><ellipse fill="#ffff85" fill-opacity=".501961" cx="0" cy="0" rx="1" ry="1" /></g><g transform="translate(180.022760 91.948882) rotate(173.358816) scale(74.549203 20.118871)"><ellipse fill="#ff8a0c" fill-opacity=".501961" cx="0" cy="0" rx="1" ry="1" /></g><g transform="translate(109.900823 169.000000) rotate(360.963764) scale(241.200632 17.649224)"><ellipse fill="#000" fill-opacity=".501961" cx="0" cy="0" rx="1" ry="1" /></g><g transform="translate(98 30) rotate(0) scale(43 28)"><path d="M0 0h6e3v4e3H0z" fill="#ffcc5e" /></g><ellipse fill="#000" fill-opacity=".501961" cx="58" cy="15" rx="19" ry="58" /><ellipse fill="#f5981c" fill-opacity=".501961" cx="30" cy="48" rx="10" ry="58" /><ellipse fill="#fff" fill-opacity=".501961" cx="3" cy="46" rx="8" ry="8" /><ellipse fill="#fff" fill-opacity=".501961" cx="238" cy="27" rx="11" ry="10" /></g></svg>