<svg xmlns="http://www.w3.org/2000/svg" viewBox="0 0 6000 4000"><filter id="b"><feGaussianBlur stdDeviation="12" /></filter><path d="M0 0h6e3v4e3H0z" fill="#3e2a1e" /><g filter="url(#b)" transform="scale(23.437500) translate(0.5 0.5)"><g transform="translate(166.632295 102.451815) rotate(113.047800) scale(53.070802 29.931277)"><ellipse fill="#ffe4c3" fill-opacity=".501961" cx="0" cy="0" rx="1" ry="1" /></g><ellipse fill="#000" fill-opacity=".501961" cx="9" cy="108" rx="81" ry="109" /><path fill="#ffe1c8" fill-opacity=".501961" d="M137 138l-1-52 84-22z" /><ellipse fill="#080000" fill-opacity=".501961" cx="212" cy="12" rx="57" ry="57" /><g transform="translate(162.626025 144.428128) rotate(226.923460) scale(23.778380 78.259633)"><ellipse fill="#8e5d42" fill-opacity=".501961" cx="0" cy="0" rx="1" ry="1" /></g><path fill="#cb5140" fill-opacity=".501961" d="M141 25l-2 62 48-32z" /><g transform="translate(108.457722 118.786038) rotate(98.079926) scale(27.168329 8.321341)"><ellipse fill="#ab8b70" fill-opacity=".501961" cx="0" cy="0" rx="1" ry="1" /></g><ellipse fill="#000" fill-opacity=".501961" cx="127" cy="86" rx="10" ry="47" /></g></svg>