<svg xmlns="http://www.w3.org/2000/svg" viewBox="0 0 6000 4000"><filter id="b"><feGaussianBlur stdDeviation="12" /></filter><path d="M0 0h6e3v4e3H0z" fill="#5e5442" /><g filter="url(#b)" transform="scale(23.437500) translate(0.5 0.5)"><ellipse fill="#ffffea" fill-opacity=".501961" cx="108" cy="22" rx="75" ry="75" /><g transform="translate(228.684996 89.753779) rotate(270.605128) scale(195.111127 48.045249)"><ellipse fill="#000" fill-opacity=".501961" cx="0" cy="0" rx="1" ry="1" /></g><g transform="translate(12.189932 66.231139) rotate(-4.075764) scale(26.798552 240.199410)"><ellipse fill="#000" fill-opacity=".501961" cx="0" cy="0" rx="1" ry="1" /></g><ellipse fill="#ffffe4" fill-opacity=".501961" cx="77" cy="30" rx="42" ry="42" /><g transform="translate(144.861398 70.685824) rotate(252.435226) scale(74.079528 18.407226)"><ellipse fill="#422a11" fill-opacity=".501961" cx="0" cy="0" rx="1" ry="1" /></g><path fill="#ca9b64" fill-opacity=".501961" d="M38 59l93 5L54 165z" /><g transform="translate(15.185318 99.950433) rotate(178.180151) scale(22.553395 148.743137)"><ellipse fill="#000" fill-opacity=".501961" cx="0" cy="0" rx="1" ry="1" /></g><g transform="translate(237.236401 112.027621) rotate(205.889276) scale(41.146625 255.000000)"><ellipse fill="#000" fill-opacity=".501961" cx="0" cy="0" rx="1" ry="1" /></g></g></svg>