<svg xmlns="http://www.w3.org/2000/svg" viewBox="0 0 6000 4000"><filter id="b"><feGaussianBlur stdDeviation="12" /></filter><path d="M0 0h6e3v4e3H0z" fill="#1e2120" /><g filter="url(#b)" transform="scale(23.437500) translate(0.5 0.5)"><g transform="translate(135.642325 67.360896) rotate(183.977516) scale(91.594107 33.181822)"><ellipse fill="#969994" fill-opacity=".501961" cx="0" cy="0" rx="1" ry="1" /></g><g transform="translate(131.613794 143.788410) rotate(274.252724) scale(46.772907 211.446093)"><ellipse fill="#000" fill-opacity=".501961" cx="0" cy="0" rx="1" ry="1" /></g><g transform="translate(53.535216 115.301426) rotate(311.079887) scale(27.235791 212.001674)"><ellipse fill="#000" fill-opacity=".501961" cx="0" cy="0" rx="1" ry="1" /></g><g transform="translate(137.482941 81.430151) rotate(104.870769) scale(17.431226 56.851892)"><ellipse fill="#8a8981" fill-opacity=".501961" cx="0" cy="0" rx="1" ry="1" /></g><g transform="translate(219.147647 134.330229) rotate(71.142114) scale(45.883906 89.438203)"><ellipse fill="#000" fill-opacity=".501961" cx="0" cy="0" rx="1" ry="1" /></g><path fill="#3a4342" fill-opacity=".501961" d="M271 88-16 25 167 11z" /><path fill="#000" fill-opacity=".501961" d="M-16 171.740197 271 166.837975 147.829876 98.683212 113.291353 90.16717z" /><ellipse fill="#7b7e7a" fill-opacity=".501961" cx="82" cy="76" rx="27" ry="21" /></g></svg>