<svg xmlns="http://www.w3.org/2000/svg" viewBox="0 0 6000 4000"><filter id="b"><feGaussianBlur stdDeviation="12" /></filter><path d="M0 0h6e3v4e3H0z" fill="#393939" /><g filter="url(#b)" transform="scale(23.437500) translate(0.5 0.5)"><g transform="translate(105.291096 92.779533) rotate(166.842204) scale(48.838618 27.197712)"><ellipse fill="#aaa" fill-opacity=".501961" cx="0" cy="0" rx="1" ry="1" /></g><ellipse fill="#b9b9b9" fill-opacity=".501961" cx="244" cy="19" rx="30" ry="55" /><ellipse fill="#000" fill-opacity=".501961" cx="187" cy="169" rx="90" ry="90" /><path d="M0 0h6e3v4e3H0z" fill="#9b9b9b" /><g transform="translate(124.041993 26.110805) rotate(118.235309) scale(30.653770 52.803994)"><ellipse fill="#000" fill-opacity=".501961" cx="0" cy="0" rx="1" ry="1" /></g><path d="M0 0h6e3v4e3H0z" fill="#c1c1c1" /><path fill="#b5b5b5" fill-opacity=".501961" d="M213 47 198 97 174 50z" /><g transform="translate(57.380700 162.405786) rotate(7.098371) scale(248.844480 40.034823)"><ellipse fill="#020202" fill-opacity=".501961" cx="0" cy="0" rx="1" ry="1" /></g></g></svg>