<svg xmlns="http://www.w3.org/2000/svg" viewBox="0 0 6000 4000"><filter id="b"><feGaussianBlur stdDeviation="12" /></filter><path d="M0 0h6e3v4e3H0z" fill="#1f1f1f" /><g filter="url(#b)" transform="scale(23.437500) translate(0.5 0.5)"><ellipse fill="#fff" fill-opacity=".501961" cx="81" cy="0" rx="74" ry="13" /><g transform="translate(242 0) rotate(98) scale(28 30)"><path d="M0 0h6e3v4e3H0z" fill="#fff" /></g><g transform="translate(170.854234 146.905052) rotate(302.581558) scale(31.540713 35.806298)"><ellipse fill="#878787" fill-opacity=".501961" cx="0" cy="0" rx="1" ry="1" /></g><ellipse fill="#000" fill-opacity=".501961" cx="54" cy="125" rx="82" ry="82" /><g transform="translate(113.353608 39.964978) rotate(161.559390) scale(21.973833 64.522704)"><ellipse fill="#494949" fill-opacity=".501961" cx="0" cy="0" rx="1" ry="1" /></g><ellipse fill="#fff" fill-opacity=".501961" cx="56" cy="0" rx="27" ry="11" /><g transform="translate(224.655036 100.477953) rotate(316.634646) scale(43.261128 89.363060)"><ellipse fill="#000" fill-opacity=".501961" cx="0" cy="0" rx="1" ry="1" /></g><g transform="translate(240.087749 4.300188) rotate(179.327539) scale(12.890798 8.628749)"><ellipse fill="#fff" fill-opacity=".501961" cx="0" cy="0" rx="1" ry="1" /></g></g></svg>