<svg xmlns="http://www.w3.org/2000/svg" viewBox="0 0 6000 4000"><filter id="b"><feGaussianBlur stdDeviation="12" /></filter><path d="M0 0h6e3v4e3H0z" fill="#262626" /><g filter="url(#b)" transform="scale(23.437500) translate(0.5 0.5)"><g transform="translate(55.256420 14.154867) rotate(-12.601998) scale(25.532126 35.025772)"><ellipse fill="#ebebeb" fill-opacity=".501961" cx="0" cy="0" rx="1" ry="1" /></g><ellipse fill="#666" fill-opacity=".501961" cx="155" cy="21" rx="87" ry="46" /><g transform="translate(207.323392 117.970653) rotate(89.958269) scale(82.158849 66.811246)"><ellipse fill="#000" fill-opacity=".501961" cx="0" cy="0" rx="1" ry="1" /></g><g transform="translate(34.099194 128.039952) rotate(239.375751) scale(78.044066 59.849595)"><ellipse fill="#000" fill-opacity=".501961" cx="0" cy="0" rx="1" ry="1" /></g><path fill="#707070" fill-opacity=".501961" d="M126 9l19 158-46 18z" /><path fill="#e4e4e4" fill-opacity=".501961" d="M250.070474-16 230.808665 12.770558 206.121991 10.98281 198.50088-16z" /><path fill="#cdcdcd" fill-opacity=".501961" d="M77.987757 80.190995 77.237845 66.15891 56.858373-16 47.958298 26.963559z" /><path d="M0 0h6e3v4e3H0z" fill="#d0d0d0" /></g></svg>