<svg xmlns="http://www.w3.org/2000/svg" viewBox="0 0 6000 4000"><filter id="b"><feGaussianBlur stdDeviation="12" /></filter><path d="M0 0h6e3v4e3H0z" fill="#222" /><g filter="url(#b)" transform="scale(23.437500) translate(0.5 0.5)"><ellipse fill="#a9a9a9" fill-opacity=".501961" cx="145" cy="65" rx="50" ry="19" /><path fill="#d8d8d8" fill-opacity=".501961" d="M70-16 149 3-14 15z" /><g transform="translate(193.302591 145.825965) rotate(-60.305042) scale(87.568568 40.586128)"><ellipse fill="#000" fill-opacity=".501961" cx="0" cy="0" rx="1" ry="1" /></g><path d="M0 0h6e3v4e3H0z" fill="#fff" /><g transform="translate(174 59) rotate(154) scale(12 32)"><path d="M0 0h6e3v4e3H0z" fill="#fff" /></g><path fill="#000" fill-opacity=".501961" d="M167 97 140 64l17-52z" /><path d="M0 0h6e3v4e3H0z" fill="#000" /><path fill="#898989" fill-opacity=".501961" d="M34.395802 73.735146 7.240298 52.528397 15.943924 5.457078 30.92701 19.211451z" /></g></svg>