<svg xmlns="http://www.w3.org/2000/svg" viewBox="0 0 6000 4000"><filter id="b"><feGaussianBlur stdDeviation="12" /></filter><path d="M0 0h6e3v4e3H0z" fill="#2c2c2c" /><g filter="url(#b)" transform="scale(23.437500) translate(0.5 0.5)"><ellipse fill="#757575" fill-opacity=".501961" cx="101" cy="17" rx="94" ry="39" /><g transform="translate(67.253627 151.137021) rotate(171.864164) scale(96.562016 70.291327)"><ellipse fill="#000" fill-opacity=".501961" cx="0" cy="0" rx="1" ry="1" /></g><path d="M0 0h6e3v4e3H0z" fill="#000" /><g transform="translate(201.730238 139.435601) rotate(135.633529) scale(14.660039 54.547939)"><ellipse fill="#626262" fill-opacity=".501961" cx="0" cy="0" rx="1" ry="1" /></g><path fill="#909090" fill-opacity=".501961" d="M77 113 51 87 64 73z" /><g transform="translate(244 105) rotate(282) scale(69 34)"><path d="M0 0h6e3v4e3H0z" fill="#000" /></g><g transform="translate(51.957334 150.648945) rotate(109.365957) scale(40.941180 108.314344)"><ellipse fill="#000" fill-opacity=".501961" cx="0" cy="0" rx="1" ry="1" /></g><ellipse fill="#000" fill-opacity=".501961" cx="44" cy="19" rx="8" ry="29" /></g></svg>