<svg xmlns="http://www.w3.org/2000/svg" viewBox="0 0 6000 4000"><filter id="b"><feGaussianBlur stdDeviation="12" /></filter><path d="M0 0h6e3v4e3H0z" fill="#232323" /><g filter="url(#b)" transform="scale(23.437500) translate(0.5 0.5)"><g transform="translate(209.030576 22.477963) rotate(184.448255) scale(96.712107 35.310627)"><ellipse fill="#9c9c9c" fill-opacity=".501961" cx="0" cy="0" rx="1" ry="1" /></g><ellipse fill="#000" fill-opacity=".501961" cx="78" cy="149" rx="255" ry="58" /><path fill="#fff" fill-opacity=".501961" d="M245.049828 40.203406 222.620752 23.55871 260.392708-16 250.656357-1.248918z" /><ellipse fill="#3f3f3f" fill-opacity=".501961" cx="160" cy="62" rx="79" ry="36" /><path d="M0 0h6e3v4e3H0z" fill="#8e8e8e" /><path d="M0 0h6e3v4e3H0z" fill="#f7f7f7" /><g transform="translate(65.475412 3.588962) rotate(-14.283276) scale(43.030343 33.751601)"><ellipse fill="#000" fill-opacity=".501961" cx="0" cy="0" rx="1" ry="1" /></g><path d="M0 0h6e3v4e3H0z" fill="#cecece" /></g></svg>