<svg xmlns="http://www.w3.org/2000/svg" viewBox="0 0 6000 4000"><filter id="b"><feGaussianBlur stdDeviation="12" /></filter><path d="M0 0h6e3v4e3H0z" fill="#272727" /><g filter="url(#b)" transform="scale(23.437500) translate(0.5 0.5)"><g transform="translate(175.057425 136.135810) rotate(345.362484) scale(33.256066 42.827871)"><ellipse fill="#b7b7b7" fill-opacity=".501961" cx="0" cy="0" rx="1" ry="1" /></g><path fill="#c3c3c3" fill-opacity=".501961" d="M120.475424 37.274017 75.279205 45.914618 74.900888 72.839023 152.836282 47.754084z" /><g transform="translate(46.306398 142.297089) rotate(349.321914) scale(98.257769 63.840517)"><ellipse fill="#000" fill-opacity=".501961" cx="0" cy="0" rx="1" ry="1" /></g><path d="M0 0h6e3v4e3H0z" fill="#ececec" /><ellipse fill="#000" fill-opacity=".501961" cx="239" cy="147" rx="32" ry="56" /><g transform="translate(171.599842 103.504082) rotate(170.837257) scale(9.115761 23.381918)"><ellipse fill="#0c0c0c" fill-opacity=".501961" cx="0" cy="0" rx="1" ry="1" /></g><g transform="translate(125.787986 81.210937) rotate(336.231829) scale(18.892690 32.664199)"><ellipse fill="#000" fill-opacity=".501961" cx="0" cy="0" rx="1" ry="1" /></g><path d="M0 0h6e3v4e3H0z" fill="#fff" /></g></svg>