<svg xmlns="http://www.w3.org/2000/svg" viewBox="0 0 6000 4000"><filter id="b"><feGaussianBlur stdDeviation="12" /></filter><path d="M0 0h6e3v4e3H0z" fill="#292929" /><g filter="url(#b)" transform="scale(23.437500) translate(0.5 0.5)"><g transform="translate(27.046222 143.737015) rotate(294.611554) scale(64.109934 35.975623)"><ellipse fill="#cbcbcb" fill-opacity=".501961" cx="0" cy="0" rx="1" ry="1" /></g><g transform="translate(214.543612 140.239935) rotate(9.915127) scale(42.829586 9.187802)"><ellipse fill="#dadada" fill-opacity=".501961" cx="0" cy="0" rx="1" ry="1" /></g><g transform="translate(58.062349 21.454044) rotate(268.459522) scale(40.193339 255.000000)"><ellipse fill="#000" fill-opacity=".501961" cx="0" cy="0" rx="1" ry="1" /></g><path d="M0 0h6e3v4e3H0z" fill="#b8b8b8" /><ellipse fill="#000" fill-opacity=".501961" cx="130" cy="111" rx="66" ry="24" /><g transform="translate(47.557285 82.853113) rotate(152.856994) scale(59.278739 18.211830)"><ellipse fill="#414141" fill-opacity=".501961" cx="0" cy="0" rx="1" ry="1" /></g><path d="M0 0h6e3v4e3H0z" fill="#999" /><ellipse fill="#ababab" fill-opacity=".501961" cx="4" cy="123" rx="63" ry="17" /></g></svg>