<svg xmlns="http://www.w3.org/2000/svg" viewBox="0 0 6000 4000"><filter id="b"><feGaussianBlur stdDeviation="12" /></filter><path d="M0 0h6e3v4e3H0z" fill="#404040" /><g filter="url(#b)" transform="scale(23.437500) translate(0.5 0.5)"><g transform="translate(53 161) rotate(142) scale(119 109)"><path d="M0 0h6e3v4e3H0z" fill="#e6e6e6" /></g><ellipse fill="#000" fill-opacity=".501961" cx="118" cy="20" rx="174" ry="41" /><path fill="#e6e6e6" fill-opacity=".501961" d="M170 113l-51 5-18-68z" /><path fill="#000" fill-opacity=".501961" d="M9 185l83-36-93 13z" /><g transform="translate(60.883759 146.341948) rotate(-7.739831) scale(60.236746 7.691955)"><ellipse fill="#fff" fill-opacity=".501961" cx="0" cy="0" rx="1" ry="1" /></g><path d="M0 0h6e3v4e3H0z" fill="#f8f8f8" /><ellipse fill="#000" fill-opacity=".501961" cx="255" cy="122" rx="47" ry="35" /><g transform="translate(222.549340 159.548309) rotate(28.289017) scale(31.604122 9.790844)"><ellipse fill="#dedede" fill-opacity=".501961" cx="0" cy="0" rx="1" ry="1" /></g></g></svg>