<svg xmlns="http://www.w3.org/2000/svg" viewBox="0 0 6000 4000"><filter id="b"><feGaussianBlur stdDeviation="12" /></filter><path d="M0 0h6e3v4e3H0z" fill="#2a2a2a" /><g filter="url(#b)" transform="scale(23.437500) translate(0.5 0.5)"><g transform="translate(31.172329 76.062890) rotate(337.150570) scale(47.895589 24.020435)"><ellipse fill="#fcfcfc" fill-opacity=".501961" cx="0" cy="0" rx="1" ry="1" /></g><g transform="translate(167.919936 128.320417) rotate(175.222550) scale(58.848748 18.625968)"><ellipse fill="#f3f3f3" fill-opacity=".501961" cx="0" cy="0" rx="1" ry="1" /></g><path fill="#fff" fill-opacity=".501961" d="M146 68l-24 39-4-49z" /><g transform="translate(174.497906 29.944601) rotate(119.495229) scale(54.744836 255.000000)"><ellipse fill="#000" fill-opacity=".501961" cx="0" cy="0" rx="1" ry="1" /></g><path d="M0 0h6e3v4e3H0z" fill="#efefef" /><path d="M0 0h6e3v4e3H0z" fill="#000" /><path fill="#000" fill-opacity=".501961" d="M66 185-15 141l201-3z" /><ellipse fill="#bababa" fill-opacity=".501961" cx="190" cy="135" rx="25" ry="25" /></g></svg>