<svg xmlns="http://www.w3.org/2000/svg" viewBox="0 0 6000 4000"><filter id="b"><feGaussianBlur stdDeviation="12" /></filter><path d="M0 0h6e3v4e3H0z" fill="#292929" /><g filter="url(#b)" transform="scale(23.437500) translate(0.5 0.5)"><path fill="#e0e0e0" fill-opacity=".501961" d="M223 73 11 155l84 30z" /><path fill="#fff" fill-opacity=".501961" d="M115 23l60 18-25 36z" /><g transform="translate(182.892746 99.507691) rotate(22.088795) scale(23.348417 11.782766)"><ellipse fill="#fff" fill-opacity=".501961" cx="0" cy="0" rx="1" ry="1" /></g><g transform="translate(236.937055 86.024570) rotate(55.268685) scale(159.424429 34.048740)"><ellipse fill="#000" fill-opacity=".501961" cx="0" cy="0" rx="1" ry="1" /></g><ellipse fill="#000" fill-opacity=".501961" cx="24" cy="58" rx="91" ry="91" /><path fill="#fff" fill-opacity=".501961" d="M74 146 89 89l35 96z" /><path d="M0 0h6e3v4e3H0z" fill="#fff" /><path d="M0 0h6e3v4e3H0z" fill="#000" /></g></svg>