<svg xmlns="http://www.w3.org/2000/svg" viewBox="0 0 6000 4000"><filter id="b"><feGaussianBlur stdDeviation="12" /></filter><path d="M0 0h6e3v4e3H0z" fill="#535353" /><g filter="url(#b)" transform="scale(23.437500) translate(0.5 0.5)"><g transform="translate(140.196889 29.352019) rotate(181.574058) scale(97.087527 38.306135)"><ellipse fill="#ececec" fill-opacity=".501961" cx="0" cy="0" rx="1" ry="1" /></g><path fill="#000" fill-opacity=".501961" d="M5 185-16 63l287 80z" /><path d="M0 0h6e3v4e3H0z" fill="#dcdcdc" /><path fill="#000" fill-opacity=".501961" d="M210 116 247-16l24 195z" /><path fill="#080808" fill-opacity=".501961" d="M154 179 173 19 77 185z" /><g transform="translate(185.382488 144.442623) rotate(328.437883) scale(39.892481 11.478226)"><ellipse fill="#8c8c8c" fill-opacity=".501961" cx="0" cy="0" rx="1" ry="1" /></g><g transform="translate(73.561421 42.447691) rotate(142.769524) scale(37.859376 47.464677)"><ellipse fill="#868686" fill-opacity=".501961" cx="0" cy="0" rx="1" ry="1" /></g><path fill="#e0e0e0" fill-opacity=".501961" d="M131 103 113 12l38-9z" /></g></svg>