<svg xmlns="http://www.w3.org/2000/svg" viewBox="0 0 6000 4000"><filter id="b"><feGaussianBlur stdDeviation="12" /></filter><path d="M0 0h6e3v4e3H0z" fill="#2e2e2e" /><g filter="url(#b)" transform="scale(23.437500) translate(0.5 0.5)"><g transform="translate(207.005483 21.091265) rotate(276.898681) scale(34.576475 77.941792)"><ellipse fill="#fff" fill-opacity=".501961" cx="0" cy="0" rx="1" ry="1" /></g><g transform="translate(174.869945 17.742119) rotate(20.263948) scale(17.587314 52.096079)"><ellipse fill="#fff" fill-opacity=".501961" cx="0" cy="0" rx="1" ry="1" /></g><path fill="#000" fill-opacity=".501961" d="M160 72l76-20-29-42z" /><ellipse fill="#000" fill-opacity=".501961" cx="77" cy="117" rx="102" ry="102" /><g transform="translate(238.717073 0.000000) rotate(303.701160) scale(29.065277 191.593358)"><ellipse fill="#fff" fill-opacity=".501961" cx="0" cy="0" rx="1" ry="1" /></g><g transform="translate(199.297861 142.147510) rotate(189.173683) scale(58.093089 36.633618)"><ellipse fill="#000" fill-opacity=".501961" cx="0" cy="0" rx="1" ry="1" /></g><path fill="#efefef" fill-opacity=".501961" d="M198 93l56-4-7 18z" /><path d="M0 0h6e3v4e3H0z" fill="#696969" /></g></svg>