<svg xmlns="http://www.w3.org/2000/svg" viewBox="0 0 6000 4000"><filter id="b"><feGaussianBlur stdDeviation="12" /></filter><path d="M0 0h6e3v4e3H0z" fill="#434343" /><g filter="url(#b)" transform="scale(23.437500) translate(0.5 0.5)"><g transform="translate(250.338492 56.412060) rotate(312.648563) scale(109.846453 27.447880)"><ellipse fill="#f1f1f1" fill-opacity=".501961" cx="0" cy="0" rx="1" ry="1" /></g><g transform="translate(134.204718 113.709075) rotate(71.359181) scale(32.092913 40.168948)"><ellipse fill="#f0f0f0" fill-opacity=".501961" cx="0" cy="0" rx="1" ry="1" /></g><g transform="translate(86.682873 23.966779) rotate(438.300581) scale(50.738899 136.749448)"><ellipse fill="#000" fill-opacity=".501961" cx="0" cy="0" rx="1" ry="1" /></g><g transform="translate(57 139) rotate(265) scale(24 169)"><path d="M0 0h6e3v4e3H0z" fill="#ededed" /></g><ellipse fill="#000" fill-opacity=".501961" cx="213" cy="166" rx="210" ry="25" /><ellipse fill="#fff" fill-opacity=".501961" cx="187" cy="129" rx="60" ry="7" /><path d="M0 0h6e3v4e3H0z" fill="#313131" /><g transform="translate(131.238027 85.502292) rotate(251.607367) scale(54.016405 7.075382)"><ellipse fill="#d5d5d5" fill-opacity=".501961" cx="0" cy="0" rx="1" ry="1" /></g></g></svg>