<svg xmlns="http://www.w3.org/2000/svg" viewBox="0 0 6000 4000"><filter id="b"><feGaussianBlur stdDeviation="12" /></filter><path d="M0 0h6e3v4e3H0z" fill="#252525" /><g filter="url(#b)" transform="scale(23.437500) translate(0.5 0.5)"><g transform="translate(148 18) rotate(13) scale(85 74)"><path d="M0 0h6e3v4e3H0z" fill="#fff" /></g><g transform="translate(160.655925 18.297724) rotate(167.665888) scale(21.796846 61.744645)"><ellipse fill="#fff" fill-opacity=".501961" cx="0" cy="0" rx="1" ry="1" /></g><path fill="#000" fill-opacity=".501961" d="M271 165-16 185 18-5z" /><g transform="translate(154.128594 11.907326) rotate(175.803698) scale(35.888219 30.421835)"><ellipse fill="#fff" fill-opacity=".501961" cx="0" cy="0" rx="1" ry="1" /></g><ellipse fill="#000" fill-opacity=".501961" cx="222" cy="95" rx="40" ry="149" /><g transform="translate(134.570723 66.870361) rotate(105.931527) scale(28.545708 15.093170)"><ellipse fill="#000" fill-opacity=".501961" cx="0" cy="0" rx="1" ry="1" /></g><g transform="translate(103.277015 27.512390) rotate(79.117140) scale(32.951287 15.872143)"><ellipse fill="#747474" fill-opacity=".501961" cx="0" cy="0" rx="1" ry="1" /></g><g transform="translate(166.900459 81.008880) rotate(32.135241) scale(14.238558 20.087415)"><ellipse fill="#8e8e8e" fill-opacity=".501961" cx="0" cy="0" rx="1" ry="1" /></g></g></svg>