<svg xmlns="http://www.w3.org/2000/svg" viewBox="0 0 6000 4000"><filter id="b"><feGaussianBlur stdDeviation="12" /></filter><path d="M0 0h6e3v4e3H0z" fill="#202020" /><g filter="url(#b)" transform="scale(23.437500) translate(0.5 0.5)"><g transform="translate(70.070976 37.123880) rotate(111.372809) scale(40.091536 86.579128)"><ellipse fill="#6f6f6f" fill-opacity=".501961" cx="0" cy="0" rx="1" ry="1" /></g><path fill="#fafafa" fill-opacity=".501961" d="M104.696157 64.848252 96.92521 57.034416 139.29349 69.118192 116.874781 96.469345z" /><ellipse fill="#000" fill-opacity=".501961" cx="62" cy="130" rx="67" ry="67" /><g transform="translate(199.359637 143.924833) rotate(44.923648) scale(56.126829 88.585773)"><ellipse fill="#000" fill-opacity=".501961" cx="0" cy="0" rx="1" ry="1" /></g><g transform="translate(77.052751 58.234210) rotate(33.347023) scale(16.348387 25.886380)"><ellipse fill="#000" fill-opacity=".501961" cx="0" cy="0" rx="1" ry="1" /></g><g transform="translate(44 32) rotate(224) scale(43 100)"><path d="M0 0h6e3v4e3H0z" fill="#6c6c6c" /></g><path fill="#959595" fill-opacity=".501961" d="M163.569429 95.470383 166.151665 82.001097 96.92422 107.434454 115.001286 105.845525z" /><ellipse fill="#2e2e2e" fill-opacity=".501961" cx="165" cy="27" rx="60" ry="41" /></g></svg>