<svg xmlns="http://www.w3.org/2000/svg" viewBox="0 0 6000 4000"><filter id="b"><feGaussianBlur stdDeviation="12" /></filter><path d="M0 0h6e3v4e3H0z" fill="#4b4b4b" /><g filter="url(#b)" transform="scale(23.437500) translate(0.5 0.5)"><g transform="translate(48.266037 0.000000) rotate(-68.009462) scale(59.954541 48.359299)"><ellipse fill="#fff" fill-opacity=".501961" cx="0" cy="0" rx="1" ry="1" /></g><ellipse fill="#000" fill-opacity=".501961" cx="227" cy="53" rx="69" ry="69" /><g transform="translate(181.131766 133.312024) rotate(180.732291) scale(31.950204 18.133513)"><ellipse fill="#fff" fill-opacity=".501961" cx="0" cy="0" rx="1" ry="1" /></g><path fill="#f2f2f2" fill-opacity=".501961" d="M116-1l50-3-29 73z" /><ellipse fill="#020202" fill-opacity=".501961" cx="36" cy="135" rx="104" ry="43" /><g transform="translate(92.021637 73.039156) rotate(162.051860) scale(37.420684 17.904660)"><ellipse fill="#b4b4b4" fill-opacity=".501961" cx="0" cy="0" rx="1" ry="1" /></g><path fill="#f9f9f9" fill-opacity=".501961" d="M70-16 142 7 11 24z" /><path fill="#000" fill-opacity=".501961" d="M134.98909 15.479134 94.050708 11.467987 85.498117 43.024369 94.401034 77.655463z" /></g></svg>