<svg xmlns="http://www.w3.org/2000/svg" viewBox="0 0 6000 4000"><filter id="b"><feGaussianBlur stdDeviation="12" /></filter><path d="M0 0h6e3v4e3H0z" fill="#272727" /><g filter="url(#b)" transform="scale(23.437500) translate(0.5 0.5)"><g transform="translate(146 140) rotate(278) scale(39 93)"><path d="M0 0h6e3v4e3H0z" fill="#fff" /></g><ellipse fill="#fff" fill-opacity=".501961" cx="215" cy="2" rx="36" ry="13" /><g transform="translate(50 21) rotate(353) scale(42 19)"><path d="M0 0h6e3v4e3H0z" fill="#fff" /></g><path d="M0 0h6e3v4e3H0z" fill="#aeaeae" /><ellipse fill="#000" fill-opacity=".501961" cx="44" cy="126" rx="60" ry="97" /><g transform="translate(237.150700 137.655454) rotate(3.356856) scale(40.121535 122.393923)"><ellipse fill="#000" fill-opacity=".501961" cx="0" cy="0" rx="1" ry="1" /></g><g transform="translate(169 144) rotate(95) scale(37 38)"><path d="M0 0h6e3v4e3H0z" fill="#fff" /></g><path fill="#000" fill-opacity=".501961" d="M110-16 263 48 46 54z" /></g></svg>