<svg xmlns="http://www.w3.org/2000/svg" viewBox="0 0 6000 4000"><filter id="b"><feGaussianBlur stdDeviation="12" /></filter><path d="M0 0h6e3v4e3H0z" fill="#3e3e3e" /><g filter="url(#b)" transform="scale(23.437500) translate(0.5 0.5)"><g transform="translate(167.513388 153.550127) rotate(93.281219) scale(16.567233 187.236393)"><ellipse fill="#fff" fill-opacity=".501961" cx="0" cy="0" rx="1" ry="1" /></g><g transform="translate(146.098821 31.068767) rotate(350.923297) scale(255.000000 59.567337)"><ellipse fill="#000" fill-opacity=".501961" cx="0" cy="0" rx="1" ry="1" /></g><path fill="#fff" fill-opacity=".501961" d="M124 62 52 65 90 47z" /><path fill="#e3e3e3" fill-opacity=".501961" d="M251.598599 170.841235 244.725372 88.413028 182.342835 95.550508 198.784925 77.355906z" /><g transform="translate(166.858095 158.925340) rotate(5.296859) scale(65.410286 15.924216)"><ellipse fill="#fff" fill-opacity=".501961" cx="0" cy="0" rx="1" ry="1" /></g><path fill="#fff" fill-opacity=".501961" d="M178.584266 85.555999 174.670873 84.293699 144.166346 85.775166 147.136552 126.246317z" /><g transform="translate(210.707637 38.785506) rotate(-78.862764) scale(40.789945 243.116273)"><ellipse fill="#000" fill-opacity=".501961" cx="0" cy="0" rx="1" ry="1" /></g><g transform="translate(198.757051 122.823087) rotate(114.515231) scale(19.786070 39.205554)"><ellipse fill="#000" fill-opacity=".501961" cx="0" cy="0" rx="1" ry="1" /></g></g></svg>