<svg xmlns="http://www.w3.org/2000/svg" viewBox="0 0 6000 4000"><filter id="b"><feGaussianBlur stdDeviation="12" /></filter><path d="M0 0h6e3v4e3H0z" fill="#323232" /><g filter="url(#b)" transform="scale(23.437500) translate(0.5 0.5)"><g transform="translate(129.453357 26.705475) rotate(313.166175) scale(43.260149 32.748805)"><ellipse fill="#fff" fill-opacity=".501961" cx="0" cy="0" rx="1" ry="1" /></g><g transform="translate(133.116444 112.905450) rotate(281.247738) scale(29.838923 11.147727)"><ellipse fill="#fff" fill-opacity=".501961" cx="0" cy="0" rx="1" ry="1" /></g><g transform="translate(138.846504 13.883596) rotate(20.624465) scale(24.658018 50.846899)"><ellipse fill="#fff" fill-opacity=".501961" cx="0" cy="0" rx="1" ry="1" /></g><g transform="translate(204.013825 120.356776) rotate(285.725755) scale(133.951605 62.091161)"><ellipse fill="#000" fill-opacity=".501961" cx="0" cy="0" rx="1" ry="1" /></g><g transform="translate(58.960745 9.738506) rotate(163.444472) scale(22.210655 34.544820)"><ellipse fill="#c9c9c9" fill-opacity=".501961" cx="0" cy="0" rx="1" ry="1" /></g><path fill="#fff" fill-opacity=".501961" d="M98.73072 72.887318 101.115617 68.463079 100.763565 115.751967 73.755699 84.65368z" /><ellipse fill="#000" fill-opacity=".501961" cx="19" cy="60" rx="22" ry="61" /><path fill="#fff" fill-opacity=".501961" d="M156-16l-6 71-61-1z" /></g></svg>