<svg xmlns="http://www.w3.org/2000/svg" viewBox="0 0 6000 4000"><filter id="b"><feGaussianBlur stdDeviation="12" /></filter><path d="M0 0h6e3v4e3H0z" fill="#878787" /><g filter="url(#b)" transform="scale(23.437500) translate(0.5 0.5)"><g transform="translate(237.048721 53.046838) rotate(107.938777) scale(106.262863 28.929026)"><ellipse fill="#fff" fill-opacity=".501961" cx="0" cy="0" rx="1" ry="1" /></g><g transform="translate(128.430093 78.049477) rotate(85.352938) scale(135.396419 32.185850)"><ellipse fill="#050505" fill-opacity=".501961" cx="0" cy="0" rx="1" ry="1" /></g><ellipse fill="#e8e8e8" fill-opacity=".501961" cx="31" cy="41" rx="54" ry="73" /><g transform="translate(250.938250 147.612333) rotate(45.650001) scale(26.594723 60.452265)"><ellipse fill="#000" fill-opacity=".501961" cx="0" cy="0" rx="1" ry="1" /></g><g transform="translate(115 114) rotate(206) scale(69 18)"><path d="M0 0h6e3v4e3H0z" fill="#fff" /></g><g transform="translate(58.123310 157.555092) rotate(269.048778) scale(65.709806 17.779621)"><ellipse fill="#000" fill-opacity=".501961" cx="0" cy="0" rx="1" ry="1" /></g><path d="M0 0h6e3v4e3H0z" fill="#000" /><ellipse fill="#fff" fill-opacity=".501961" cx="242" cy="45" rx="33" ry="70" /></g></svg>