<svg xmlns="http://www.w3.org/2000/svg" viewBox="0 0 6000 4000"><filter id="b"><feGaussianBlur stdDeviation="12" /></filter><path d="M0 0h6e3v4e3H0z" fill="#656565" /><g filter="url(#b)" transform="scale(23.437500) translate(0.5 0.5)"><g transform="translate(188.429998 51.967591) rotate(2.576937) scale(21.945464 76.753582)"><ellipse fill="#fff" fill-opacity=".501961" cx="0" cy="0" rx="1" ry="1" /></g><g transform="translate(255.000000 105.788999) rotate(139.128871) scale(255.000000 29.268293)"><ellipse fill="#000" fill-opacity=".501961" cx="0" cy="0" rx="1" ry="1" /></g><ellipse fill="#000" fill-opacity=".501961" cx="78" cy="102" rx="52" ry="28" /><g transform="translate(108.353521 153.698003) rotate(331.534835) scale(115.296069 23.878003)"><ellipse fill="#cacaca" fill-opacity=".501961" cx="0" cy="0" rx="1" ry="1" /></g><g transform="translate(99.917209 14.202884) rotate(360.575852) scale(120.712615 24.294756)"><ellipse fill="#b8b8b8" fill-opacity=".501961" cx="0" cy="0" rx="1" ry="1" /></g><g transform="translate(57.634384 96.248420) rotate(196.399914) scale(19.370014 57.393609)"><ellipse fill="#000" fill-opacity=".501961" cx="0" cy="0" rx="1" ry="1" /></g><g transform="translate(255 84) rotate(195) scale(74 147)"><path d="M0 0h6e3v4e3H0z" fill="#010101" /></g><path fill="#000" fill-opacity=".501961" d="M118 134 163 12 109 88z" /></g></svg>