<svg xmlns="http://www.w3.org/2000/svg" viewBox="0 0 6000 4000"><filter id="b"><feGaussianBlur stdDeviation="12" /></filter><path d="M0 0h6e3v4e3H0z" fill="#6e6f6d" /><g filter="url(#b)" transform="scale(23.437500) translate(0.5 0.5)"><g transform="translate(56.343621 56.785027) rotate(170.193492) scale(37.343972 104.624638)"><ellipse fill="#f7faff" fill-opacity=".501961" cx="0" cy="0" rx="1" ry="1" /></g><g transform="translate(230.089442 99.220680) rotate(254.119009) scale(43.446589 146.483334)"><ellipse fill="#000" fill-opacity=".501961" cx="0" cy="0" rx="1" ry="1" /></g><g transform="translate(135.453722 9.624672) rotate(149.233913) scale(28.441033 42.943391)"><ellipse fill="ivory" fill-opacity=".501961" cx="0" cy="0" rx="1" ry="1" /></g><g transform="translate(223.850965 146.900556) rotate(161.756032) scale(11.743356 58.873459)"><ellipse fill="#ffb5a8" fill-opacity=".501961" cx="0" cy="0" rx="1" ry="1" /></g><g transform="translate(51.126271 169.000000) rotate(268.865024) scale(9.498747 93.486181)"><ellipse fill="#000" fill-opacity=".501961" cx="0" cy="0" rx="1" ry="1" /></g><path fill="#300300" fill-opacity=".501961" d="M-10 70l26 51 62-21z" /><ellipse fill="#bad6ff" fill-opacity=".501961" cx="49" cy="137" rx="24" ry="24" /><ellipse fill="#020409" fill-opacity=".501961" cx="126" cy="108" rx="30" ry="38" /></g></svg>