<svg xmlns="http://www.w3.org/2000/svg" viewBox="0 0 6000 4000"><filter id="b"><feGaussianBlur stdDeviation="12" /></filter><path d="M0 0h6e3v4e3H0z" fill="#363636" /><g filter="url(#b)" transform="scale(23.437500) translate(0.5 0.5)"><g transform="translate(32.168977 19.808383) rotate(137.413631) scale(18.754609 62.753092)"><ellipse fill="#fff" fill-opacity=".501961" cx="0" cy="0" rx="1" ry="1" /></g><g transform="translate(123.834400 48.762192) rotate(199.844208) scale(40.092459 20.239551)"><ellipse fill="#dbdbdb" fill-opacity=".501961" cx="0" cy="0" rx="1" ry="1" /></g><g transform="translate(82 138) rotate(9) scale(201 113)"><path d="M0 0h6e3v4e3H0z" fill="#000" /></g><g transform="translate(197.750796 134.422181) rotate(88.013062) scale(22.845394 11.768005)"><ellipse fill="#e7e7e7" fill-opacity=".501961" cx="0" cy="0" rx="1" ry="1" /></g><g transform="translate(195.556529 3.048080) rotate(180.073447) scale(143.094544 27.766665)"><ellipse fill="#000" fill-opacity=".501961" cx="0" cy="0" rx="1" ry="1" /></g><g transform="translate(234.773660 69.303819) rotate(114.459011) scale(18.990211 80.791414)"><ellipse fill="#8c8c8c" fill-opacity=".501961" cx="0" cy="0" rx="1" ry="1" /></g><path fill="#fff" fill-opacity=".501961" d="M110 23l42 66-19-66z" /><g transform="translate(255 92) rotate(141) scale(15 30)"><path d="M0 0h6e3v4e3H0z" fill="#fff" /></g></g></svg>