<svg xmlns="http://www.w3.org/2000/svg" viewBox="0 0 6000 4000"><filter id="b"><feGaussianBlur stdDeviation="12" /></filter><path d="M0 0h6e3v4e3H0z" fill="#3c3c3c" /><g filter="url(#b)" transform="scale(23.437500) translate(0.5 0.5)"><g transform="translate(59.610640 58.816266) rotate(198.562692) scale(18.747097 37.892087)"><ellipse fill="#fff" fill-opacity=".501961" cx="0" cy="0" rx="1" ry="1" /></g><g transform="translate(110.438190 154.064558) rotate(284.040146) scale(38.792184 115.182149)"><ellipse fill="#000" fill-opacity=".501961" cx="0" cy="0" rx="1" ry="1" /></g><path fill="#fff" fill-opacity=".501961" d="M120 67 55 68 39-16z" /><ellipse fill="#bdbdbd" fill-opacity=".501961" cx="123" cy="0" rx="57" ry="20" /><path fill="#fff" fill-opacity=".501961" d="M271 125l-66-22 63 46z" /><g transform="translate(177 107) rotate(245) scale(15 27)"><path d="M0 0h6e3v4e3H0z" fill="#fff" /></g><g transform="translate(16.463270 45.971889) rotate(12.128697) scale(29.941047 53.297138)"><ellipse fill="#000" fill-opacity=".501961" cx="0" cy="0" rx="1" ry="1" /></g><path fill="#fff" fill-opacity=".501961" d="M47 70 24 122 13 111z" /></g></svg>