<svg xmlns="http://www.w3.org/2000/svg" viewBox="0 0 6000 4000"><filter id="b"><feGaussianBlur stdDeviation="12" /></filter><path d="M0 0h6e3v4e3H0z" fill="#535353" /><g filter="url(#b)" transform="scale(23.437500) translate(0.5 0.5)"><ellipse fill="#ededed" fill-opacity=".501961" cx="141" cy="31" rx="96" ry="38" /><ellipse fill="#000" fill-opacity=".501961" cx="113" cy="141" rx="255" ry="48" /><path fill="#dedede" fill-opacity=".501961" d="M193-16 164 96h54z" /><g transform="translate(160 60) rotate(210) scale(18 49)"><path d="M0 0h6e3v4e3H0z" fill="#000" /></g><g transform="translate(243.996519 82.385897) rotate(78.394364) scale(58.115524 25.756618)"><ellipse fill="#040404" fill-opacity=".501961" cx="0" cy="0" rx="1" ry="1" /></g><g transform="translate(184.734290 151.356758) rotate(403.107135) scale(22.703920 37.312399)"><ellipse fill="#818181" fill-opacity=".501961" cx="0" cy="0" rx="1" ry="1" /></g><g transform="translate(60.000768 151.525364) rotate(214.354754) scale(159.644141 48.368462)"><ellipse fill="#010101" fill-opacity=".501961" cx="0" cy="0" rx="1" ry="1" /></g><g transform="translate(72.795969 43.651085) rotate(331.620554) scale(38.819219 45.084160)"><ellipse fill="#888" fill-opacity=".501961" cx="0" cy="0" rx="1" ry="1" /></g></g></svg>