<svg xmlns="http://www.w3.org/2000/svg" viewBox="0 0 6000 4000"><filter id="b"><feGaussianBlur stdDeviation="12" /></filter><path d="M0 0h6e3v4e3H0z" fill="#404040" /><g filter="url(#b)" transform="scale(23.437500) translate(0.5 0.5)"><ellipse fill="#dfdfdf" fill-opacity=".501961" cx="59" cy="169" rx="67" ry="67" /><ellipse fill="#000" fill-opacity=".501961" cx="117" cy="14" rx="191" ry="46" /><g transform="translate(135.129367 101.143032) rotate(124.609731) scale(17.808319 28.437552)"><ellipse fill="#efefef" fill-opacity=".501961" cx="0" cy="0" rx="1" ry="1" /></g><g transform="translate(64.825556 87.756080) rotate(24.227317) scale(21.885166 33.131587)"><ellipse fill="#b4b4b4" fill-opacity=".501961" cx="0" cy="0" rx="1" ry="1" /></g><path fill="#efefef" fill-opacity=".501961" d="M215.96261 107.440268 198.087469 62.541891 166.937225 59.842881 160.478221 61.694593z" /><g transform="translate(21.171296 167.218693) rotate(348.484139) scale(81.994912 6.819950)"><ellipse fill="#000" fill-opacity=".501961" cx="0" cy="0" rx="1" ry="1" /></g><ellipse fill="#fff" fill-opacity=".501961" cx="49" cy="146" rx="70" ry="6" /><g transform="translate(224 169) rotate(26) scale(60 32)"><path d="M0 0h6e3v4e3H0z" fill="#d5d5d5" /></g></g></svg>