<svg xmlns="http://www.w3.org/2000/svg" viewBox="0 0 6000 4000"><filter id="b"><feGaussianBlur stdDeviation="12" /></filter><path d="M0 0h6e3v4e3H0z" fill="#656565" /><g filter="url(#b)" transform="scale(23.437500) translate(0.5 0.5)"><ellipse fill="#fff" fill-opacity=".501961" cx="187" cy="31" rx="22" ry="97" /><g transform="translate(216.304003 145.553968) rotate(136.876901) scale(173.985011 33.457959)"><ellipse fill="#000" fill-opacity=".501961" cx="0" cy="0" rx="1" ry="1" /></g><g transform="translate(63.364449 93.883201) rotate(96.866431) scale(55.027321 26.992294)"><ellipse fill="#000" fill-opacity=".501961" cx="0" cy="0" rx="1" ry="1" /></g><g transform="translate(99.244268 160.463057) rotate(59.147598) scale(26.014920 106.803856)"><ellipse fill="#cdcdcd" fill-opacity=".501961" cx="0" cy="0" rx="1" ry="1" /></g><g transform="translate(73.574695 14.369854) rotate(93.120142) scale(24.299301 77.053625)"><ellipse fill="#bababa" fill-opacity=".501961" cx="0" cy="0" rx="1" ry="1" /></g><g transform="translate(114 94) rotate(336) scale(101 47)"><path d="M0 0h6e3v4e3H0z" fill="#030303" /></g><path d="M0 0h6e3v4e3H0z" fill="#030303" /><path fill="#a1a1a1" fill-opacity=".501961" d="M77 14l14 97 65-98z" /></g></svg>