<svg xmlns="http://www.w3.org/2000/svg" viewBox="0 0 6000 4000"><filter id="b"><feGaussianBlur stdDeviation="12" /></filter><path d="M0 0h6e3v4e3H0z" fill="#434343" /><g filter="url(#b)" transform="scale(23.437500) translate(0.5 0.5)"><ellipse fill="#e2e2e2" fill-opacity=".501961" cx="165" cy="113" rx="73" ry="28" /><g transform="translate(239.275459 65.957952) rotate(384.385732) scale(28.957952 44.489717)"><ellipse fill="#fefefe" fill-opacity=".501961" cx="0" cy="0" rx="1" ry="1" /></g><g transform="translate(72.815226 137.385809) rotate(355.633475) scale(142.109862 11.064471)"><ellipse fill="#fff" fill-opacity=".501961" cx="0" cy="0" rx="1" ry="1" /></g><g transform="translate(63.888908 26.920174) rotate(80.373587) scale(51.377894 152.725247)"><ellipse fill="#000" fill-opacity=".501961" cx="0" cy="0" rx="1" ry="1" /></g><g transform="translate(124.382752 166.059741) rotate(264.246065) scale(22.363287 192.256411)"><ellipse fill="#000" fill-opacity=".501961" cx="0" cy="0" rx="1" ry="1" /></g><path d="M0 0h6e3v4e3H0z" fill="#000" /><path fill="#ececec" fill-opacity=".501961" d="M161 133 118 38l8 106z" /><path fill="#101010" fill-opacity=".501961" d="M40 158 80 68l26 39z" /></g></svg>