<svg xmlns="http://www.w3.org/2000/svg" viewBox="0 0 6000 4000"><filter id="b"><feGaussianBlur stdDeviation="12" /></filter><path d="M0 0h6e3v4e3H0z" fill="#363636" /><g filter="url(#b)" transform="scale(23.437500) translate(0.5 0.5)"><g transform="translate(33.023221 20.737644) rotate(224.689977) scale(57.679784 19.594621)"><ellipse fill="#fff" fill-opacity=".501961" cx="0" cy="0" rx="1" ry="1" /></g><g transform="translate(126.736064 49.854423) rotate(115.507824) scale(21.900296 34.676252)"><ellipse fill="#e1e1e1" fill-opacity=".501961" cx="0" cy="0" rx="1" ry="1" /></g><g transform="translate(86.995404 143.305573) rotate(85.968399) scale(65.601180 99.743795)"><ellipse fill="#000" fill-opacity=".501961" cx="0" cy="0" rx="1" ry="1" /></g><ellipse fill="#000" fill-opacity=".501961" cx="180" cy="10" rx="125" ry="20" /><path d="M0 0h6e3v4e3H0z" fill="#f7f7f7" /><g transform="translate(225.643018 68.582696) rotate(219.619686) scale(44.894684 19.353565)"><ellipse fill="#9d9d9d" fill-opacity=".501961" cx="0" cy="0" rx="1" ry="1" /></g><path fill="#fff" fill-opacity=".501961" d="M95.599718 17.159813 136.77358 30.337022 142.733682 53.825534 142.600535 60.506881z" /><path d="M0 0h6e3v4e3H0z" fill="#a0a0a0" /></g></svg>