<svg xmlns="http://www.w3.org/2000/svg" viewBox="0 0 6000 4000"><filter id="b"><feGaussianBlur stdDeviation="12" /></filter><path d="M0 0h6e3v4e3H0z" fill="#272727" /><g filter="url(#b)" transform="scale(23.437500) translate(0.5 0.5)"><g transform="translate(147.362455 141.754967) rotate(105.178905) scale(19.937386 50.101088)"><ellipse fill="#fff" fill-opacity=".501961" cx="0" cy="0" rx="1" ry="1" /></g><g transform="translate(214 3) rotate(84) scale(23 57)"><path d="M0 0h6e3v4e3H0z" fill="#fff" /></g><g transform="translate(50.610847 20.954396) rotate(260.021468) scale(10.332172 23.019378)"><ellipse fill="#fff" fill-opacity=".501961" cx="0" cy="0" rx="1" ry="1" /></g><path fill="#fff" fill-opacity=".501961" d="M191 127l-3 45-57-51z" /><path d="M0 0h6e3v4e3H0z" fill="#acacac" /><ellipse fill="#000" fill-opacity=".501961" cx="48" cy="123" rx="55" ry="94" /><g transform="translate(237.283376 111.433312) rotate(106.048392) scale(102.689296 38.105275)"><ellipse fill="#000" fill-opacity=".501961" cx="0" cy="0" rx="1" ry="1" /></g><path d="M0 0h6e3v4e3H0z" fill="#fff" /></g></svg>