<svg xmlns="http://www.w3.org/2000/svg" viewBox="0 0 6000 4000"><filter id="b"><feGaussianBlur stdDeviation="12" /></filter><path d="M0 0h6e3v4e3H0z" fill="#202020" /><g filter="url(#b)" transform="scale(23.437500) translate(0.5 0.5)"><g transform="translate(53.081120 15.330599) rotate(226.475105) scale(35.300946 69.925151)"><ellipse fill="#848484" fill-opacity=".501961" cx="0" cy="0" rx="1" ry="1" /></g><g transform="translate(124.960734 73.663825) rotate(256.642288) scale(13.261656 18.848864)"><ellipse fill="#fbfbfb" fill-opacity=".501961" cx="0" cy="0" rx="1" ry="1" /></g><g transform="translate(171.159927 148.531076) rotate(454.866360) scale(51.001794 255.000000)"><ellipse fill="#000" fill-opacity=".501961" cx="0" cy="0" rx="1" ry="1" /></g><path fill="#898989" fill-opacity=".501961" d="M150.815195 109.051586 89.237425 76.535901 117.00106 16.475457 78.4911 19.678716z" /><ellipse fill="#000" fill-opacity=".501961" cx="219" cy="125" rx="57" ry="57" /><path fill="#929292" fill-opacity=".501961" d="M177.156701 92.569033 144.619213 99.72295 97.222105 106.620463 164.333005 83.760225z" /><path fill="#000" fill-opacity=".501961" d="M-16 169 119 94 73 32z" /><path fill="#333" fill-opacity=".501961" d="M120 67 266 24 87-16z" /></g></svg>