<svg xmlns="http://www.w3.org/2000/svg" viewBox="0 0 6000 4000"><filter id="b"><feGaussianBlur stdDeviation="12" /></filter><path d="M0 0h6e3v4e3H0z" fill="#3e3e3e" /><g filter="url(#b)" transform="scale(23.437500) translate(0.5 0.5)"><g transform="translate(152.858043 154.577016) rotate(275.028703) scale(15.777267 203.687433)"><ellipse fill="#fff" fill-opacity=".501961" cx="0" cy="0" rx="1" ry="1" /></g><g transform="translate(129.308293 32.915268) rotate(262.327749) scale(61.238914 234.655633)"><ellipse fill="#000" fill-opacity=".501961" cx="0" cy="0" rx="1" ry="1" /></g><path fill="#fff" fill-opacity=".501961" d="M47 65l78-3L94 47z" /><g transform="translate(238.906438 118.505336) rotate(329.329898) scale(20.405894 35.552248)"><ellipse fill="#d6d6d6" fill-opacity=".501961" cx="0" cy="0" rx="1" ry="1" /></g><g transform="translate(170.354325 158.584549) rotate(193.576060) scale(63.506688 20.025909)"><ellipse fill="#fff" fill-opacity=".501961" cx="0" cy="0" rx="1" ry="1" /></g><path fill="#fff" fill-opacity=".501961" d="M145 132l3-46 29-5z" /><ellipse fill="#000" fill-opacity=".501961" cx="230" cy="35" rx="54" ry="54" /><g transform="translate(201.101898 126.540268) rotate(280.607152) scale(20.534175 36.624130)"><ellipse fill="#080808" fill-opacity=".501961" cx="0" cy="0" rx="1" ry="1" /></g></g></svg>