<svg xmlns="http://www.w3.org/2000/svg" viewBox="0 0 6000 4000"><filter id="b"><feGaussianBlur stdDeviation="12" /></filter><path d="M0 0h6e3v4e3H0z" fill="#292929" /><g filter="url(#b)" transform="scale(23.437500) translate(0.5 0.5)"><g transform="translate(116.858291 134.485954) rotate(333.241426) scale(96.018926 25.041041)"><ellipse fill="#d8d8d8" fill-opacity=".501961" cx="0" cy="0" rx="1" ry="1" /></g><g transform="translate(144 46) rotate(222) scale(55 32)"><path d="M0 0h6e3v4e3H0z" fill="#dfdfdf" /></g><g transform="translate(98.393487 146.976283) rotate(164.575450) scale(13.537070 42.762616)"><ellipse fill="#fff" fill-opacity=".501961" cx="0" cy="0" rx="1" ry="1" /></g><path fill="#000" fill-opacity=".501961" d="M108.84916 185 113.265641 121.857741 171.9251 167.430728 119.205014 165.221562z" /><path d="M0 0h6e3v4e3H0z" fill="#fff" /><path fill="#000" fill-opacity=".501961" d="M183 123-16 67 129 44z" /><g transform="translate(237.809996 118.491448) rotate(189.601203) scale(40.914145 86.617829)"><ellipse fill="#000" fill-opacity=".501961" cx="0" cy="0" rx="1" ry="1" /></g><path d="M0 0h6e3v4e3H0z" fill="#fff" /></g></svg>