<svg xmlns="http://www.w3.org/2000/svg" viewBox="0 0 6000 4000"><filter id="b"><feGaussianBlur stdDeviation="12" /></filter><path d="M0 0h6e3v4e3H0z" fill="#2e2e2e" /><g filter="url(#b)" transform="scale(23.437500) translate(0.5 0.5)"><g transform="translate(214.578272 25.424942) rotate(185.546967) scale(86.133739 31.773891)"><ellipse fill="#fff" fill-opacity=".501961" cx="0" cy="0" rx="1" ry="1" /></g><g transform="translate(205.589043 44.400761) rotate(386.586218) scale(22.430228 29.875495)"><ellipse fill="#000" fill-opacity=".501961" cx="0" cy="0" rx="1" ry="1" /></g><g transform="translate(177.118263 0.000000) rotate(281.234731) scale(64.647212 19.184556)"><ellipse fill="#fff" fill-opacity=".501961" cx="0" cy="0" rx="1" ry="1" /></g><g transform="translate(243.197153 14.377145) rotate(123.758757) scale(19.084664 133.541227)"><ellipse fill="#fff" fill-opacity=".501961" cx="0" cy="0" rx="1" ry="1" /></g><g transform="translate(100.893206 134.400880) rotate(122.125769) scale(87.716571 255.000000)"><ellipse fill="#000" fill-opacity=".501961" cx="0" cy="0" rx="1" ry="1" /></g><g transform="translate(241 81) rotate(6) scale(81 51)"><path d="M0 0h6e3v4e3H0z" fill="gray" /></g><path fill="#7f7f7f" fill-opacity=".501961" d="M144 95 99 40l-9 72z" /><g transform="translate(187.880444 0.000000) rotate(203.883320) scale(17.520900 63.506422)"><ellipse fill="#fff" fill-opacity=".501961" cx="0" cy="0" rx="1" ry="1" /></g></g></svg>