<svg xmlns="http://www.w3.org/2000/svg" viewBox="0 0 6000 4000"><filter id="b"><feGaussianBlur stdDeviation="12" /></filter><path d="M0 0h6e3v4e3H0z" fill="#323232" /><g filter="url(#b)" transform="scale(23.437500) translate(0.5 0.5)"><g transform="translate(128.626728 27.001500) rotate(42.434486) scale(32.416459 45.098063)"><ellipse fill="#fff" fill-opacity=".501961" cx="0" cy="0" rx="1" ry="1" /></g><g transform="translate(130.915107 112.696920) rotate(195.140046) scale(10.727346 33.603323)"><ellipse fill="#fff" fill-opacity=".501961" cx="0" cy="0" rx="1" ry="1" /></g><g transform="translate(133.890270 22.132962) rotate(285.760780) scale(41.738872 22.468620)"><ellipse fill="#fff" fill-opacity=".501961" cx="0" cy="0" rx="1" ry="1" /></g><ellipse fill="#000" fill-opacity=".501961" cx="224" cy="88" rx="75" ry="89" /><g transform="translate(58.959731 12.791243) rotate(71.374371) scale(30.874702 21.672684)"><ellipse fill="#cdcdcd" fill-opacity=".501961" cx="0" cy="0" rx="1" ry="1" /></g><path fill="#fff" fill-opacity=".501961" d="M96.253322 129.910696 106.712724 121.950153 73.91021 82.515143 102.412738 70.24896z" /><g transform="translate(16.700044 61.282506) rotate(184.270048) scale(22.798438 61.363711)"><ellipse fill="#000" fill-opacity=".501961" cx="0" cy="0" rx="1" ry="1" /></g><g transform="translate(232.119849 92.065227) rotate(118.626689) scale(236.236644 58.334328)"><ellipse fill="#000" fill-opacity=".501961" cx="0" cy="0" rx="1" ry="1" /></g></g></svg>