<svg xmlns="http://www.w3.org/2000/svg" viewBox="0 0 6000 4000"><filter id="b"><feGaussianBlur stdDeviation="12" /></filter><path d="M0 0h6e3v4e3H0z" fill="#4b4b4b" /><g filter="url(#b)" transform="scale(23.437500) translate(0.5 0.5)"><g transform="translate(46.151684 0.000000) rotate(107.928904) scale(57.262028 51.952524)"><ellipse fill="#fff" fill-opacity=".501961" cx="0" cy="0" rx="1" ry="1" /></g><g transform="translate(181.881280 133.895359) rotate(269.927923) scale(19.747506 31.240153)"><ellipse fill="#fff" fill-opacity=".501961" cx="0" cy="0" rx="1" ry="1" /></g><ellipse fill="#000" fill-opacity=".501961" cx="234" cy="55" rx="76" ry="76" /><path fill="#dadada" fill-opacity=".501961" d="M138-12 90 103l82-90z" /><ellipse fill="#020202" fill-opacity=".501961" cx="37" cy="134" rx="103" ry="41" /><path d="M0 0h6e3v4e3H0z" fill="#fff" /><path fill="#b4b4b4" fill-opacity=".501961" d="M115.704738 97.554322 114.513676 130.516539 87.505098 52.823294 42.94704 80.702727z" /><path fill="#dedede" fill-opacity=".501961" d="M225 120l46 58-76-47z" /></g></svg>