<svg xmlns="http://www.w3.org/2000/svg" viewBox="0 0 6000 4000"><filter id="b"><feGaussianBlur stdDeviation="12" /></filter><path d="M0 0h6e3v4e3H0z" fill="#3c3c3c" /><g filter="url(#b)" transform="scale(23.437500) translate(0.5 0.5)"><g transform="translate(63.020576 28.760987) rotate(182.687017) scale(18.009450 64.568705)"><ellipse fill="#fff" fill-opacity=".501961" cx="0" cy="0" rx="1" ry="1" /></g><path fill="#fff" fill-opacity=".501961" d="M124 65 64 17 34 79z" /><g transform="translate(112.880830 157.959497) rotate(465.684619) scale(43.555686 115.430226)"><ellipse fill="#000" fill-opacity=".501961" cx="0" cy="0" rx="1" ry="1" /></g><path fill="#f2f2f2" fill-opacity=".501961" d="M196.545741 79.364751 162.29272 108.666777 143.129175 121.605771 187.524186 112.520824z" /><ellipse fill="#aaa" fill-opacity=".501961" cx="108" cy="7" rx="68" ry="12" /><path fill="#c5c5c5" fill-opacity=".501961" d="M204 102l67 50-15-58z" /><g transform="translate(13.688631 39.137332) rotate(185.692907) scale(33.800481 49.743373)"><ellipse fill="#000" fill-opacity=".501961" cx="0" cy="0" rx="1" ry="1" /></g><path fill="#000" fill-opacity=".501961" d="M55.863079-6.14161l89.491847 61.089244L48.071208 28.059597 79.05775 36.090006z" /></g></svg>