<svg xmlns="http://www.w3.org/2000/svg" viewBox="0 0 6000 4000"><filter id="b"><feGaussianBlur stdDeviation="12" /></filter><path d="M0 0h6e3v4e3H0z" fill="#292929" /><g filter="url(#b)" transform="scale(23.437500) translate(0.5 0.5)"><g transform="translate(25.894026 144.011715) rotate(200.449162) scale(38.618362 60.104188)"><ellipse fill="#ccc" fill-opacity=".501961" cx="0" cy="0" rx="1" ry="1" /></g><g transform="translate(224.285501 144.391315) rotate(282.695546) scale(10.313035 52.744497)"><ellipse fill="#cecece" fill-opacity=".501961" cx="0" cy="0" rx="1" ry="1" /></g><g transform="translate(144.231555 11.199023) rotate(353.841022) scale(224.164644 46.054492)"><ellipse fill="#000" fill-opacity=".501961" cx="0" cy="0" rx="1" ry="1" /></g><g transform="translate(153.821301 110.321296) rotate(54.284279) scale(29.060033 37.233868)"><ellipse fill="#000" fill-opacity=".501961" cx="0" cy="0" rx="1" ry="1" /></g><path d="M0 0h6e3v4e3H0z" fill="#c7c7c7" /><path d="M0 0h6e3v4e3H0z" fill="#555" /><g transform="translate(92.138508 105.204035) rotate(277.448380) scale(134.229027 19.278672)"><ellipse fill="#000" fill-opacity=".501961" cx="0" cy="0" rx="1" ry="1" /></g><path d="M0 0h6e3v4e3H0z" fill="#969696" /></g></svg>