<svg xmlns="http://www.w3.org/2000/svg" viewBox="0 0 6000 4000"><filter id="b"><feGaussianBlur stdDeviation="12" /></filter><path d="M0 0h6e3v4e3H0z" fill="#878787" /><g filter="url(#b)" transform="scale(23.437500) translate(0.5 0.5)"><g transform="translate(251.725198 36.204149) rotate(203.632560) scale(35.568582 115.572606)"><ellipse fill="#fff" fill-opacity=".501961" cx="0" cy="0" rx="1" ry="1" /></g><ellipse fill="#020202" fill-opacity=".501961" cx="131" cy="86" rx="30" ry="140" /><ellipse fill="#eaeaea" fill-opacity=".501961" cx="22" cy="42" rx="65" ry="65" /><g transform="translate(255.000000 142.025928) rotate(44.606981) scale(23.452795 77.292883)"><ellipse fill="#000" fill-opacity=".501961" cx="0" cy="0" rx="1" ry="1" /></g><g transform="translate(105.891835 109.655051) rotate(207.788956) scale(55.082954 10.238561)"><ellipse fill="#fff" fill-opacity=".501961" cx="0" cy="0" rx="1" ry="1" /></g><ellipse fill="#000" fill-opacity=".501961" cx="56" cy="169" rx="18" ry="76" /><path d="M0 0h6e3v4e3H0z" fill="#000" /><g transform="translate(233.647119 52.590324) rotate(98.664554) scale(77.213058 28.175546)"><ellipse fill="#fff" fill-opacity=".501961" cx="0" cy="0" rx="1" ry="1" /></g></g></svg>