<svg xmlns="http://www.w3.org/2000/svg" viewBox="0 0 6000 4000"><filter id="b"><feGaussianBlur stdDeviation="12" /></filter><path d="M0 0h6e3v4e3H0z" fill="#2a2a2a" /><g filter="url(#b)" transform="scale(23.437500) translate(0.5 0.5)"><g transform="translate(9.222968 79.112859) rotate(344.052550) scale(73.136953 25.342311)"><ellipse fill="#f4f4f4" fill-opacity=".501961" cx="0" cy="0" rx="1" ry="1" /></g><g transform="translate(170.862378 127.738672) rotate(-2.235234) scale(55.721676 19.536084)"><ellipse fill="#f1f1f1" fill-opacity=".501961" cx="0" cy="0" rx="1" ry="1" /></g><path fill="#fff" fill-opacity=".501961" d="M104.134086 56.253678 145.677861 67.22711 120.871265 112.328915 115.143596 59.14356z" /><g transform="translate(180.456455 31.814130) rotate(210.419278) scale(214.165636 55.913431)"><ellipse fill="#000" fill-opacity=".501961" cx="0" cy="0" rx="1" ry="1" /></g><path fill="#fff" fill-opacity=".501961" d="M43.071992 119.352559 68.25733 117.058405 58.757628 36.559289 74.986124 61.878294z" /><ellipse fill="#000" fill-opacity=".501961" cx="43" cy="84" rx="7" ry="166" /><ellipse fill="#000" fill-opacity=".501961" cx="90" cy="97" rx="19" ry="169" /><path fill="#fff" fill-opacity=".501961" d="M152.969285 108.512216 117.684704 133.873176 123.047094 142.107807 88.656011 136.559062z" /></g></svg>