<svg xmlns="http://www.w3.org/2000/svg" viewBox="0 0 6000 4000"><filter id="b"><feGaussianBlur stdDeviation="12" /></filter><path d="M0 0h6e3v4e3H0z" fill="#252525" /><g filter="url(#b)" transform="scale(23.437500) translate(0.5 0.5)"><g transform="translate(143.695911 9.424900) rotate(238.110489) scale(62.637405 40.707363)"><ellipse fill="#fff" fill-opacity=".501961" cx="0" cy="0" rx="1" ry="1" /></g><g transform="translate(154.870514 4.201472) rotate(254.972391) scale(79.876676 22.590642)"><ellipse fill="#fff" fill-opacity=".501961" cx="0" cy="0" rx="1" ry="1" /></g><ellipse fill="#fff" fill-opacity=".501961" cx="154" cy="12" rx="36" ry="31" /><ellipse fill="#000" fill-opacity=".501961" cx="81" cy="129" rx="190" ry="80" /><path fill="#f4f4f4" fill-opacity=".501961" d="M194.246778-16 154.710033 45.424143 156.087162 98.284006 180.937139 65.374437z" /><ellipse fill="#000" fill-opacity=".501961" cx="225" cy="64" rx="42" ry="101" /><g transform="translate(108.503756 30.585507) rotate(259.324608) scale(26.304829 20.607199)"><ellipse fill="#949494" fill-opacity=".501961" cx="0" cy="0" rx="1" ry="1" /></g><path fill="#000" fill-opacity=".501961" d="M147.774424 137.435666 147.741043 36.144159 119.925427 52.908725-16 98.930758z" /></g></svg>