<svg xmlns="http://www.w3.org/2000/svg" viewBox="0 0 6000 4000"><filter id="b"><feGaussianBlur stdDeviation="12" /></filter><path d="M0 0h6e3v4e3H0z" fill="#6e6f6d" /><g filter="url(#b)" transform="scale(23.437500) translate(0.5 0.5)"><ellipse fill="#f3f3ff" fill-opacity=".501961" cx="60" cy="50" rx="41" ry="111" /><path fill="#000" fill-opacity=".501961" d="M253 40l1 97L13 185z" /><g transform="translate(136.413338 0.000000) rotate(165.008636) scale(34.130603 51.603200)"><ellipse fill="#ffffe9" fill-opacity=".501961" cx="0" cy="0" rx="1" ry="1" /></g><ellipse fill="#000" fill-opacity=".501961" cx="126" cy="112" rx="30" ry="42" /><path fill="#2f0300" fill-opacity=".501961" d="M11 119-4 68l83 34z" /><g transform="translate(214.602137 129.866026) rotate(156.126308) scale(13.801734 65.579144)"><ellipse fill="#cc9a9a" fill-opacity=".501961" cx="0" cy="0" rx="1" ry="1" /></g><path fill="#edfbf4" fill-opacity=".501961" d="M62-16-9-1 90 96z" /><g transform="translate(12.921811 169.000000) rotate(366.549365) scale(12.792150 62.475897)"><ellipse fill="#000" fill-opacity=".501961" cx="0" cy="0" rx="1" ry="1" /></g></g></svg>