<svg xmlns="http://www.w3.org/2000/svg" viewBox="0 0 6000 4000"><filter id="b"><feGaussianBlur stdDeviation="12" /></filter><path d="M0 0h6e3v4e3H0z" fill="#434343" /><g filter="url(#b)" transform="scale(23.437500) translate(0.5 0.5)"><g transform="translate(228.589199 77.088962) rotate(33.084686) scale(26.401036 71.730604)"><ellipse fill="#f1f1f1" fill-opacity=".501961" cx="0" cy="0" rx="1" ry="1" /></g><ellipse fill="#fff" fill-opacity=".501961" cx="132" cy="129" rx="64" ry="16" /><ellipse fill="#f2f2f2" fill-opacity=".501961" cx="123" cy="106" rx="22" ry="38" /><g transform="translate(76.772751 23.270155) rotate(-9.248016) scale(147.994328 52.086492)"><ellipse fill="#000" fill-opacity=".501961" cx="0" cy="0" rx="1" ry="1" /></g><ellipse fill="#000" fill-opacity=".501961" cx="221" cy="169" rx="221" ry="29" /><path fill="#fff" fill-opacity=".501961" d="M-16 156 9 126l104 18z" /><g transform="translate(201 130) rotate(265) scale(9 132)"><path d="M0 0h6e3v4e3H0z" fill="#fff" /></g><ellipse fill="#020202" fill-opacity=".501961" cx="78" cy="107" rx="24" ry="25" /></g></svg>