<svg xmlns="http://www.w3.org/2000/svg" viewBox="0 0 6000 4000"><filter id="b"><feGaussianBlur stdDeviation="12" /></filter><path d="M0 0h6e3v4e3H0z" fill="#535353" /><g filter="url(#b)" transform="scale(23.437500) translate(0.5 0.5)"><g transform="translate(143 26) rotate(200) scale(163 86)"><path d="M0 0h6e3v4e3H0z" fill="#efefef" /></g><g transform="translate(26.916368 138.950068) rotate(268.037044) scale(55.952002 142.424723)"><ellipse fill="#000" fill-opacity=".501961" cx="0" cy="0" rx="1" ry="1" /></g><g transform="translate(246.324081 97.921104) rotate(104.615904) scale(69.108759 32.782741)"><ellipse fill="#000" fill-opacity=".501961" cx="0" cy="0" rx="1" ry="1" /></g><g transform="translate(151.955772 83.268201) rotate(381.401038) scale(12.480674 53.610680)"><ellipse fill="#000" fill-opacity=".501961" cx="0" cy="0" rx="1" ry="1" /></g><g transform="translate(84.948299 54.060628) rotate(42.553005) scale(67.140876 30.858799)"><ellipse fill="#8c8c8c" fill-opacity=".501961" cx="0" cy="0" rx="1" ry="1" /></g><ellipse fill="#000" fill-opacity=".501961" cx="19" cy="169" rx="136" ry="58" /><ellipse fill="#000" fill-opacity=".501961" cx="151" cy="75" rx="16" ry="16" /><g transform="translate(165 23) rotate(271) scale(28 108)"><path d="M0 0h6e3v4e3H0z" fill="#d8d8d8" /></g></g></svg>