<svg xmlns="http://www.w3.org/2000/svg" viewBox="0 0 6000 4000"><filter id="b"><feGaussianBlur stdDeviation="12" /></filter><path d="M0 0h6e3v4e3H0z" fill="#656565" /><g filter="url(#b)" transform="scale(23.437500) translate(0.5 0.5)"><ellipse fill="#fff" fill-opacity=".501961" cx="187" cy="4" rx="23" ry="125" /><g transform="translate(231.452332 131.198161) rotate(137.898533) scale(125.735507 34.328634)"><ellipse fill="#000" fill-opacity=".501961" cx="0" cy="0" rx="1" ry="1" /></g><g transform="translate(78.715810 101.185863) rotate(-1.076280) scale(52.108771 29.879086)"><ellipse fill="#000" fill-opacity=".501961" cx="0" cy="0" rx="1" ry="1" /></g><g transform="translate(113.026371 149.149870) rotate(64.859479) scale(21.014151 106.935799)"><ellipse fill="#cdcdcd" fill-opacity=".501961" cx="0" cy="0" rx="1" ry="1" /></g><ellipse fill="#c6c6c6" fill-opacity=".501961" cx="94" cy="14" rx="54" ry="26" /><g transform="translate(255.000000 88.387128) rotate(29.662122) scale(41.990202 71.816892)"><ellipse fill="#000" fill-opacity=".501961" cx="0" cy="0" rx="1" ry="1" /></g><g transform="translate(60.785532 92.119993) rotate(102.055891) scale(57.748437 20.817602)"><ellipse fill="#000" fill-opacity=".501961" cx="0" cy="0" rx="1" ry="1" /></g><g transform="translate(128.492064 78.844936) rotate(300.105605) scale(49.429758 10.982682)"><ellipse fill="#000" fill-opacity=".501961" cx="0" cy="0" rx="1" ry="1" /></g></g></svg>