<svg xmlns="http://www.w3.org/2000/svg" viewBox="0 0 6000 4000"><filter id="b"><feGaussianBlur stdDeviation="12" /></filter><path d="M0 0h6e3v4e3H0z" fill="#363636" /><g filter="url(#b)" transform="scale(23.437500) translate(0.5 0.5)"><g transform="translate(79.897791 38.446519) rotate(108.842206) scale(22.249036 86.596407)"><ellipse fill="#cfcfcf" fill-opacity=".501961" cx="0" cy="0" rx="1" ry="1" /></g><ellipse fill="#000" fill-opacity=".501961" cx="101" cy="150" rx="87" ry="87" /><path fill="#000" fill-opacity=".501961" d="M42-16h99L80 58z" /><path d="M0 0h6e3v4e3H0z" fill="#e4e4e4" /><g transform="translate(131 42) rotate(-22) scale(18 34)"><path d="M0 0h6e3v4e3H0z" fill="#fff" /></g><g transform="translate(226.404586 68.258720) rotate(217.350412) scale(46.585408 20.819933)"><ellipse fill="#979797" fill-opacity=".501961" cx="0" cy="0" rx="1" ry="1" /></g><path fill="#d3d3d3" fill-opacity=".501961" d="M54 86 4-16 81 36z" /><g transform="translate(211.267562 10.713491) rotate(89.744454) scale(25.863752 101.709267)"><ellipse fill="#000" fill-opacity=".501961" cx="0" cy="0" rx="1" ry="1" /></g></g></svg>