<svg xmlns="http://www.w3.org/2000/svg" viewBox="0 0 6000 4000"><filter id="b"><feGaussianBlur stdDeviation="12" /></filter><path d="M0 0h6e3v4e3H0z" fill="#4b4b4b" /><g filter="url(#b)" transform="scale(23.437500) translate(0.5 0.5)"><g transform="translate(50.238732 5.282236) rotate(129.770956) scale(56.316254 45.631036)"><ellipse fill="#fff" fill-opacity=".501961" cx="0" cy="0" rx="1" ry="1" /></g><ellipse fill="#000" fill-opacity=".501961" cx="225" cy="51" rx="69" ry="69" /><g transform="translate(186.244265 134.146473) rotate(182.690849) scale(38.368749 18.533718)"><ellipse fill="#fff" fill-opacity=".501961" cx="0" cy="0" rx="1" ry="1" /></g><g transform="translate(132 0) rotate(207) scale(69 44)"><path d="M0 0h6e3v4e3H0z" fill="#fff" /></g><g transform="translate(33.854736 137.815626) rotate(176.952628) scale(106.657269 41.320621)"><ellipse fill="#010101" fill-opacity=".501961" cx="0" cy="0" rx="1" ry="1" /></g><g transform="translate(115 58) rotate(230) scale(32 100)"><path d="M0 0h6e3v4e3H0z" fill="#afafaf" /></g><g transform="translate(105.690856 40.162102) rotate(299.749447) scale(31.438730 17.135496)"><ellipse fill="#000" fill-opacity=".501961" cx="0" cy="0" rx="1" ry="1" /></g><ellipse fill="#000" fill-opacity=".501961" cx="235" cy="75" rx="57" ry="57" /></g></svg>