<svg xmlns="http://www.w3.org/2000/svg" viewBox="0 0 6000 4000"><filter id="b"><feGaussianBlur stdDeviation="12" /></filter><path d="M0 0h6e3v4e3H0z" fill="#404040" /><g filter="url(#b)" transform="scale(23.437500) translate(0.5 0.5)"><g transform="translate(59.757510 147.594245) rotate(279.750268) scale(19.390269 74.297098)"><ellipse fill="#fff" fill-opacity=".501961" cx="0" cy="0" rx="1" ry="1" /></g><g transform="translate(133.781788 98.925740) rotate(44.289892) scale(31.184320 16.397611)"><ellipse fill="#ececec" fill-opacity=".501961" cx="0" cy="0" rx="1" ry="1" /></g><g transform="translate(105.010965 16.765887) rotate(271.055091) scale(43.761194 212.744399)"><ellipse fill="#000" fill-opacity=".501961" cx="0" cy="0" rx="1" ry="1" /></g><ellipse fill="#aaa" fill-opacity=".501961" cx="66" cy="123" rx="31" ry="66" /><g transform="translate(80.556867 156.787864) rotate(173.107388) scale(79.015020 5.045990)"><ellipse fill="#000" fill-opacity=".501961" cx="0" cy="0" rx="1" ry="1" /></g><path d="M0 0h6e3v4e3H0z" fill="#fff" /><path fill="#fff" fill-opacity=".501961" d="M-11.214261 159.676181 127.01989 126.935207 128.465362 69.464583 118.251041 148.017189z" /><path fill="#e3e3e3" fill-opacity=".501961" d="M271 173l-64-4-11-30z" /></g></svg>