<svg xmlns="http://www.w3.org/2000/svg" viewBox="0 0 6000 4000"><filter id="b"><feGaussianBlur stdDeviation="12" /></filter><path d="M0 0h6e3v4e3H0z" fill="#2a2a2a" /><g filter="url(#b)" transform="scale(23.437500) translate(0.5 0.5)"><g transform="translate(5.133064 78.717807) rotate(168.254843) scale(72.642369 30.191677)"><ellipse fill="#eaeaea" fill-opacity=".501961" cx="0" cy="0" rx="1" ry="1" /></g><g transform="translate(165.414344 129.249196) rotate(446.369625) scale(19.563729 60.151070)"><ellipse fill="#ededed" fill-opacity=".501961" cx="0" cy="0" rx="1" ry="1" /></g><path fill="#fff" fill-opacity=".501961" d="M121 107l26-39-29-8z" /><path fill="#000" fill-opacity=".501961" d="M265 138-16-14 257-2z" /><path fill="#fff" fill-opacity=".501961" d="M61 123 52 50l20-4z" /><path fill="#000" fill-opacity=".501961" d="M154 128l47 57-217-26z" /><path d="M0 0h6e3v4e3H0z" fill="#000" /><g transform="translate(188.171048 133.569728) rotate(256.538275) scale(27.258844 29.078755)"><ellipse fill="#acacac" fill-opacity=".501961" cx="0" cy="0" rx="1" ry="1" /></g></g></svg>