<svg xmlns="http://www.w3.org/2000/svg" viewBox="0 0 6000 4000"><filter id="b"><feGaussianBlur stdDeviation="12" /></filter><path d="M0 0h6e3v4e3H0z" fill="#3e3e3e" /><g filter="url(#b)" transform="scale(23.437500) translate(0.5 0.5)"><g transform="translate(124.754897 151.219710) rotate(94.979694) scale(16.089616 172.088361)"><ellipse fill="#fff" fill-opacity=".501961" cx="0" cy="0" rx="1" ry="1" /></g><g transform="translate(120.355161 27.324340) rotate(82.707137) scale(67.517862 255.000000)"><ellipse fill="#000" fill-opacity=".501961" cx="0" cy="0" rx="1" ry="1" /></g><g transform="translate(87.766749 60.269315) rotate(84.915619) scale(6.998704 28.520708)"><ellipse fill="#fff" fill-opacity=".501961" cx="0" cy="0" rx="1" ry="1" /></g><path d="M0 0h6e3v4e3H0z" fill="#cdcdcd" /><path fill="#fff" fill-opacity=".501961" d="M158 130 74 160l181 20z" /><path fill="#fff" fill-opacity=".501961" d="M146 84l33 1-34 41z" /><path fill="#040404" fill-opacity=".501961" d="M257 116l-147 5 111 26z" /><ellipse fill="#000" fill-opacity=".501961" cx="220" cy="38" rx="108" ry="46" /></g></svg>