<svg xmlns="http://www.w3.org/2000/svg" viewBox="0 0 6000 4000"><filter id="b"><feGaussianBlur stdDeviation="12" /></filter><path d="M0 0h6e3v4e3H0z" fill="#252525" /><g filter="url(#b)" transform="scale(23.437500) translate(0.5 0.5)"><g transform="translate(149.316996 20.500123) rotate(135.172232) scale(39.602243 51.606139)"><ellipse fill="#fff" fill-opacity=".501961" cx="0" cy="0" rx="1" ry="1" /></g><g transform="translate(151.121170 5.004705) rotate(339.260711) scale(23.087994 75.613672)"><ellipse fill="#fff" fill-opacity=".501961" cx="0" cy="0" rx="1" ry="1" /></g><path d="M0 0h6e3v4e3H0z" fill="#000" /><ellipse fill="#000" fill-opacity=".501961" cx="217" cy="80" rx="34" ry="121" /><g transform="translate(154.111277 7.439288) rotate(71.218935) scale(39.561162 36.088613)"><ellipse fill="#fff" fill-opacity=".501961" cx="0" cy="0" rx="1" ry="1" /></g><ellipse fill="#959595" fill-opacity=".501961" cx="108" cy="26" rx="20" ry="31" /><g transform="translate(167 80) rotate(378) scale(28 26)"><path d="M0 0h6e3v4e3H0z" fill="#989898" /></g><g transform="translate(233.244481 97.629503) rotate(286.541343) scale(106.885582 50.204609)"><ellipse fill="#000" fill-opacity=".501961" cx="0" cy="0" rx="1" ry="1" /></g></g></svg>