<svg xmlns="http://www.w3.org/2000/svg" viewBox="0 0 6000 4000"><filter id="b"><feGaussianBlur stdDeviation="12" /></filter><path d="M0 0h6e3v4e3H0z" fill="#3c3c3c" /><g filter="url(#b)" transform="scale(23.437500) translate(0.5 0.5)"><g transform="translate(60.514015 60.124661) rotate(115.909043) scale(38.518726 19.634984)"><ellipse fill="#fff" fill-opacity=".501961" cx="0" cy="0" rx="1" ry="1" /></g><path fill="#fff" fill-opacity=".501961" d="M39-14l79 76L57 78z" /><g transform="translate(108.772318 153.461944) rotate(12.633493) scale(111.250888 41.106205)"><ellipse fill="#000" fill-opacity=".501961" cx="0" cy="0" rx="1" ry="1" /></g><path fill="#fff" fill-opacity=".501961" d="M144 118l42-27 4 19z" /><path fill="#bbb" fill-opacity=".501961" d="M195 5 87 20 49-16z" /><g transform="translate(23.164512 51.863623) rotate(290.826572) scale(43.010024 21.445409)"><ellipse fill="#000" fill-opacity=".501961" cx="0" cy="0" rx="1" ry="1" /></g><path fill="#fff" fill-opacity=".501961" d="M271 124.537222 200.83645 101.706763 257.243819 141.806384 271 176.559028z" /><path fill="#efefef" fill-opacity=".501961" d="M20.502827 102.954627 9.353613 114.268127 25.506278 119.386407 71.124938 16.574942z" /></g></svg>