<svg xmlns="http://www.w3.org/2000/svg" viewBox="0 0 6000 4000"><filter id="b"><feGaussianBlur stdDeviation="12" /></filter><path d="M0 0h6e3v4e3H0z" fill="#292929" /><g filter="url(#b)" transform="scale(23.437500) translate(0.5 0.5)"><g transform="translate(92.491416 153.165922) rotate(149.593225) scale(126.916324 24.331639)"><ellipse fill="#e2e2e2" fill-opacity=".501961" cx="0" cy="0" rx="1" ry="1" /></g><path fill="#f5f5f5" fill-opacity=".501961" d="M177 37 154 75 103 25z" /><g transform="translate(94.972560 141.644861) rotate(75.353554) scale(35.550141 13.672453)"><ellipse fill="#fff" fill-opacity=".501961" cx="0" cy="0" rx="1" ry="1" /></g><g transform="translate(123.671770 148.727545) rotate(338.594950) scale(11.223465 21.866379)"><ellipse fill="#000" fill-opacity=".501961" cx="0" cy="0" rx="1" ry="1" /></g><g transform="translate(255.000000 25.666967) rotate(270.537415) scale(7.802502 29.011791)"><ellipse fill="#fff" fill-opacity=".501961" cx="0" cy="0" rx="1" ry="1" /></g><ellipse fill="#000" fill-opacity=".501961" cx="23" cy="48" rx="87" ry="87" /><path d="M0 0h6e3v4e3H0z" fill="#fff" /><g transform="translate(241.289984 111.357648) rotate(81.026751) scale(79.175600 39.815261)"><ellipse fill="#000" fill-opacity=".501961" cx="0" cy="0" rx="1" ry="1" /></g></g></svg>