<svg xmlns="http://www.w3.org/2000/svg" viewBox="0 0 6000 4000"><filter id="b"><feGaussianBlur stdDeviation="12" /></filter><path d="M0 0h6e3v4e3H0z" fill="#878787" /><g filter="url(#b)" transform="scale(23.437500) translate(0.5 0.5)"><g transform="translate(238.903420 54.291812) rotate(196.385649) scale(32.364924 93.753268)"><ellipse fill="#fff" fill-opacity=".501961" cx="0" cy="0" rx="1" ry="1" /></g><ellipse fill="#080808" fill-opacity=".501961" cx="132" cy="62" rx="33" ry="158" /><ellipse fill="#eaeaea" fill-opacity=".501961" cx="22" cy="46" rx="64" ry="64" /><g transform="translate(250.840302 146.987029) rotate(133.886632) scale(57.891685 25.486640)"><ellipse fill="#000" fill-opacity=".501961" cx="0" cy="0" rx="1" ry="1" /></g><path fill="#fff" fill-opacity=".501961" d="M74.158423 101.679411 148.393371 142.798894 133.218485 109.769436 46.320185 75.554421z" /><g transform="translate(57.591229 147.596548) rotate(-0.734529) scale(16.445921 55.955298)"><ellipse fill="#000" fill-opacity=".501961" cx="0" cy="0" rx="1" ry="1" /></g><path fill="#000" fill-opacity=".501961" d="M163 7l46 9-12 86z" /><path fill="#fff" fill-opacity=".501961" d="M190 168 271 63 218-16z" /></g></svg>