<svg xmlns="http://www.w3.org/2000/svg" viewBox="0 0 6000 4000"><filter id="b"><feGaussianBlur stdDeviation="12" /></filter><path d="M0 0h6e3v4e3H0z" fill="#2e2e2e" /><g filter="url(#b)" transform="scale(23.437500) translate(0.5 0.5)"><g transform="translate(208.954120 22.275859) rotate(363.348471) scale(76.652646 31.433818)"><ellipse fill="#fff" fill-opacity=".501961" cx="0" cy="0" rx="1" ry="1" /></g><g transform="translate(174.579130 14.182806) rotate(102.876735) scale(52.851908 15.754993)"><ellipse fill="#fff" fill-opacity=".501961" cx="0" cy="0" rx="1" ry="1" /></g><g transform="translate(207.328909 44.611693) rotate(284.924272) scale(29.311261 23.236192)"><ellipse fill="#000" fill-opacity=".501961" cx="0" cy="0" rx="1" ry="1" /></g><g transform="translate(251.431866 28.922128) rotate(149.207988) scale(25.233442 139.431590)"><ellipse fill="#fff" fill-opacity=".501961" cx="0" cy="0" rx="1" ry="1" /></g><g transform="translate(72.007539 121.575234) rotate(118.733854) scale(90.811097 255.000000)"><ellipse fill="#000" fill-opacity=".501961" cx="0" cy="0" rx="1" ry="1" /></g><path fill="#f8f8f8" fill-opacity=".501961" d="M235 104l36-20-71 13z" /><g transform="translate(116 89) rotate(5) scale(49 36)"><path d="M0 0h6e3v4e3H0z" fill="gray" /></g><g transform="translate(192 8) rotate(348) scale(99 21)"><path d="M0 0h6e3v4e3H0z" fill="#fff" /></g></g></svg>