<svg xmlns="http://www.w3.org/2000/svg" viewBox="0 0 6000 4000"><filter id="b"><feGaussianBlur stdDeviation="12" /></filter><path d="M0 0h6e3v4e3H0z" fill="#202020" /><g filter="url(#b)" transform="scale(23.437500) translate(0.5 0.5)"><g transform="translate(64.477347 0.000000) rotate(223.580228) scale(38.150592 91.046131)"><ellipse fill="#838383" fill-opacity=".501961" cx="0" cy="0" rx="1" ry="1" /></g><path d="M0 0h6e3v4e3H0z" fill="#fff" /><g transform="translate(106.241738 146.744913) rotate(262.502930) scale(63.884379 255.000000)"><ellipse fill="#000" fill-opacity=".501961" cx="0" cy="0" rx="1" ry="1" /></g><g transform="translate(140 95) rotate(170) scale(65 13)"><path d="M0 0h6e3v4e3H0z" fill="#838383" /></g><path fill="#b9b9b9" fill-opacity=".501961" d="M91 52l27 40 29-21z" /><g transform="translate(101.852545 15.214371) rotate(328.834092) scale(23.843454 58.941337)"><ellipse fill="#4b4b4b" fill-opacity=".501961" cx="0" cy="0" rx="1" ry="1" /></g><g transform="translate(170 8) rotate(80) scale(9 33)"><path d="M0 0h6e3v4e3H0z" fill="#919191" /></g><path fill="#000" fill-opacity=".501961" d="M-1.102659 185 100.12871 49.81977 85.367913 32.843491 65.273934 42.366429z" /></g></svg>