<svg xmlns="http://www.w3.org/2000/svg" viewBox="0 0 6000 4000"><filter id="b"><feGaussianBlur stdDeviation="12" /></filter><path d="M0 0h6e3v4e3H0z" fill="#292929" /><g filter="url(#b)" transform="scale(23.437500) translate(0.5 0.5)"><g transform="translate(27.482740 150.943877) rotate(105.274258) scale(68.776192 37.649919)"><ellipse fill="#cbcbcb" fill-opacity=".501961" cx="0" cy="0" rx="1" ry="1" /></g><g transform="translate(219.256681 143.555480) rotate(11.184041) scale(46.866795 11.301165)"><ellipse fill="#c7c7c7" fill-opacity=".501961" cx="0" cy="0" rx="1" ry="1" /></g><g transform="translate(68.870859 23.346455) rotate(267.992623) scale(38.638592 238.099017)"><ellipse fill="#000" fill-opacity=".501961" cx="0" cy="0" rx="1" ry="1" /></g><path d="M0 0h6e3v4e3H0z" fill="#c5c5c5" /><ellipse fill="#000" fill-opacity=".501961" cx="135" cy="103" rx="58" ry="30" /><path d="M0 0h6e3v4e3H0z" fill="#555" /><path fill="#9d9d9d" fill-opacity=".501961" d="M163.89024 168.483183 217.082849 132.21374 199.882377 125.639148 164.277877 136.354259z" /><g transform="translate(131 76) rotate(55) scale(27 14)"><path d="M0 0h6e3v4e3H0z" fill="#9b9b9b" /></g></g></svg>