<svg xmlns="http://www.w3.org/2000/svg" viewBox="0 0 6000 4000"><filter id="b"><feGaussianBlur stdDeviation="12" /></filter><path d="M0 0h6e3v4e3H0z" fill="#272727" /><g filter="url(#b)" transform="scale(23.437500) translate(0.5 0.5)"><g transform="translate(149.055709 141.293481) rotate(191.959245) scale(52.301656 20.380510)"><ellipse fill="#fff" fill-opacity=".501961" cx="0" cy="0" rx="1" ry="1" /></g><g transform="translate(216 0) rotate(266) scale(28 63)"><path d="M0 0h6e3v4e3H0z" fill="#fff" /></g><g transform="translate(53 20) rotate(84) scale(19 37)"><path d="M0 0h6e3v4e3H0z" fill="#fff" /></g><path d="M0 0h6e3v4e3H0z" fill="#fff" /><g transform="translate(196 84) rotate(86) scale(33 39)"><path d="M0 0h6e3v4e3H0z" fill="#adadad" /></g><ellipse fill="#000" fill-opacity=".501961" cx="37" cy="120" rx="67" ry="67" /><g transform="translate(240.329651 110.593887) rotate(17.054563) scale(41.006217 105.359607)"><ellipse fill="#000" fill-opacity=".501961" cx="0" cy="0" rx="1" ry="1" /></g><g transform="translate(125.626071 38.484698) rotate(264.814892) scale(16.603853 145.090298)"><ellipse fill="#000" fill-opacity=".501961" cx="0" cy="0" rx="1" ry="1" /></g></g></svg>