<svg xmlns="http://www.w3.org/2000/svg" viewBox="0 0 6000 4000"><filter id="b"><feGaussianBlur stdDeviation="12" /></filter><path d="M0 0h6e3v4e3H0z" fill="#323232" /><g filter="url(#b)" transform="scale(23.437500) translate(0.5 0.5)"><g transform="translate(130.695617 24.557793) rotate(300.520721) scale(48.211637 35.550180)"><ellipse fill="#fff" fill-opacity=".501961" cx="0" cy="0" rx="1" ry="1" /></g><g transform="translate(134.771878 109.008137) rotate(5.012431) scale(12.040391 25.786818)"><ellipse fill="#fff" fill-opacity=".501961" cx="0" cy="0" rx="1" ry="1" /></g><g transform="translate(131.796779 25.059515) rotate(9.881108) scale(23.517568 35.228516)"><ellipse fill="#fff" fill-opacity=".501961" cx="0" cy="0" rx="1" ry="1" /></g><ellipse fill="#000" fill-opacity=".501961" cx="232" cy="86" rx="86" ry="86" /><g transform="translate(58.868014 11.811306) rotate(73.908360) scale(31.768353 22.294241)"><ellipse fill="#cbcbcb" fill-opacity=".501961" cx="0" cy="0" rx="1" ry="1" /></g><path fill="#fff" fill-opacity=".501961" d="M74.110252 85.533512 95.554666 107.384752 116.556548-.386545 109.3405 69.083212z" /><ellipse fill="#000" fill-opacity=".501961" cx="16" cy="60" rx="26" ry="62" /><g transform="translate(217.209171 112.767651) rotate(297.984747) scale(202.292278 56.549641)"><ellipse fill="#000" fill-opacity=".501961" cx="0" cy="0" rx="1" ry="1" /></g></g></svg>