<svg xmlns="http://www.w3.org/2000/svg" viewBox="0 0 6000 4000"><filter id="b"><feGaussianBlur stdDeviation="12" /></filter><path d="M0 0h6e3v4e3H0z" fill="#3e2a1e" /><g filter="url(#b)" transform="scale(23.437500) translate(0.5 0.5)"><g transform="translate(171.626743 99.023153) rotate(208.183726) scale(35.283103 43.505051)"><ellipse fill="#ffe8c7" fill-opacity=".501961" cx="0" cy="0" rx="1" ry="1" /></g><g transform="translate(0.000000 100.084181) rotate(158.502227) scale(75.351731 238.802081)"><ellipse fill="#000" fill-opacity=".501961" cx="0" cy="0" rx="1" ry="1" /></g><g transform="translate(158.363323 122.204009) rotate(291.051530) scale(53.633236 23.439180)"><ellipse fill="#daa78b" fill-opacity=".501961" cx="0" cy="0" rx="1" ry="1" /></g><g transform="translate(167.112572 153.644095) rotate(133.269630) scale(84.082661 24.795631)"><ellipse fill="#68442d" fill-opacity=".501961" cx="0" cy="0" rx="1" ry="1" /></g><g transform="translate(227.513234 26.310073) rotate(301.893538) scale(50.913819 110.699099)"><ellipse fill="#0d0300" fill-opacity=".501961" cx="0" cy="0" rx="1" ry="1" /></g><g transform="translate(159.573432 48.467431) rotate(26.637471) scale(24.075249 10.349614)"><ellipse fill="#fc7a64" fill-opacity=".501961" cx="0" cy="0" rx="1" ry="1" /></g><path fill="#fdd1bb" fill-opacity=".501961" d="M125.859551 138.227075 144.780394 83.297828 216.709449 65.899823 202.037271 87.449209z" /><path fill="#b69377" fill-opacity=".501961" d="M116 131 91 156l25-71z" /></g></svg>