<svg xmlns="http://www.w3.org/2000/svg" viewBox="0 0 6000 4000"><filter id="b"><feGaussianBlur stdDeviation="12" /></filter><path d="M0 0h6e3v4e3H0z" fill="#713b0c" /><g filter="url(#b)" transform="scale(23.437500) translate(0.5 0.5)"><g transform="translate(218.365436 50.769432) rotate(310.084642) scale(86.445178 21.807956)"><ellipse fill="#ffa735" fill-opacity=".501961" cx="0" cy="0" rx="1" ry="1" /></g><g transform="translate(238.771590 27.843975) rotate(234.820177) scale(12.277878 13.396555)"><ellipse fill="#fff" fill-opacity=".501961" cx="0" cy="0" rx="1" ry="1" /></g><ellipse fill="#000" fill-opacity=".501961" cx="60" cy="163" rx="229" ry="12" /><path fill="#df6c00" fill-opacity=".501961" d="M82 128 271 89 146 54z" /><path d="M0 0h6e3v4e3H0z" fill="#ffcc5f" /><ellipse fill="#000" fill-opacity=".501961" cx="58" cy="10" rx="19" ry="62" /><path fill="#ff9f1d" fill-opacity=".501961" d="M37.964079-7.80958 16.705917 53.329323 30.083148 102.80874 39.764761 104.477947z" /><path d="M0 0h6e3v4e3H0z" fill="#1e0300" /></g></svg>