<svg xmlns="http://www.w3.org/2000/svg" viewBox="0 0 6000 4000"><filter id="b"><feGaussianBlur stdDeviation="12" /></filter><path d="M0 0h6e3v4e3H0z" fill="#322315" /><g filter="url(#b)" transform="scale(23.437500) translate(0.5 0.5)"><g transform="translate(108.842177 98.966366) rotate(168.684977) scale(25.439546 70.327806)"><ellipse fill="#e8ae7c" fill-opacity=".501961" cx="0" cy="0" rx="1" ry="1" /></g><path d="M0 0h6e3v4e3H0z" fill="#fcaa64" /><g transform="translate(13.718210 36.783759) rotate(178.796101) scale(24.124029 205.752730)"><ellipse fill="#000" fill-opacity=".501961" cx="0" cy="0" rx="1" ry="1" /></g><g transform="translate(234.446012 69.478421) rotate(343.990446) scale(39.666311 197.379545)"><ellipse fill="#000" fill-opacity=".501961" cx="0" cy="0" rx="1" ry="1" /></g><path fill="#ffeaba" fill-opacity=".501961" d="M98.191519 88.339688l33.352858 64.037555L136.457424 116.173456 110.134804 84.56155z" /><path d="M0 0h6e3v4e3H0z" fill="#dcb462" /><ellipse fill="#000" fill-opacity=".501961" cx="108" cy="15" rx="254" ry="18" /><g transform="translate(55.774403 78.094472) rotate(328.833384) scale(20.900546 10.303345)"><ellipse fill="#cc9a78" fill-opacity=".501961" cx="0" cy="0" rx="1" ry="1" /></g></g></svg>