<svg xmlns="http://www.w3.org/2000/svg" viewBox="0 0 6000 4000"><filter id="b"><feGaussianBlur stdDeviation="12" /></filter><path d="M0 0h6e3v4e3H0z" fill="#423c2d" /><g filter="url(#b)" transform="scale(23.437500) translate(0.5 0.5)"><g transform="translate(164.364108 32.455104) rotate(167.550194) scale(114.285827 26.001346)"><ellipse fill="#9e8f7d" fill-opacity=".501961" cx="0" cy="0" rx="1" ry="1" /></g><g transform="translate(20.111514 62.945900) rotate(290.297148) scale(195.297581 41.694081)"><ellipse fill="#000" fill-opacity=".501961" cx="0" cy="0" rx="1" ry="1" /></g><g transform="translate(83.677636 142.632398) rotate(43.855407) scale(57.882806 23.341803)"><ellipse fill="#b18e5f" fill-opacity=".501961" cx="0" cy="0" rx="1" ry="1" /></g><g transform="translate(94.009158 45.143398) rotate(135.308723) scale(15.305616 27.117284)"><ellipse fill="#edb271" fill-opacity=".501961" cx="0" cy="0" rx="1" ry="1" /></g><path fill="#000" fill-opacity=".501961" d="M56 106l65-50 9 56z" /><g transform="translate(241.876804 153.337479) rotate(248.481985) scale(28.604140 54.488388)"><ellipse fill="#000501" fill-opacity=".501961" cx="0" cy="0" rx="1" ry="1" /></g><g transform="translate(230.452156 19.864064) rotate(0.252802) scale(60.540832 30.123989)"><ellipse fill="#6a7c8a" fill-opacity=".501961" cx="0" cy="0" rx="1" ry="1" /></g><g transform="translate(115.621545 0.000000) rotate(356.934297) scale(70.607634 16.179066)"><ellipse fill="#020000" fill-opacity=".501961" cx="0" cy="0" rx="1" ry="1" /></g></g></svg>