<svg xmlns="http://www.w3.org/2000/svg" viewBox="0 0 6000 4000"><filter id="b"><feGaussianBlur stdDeviation="12" /></filter><path d="M0 0h6e3v4e3H0z" fill="#483c27" /><g filter="url(#b)" transform="scale(23.437500) translate(0.5 0.5)"><ellipse fill="#9c7d55" fill-opacity=".501961" cx="86" cy="105" rx="76" ry="27" /><g transform="translate(248 168) rotate(149) scale(43 18)"><path d="M0 0h6e3v4e3H0z" fill="#fff" /></g><g transform="translate(176.338401 156.580025) rotate(196.270468) scale(28.428098 75.105509)"><ellipse fill="#000" fill-opacity=".501961" cx="0" cy="0" rx="1" ry="1" /></g><path fill="#ffe5a3" fill-opacity=".501961" d="M238 88l33 1-25-44z" /><g transform="translate(213.614609 64.191980) rotate(22.771535) scale(11.367527 20.824733)"><ellipse fill="#d3b6a6" fill-opacity=".501961" cx="0" cy="0" rx="1" ry="1" /></g><path fill="#ed9d63" fill-opacity=".501961" d="M34 162 74 99 3 158z" /><ellipse fill="#fff5bf" fill-opacity=".501961" cx="73" cy="149" rx="10" ry="12" /><path fill="#ddb08f" fill-opacity=".501961" d="M120 78l35-12-37 61z" /></g></svg>