<svg xmlns="http://www.w3.org/2000/svg" viewBox="0 0 6000 4000"><filter id="b"><feGaussianBlur stdDeviation="12" /></filter><path d="M0 0h6e3v4e3H0z" fill="#595959" /><g filter="url(#b)" transform="scale(23.437500) translate(0.5 0.5)"><ellipse fill="#fff" fill-opacity=".501961" cx="214" cy="153" rx="41" ry="53" /><g transform="translate(54.097693 129.124845) rotate(289.723066) scale(57.062936 123.927116)"><ellipse fill="#000" fill-opacity=".501961" cx="0" cy="0" rx="1" ry="1" /></g><g transform="translate(46.027079 27.778298) rotate(183.053927) scale(108.668661 35.335491)"><ellipse fill="#b6b6b6" fill-opacity=".501961" cx="0" cy="0" rx="1" ry="1" /></g><path fill="#fff" fill-opacity=".501961" d="M222 17 172 90l38-3z" /><g transform="translate(246 36) rotate(374) scale(54 130)"><path d="M0 0h6e3v4e3H0z" fill="#040404" /></g><g transform="translate(123.285314 76.173096) rotate(133.743069) scale(34.076879 44.090623)"><ellipse fill="#959595" fill-opacity=".501961" cx="0" cy="0" rx="1" ry="1" /></g><g transform="translate(142.555826 143.767694) rotate(307.341726) scale(36.013520 21.985688)"><ellipse fill="#000" fill-opacity=".501961" cx="0" cy="0" rx="1" ry="1" /></g><path fill="#f8f8f8" fill-opacity=".501961" d="M240.657451 99.672928 221.311699 92.948073 245.638494 185H265.808694z" /></g></svg>