<svg xmlns="http://www.w3.org/2000/svg" viewBox="0 0 6000 4000"><filter id="b"><feGaussianBlur stdDeviation="12" /></filter><path d="M0 0h6e3v4e3H0z" fill="#3d3d3d" /><g filter="url(#b)" transform="scale(23.437500) translate(0.5 0.5)"><g transform="translate(70.669749 40.270091) rotate(114.291223) scale(82.754211 53.179620)"><ellipse fill="#a4a4a4" fill-opacity=".501961" cx="0" cy="0" rx="1" ry="1" /></g><path fill="#fff" fill-opacity=".501961" d="M177.260073-3.793892 238.969579-16 173.748514 47.51738 168.276793-13.433113z" /><ellipse fill="#060606" fill-opacity=".501961" cx="209" cy="129" rx="108" ry="109" /><ellipse fill="#000" fill-opacity=".501961" cx="55" cy="142" rx="82" ry="31" /><path d="M0 0h6e3v4e3H0z" fill="#fff" /><g transform="translate(68.409197 52.262451) rotate(161.649653) scale(21.864379 18.215993)"><ellipse fill="#000" fill-opacity=".501961" cx="0" cy="0" rx="1" ry="1" /></g><ellipse fill="#d4d4d4" fill-opacity=".501961" cx="31" cy="84" rx="71" ry="10" /><path fill="#ededed" fill-opacity=".501961" d="M101.119332 112.293191 104.551253 108.78949 100.192157 85.147474 69.680501 110.017459z" /></g></svg>